<svg width="200" height="70" viewBox="0 0 200 70" fill="none" xmlns="http://www.w3.org/2000/svg">
<path fill-rule="evenodd" clip-rule="evenodd" d="M28.3185 69.6135L25.392 67.5709C19.9758 63.8079 14.3737 59.8791 10.0073 55.7755C3.84776 49.9516 0.977051 44.5322 0.977051 38.7174V10.1948L28.8479 0.0739746L56.7191 10.1948V15.885L54.8609 15.5742V11.483L28.8479 2.04295L2.83512 11.483V38.7174C2.83512 44.0079 5.52003 49.0039 11.28 54.4599C15.5536 58.4991 21.0906 62.3911 26.4511 66.0712L28.8479 67.7367L31.2451 66.0529C36.5963 62.3359 42.1333 58.4805 46.4068 54.4414C46.4271 54.4223 46.4471 54.4032 46.4671 54.3844C46.4856 54.3666 46.5041 54.3491 46.5226 54.3315L49.2474 54.2473C48.7534 54.7569 48.2339 55.2693 47.6888 55.7847C43.3224 59.8791 37.7204 63.8079 32.3133 67.5803L29.3869 69.6227L28.8479 70L28.3185 69.6135Z" fill="#2D2D2D"/>
<path d="M54.8609 38.7174C54.8609 42.2989 53.6218 45.753 51.0186 49.3106C49.8154 50.9545 48.3209 52.6207 46.5226 54.3315L49.2474 54.2473C49.8793 53.5951 50.4694 52.9475 51.0186 52.3029C54.8897 47.7577 56.7191 43.3666 56.7191 38.7174L56.7191 15.885L54.8609 15.5742L54.8609 38.7174Z" fill="#2D2D2D"/>
<path d="M54.8609 15.5742V11.483L28.8479 2.04295L2.83512 11.483V38.7174C2.83512 44.0079 5.52003 49.0039 11.28 54.4599C15.5536 58.4991 21.0906 62.3911 26.4511 66.0712L28.8479 67.7367L31.2451 66.0529C36.5963 62.3359 42.1333 58.4805 46.4068 54.4414L46.4671 54.3844C46.4856 54.3666 46.5041 54.3491 46.5226 54.3315C48.3209 52.6207 49.8154 50.9545 51.0186 49.3106C53.6218 45.753 54.8609 42.2989 54.8609 38.7174L54.8609 15.5742Z" fill="#2D2D2D"/>
<path fill-rule="evenodd" clip-rule="evenodd" d="M28.3185 69.5396L25.392 67.497C19.9758 63.7339 14.3737 59.8051 10.0073 55.7016C3.84776 49.8776 0.977051 44.4582 0.977051 38.6434V10.1209L28.8479 0L56.7191 10.1209V15.8111L54.8609 15.5003V11.409L28.8479 1.96897L2.83512 11.409V38.6434C2.83512 43.9339 5.52003 48.9299 11.28 54.3859C15.5536 58.4251 21.0906 62.3171 26.4511 65.9972L28.8479 67.6627L31.2451 65.9789C36.5963 62.2619 42.1333 58.4066 46.4068 54.3674C46.4271 54.3483 46.4471 54.3292 46.4671 54.3104C46.4856 54.2926 46.5041 54.2751 46.5226 54.2575L49.2474 54.1734C48.7534 54.6829 48.2339 55.1953 47.6888 55.7107C43.3224 59.8051 37.7204 63.7339 32.3133 67.5064L29.3869 69.5487L28.8479 69.9261L28.3185 69.5396Z" fill="#BADC34"/>
<path d="M54.8611 38.6434C54.8611 42.2249 53.622 45.679 51.0187 49.2366C49.8155 50.8805 48.3211 52.5467 46.5227 54.2575L49.2476 54.1734C49.8795 53.5211 50.4695 52.8735 51.0187 52.2289C54.8898 47.6837 56.7192 43.2926 56.7192 38.6434V15.811L54.8611 15.5002V38.6434Z" fill="#BADC34"/>
<path fill-rule="evenodd" clip-rule="evenodd" d="M44.6087 48.3843H50.1658C50.8384 48.3843 50.9542 48.513 50.9552 49.1306C50.9552 49.1306 50.9455 51.083 50.9455 52.0668L49.9006 53.1772H39.0409C38.4406 53.1772 38.3479 53.1212 38.3472 52.5707V49.1306C38.3472 48.6152 38.4852 48.3853 39.0409 48.3843C40.9104 48.381 42.7408 48.381 44.6087 48.3843ZM42.1348 51.8867C41.9883 51.7809 41.8253 51.6627 41.6962 51.5366L41.6957 51.5363C41.5104 51.3543 41.4026 51.1633 41.4026 50.9418V50.0244L42.3137 49.6801L43.2356 50.0244V50.9418C43.2356 51.1636 43.1278 51.3545 42.9423 51.5366L42.942 51.5371C42.8129 51.6627 42.6499 51.7807 42.5037 51.8867H42.5034L42.3137 52.0192L42.2136 51.9437L42.1348 51.8867ZM43.9876 51.5366C44.117 51.6627 44.2799 51.7809 44.4265 51.8867L44.5053 51.9437L44.6038 52.0192L44.795 51.8867C44.9413 51.7807 45.1046 51.6627 45.2334 51.5371L45.2339 51.5366C45.4192 51.3545 45.5273 51.1636 45.5273 50.9418V50.0244L44.6038 49.6801L43.694 50.0244V50.9418C43.694 51.1633 43.8021 51.3543 43.9874 51.5363L43.9876 51.5366ZM46.7181 51.8867C46.5713 51.7809 46.4084 51.6627 46.2793 51.5366L46.279 51.5363C46.0934 51.3543 45.9857 51.1633 45.9857 50.9418V50.0244L46.8942 49.6801L47.8189 50.0244V50.9418C47.8189 51.1636 47.7109 51.3545 47.5253 51.5366L47.5251 51.5371C47.396 51.6627 47.233 51.7807 47.0867 51.8867L47.0066 51.9447L46.9001 52.0192L46.7967 51.9437L46.7181 51.8867Z" fill="#BADC34"/>
<path fill-rule="evenodd" clip-rule="evenodd" d="M46.5812 51.1705C46.6551 51.2429 46.7496 51.3126 46.8412 51.379L46.8419 51.3795L46.8915 51.4156L46.9005 51.4227L46.9094 51.4159L46.96 51.379C47.0514 51.3124 47.1458 51.2429 47.2197 51.1705L47.2202 51.17C47.3242 51.067 47.3727 50.9711 47.3727 50.8679V50.3624L46.9005 50.1829L46.4282 50.3624V50.8679C46.4282 50.9709 46.4767 51.0667 46.5807 51.17L46.5812 51.1705ZM46.6033 51.1476C46.6723 51.2157 46.7606 51.2813 46.8471 51.3439L46.8599 51.3528L46.9005 51.3825L46.941 51.3525L46.9536 51.3436C47.0401 51.2808 47.1284 51.2155 47.1971 51.1476L47.1974 51.1473L47.1979 51.1468C47.2957 51.05 47.3411 50.9615 47.3411 50.8679V50.3853L46.9005 50.2177L46.4598 50.3853V50.8679C46.4598 50.9617 46.5052 51.0502 46.6027 51.1471L46.6033 51.1476Z" fill="#BADC34"/>
<path fill-rule="evenodd" clip-rule="evenodd" d="M42.2606 51.379C42.169 51.3126 42.0745 51.2429 42.0006 51.1705L42.0001 51.17C41.8962 51.0667 41.8477 50.9709 41.8477 50.8679V50.3624L42.3199 50.1829L42.7921 50.3624V50.8679C42.7921 50.9711 42.7436 51.067 42.6397 51.17L42.6392 51.1705C42.5653 51.2429 42.4708 51.3124 42.3794 51.379L42.3289 51.4159L42.3199 51.4227L42.3109 51.4156L42.2614 51.3795L42.2606 51.379ZM42.2665 51.3439C42.18 51.2813 42.0917 51.2157 42.0227 51.1476L42.0222 51.1471C41.9247 51.0502 41.879 50.9617 41.879 50.8679V50.3853L42.3199 50.2177L42.7606 50.3853V50.8679C42.7606 50.9615 42.7151 51.05 42.6174 51.1468L42.6168 51.1473L42.6166 51.1476C42.5475 51.2155 42.4593 51.2808 42.3728 51.3436L42.3604 51.3525L42.3199 51.3825L42.2793 51.3528L42.2665 51.3439Z" fill="#BADC34"/>
<path fill-rule="evenodd" clip-rule="evenodd" d="M44.2904 51.1705C44.3643 51.2429 44.459 51.3126 44.5507 51.379L44.5512 51.3795L44.601 51.4156L44.6097 51.4227L44.6189 51.4159L44.6695 51.379C44.7609 51.3124 44.8553 51.2429 44.929 51.1705L44.9297 51.17C45.0337 51.067 45.0819 50.9711 45.0819 50.8679V50.3624L44.6097 50.1829L44.1375 50.3624V50.8679C44.1375 50.9709 44.186 51.0667 44.2899 51.17L44.2904 51.1705ZM44.3127 51.1476C44.3815 51.2157 44.4698 51.2813 44.5566 51.3439L44.5691 51.3528L44.6097 51.3825L44.6505 51.3525L44.6628 51.3436C44.7493 51.2808 44.8376 51.2155 44.9066 51.1476V51.1473L44.9072 51.1468C45.0049 51.05 45.0506 50.9615 45.0506 50.8679V50.3853L44.6097 50.2177L44.169 50.3853V50.8679C44.169 50.9617 44.2144 51.0502 44.3122 51.1471L44.3127 51.1476Z" fill="#BADC34"/>
<path fill-rule="evenodd" clip-rule="evenodd" d="M46.8087 51.7778C46.6604 51.6713 46.509 51.5591 46.3907 51.4429L46.3899 51.4419C46.2226 51.2766 46.1445 51.1256 46.1445 50.9654V50.141L46.9001 49.8555L47.6557 50.141V50.9654C47.6557 51.1251 47.5777 51.2761 47.4101 51.4414L47.4091 51.4424L47.4088 51.4427C47.2907 51.5589 47.1393 51.67 46.991 51.7773L46.9697 51.7928L46.9001 51.8437L46.8306 51.7933L46.8087 51.7778ZM46.5031 51.3257C46.6109 51.4317 46.7518 51.5368 46.8996 51.6428C47.0485 51.5352 47.1888 51.4312 47.2969 51.3249C47.4481 51.1759 47.4938 51.0641 47.4938 50.9654V50.2539L46.9001 50.0294L46.3065 50.2539V50.9654C46.3065 51.0648 46.3522 51.1767 46.5031 51.3257Z" fill="#BADC34"/>
<path fill-rule="evenodd" clip-rule="evenodd" d="M44.1006 51.4429C44.2187 51.5591 44.3701 51.6713 44.5187 51.7778L44.5403 51.7933L44.6101 51.8437L44.6796 51.7928L44.7009 51.7773C44.849 51.67 45.0005 51.5589 45.1188 51.4427L45.119 51.4424L45.1198 51.4414C45.2874 51.2761 45.3654 51.1251 45.3654 50.9654V50.141L44.6101 49.8555L43.8542 50.141V50.9654C43.8542 51.1256 43.9323 51.2766 44.0996 51.4419L44.1006 51.4429ZM44.2131 51.3257C44.3206 51.4317 44.4617 51.5368 44.6096 51.6428C44.7582 51.5352 44.8988 51.4312 45.0066 51.3249C45.1578 51.1759 45.2035 51.0641 45.2035 50.9654V50.2539L44.6101 50.0294L44.0162 50.2539V50.9654C44.0162 51.0648 44.0621 51.1767 44.2131 51.3257Z" fill="#BADC34"/>
<path fill-rule="evenodd" clip-rule="evenodd" d="M42.2287 51.7778C42.0801 51.6713 41.9289 51.5591 41.8106 51.4429L41.8098 51.4419C41.6425 51.2766 41.5645 51.1256 41.5645 50.9654V50.141L42.32 49.8555L43.0756 50.141V50.9654C43.0756 51.1251 42.9976 51.2761 42.83 51.4414L42.829 51.4424L42.8287 51.4427C42.7107 51.5589 42.5592 51.67 42.4109 51.7773L42.3896 51.7928L42.32 51.8437L42.2505 51.7933L42.2287 51.7778ZM41.923 51.3257C42.0308 51.4317 42.1717 51.5368 42.3195 51.6428C42.4684 51.5352 42.6088 51.4312 42.7168 51.3252C42.868 51.1759 42.9137 51.0641 42.9137 50.9654V50.2539L42.32 50.0294L41.7261 50.2539V50.9654C41.7261 51.0648 41.7721 51.1767 41.923 51.3257Z" fill="#BADC34"/>
<path fill-rule="evenodd" clip-rule="evenodd" d="M25.0348 33.7144C24.9091 33.7218 24.7838 33.6969 24.6727 33.6435C24.5616 33.5898 24.4691 33.5092 24.4055 33.4108C23.4086 32.1117 23.015 30.6835 23.243 29.1138C23.5076 27.2909 24.3977 25.7248 25.5975 24.2991C29.4597 25.8118 33.5254 25.8695 37.5846 25.927L37.7211 25.929C39.7487 25.9559 41.7788 25.8217 43.8079 25.8031C45.1386 25.7909 46.4714 25.8486 47.8029 25.8906C50.7793 25.9831 53.7529 25.9806 56.7183 25.7332V33.7111C46.157 33.7073 35.596 33.7083 25.0348 33.7144ZM43.6444 26.5759C43.5002 28.4705 43.4183 30.4007 43.7291 32.3281C43.7668 32.4799 43.8182 32.6284 43.8831 32.7726L43.936 32.7428C43.9249 32.5102 43.9139 32.2778 43.9031 32.0454C43.8895 31.7578 43.8759 31.4702 43.8623 31.1829C43.8443 30.805 43.8266 30.4271 43.8087 30.0495C43.8084 30.0419 43.8079 30.0343 43.8074 30.0267C43.8071 30.0218 43.8069 30.017 43.8069 30.0122C43.8066 30.0073 43.8064 30.0025 43.8064 29.9977C43.7519 28.8539 43.6978 27.7127 43.6444 26.5759ZM45.8786 26.6964C45.7823 28.6589 45.6776 30.7122 45.5757 32.7522C45.9961 32.3457 46.1547 29.0947 45.8786 26.6964Z" fill="#BADC34"/>
<path fill-rule="evenodd" clip-rule="evenodd" d="M16.8775 47.6807C16.8052 47.5462 16.7976 47.3776 16.7319 47.1094C17.7298 47.5401 18.5773 47.9437 19.4563 48.2785C20.8745 48.8204 22.3111 49.3211 23.7445 49.8296C23.9707 49.9026 24.1781 50.0168 24.3548 50.1658C24.5313 50.3148 24.6731 50.4948 24.7719 50.6957C25.0105 51.176 24.8185 51.606 24.2402 51.6863C23.725 51.757 23.2012 51.7548 22.6868 51.6795C21.5072 51.5012 20.4323 51.0652 19.4145 50.4938C18.2159 49.82 17.4749 48.8054 16.8775 47.6807Z" fill="#BADC34"/>
<path fill-rule="evenodd" clip-rule="evenodd" d="M14.2414 38.5964C14.8245 40.9943 16.7622 42.3541 18.8073 43.6248L18.8187 43.6316L18.8194 43.6321C19.212 43.876 19.6068 44.1214 20.023 44.3238C22.1062 45.3566 23.8394 46.7765 25.4452 48.3581C26.404 49.3038 27.433 50.1889 28.4196 51.1109C29.9664 52.5545 31.8497 53.2082 34.0387 53.3671C38.3972 53.6776 42.7598 53.73 47.1229 53.6801L46.5205 54.2627C46.0755 54.2746 45.6304 54.2856 45.1854 54.2952C43.7204 54.3268 42.2526 54.2078 40.7859 54.1528C35.6967 53.971 30.6075 53.8248 25.5136 54.0226C23.7872 54.0888 22.0577 53.9919 20.4065 53.4887C19.611 53.2527 18.8547 52.9176 18.1587 52.4924C16.9477 51.7453 16.3589 50.6339 16.4207 49.2837C16.4466 48.7205 16.3004 48.1621 15.9984 47.6713C15.0576 46.0549 14.6866 44.2826 14.4631 42.4879C14.3032 41.2048 14.2386 39.9116 14.1311 38.6234L14.2414 38.5964ZM16.7318 47.1096C16.7974 47.3779 16.805 47.5465 16.8773 47.681C17.4747 48.8057 18.2157 49.8202 19.4143 50.494C20.4322 51.0654 21.507 51.5015 22.6866 51.6797C23.201 51.755 23.7249 51.7573 24.24 51.6866C24.8183 51.6063 25.0103 51.1763 24.7717 50.6959C24.673 50.4951 24.5311 50.315 24.3546 50.166C24.1779 50.017 23.9705 49.9029 23.7444 49.8299C22.3109 49.3213 20.8743 48.8207 19.4562 48.2788C18.5772 47.9439 17.7297 47.5404 16.7318 47.1096Z" fill="#BADC34"/>
<path d="M51.0713 47.376C47.1787 47.722 43.2599 47.751 39.3613 47.4634C36.1727 47.2191 33.0022 46.8844 29.9168 46.0667C29.2597 45.8963 28.6584 45.5843 28.1636 45.1569C25.5136 42.8872 23.8846 40.1344 23.3382 36.8631C23.139 35.6673 23.8047 34.8421 25.1345 34.7015C26.4433 34.5637 27.7565 34.4005 29.0701 34.3811C34.1744 34.3044 39.552 34.3237 44.6573 34.2799C48.6778 34.2799 52.6983 34.2461 56.7182 34.2843V35.1841C52.7016 35.1424 48.6822 35.174 44.6632 35.174C40.3774 35.174 36.09 35.1435 31.8045 35.1958C29.8847 35.2185 27.9634 35.3784 26.0516 35.5529C24.6737 35.6795 24.1435 36.4258 24.3975 37.6534C24.82 39.6848 25.8015 41.4676 27.2504 43.0555C28.5273 44.4525 30.031 45.4127 32.0855 45.7252C34.6738 46.1137 37.2619 46.4313 39.879 46.5984C44.952 46.9188 50.0465 46.7324 55.0713 46.0433L54.6037 46.9994C53.4323 47.1578 52.2532 47.2753 51.0713 47.376Z" fill="#BADC34"/>
<path d="M16.3125 31.2703C17.393 32.0097 18.4437 32.7273 19.4935 33.4466C20.3517 34.034 21.2157 34.6165 22.0623 35.2179C22.1972 35.313 22.3347 35.492 22.3414 35.6362C22.4531 38.2908 23.4153 40.6892 24.9625 42.9164C25.0096 42.9833 25.0587 43.0524 25.1684 43.22C24.3786 43.1152 23.6839 43.0392 22.9958 42.9291C21.1081 42.6263 19.252 42.2047 17.5777 41.3361C16.8342 40.9422 16.1471 40.4667 15.5322 39.92C14.6133 39.115 14.3602 38.0124 14.2226 36.9106C13.9542 34.7551 14.795 32.9289 16.3125 31.2703ZM23.8397 41.8929C22.7528 40.1453 22.0855 38.2092 21.8817 36.2114C21.8449 35.862 21.5429 35.4493 21.2244 35.2327C19.8831 34.3178 18.4938 33.4581 17.1062 32.6006C16.9581 32.5134 16.6251 32.4872 16.5135 32.5734C16.4019 32.6599 16.3557 32.9526 16.4173 33.1105C16.6573 33.7533 17.1099 34.3132 17.7134 34.7142C20.0562 36.2691 21.596 38.345 22.5041 40.8191C22.7177 41.3971 23.1671 41.659 23.8397 41.8929Z" fill="#BADC34"/>
<path d="M33.6783 15.4619C31.5771 16.5157 30.3744 18.2617 29.2708 20.0749C28.8619 20.7472 28.5134 21.4508 28.1631 22.151C27.7465 22.9847 27.9054 23.2038 28.933 23.2178C31.372 23.2518 33.8123 23.3051 36.2512 23.2964C43.0741 23.2859 49.8964 23.2659 56.7185 23.2366L56.718 23.693C47.3376 23.522 38.0126 23.5576 28.6877 23.7703L28.6194 23.8759C28.8925 24.0348 29.1435 24.2645 29.442 24.3388L29.5049 24.3543L29.5054 24.3545C30.4314 24.585 31.364 24.8173 32.3101 24.9394C35.3047 25.3253 38.3219 25.3243 41.3386 25.3086H42.725C38.9148 25.5751 33.9691 25.464 30.6541 25.0223C29.3776 24.8477 28.142 24.565 26.9884 23.9913C26.489 23.7434 25.8761 23.6866 25.2766 23.533C25.571 23.1078 25.8924 22.632 26.2263 22.164C27.5032 20.3735 28.8242 18.6135 30.4388 17.0517C31.1923 16.3218 32.0023 15.661 33.1568 15.5082C33.3303 15.489 33.505 15.4777 33.6783 15.4619Z" fill="#BADC34"/>
<path d="M25.5 47.9124C26.7 48.0103 27.9661 48.1122 29.2324 48.217C29.3076 48.2177 29.3818 48.232 29.4508 48.2589C30.9586 49.0281 32.6492 49.1466 34.3079 49.3625C35.4298 49.5082 36.5624 49.5878 37.7132 49.6994V51.4382V53.1772C36.5585 53.0348 35.4203 52.9559 34.2877 52.8074C33.7479 52.7375 33.2149 52.6328 32.6769 52.5552C30.5236 52.2539 28.9311 51.0857 27.4476 49.7615C26.9664 49.3249 26.5363 48.843 26.0717 48.3917C25.8849 48.2066 25.6694 48.053 25.5 47.9124Z" fill="#BADC34"/>
<path d="M24.7228 24.1235C23.9185 25.2749 23.1997 26.4307 22.7696 27.7186C22.0315 29.9262 22.1855 32.0276 23.6982 33.9387L22.6262 34.7796L16.7241 30.7697C17.056 30.3926 17.3448 30.0129 17.6863 29.6809C19.6983 27.7491 21.9863 26.1017 24.2657 24.443C24.4187 24.3339 24.5698 24.23 24.7228 24.1235Z" fill="#BADC34"/>
<path d="M32.1838 16.9261C32.8814 16.2277 33.5577 15.4507 34.8712 15.442C39.1848 15.4027 43.4981 15.2761 47.8116 15.2578C50.142 15.2482 52.5433 15.3872 54.8724 15.4806L56.7188 15.7912V16.8917C48.5631 16.1042 40.3374 16.1156 32.1838 16.9261Z" fill="#BADC34"/>
<path d="M48.3994 16.6741C48.1761 16.9788 47.9831 17.2669 47.7606 17.5349C47.6746 17.6458 47.5486 17.7261 47.4046 17.7618C46.4147 17.9146 45.4235 18.0849 44.4218 18.1661C43.9898 18.2019 43.5376 18.0404 43.0949 17.9679C42.888 17.9339 42.6832 17.8806 42.4753 17.8657C41.9836 17.8256 41.5257 17.7977 41.362 17.231C41.3052 17.0355 40.9944 16.9002 40.7432 16.6898C43.2902 16.4864 45.8516 16.4812 48.3994 16.6741Z" fill="#BADC34"/>
<path d="M24.2264 23.7812C23.9116 23.7447 23.5912 23.728 23.2825 23.6678C22.7252 23.5596 22.224 23.3474 22.0904 22.7852C21.947 22.1793 22.1193 21.6346 22.6446 21.2138C23.2566 20.7275 24.7401 20.566 25.4581 20.9108C25.5714 20.965 25.63 21.1117 25.7129 21.2164C25.7158 21.2228 25.7173 21.2296 25.7173 21.2365C25.7173 21.2434 25.7158 21.2502 25.7129 21.2566C25.6167 21.6163 25.531 21.9759 25.4359 22.3339C25.3502 22.6577 25.2819 22.9878 25.1616 23.3012C25.0144 23.6976 24.6756 23.8363 24.2264 23.7812ZM22.2058 21.9646C22.2684 22.1724 22.2703 22.3749 22.3801 22.498C22.605 22.7503 23.4577 22.8062 24.0947 22.6394C23.7405 22.5653 23.4209 22.5312 23.1323 22.4299C22.8438 22.3287 22.5926 22.1628 22.2058 21.9646Z" fill="#BADC34"/>
<path d="M29.0592 47.8015C28.1114 47.1818 27.5254 45.9849 25.9368 46.3699L26.2601 47.4926L26.1572 47.5327C25.9908 47.1836 25.7964 46.8414 25.6674 46.4798C25.5711 46.212 25.7512 46.0434 26.0523 45.9735C26.7827 45.7991 27.8383 46.1614 28.251 46.7269C28.5146 47.0893 28.7877 47.4437 29.0592 47.8015Z" fill="#BADC34"/>
<path d="M55.1224 19.3403L48.7363 21.5927L48.6909 21.4853L55.0713 19.2302L55.1224 19.3403Z" fill="#BADC34"/>
<path d="M33.3438 21.5671L39.7213 19.3096L39.7701 19.4257L33.3874 21.6667L33.3438 21.5671Z" fill="#BADC34"/>
<path d="M44.307 35.8675V37.8633L27.3965 37.5304C33.0002 38.112 38.6309 38.1173 44.2927 38.1794V40.0124L27.7853 39.3821C33.2458 40.0806 38.7541 40.1459 44.2888 40.3425V42.1217L28.7619 41.2487C33.8952 41.9986 39.0834 42.1766 44.2934 42.4614V44.5157L30.156 43.4922L30.1455 43.5352C31.3058 43.6905 32.4643 43.8642 33.6285 43.9969C34.7929 44.1297 35.9774 44.2334 37.1531 44.3331C38.3453 44.4343 39.5384 44.519 40.7306 44.6052C41.9227 44.6919 43.0861 44.7687 44.2906 44.8516V46.423C43.7344 46.3907 43.1955 46.3627 42.655 46.3261C39.0985 46.0754 35.5388 45.7873 32.0373 45.0725C31.6235 44.9853 31.2165 44.8778 30.8084 44.774C29.9694 44.5604 29.2377 44.0898 28.7377 43.4416C27.2515 41.5856 26.3325 39.5133 25.8349 37.2739C25.6638 36.51 26.1602 35.9496 26.9964 35.9443C32.6622 35.9082 38.3291 35.8761 43.9962 35.8481C44.0855 35.8481 44.1741 35.8588 44.307 35.8675ZM41.0899 42.5181L40.8817 42.5354C41.0591 43.9586 40.8817 42.5354 41.0591 43.9586C41.0591 43.9586 41.1389 43.9586 41.3291 43.9268L41.0899 42.5181ZM36.5451 42.3398L36.3341 42.3785C36.386 42.8372 36.4825 43.2908 36.6229 43.7343L36.8315 43.6949L36.5451 42.3398ZM32.2836 42.0685L32.0709 42.1285L32.47 43.3938L32.6627 43.3422C32.5393 42.9186 32.414 42.4939 32.2865 42.0685H32.2836ZM35.3627 37.4529L35.5395 37.4346C35.4643 37.0153 35.3899 36.5962 35.3162 36.1764L35.1623 36.1965C35.2303 36.6156 35.2975 37.0343 35.3635 37.4529H35.3627ZM40.796 40.566L40.5979 40.5922C40.641 40.8986 40.6834 41.2032 40.7267 41.5124L40.9269 41.4844C40.8864 41.1788 40.8412 40.8734 40.7971 40.566H40.796ZM40.3543 36.1871L40.2062 36.2001C40.2381 36.6173 40.2704 37.0343 40.3022 37.4509L40.4785 37.4371C40.4359 37.0211 40.3951 36.6044 40.3554 36.1871H40.3543ZM36.0918 41.3098L36.3085 41.2731C36.2443 40.9739 36.1801 40.6743 36.116 40.374L35.9178 40.4106C35.9743 40.7084 36.0323 41.0084 36.0918 41.3098ZM40.593 38.4987L40.3921 38.5214C40.4344 38.8542 40.4773 39.1873 40.5209 39.5202L40.6929 39.5008C40.6564 39.1639 40.6233 38.8285 40.593 38.4952V38.4987ZM35.731 39.3272L35.9235 39.2966C35.8593 38.9702 35.7936 38.6434 35.7261 38.3164L35.5472 38.3441C35.6055 38.6724 35.6668 39.0002 35.731 39.3272ZM31.7188 41.0191L31.9236 40.9685L31.6299 40.1269L31.4626 40.1731C31.5499 40.4554 31.6353 40.7376 31.7188 41.0191Z" fill="#BADC34"/>
<path fill-rule="evenodd" clip-rule="evenodd" d="M44.9749 40.0088V38.1754C48.8988 38.1324 52.8146 38.1159 56.7187 37.915L56.6939 39.5617L44.9749 40.0088ZM48.8621 38.5144L48.6696 38.4968L48.559 39.5043L48.7515 39.52L48.8621 38.5144ZM53.7239 38.3748L53.5478 38.3153C53.4836 38.6415 53.4169 38.9683 53.3476 39.2947L53.5247 39.3263L53.7239 38.3748Z" fill="#BADC34"/>
<path fill-rule="evenodd" clip-rule="evenodd" d="M44.9614 42.1176V40.3395C48.8718 40.1966 52.7829 40.1246 56.6771 39.8467L56.4856 41.47L44.9614 42.1176ZM48.3359 41.484L48.5553 41.5084C48.5869 41.2012 48.6187 40.8973 48.6513 40.5874L48.4591 40.5673C48.4167 40.8729 48.3757 41.1783 48.3359 41.484ZM52.9582 41.2655L53.1651 41.2981L53.3442 40.4058L53.1384 40.3718C53.0798 40.6698 53.0206 40.9678 52.9602 41.2655H52.9582Z" fill="#BADC34"/>
<path fill-rule="evenodd" clip-rule="evenodd" d="M44.968 44.5128V42.458C48.807 42.2485 52.6355 42.0952 56.4409 41.7292L55.9558 43.7159L44.968 44.5128ZM48.0537 43.8921L48.2883 43.916C48.3422 43.456 48.3966 42.9963 48.4513 42.5366L48.227 42.5147L48.0537 43.8921ZM52.4304 43.6923L52.6768 43.7385C52.7643 43.2844 52.8521 42.831 52.9407 42.3784L52.7163 42.3393L52.4304 43.6923Z" fill="#BADC34"/>
<path d="M49.0179 46.1399C47.8566 46.236 46.6922 46.3074 45.529 46.386C45.3511 46.3982 45.171 46.386 44.9641 46.386L44.968 44.8522C48.6217 44.5834 52.2692 44.3836 55.8839 43.948L55.3429 45.4116C53.2476 45.7422 51.1363 45.9649 49.0179 46.1399Z" fill="#BADC34"/>
<path fill-rule="evenodd" clip-rule="evenodd" d="M44.9739 37.8597V35.8491H45.4797C49.2258 35.87 52.9719 35.8908 56.718 35.9119V37.627L44.9739 37.8597ZM53.7239 37.4345L53.9 37.4539L54.1048 36.1932L53.9539 36.1705C53.8735 36.5924 53.7971 37.0137 53.7239 37.4345ZM49.0544 36.1965H48.906C48.8709 36.6104 48.8352 37.0244 48.7982 37.4388L48.9735 37.4495L49.0544 36.1965Z" fill="#BADC34"/>
<path d="M48.4186 25.4145C47.7839 25.4021 47.1494 25.3447 46.5134 25.2757C48.4196 25.2757 50.3268 25.3089 52.2327 25.267C53.7328 25.2343 55.2324 25.1731 56.7166 24.9893V25.2349C53.9571 25.4709 51.1878 25.4658 48.4186 25.4145Z" fill="#BADC34"/>
<path d="M77.906 37.3238L76.9101 33.5337H70.3397L69.316 37.3238H63.3127L69.9108 17.0177H77.2006L83.8817 37.3238H77.906ZM75.7758 29.052L74.9044 25.7322C74.7015 24.9945 74.4525 24.04 74.1574 22.8689C73.8716 21.6977 73.6825 20.8586 73.5903 20.3514C73.5073 20.8217 73.3413 21.5963 73.0923 22.6752C72.8526 23.7542 72.3131 25.8797 71.4739 29.052H75.7758Z" fill="#2D2D2D"/>
<path d="M91.1991 37.3238H85.7906V21.6516H91.1991V37.3238ZM85.6522 17.7508C85.6522 16.9393 85.8782 16.3353 86.33 15.9388C86.7819 15.5423 87.5104 15.344 88.5156 15.344C89.5207 15.344 90.2538 15.5469 90.7149 15.9526C91.176 16.3584 91.4065 16.9578 91.4065 17.7508C91.4065 19.337 90.4429 20.13 88.5156 20.13C86.6067 20.13 85.6522 19.337 85.6522 17.7508Z" fill="#2D2D2D"/>
<path d="M112.46 26.7835C112.46 30.1586 111.528 32.7591 109.665 34.585C107.812 36.4109 105.202 37.3238 101.836 37.3238H95.2935V17.1007H102.293C105.539 17.1007 108.042 17.9307 109.804 19.5906C111.574 21.2505 112.46 23.6481 112.46 26.7835ZM106.788 26.9771C106.788 25.1236 106.419 23.7495 105.682 22.855C104.953 21.9605 103.842 21.5133 102.348 21.5133H100.757V32.8421H101.975C103.634 32.8421 104.852 32.3626 105.626 31.4035C106.401 30.4353 106.788 28.9598 106.788 26.9771Z" fill="#2D2D2D"/>
<path d="M123.346 37.6005C120.736 37.6005 118.707 36.9089 117.259 35.5256C115.821 34.1331 115.102 32.1551 115.102 29.5915C115.102 26.9449 115.77 24.9161 117.107 23.5052C118.444 22.085 120.353 21.375 122.834 21.375C125.195 21.375 127.016 21.9928 128.298 23.2285C129.589 24.455 130.234 26.2256 130.234 28.5402V30.9471H120.565C120.602 31.8231 120.92 32.5101 121.52 33.0081C122.129 33.5061 122.954 33.7551 123.996 33.7551C124.946 33.7551 125.817 33.6674 126.61 33.4922C127.413 33.3078 128.279 32.9989 129.211 32.5655V36.4524C128.362 36.8858 127.486 37.1855 126.583 37.3515C125.679 37.5175 124.6 37.6005 123.346 37.6005ZM123.028 25.0544C122.391 25.0544 121.856 25.2573 121.423 25.663C120.999 26.0596 120.75 26.6866 120.676 27.5443H125.324C125.305 26.7881 125.089 26.1841 124.674 25.7322C124.268 25.2803 123.719 25.0544 123.028 25.0544Z" fill="#2D2D2D"/>
<path d="M140.968 33.3262C141.697 33.3262 142.568 33.1464 143.583 32.7868V36.729C142.854 37.0426 142.158 37.2639 141.494 37.393C140.839 37.5313 140.069 37.6005 139.184 37.6005C137.367 37.6005 136.058 37.1578 135.256 36.2726C134.453 35.3781 134.052 34.0086 134.052 32.1643V25.7045H132.157V23.5052L134.564 21.8038L135.961 18.5116H139.502V21.6516H143.348V25.7045H139.502V31.8047C139.502 32.8191 139.991 33.3262 140.968 33.3262Z" fill="#2D2D2D"/>
<path d="M156.544 37.3238L155.506 35.249H155.396C154.667 36.1527 153.925 36.7705 153.169 37.1025C152.412 37.4345 151.435 37.6005 150.236 37.6005C148.761 37.6005 147.599 37.1578 146.75 36.2726C145.902 35.3873 145.478 34.1424 145.478 32.5378C145.478 30.8687 146.059 29.6284 147.221 28.8168C148.383 27.9961 150.066 27.535 152.27 27.4336L154.884 27.3506V27.1293C154.884 25.8383 154.248 25.1927 152.975 25.1927C151.832 25.1927 150.379 25.58 148.618 26.3547L147.055 22.7859C148.881 21.8453 151.186 21.375 153.971 21.375C155.981 21.375 157.535 21.8729 158.632 22.8689C159.739 23.8648 160.292 25.2573 160.292 27.0463V37.3238H156.544ZM152.532 33.7827C153.187 33.7827 153.745 33.5752 154.206 33.1603C154.676 32.7453 154.912 32.2058 154.912 31.5419V30.3246L153.667 30.3799C151.887 30.4445 150.997 31.0992 150.997 32.3441C150.997 33.3032 151.509 33.7827 152.532 33.7827Z" fill="#2D2D2D"/>
<path d="M169.408 37.3238H163.999V21.6516H169.408V37.3238ZM163.861 17.7508C163.861 16.9393 164.087 16.3353 164.539 15.9388C164.991 15.5423 165.719 15.344 166.725 15.344C167.73 15.344 168.463 15.5469 168.924 15.9526C169.385 16.3584 169.615 16.9578 169.615 17.7508C169.615 19.337 168.652 20.13 166.725 20.13C164.816 20.13 163.861 19.337 163.861 17.7508Z" fill="#2D2D2D"/>
<path d="M178.593 37.3238H173.184V15.8005H178.593V37.3238Z" fill="#2D2D2D"/>
<path d="M180.175 36.042C180.175 35.5734 180.302 35.2117 180.555 34.9571C180.812 34.7024 181.184 34.5751 181.671 34.5751C182.135 34.5751 182.491 34.7024 182.739 34.9571C182.987 35.2117 183.111 35.5734 183.111 36.042C183.111 36.5004 182.983 36.8595 182.725 37.1192C182.472 37.3739 182.121 37.5012 181.671 37.5012C181.208 37.5012 180.843 37.3739 180.576 37.1192C180.309 36.8645 180.175 36.5055 180.175 36.042Z" fill="#BADC34"/>
<path d="M189.482 28.5012C189.721 28.5012 189.948 28.5216 190.163 28.5623L190.318 28.5929L190.072 31.4121C189.847 31.351 189.536 31.3204 189.138 31.3204C188.539 31.3204 188.103 31.4707 187.831 31.7712C187.56 32.0666 187.424 32.4944 187.424 33.0547V37.3102H184.678V28.654H186.722L187.15 30.0369H187.284C187.513 29.5785 187.831 29.2092 188.239 28.9291C188.651 28.6438 189.065 28.5012 189.482 28.5012Z" fill="#BADC34"/>
<path d="M197.103 37.3102L196.759 36.233H196.597C196.368 36.6303 196.047 36.9359 195.635 37.1498C195.228 37.3586 194.748 37.463 194.195 37.463C193.32 37.463 192.638 37.188 192.151 36.6379C191.664 36.0827 191.421 35.3009 191.421 34.2924V28.654H194.167V33.3832C194.167 33.9486 194.24 34.3764 194.385 34.6668C194.535 34.9571 194.778 35.1022 195.115 35.1022C195.588 35.1022 195.926 34.9011 196.127 34.4987C196.328 34.0912 196.429 33.4061 196.429 32.4435V28.654H199.175V37.3102H197.103Z" fill="#BADC34"/>
<path d="M64.8088 52.9617C64.3926 52.9617 64.027 52.9044 63.7121 52.7898V51.8391C64.0608 52.0033 64.4151 52.0854 64.7751 52.0854C65.1875 52.0854 65.5175 51.9899 65.765 51.799C66.0162 51.6043 66.2656 51.2415 66.513 50.7108L63.3127 44.4736H64.3701L66.7999 49.2331C66.8936 49.4202 66.9667 49.6035 67.0192 49.7829H67.0642C67.1692 49.4622 67.2423 49.2598 67.2836 49.1758L69.3027 44.4736H70.3151L67.6885 50.4645C67.3736 51.1785 67.0886 51.6978 66.8336 52.0224C66.5824 52.3469 66.2974 52.5856 65.9787 52.7383C65.6637 52.8872 65.2738 52.9617 64.8088 52.9617Z" fill="#444444"/>
<path d="M75.0846 52.8471L72.2949 45.4244H72.2499C72.3024 46.0124 72.3287 46.7111 72.3287 47.5206V52.8471H71.4456V44.4736H72.8855L75.4896 51.3809H75.5346L78.1612 44.4736H79.5898V52.8471H78.6337V47.4519C78.6337 46.8333 78.6599 46.1613 78.7124 45.4358H78.6674L75.8552 52.8471H75.0846Z" fill="#444444"/>
<path d="M88.0939 52.8471H87.1378V48.9066H82.807V52.8471H81.8508V44.4736H82.807V48.0361H87.1378V44.4736H88.0939V52.8471Z" fill="#444444"/>
<path d="M90.3549 52.8471V44.4736H91.3111V48.0475H92.6553C93.634 48.0475 94.3801 48.2442 94.8938 48.6374C95.4075 49.0269 95.6644 49.6168 95.6644 50.4072C95.6644 51.1938 95.4207 51.7971 94.9332 52.2171C94.4495 52.6371 93.7408 52.8471 92.8072 52.8471H90.3549ZM91.3111 52.0166H92.7003C93.379 52.0166 93.8777 51.883 94.1964 51.6157C94.5151 51.3446 94.6745 50.9418 94.6745 50.4072C94.6745 49.8841 94.5057 49.5061 94.1683 49.2732C93.8346 49.0365 93.2928 48.9181 92.5428 48.9181H91.3111V52.0166ZM97.9198 52.8471H96.9636V44.4736H97.9198V52.8471Z" fill="#444444"/>
<path d="M100.198 44.4736H101.092V49.13C101.092 49.9891 101.066 50.7661 101.013 51.4611H101.058L105.67 44.4736H106.716V52.8471H105.816V48.2365C105.816 47.4691 105.848 46.6634 105.912 45.8195H105.861L101.244 52.8471H100.198V44.4736ZM103.606 43.8035C102.912 43.8035 102.406 43.6679 102.087 43.3968C101.769 43.1219 101.591 42.6714 101.553 42.0452H102.431C102.464 42.4423 102.566 42.7191 102.734 42.8756C102.907 43.0322 103.205 43.1105 103.629 43.1105C104.015 43.1105 104.3 43.0265 104.483 42.8585C104.671 42.6905 104.785 42.4194 104.827 42.0452H105.71C105.665 42.6485 105.475 43.0933 105.142 43.3797C104.808 43.6622 104.296 43.8035 103.606 43.8035Z" fill="#444444"/>
<path d="M118.449 55.0293H117.538V52.8471H111.823V55.0293H110.912V51.9651H111.548C112.125 50.9762 112.618 49.7734 113.027 48.3568C113.439 46.9402 113.668 45.6458 113.713 44.4736H117.408V51.9651H118.449V55.0293ZM116.452 51.9651V45.3499H114.579C114.512 46.2739 114.285 47.385 113.899 48.6833C113.513 49.9777 113.063 51.0716 112.549 51.9651H116.452Z" fill="#444444"/>
<path d="M124.422 52.8471H119.838V44.4736H124.422V45.3384H120.794V48.0361H124.203V48.8952H120.794V51.9765H124.422V52.8471Z" fill="#444444"/>
<path d="M128.781 52.8471H127.825V45.3384H125.221V44.4736H131.385V45.3384H128.781V52.8471Z" fill="#444444"/>
<path d="M137.212 52.8471H132.628V44.4736H137.212V45.3384H133.584V48.0361H136.993V48.8952H133.584V51.9765H137.212V52.8471Z" fill="#444444"/>
<path d="M139.051 44.4736H139.945V49.13C139.945 49.9891 139.919 50.7661 139.867 51.4611H139.912L144.524 44.4736H145.57V52.8471H144.67V48.2365C144.67 47.4691 144.702 46.6634 144.766 45.8195H144.715L140.097 52.8471H139.051V44.4736ZM142.46 43.8035C141.766 43.8035 141.26 43.6679 140.941 43.3968C140.622 43.1219 140.444 42.6714 140.407 42.0452H141.284C141.318 42.4423 141.419 42.7191 141.588 42.8756C141.76 43.0322 142.058 43.1105 142.482 43.1105C142.868 43.1105 143.153 43.0265 143.337 42.8585C143.524 42.6905 143.639 42.4194 143.68 42.0452H144.563C144.518 42.6485 144.329 43.0933 143.995 43.3797C143.661 43.6622 143.149 43.8035 142.46 43.8035Z" fill="#444444"/>
<path d="M153.675 52.8471H152.718V45.3384H150.047L149.872 46.713C149.644 48.542 149.441 49.8803 149.265 50.728C149.093 51.5718 148.864 52.1598 148.579 52.492C148.294 52.8242 147.915 52.9865 147.443 52.9788C147.165 52.9788 146.916 52.9311 146.695 52.8357V52.0166C146.897 52.1159 147.109 52.1656 147.33 52.1656C147.529 52.1656 147.701 52.0835 147.848 51.9193C147.998 51.7513 148.129 51.463 148.241 51.0544C148.358 50.6421 148.502 49.8631 148.674 48.7176C148.851 47.5683 149.044 46.1536 149.254 44.4736H153.675V52.8471Z" fill="#444444"/>
<path d="M155.947 44.4736H156.841V49.13C156.841 49.9891 156.815 50.7661 156.762 51.4611H156.807L161.419 44.4736H162.466V52.8471H161.566V48.2365C161.566 47.4691 161.598 46.6634 161.661 45.8195H161.611L156.993 52.8471H155.947V44.4736Z" fill="#444444"/>
<path d="M170.964 52.8471H170.008V48.9066H165.677V52.8471H164.721V44.4736H165.677V48.0361H170.008V44.4736H170.964V52.8471Z" fill="#444444"/>
<path d="M177.809 44.4736V45.3499H174.181V52.8471H173.225V44.4736H177.809Z" fill="#444444"/>
</svg>
