<svg width="85" height="70" viewBox="0 0 85 70" fill="none" xmlns="http://www.w3.org/2000/svg">
<path d="M10.7102 23.6821C11.8677 20.7016 13.8192 17.7856 15.0664 16.5738C15.6254 16.0307 16.9907 14.4585 19.0336 13.2709C23.1662 10.8686 24.4512 11.063 24.4512 11.063C24.4512 11.063 22.4924 11.9294 20.6441 13.4653C18.9227 14.8956 17.5833 16.3024 16.4776 17.838C15.3719 19.3737 14.7942 20.5103 13.5494 23.6821C12.3046 26.8539 12.2506 31.118 12.5717 33.4515C12.8927 35.7849 13.7338 38.2868 15.0497 40.339C16.3655 42.3911 18.7095 45.1403 21.0525 46.4624C23.3955 47.7846 27.224 48.8674 29.6931 49.031C32.1621 49.1945 35.8254 48.6738 35.8254 48.6738C35.8254 48.6738 32.9033 50.2169 28.8536 50.363C25.7031 50.3444 22.8639 49.9633 19.6397 48.3973C16.4155 46.8314 13.8051 43.8126 12.2399 41.5162C10.6748 39.2198 9.61416 35.7188 9.42871 33.0202C9.24326 30.3215 9.55257 26.6626 10.7102 23.6821Z" fill="url(#paint0_linear)"/>
<path d="M40.2612 60.5916C34.6991 61.8577 26.824 61.2057 26.824 61.2057C26.824 61.2057 32.7429 63.2919 39.6361 63.6015C43.0683 63.7557 46.8529 62.9108 50.0577 61.8015C53.2625 60.6922 56.4167 59.1393 60.0148 57.9818C63.6129 56.8242 65.7588 56.4708 68.9687 55.9799C77.0191 54.7487 83.5754 55.431 83.5754 55.431C83.5754 55.431 78.3517 53.4434 74.4744 53.0706C70.5971 52.6979 66.2885 52.9007 61.8439 53.7688C57.3994 54.6368 53.5812 56.1738 50.7417 57.1738C47.9021 58.1737 45.8234 59.3255 40.2612 60.5916Z" fill="url(#paint1_linear)"/>
<path d="M3.7441 29.8261C3.99256 35.044 5.07959 38.094 7.46523 41.9857C8.43481 43.5673 10.1317 45.4526 11.9195 46.8299C14.5305 48.8415 17.2257 50.0593 17.2257 50.0593C17.2257 50.0593 14.383 47.4002 12.937 45.7053C11.4911 44.0104 10.2098 41.9857 9.04275 39.0606C7.87566 36.1356 7.60383 33.4491 7.5523 29.5863C7.50076 25.7235 8.86556 21.5793 10.3632 18.652C11.8609 15.7247 14.1548 13.2293 16.9266 10.8983C19.6983 8.56727 23.0873 6.91964 26.1885 6.1087C29.2897 5.29777 33.2383 5.16576 36.2441 5.42625C40.0663 5.75748 46.3958 7.66174 46.3958 7.66174C46.3958 7.66174 42.0905 4.35092 36.618 3.00611C33.8392 2.16558 29.976 2.25032 25.7721 2.86897C21.5681 3.48762 16.4957 6.19931 13.6206 8.41851C10.7454 10.6377 7.77658 14.3896 6.31447 17.305C4.85235 20.2205 3.49563 24.6082 3.7441 29.8261Z" fill="url(#paint2_linear)"/>
<path d="M31.7591 18.4265C33.7452 18.5006 34.9599 19.1061 36.4004 19.7184C36.4004 19.7184 33.995 19.2873 31.176 19.5338C29.0078 19.8264 28.0345 20.0401 26.2296 20.8827C24.4246 21.7252 22.2707 23.5805 21.3984 24.6239C20.5261 25.6673 19.4641 27.2393 18.7557 30.0648C18.0473 32.8902 18.3581 34.32 18.5854 35.8686C18.8127 37.4173 19.7427 39.3784 20.4198 40.3333C21.0969 41.2882 22.2248 42.8013 23.6037 43.9204C24.9827 45.0395 27.0145 46.3681 27.0145 46.3681C27.0145 46.3681 23.9541 45.275 22.7253 44.5139C21.4964 43.7528 19.9016 42.3953 19.2773 41.7307C18.653 41.0661 16.9731 39.082 16.3793 36.4849C15.7855 33.8878 15.9413 31.4808 16.443 29.3955C16.9447 27.3101 18.4714 24.6769 19.7677 23.3686C21.064 22.0603 22.7297 20.6607 25.0448 19.7184C27.36 18.7761 29.7731 18.3524 31.7591 18.4265Z" fill="url(#paint3_linear)"/>
<path d="M20.1339 52.6196C14.0971 51.2799 6.97104 46.0699 6.97104 46.0699C6.97104 46.0699 11.7889 52.3721 15.7798 54.6349C19.7707 56.8978 23.786 58.0712 26.9278 58.4693C30.0697 58.8674 31.9242 58.8209 35.844 58.3813C43.2525 56.921 47.2109 54.724 52.6544 53.1387C58.0979 51.5535 63.0395 50.1535 69.3959 49.9666C75.7523 49.7797 84.0284 52.3686 84.0284 52.3686C84.0284 52.3686 78.7908 47.6366 71.429 46.5003C66.8508 45.7936 65.0049 45.5508 59.8654 45.9214C51.3314 46.5368 42.2089 49.9427 38.4412 51.2683C34.6735 52.5939 29.0933 54.8809 20.1339 52.6196Z" fill="url(#paint4_linear)"/>
<path d="M28.7792 32.2562C28.152 32.2562 27.6334 32.1416 27.2234 31.9125C26.8133 31.6773 26.4635 31.3064 26.1741 30.7999L26.4907 30.5557C26.7078 30.9718 26.9912 31.2914 27.3409 31.5145C27.6967 31.7376 28.0857 31.8492 28.5078 31.8492C29.1651 31.8492 29.6566 31.6049 29.9822 31.1165C30.3139 30.628 30.4857 30.013 30.4978 29.2712H27.6937V28.8642H30.4887C30.4284 27.1757 29.7681 26.3315 28.5078 26.3315C28.0133 26.3315 27.6123 26.4762 27.3048 26.7657C26.9972 27.0551 26.7862 27.4772 26.6716 28.032H26.4002C26.4002 27.6642 26.4123 27.3777 26.4364 27.1727C26.4605 26.9677 26.5269 26.7958 26.6354 26.6571C26.8223 26.44 27.0937 26.2652 27.4495 26.1325C27.8053 25.9938 28.2485 25.9245 28.7792 25.9245C29.34 25.9245 29.8465 26.0692 30.2988 26.3586C30.7571 26.6421 31.1159 27.034 31.3752 27.5345C31.6345 28.029 31.7641 28.5778 31.7641 29.1808C31.7641 29.7657 31.6465 30.2904 31.4114 30.7547C31.1762 31.219 30.8325 31.5869 30.3802 31.8582C29.934 32.1235 29.4003 32.2562 28.7792 32.2562Z" fill="url(#paint5_linear)"/>
<path d="M38.022 32.1658C37.6421 32.1658 37.2772 32.0904 36.9275 31.9396C36.5838 31.7828 36.2129 31.4964 35.8149 31.0803L34.3586 29.5607V32.0753H33.1827L33.1737 27.2813C33.1737 26.9737 33.1314 26.7476 33.047 26.6029C32.9626 26.4521 32.7937 26.3767 32.5405 26.3767H32.45V26.1054H33.5355C33.7465 26.1054 33.9093 26.1415 34.0239 26.2139C34.1445 26.2863 34.2289 26.4069 34.2772 26.5757C34.3315 26.7446 34.3586 26.9797 34.3586 27.2813V28.9999L35.9234 27.0551C36.1466 26.7657 36.3848 26.5365 36.638 26.3677C36.8973 26.1928 37.1928 26.1054 37.5245 26.1054H38.1576V26.422C37.7838 26.422 37.4612 26.4702 37.1898 26.5667C36.9245 26.6571 36.6953 26.823 36.5023 27.0642L35.1546 28.7285L37.2441 30.8994C37.4672 31.1466 37.7174 31.3637 37.9948 31.5507C38.2782 31.7316 38.5074 31.8341 38.6823 31.8582V32.0753C38.5014 32.1356 38.2813 32.1658 38.022 32.1658Z" fill="url(#paint6_linear)"/>
<path d="M41.594 32.2562C41.0091 32.2562 40.4875 32.1175 40.0292 31.8401C39.5769 31.5627 39.2272 31.1828 38.9799 30.7004C38.7327 30.218 38.6091 29.6813 38.6091 29.0903C38.6091 28.4994 38.7327 27.9627 38.9799 27.4803C39.2272 26.9978 39.5769 26.6179 40.0292 26.3405C40.4875 26.0632 41.0091 25.9245 41.594 25.9245C42.179 25.9245 42.6976 26.0632 43.1498 26.3405C43.6021 26.6179 43.9519 26.9978 44.1991 27.4803C44.4463 27.9627 44.57 28.4994 44.57 29.0903C44.57 29.6813 44.4463 30.218 44.1991 30.7004C43.9519 31.1828 43.6021 31.5627 43.1498 31.8401C42.6976 32.1175 42.179 32.2562 41.594 32.2562ZM41.594 31.8492C42.1428 31.8492 42.5679 31.611 42.8694 31.1346C43.1709 30.6522 43.3217 29.9707 43.3217 29.0903C43.3217 28.2099 43.1709 27.5315 42.8694 27.0551C42.5679 26.5727 42.1428 26.3315 41.594 26.3315C41.0453 26.3315 40.6201 26.5727 40.3186 27.0551C40.0232 27.5315 39.8754 28.2099 39.8754 29.0903C39.8754 29.9707 40.0232 30.6522 40.3186 31.1346C40.6201 31.611 41.0453 31.8492 41.594 31.8492Z" fill="url(#paint7_linear)"/>
<path fill-rule="evenodd" clip-rule="evenodd" d="M27.1609 32.0215C26.7273 31.7728 26.363 31.3837 26.065 30.8622L26.0107 30.7673L26.5327 30.3646L26.6021 30.4976C26.8103 30.8966 27.0794 31.1985 27.4081 31.4083C27.7437 31.6187 28.1093 31.7235 28.5078 31.7235C29.129 31.7235 29.5784 31.4957 29.8777 31.0468L29.8783 31.0459C30.1743 30.6099 30.34 30.0624 30.3684 29.3969H27.5681V28.7386H30.3572C30.3143 27.9736 30.1399 27.4136 29.8493 27.0421C29.5473 26.6559 29.1069 26.4571 28.5078 26.4571C28.0395 26.4571 27.6712 26.5933 27.3909 26.8572C27.1076 27.1238 26.9057 27.5195 26.7946 28.0574L26.7739 28.1577H26.2746V28.032C26.2746 27.6624 26.2867 27.3703 26.3116 27.158C26.338 26.9341 26.4114 26.7395 26.5365 26.5797L26.5383 26.5774L26.5402 26.5752C26.7446 26.3378 27.0357 26.1528 27.4047 26.0151C27.7794 25.8692 28.239 25.7988 28.7792 25.7988C29.3625 25.7988 29.8925 25.9497 30.3657 26.2523C30.8437 26.5481 31.2175 26.9572 31.4866 27.4765C31.756 27.9903 31.8898 28.5592 31.8898 29.1808C31.8898 29.783 31.7686 30.3274 31.5234 30.8114C31.2774 31.2972 30.9171 31.6826 30.4448 31.9659L30.4444 31.9662C29.9752 32.2452 29.4184 32.3818 28.7792 32.3818C28.1375 32.3818 27.5961 32.2647 27.1621 32.0222L27.1609 32.0215ZM31.3752 27.5345C31.1159 27.034 30.7571 26.6421 30.2988 26.3586C29.8465 26.0692 29.34 25.9245 28.7792 25.9245C28.2485 25.9245 27.8053 25.9938 27.4495 26.1325C27.0937 26.2652 26.8223 26.44 26.6354 26.6571C26.5269 26.7958 26.4605 26.9677 26.4364 27.1727C26.4151 27.3538 26.4032 27.5983 26.4007 27.9064C26.4004 27.9472 26.4002 27.989 26.4002 28.032H26.6716C26.7862 27.4772 26.9972 27.0551 27.3048 26.7657C27.6123 26.4762 28.0133 26.3315 28.5078 26.3315C29.7365 26.3315 30.3949 27.1339 30.4831 28.7386C30.4853 28.7799 30.4872 28.8218 30.4887 28.8642H27.6937V29.2712H30.4978C30.4971 29.3135 30.4959 29.3554 30.4942 29.3969C30.4656 30.0827 30.2949 30.6559 29.9822 31.1165C29.6566 31.6049 29.1651 31.8492 28.5078 31.8492C28.0857 31.8492 27.6967 31.7376 27.3409 31.5145C27.0231 31.3117 26.7601 31.0293 26.5518 30.6672C26.5309 30.6308 26.5105 30.5937 26.4907 30.5557L26.1741 30.7999C26.4635 31.3064 26.8133 31.6773 27.2234 31.9125C27.6334 32.1416 28.152 32.2562 28.7792 32.2562C29.4003 32.2562 29.934 32.1235 30.3802 31.8582C30.8325 31.5869 31.1762 31.219 31.4114 30.7547C31.6465 30.2904 31.7641 29.7657 31.7641 29.1808C31.7641 28.5778 31.6345 28.029 31.3752 27.5345ZM36.8765 32.0545L36.8753 32.0539C36.5116 31.888 36.1279 31.5893 35.7241 31.1672L34.4842 29.8734V32.2009H33.0573L33.048 27.2815V27.2813C33.048 26.9802 33.0058 26.7815 32.9385 26.6662L32.9379 26.6652L32.9374 26.6642C32.8847 26.57 32.7717 26.5024 32.5405 26.5024H32.3244V25.9797H33.5355C33.7575 25.9797 33.947 26.0172 34.0898 26.1069C34.2428 26.1992 34.3427 26.3492 34.3974 26.5392C34.4571 26.726 34.4842 26.9756 34.4842 27.2813V28.6434L35.8248 26.9774C36.0543 26.6798 36.3018 26.4409 36.5681 26.2633C36.8493 26.0737 37.1695 25.9797 37.5245 25.9797H38.2833V26.5476H38.1576C37.7941 26.5476 37.4864 26.5946 37.2319 26.685L37.2303 26.6856C36.9899 26.7676 36.78 26.9182 36.6004 27.1427L36.6 27.1432L35.322 28.7213L37.336 30.8137L37.3373 30.8152C37.5532 31.0545 37.7953 31.2646 38.0637 31.4456C38.3426 31.6235 38.5525 31.7135 38.6994 31.7338L38.8079 31.7487V32.1659L38.722 32.1945C38.5246 32.2603 38.2902 32.2914 38.022 32.2914C37.6249 32.2914 37.2432 32.2125 36.8777 32.055L36.8765 32.0545ZM37.9948 31.5507C37.7174 31.3637 37.4672 31.1466 37.2441 30.8994L35.1546 28.7285L36.5023 27.0642C36.6953 26.823 36.9245 26.6571 37.1898 26.5667C37.4612 26.4702 37.7838 26.422 38.1576 26.422V26.1054H37.5245C37.1928 26.1054 36.8973 26.1928 36.638 26.3677C36.3848 26.5365 36.1466 26.7657 35.9234 27.0551L34.3586 28.9999V27.2813C34.3586 26.9797 34.3315 26.7446 34.2772 26.5757C34.2289 26.4069 34.1445 26.2863 34.0239 26.2139C33.9093 26.1415 33.7465 26.1054 33.5355 26.1054H32.45V26.3767H32.5405C32.7937 26.3767 32.9626 26.4521 33.047 26.6029C33.1314 26.7476 33.1737 26.9737 33.1737 27.2813L33.1827 32.0753H34.3586V29.5607L35.8149 31.0803C36.2129 31.4964 36.5838 31.7828 36.9275 31.9396C37.2772 32.0904 37.6421 32.1658 38.022 32.1658C38.2813 32.1658 38.5014 32.1356 38.6823 32.0753V31.8582C38.5074 31.8341 38.2782 31.7316 37.9948 31.5507ZM39.9641 31.9476L39.9635 31.9472C39.4911 31.6575 39.1256 31.2602 38.8681 30.7577C38.611 30.256 38.4834 29.6994 38.4834 29.0903C38.4834 28.4813 38.611 27.9247 38.8681 27.423C39.1256 26.9205 39.4911 26.5232 39.9635 26.2335L39.9641 26.2331C40.4438 25.9427 40.9883 25.7988 41.594 25.7988C42.1997 25.7988 42.7415 25.9427 43.2155 26.2335C43.6879 26.5232 44.0534 26.9205 44.3109 27.423C44.568 27.9247 44.6956 28.4813 44.6956 29.0903C44.6956 29.6994 44.568 30.256 44.3109 30.7577C44.0534 31.2602 43.6879 31.6575 43.2155 31.9472C42.7415 32.2379 42.1997 32.3818 41.594 32.3818C40.9883 32.3818 40.4438 32.2379 39.9641 31.9476ZM42.7633 27.1223L42.7629 27.1217C42.4833 26.6744 42.0976 26.4571 41.594 26.4571C41.0906 26.4571 40.7049 26.6743 40.4253 27.1215C40.1474 27.5697 40.001 28.2212 40.001 29.0903C40.001 29.9589 40.1472 30.6136 40.4253 31.0682C40.7045 31.5089 41.0901 31.7235 41.594 31.7235C42.0983 31.7235 42.484 31.5086 42.7632 31.0675C43.047 30.6132 43.1961 29.9588 43.1961 29.0903C43.1961 28.2214 43.0468 27.5703 42.7633 27.1223ZM42.8694 31.1346C42.5679 31.611 42.1428 31.8492 41.594 31.8492C41.0453 31.8492 40.6201 31.611 40.3186 31.1346C40.0232 30.6522 39.8754 29.9707 39.8754 29.0903C39.8754 28.2099 40.0232 27.5315 40.3186 27.0551C40.6201 26.5727 41.0453 26.3315 41.594 26.3315C42.1428 26.3315 42.5679 26.5727 42.8694 27.0551C43.1709 27.5315 43.3217 28.2099 43.3217 29.0903C43.3217 29.9707 43.1709 30.6522 42.8694 31.1346ZM40.0292 31.8401C40.4875 32.1175 41.0091 32.2562 41.594 32.2562C42.179 32.2562 42.6976 32.1175 43.1498 31.8401C43.6021 31.5627 43.9519 31.1828 44.1991 30.7004C44.4463 30.218 44.57 29.6813 44.57 29.0903C44.57 28.4994 44.4463 27.9627 44.1991 27.4803C43.9519 26.9978 43.6021 26.6179 43.1498 26.3405C42.6976 26.0632 42.179 25.9245 41.594 25.9245C41.0091 25.9245 40.4875 26.0632 40.0292 26.3405C39.5769 26.6179 39.2272 26.9978 38.9799 27.4803C38.7327 27.9627 38.6091 28.4994 38.6091 29.0903C38.6091 29.6813 38.7327 30.218 38.9799 30.7004C39.2272 31.1828 39.5769 31.5627 40.0292 31.8401Z" fill="url(#paint8_linear)"/>
<path d="M32.1712 41.8851C31.7778 41.8851 31.4 41.807 31.0378 41.6509C30.6819 41.4885 30.2978 41.1919 29.8857 40.761L28.3776 39.1873V41.7914H27.1598L27.1505 36.8268C27.1505 36.5083 27.1068 36.2742 27.0193 36.1243C26.9319 35.9682 26.757 35.8901 26.4948 35.8901H26.4011V35.6091H27.5252C27.7437 35.6091 27.9123 35.6466 28.031 35.7215C28.1559 35.7964 28.2433 35.9213 28.2933 36.0962C28.3495 36.271 28.3776 36.5146 28.3776 36.8268V38.6066L29.9981 36.5927C30.2291 36.2929 30.4758 36.0556 30.7381 35.8807C31.0066 35.6997 31.3126 35.6091 31.6561 35.6091H32.3118V35.937C31.9246 35.937 31.5905 35.9869 31.3095 36.0868C31.0347 36.1805 30.7974 36.3522 30.5976 36.602L29.2019 38.3256L31.3657 40.5737C31.5967 40.8297 31.8559 41.0545 32.1431 41.2481C32.4366 41.4355 32.674 41.5416 32.855 41.5666V41.7914C32.6677 41.8539 32.4398 41.8851 32.1712 41.8851Z" fill="url(#paint9_linear)"/>
<path d="M34.3665 41.5479C34.6975 41.5479 34.9848 41.5041 35.2283 41.4167C35.4718 41.3231 35.6498 41.1513 35.7622 40.9015L35.8278 40.761L33.9075 36.8268C33.7701 36.5208 33.6015 36.2804 33.4017 36.1056C33.2081 35.9245 32.9896 35.8214 32.746 35.7964V35.6091H33.6827C34.0262 35.6091 34.3291 35.7028 34.5913 35.8901C34.8599 36.0775 35.0659 36.3272 35.2096 36.6395L36.5022 39.281L38.1602 35.6091H38.7691L36.3711 40.9015C36.2399 41.2138 36.0432 41.4573 35.781 41.6322C35.5187 41.8008 35.2033 41.8851 34.8349 41.8851H34.3665V41.5479Z" fill="url(#paint10_linear)"/>
<path d="M39.9977 36.8268C39.9977 36.5083 39.954 36.2742 39.8666 36.1243C39.7791 35.9682 39.6043 35.8901 39.342 35.8901H39.2483V35.6091H44.8686V41.7914H43.6509V36.0306H41.2154V41.7914H39.9977V36.8268Z" fill="url(#paint11_linear)"/>
<path d="M46.7369 36.8268C46.7369 36.5083 46.6932 36.2742 46.6058 36.1243C46.5183 35.9682 46.3435 35.8901 46.0812 35.8901H45.9875V35.6091H50.1184C50.6493 35.6091 50.9147 35.8589 50.9147 36.3585V37.1547H50.6336C50.6336 36.7675 50.5337 36.4834 50.3339 36.3023C50.1403 36.1212 49.8499 36.0306 49.4627 36.0306H47.9546V38.3724H50.3901V38.7939H47.9546V41.3699H49.5564C49.9124 41.3699 50.209 41.2918 50.4463 41.1357C50.6836 40.9733 50.8803 40.6955 51.0364 40.302L51.2893 40.3957L51.0177 41.1357C50.9365 41.3605 50.8397 41.526 50.7273 41.6322C50.6149 41.7383 50.4401 41.7914 50.2028 41.7914H46.7369V36.8268Z" fill="url(#paint12_linear)"/>
<path d="M52.2318 41.9319C52.0257 41.9319 51.8383 41.9038 51.6697 41.8476V41.5572C51.9757 41.4948 52.2349 41.3293 52.4472 41.0608C52.6595 40.7922 52.8281 40.3239 52.953 39.6557C53.0842 38.9813 53.1497 38.0383 53.1497 36.8268C53.1497 36.5083 53.106 36.2742 53.0186 36.1243C52.9312 35.9682 52.7563 35.8901 52.494 35.8901H52.4004V35.6091H57.4118V41.7914H56.1941V36.0306H54.1708V36.8268C54.1708 38.7003 53.999 40.021 53.6556 40.7891C53.3183 41.551 52.8437 41.9319 52.2318 41.9319Z" fill="url(#paint13_linear)"/>
<path d="M59.2731 36.8268C59.2731 36.5083 59.2294 36.2742 59.142 36.1243C59.0546 35.9682 58.8797 35.8901 58.6174 35.8901H58.5238V35.6091H59.6478C59.8726 35.6091 60.0444 35.6466 60.163 35.7215C60.2817 35.7964 60.366 35.9213 60.4159 36.0962C60.4659 36.2648 60.4909 36.5083 60.4909 36.8268V40.5737L63.2073 35.6091H64.3314V41.7914H63.1137V36.8268L60.3972 41.7914H59.2731V36.8268Z" fill="url(#paint14_linear)"/>
<path fill-rule="evenodd" clip-rule="evenodd" d="M30.9851 41.7698L30.9838 41.7693C30.6071 41.5974 30.2098 41.2882 29.7917 40.851L28.5077 39.5111V41.9215H27.03L27.0204 36.8268C27.0204 36.515 26.9766 36.3093 26.9069 36.1898L26.9064 36.1889L26.9058 36.1879C26.8512 36.0903 26.7342 36.0202 26.4948 36.0202H26.271V35.479H27.5252C27.755 35.479 27.9513 35.5178 28.0992 35.6107C28.2577 35.7063 28.3611 35.8616 28.4178 36.0584C28.4795 36.2518 28.5077 36.5102 28.5077 36.8268V38.2374L29.8959 36.5121C30.1336 36.204 30.3899 35.9566 30.6656 35.7727C30.9569 35.5763 31.2884 35.479 31.6561 35.479H32.4419V36.0671H32.3118C31.9352 36.0671 31.6166 36.1157 31.3531 36.2094L31.3515 36.21C31.1025 36.2948 30.8851 36.4508 30.6992 36.6833L30.6987 36.6839L29.3753 38.3181L31.4609 40.485L31.4623 40.4865C31.6858 40.7343 31.9365 40.9518 32.2145 41.1393C32.5033 41.3235 32.7207 41.4167 32.8728 41.4377L32.9851 41.4532V41.8852L32.8962 41.9148C32.6918 41.983 32.4491 42.0152 32.1712 42.0152C31.7601 42.0152 31.3647 41.9335 30.9863 41.7704L30.9851 41.7698ZM32.1431 41.2481C31.8559 41.0545 31.5967 40.8297 31.3657 40.5737L29.2019 38.3256L30.5976 36.602C30.7974 36.3522 31.0347 36.1805 31.3095 36.0868C31.5905 35.9869 31.9246 35.937 32.3118 35.937V35.6091H31.6561C31.3126 35.6091 31.0066 35.6997 30.7381 35.8807C30.4758 36.0556 30.2291 36.2929 29.9981 36.5927L28.3776 38.6066V36.8268C28.3776 36.5146 28.3495 36.271 28.2933 36.0962C28.2433 35.9213 28.1559 35.7964 28.031 35.7215C27.9123 35.6466 27.7437 35.6091 27.5252 35.6091H26.4011V35.8901H26.4948C26.757 35.8901 26.9319 35.9682 27.0193 36.1243C27.1068 36.2742 27.1505 36.5083 27.1505 36.8268L27.1598 41.7914H28.3776V39.1873L29.8857 40.761C30.2978 41.1919 30.6819 41.4885 31.0378 41.6509C31.4 41.807 31.7778 41.8851 32.1712 41.8851C32.4398 41.8851 32.6677 41.8539 32.855 41.7914V41.5666C32.674 41.5416 32.4366 41.4355 32.1431 41.2481ZM34.2364 41.4178H34.3665C34.6858 41.4178 34.9571 41.3756 35.183 41.2948C35.3921 41.214 35.5447 41.0679 35.6436 40.8481L35.6443 40.8465L35.6836 40.7623L33.7897 36.882L33.7888 36.8801C33.6572 36.5868 33.4986 36.3632 33.316 36.2035L33.3144 36.202L33.3128 36.2006C33.1382 36.0372 32.9456 35.9477 32.7327 35.9259L32.6159 35.9139V35.479H33.6827C34.0512 35.479 34.3807 35.5799 34.6664 35.7838C34.9541 35.9848 35.1744 36.2524 35.3271 36.5837L36.4975 38.9754L38.0762 35.479H38.9709L36.4903 40.9536C36.35 41.2868 36.1378 41.5506 35.8531 41.7404L35.8522 41.741L35.8513 41.7416C35.5645 41.926 35.2237 42.0152 34.8349 42.0152H34.2364V41.4178ZM36.3711 40.9015L38.7691 35.6091H38.1602L36.5022 39.281L35.2096 36.6395C35.0659 36.3272 34.8599 36.0775 34.5913 35.8901C34.3291 35.7028 34.0262 35.6091 33.6827 35.6091H32.746V35.7964C32.9896 35.8214 33.2081 35.9245 33.4017 36.1056C33.6015 36.2804 33.7701 36.5208 33.9075 36.8268L35.8278 40.761L35.7622 40.9015C35.6498 41.1513 35.4718 41.3231 35.2283 41.4167C34.9848 41.5041 34.6975 41.5479 34.3665 41.5479V41.8851H34.8349C35.2033 41.8851 35.5187 41.8008 35.781 41.6322C36.0432 41.4573 36.2399 41.2138 36.3711 40.9015ZM39.7536 36.1889L39.7531 36.1879C39.6984 36.0903 39.5814 36.0202 39.342 36.0202H39.1182V35.479H44.9987V41.9215H43.5208V36.1607H41.3455V41.9215H39.8676V36.8268C39.8676 36.515 39.8239 36.3093 39.7542 36.1898L39.7536 36.1889ZM41.2154 36.0306H43.6509V41.7914H44.8686V35.6091H39.2483V35.8901H39.342C39.6043 35.8901 39.7791 35.9682 39.8666 36.1243C39.954 36.2742 39.9977 36.5083 39.9977 36.8268V41.7914H41.2154V36.0306ZM46.4928 36.1889L46.4923 36.1879C46.4376 36.0903 46.3206 36.0202 46.0812 36.0202H45.8574V35.479H50.1184C50.402 35.479 50.6389 35.5456 50.8048 35.7017C50.9721 35.8592 51.0448 36.0865 51.0448 36.3585V37.2848H50.5035V37.1547C50.5035 36.7879 50.409 36.5459 50.2465 36.3987L50.2458 36.398L50.245 36.3973C50.0846 36.2472 49.8319 36.1607 49.4627 36.1607H48.0847V38.2423H50.5202V38.924H48.0847V41.2398H49.5564C49.8929 41.2398 50.1627 41.1662 50.3738 41.0277C50.5815 40.8852 50.7649 40.6335 50.9155 40.254L50.9624 40.1359L51.4562 40.3188L51.1401 41.1799L51.1399 41.1803C51.0552 41.4146 50.9497 41.6011 50.8166 41.7268C50.6699 41.8653 50.456 41.9215 50.2028 41.9215H46.6068V36.8268C46.6068 36.515 46.5631 36.3093 46.4934 36.1898L46.4928 36.1889ZM51.0177 41.1357L51.2893 40.3957L51.0364 40.302C50.8803 40.6955 50.6836 40.9733 50.4463 41.1357C50.209 41.2918 49.9124 41.3699 49.5564 41.3699H47.9546V38.7939H50.3901V38.3724H47.9546V36.0306H49.4627C49.8499 36.0306 50.1403 36.1212 50.3339 36.3023C50.5337 36.4834 50.6336 36.7675 50.6336 37.1547H50.9147V36.3585C50.9147 35.8589 50.6493 35.6091 50.1184 35.6091H45.9875V35.8901H46.0812C46.3435 35.8901 46.5183 35.9682 46.6058 36.1243C46.6932 36.2742 46.7369 36.5083 46.7369 36.8268V41.7914H50.2028C50.4401 41.7914 50.6149 41.7383 50.7273 41.6322C50.8397 41.526 50.9365 41.3605 51.0177 41.1357ZM51.5396 41.9414V41.451L51.6437 41.4298C51.9167 41.3741 52.1499 41.227 52.3452 40.9801C52.5369 40.7376 52.701 40.2959 52.8251 39.6318L52.8253 39.6309C52.9541 38.9685 53.0196 38.0353 53.0196 36.8268C53.0196 36.515 52.9759 36.3093 52.9062 36.1898L52.9056 36.1889L52.9051 36.1879C52.8505 36.0903 52.7334 36.0202 52.494 36.0202H52.2703V35.479H57.5419V41.9215H56.064V36.1607H54.3009V36.8268C54.3009 38.7012 54.1301 40.0464 53.7745 40.8419C53.4254 41.6306 52.9142 42.062 52.2318 42.062C52.0139 42.062 51.8124 42.0323 51.6286 41.971L51.5396 41.9414ZM53.6556 40.7891C53.999 40.021 54.1708 38.7003 54.1708 36.8268V36.0306H56.1941V41.7914H57.4118V35.6091H52.4004V35.8901H52.494C52.7563 35.8901 52.9312 35.9682 53.0186 36.1243C53.106 36.2742 53.1497 36.5083 53.1497 36.8268C53.1497 38.0383 53.0842 38.9813 52.953 39.6557C52.8281 40.3239 52.6595 40.7922 52.4472 41.0608C52.2349 41.3293 51.9757 41.4948 51.6697 41.5572V41.8476C51.8383 41.9038 52.0257 41.9319 52.2318 41.9319C52.8437 41.9319 53.3183 41.551 53.6556 40.7891ZM59.029 36.1889L59.0285 36.1879C58.9739 36.0903 58.8568 36.0202 58.6174 36.0202H58.3937V35.479H59.6478C59.8838 35.479 60.084 35.5177 60.2325 35.6115C60.3852 35.708 60.4847 35.8638 60.5408 36.0597C60.596 36.2463 60.621 36.5045 60.621 36.8268V40.0649L63.1302 35.479H64.4615V41.9215H62.9836V37.3356L60.4743 41.9215H59.143V36.8268C59.143 36.515 59.0993 36.3093 59.0296 36.1898L59.029 36.1889ZM63.1137 36.8268V41.7914H64.3314V35.6091H63.2073L60.4909 40.5737V36.8268C60.4909 36.5083 60.4659 36.2648 60.4159 36.0962C60.366 35.9213 60.2817 35.7964 60.163 35.7215C60.0444 35.6466 59.8726 35.6091 59.6478 35.6091H58.5238V35.8901H58.6174C58.8797 35.8901 59.0546 35.9682 59.142 36.1243C59.2294 36.2742 59.2731 36.5083 59.2731 36.8268V41.7914H60.3972L63.1137 36.8268Z" fill="url(#paint15_linear)"/>
<defs>
<linearGradient id="paint0_linear" x1="35.0741" y1="48.7709" x2="23.8079" y2="11.4325" gradientUnits="userSpaceOnUse">
<stop stop-color="#015592"/>
<stop offset="1" stop-color="#0078CF"/>
</linearGradient>
<linearGradient id="paint1_linear" x1="26.7693" y1="61.39" x2="83.5898" y2="55.8367" gradientUnits="userSpaceOnUse">
<stop stop-color="#306C00"/>
<stop offset="1" stop-color="#47A200"/>
</linearGradient>
<linearGradient id="paint2_linear" x1="16.9902" y1="50.072" x2="45.7421" y2="7.26939" gradientUnits="userSpaceOnUse">
<stop stop-color="#306C00"/>
<stop offset="1" stop-color="#47A200"/>
</linearGradient>
<linearGradient id="paint3_linear" x1="26.7474" y1="46.6356" x2="36.4363" y2="19.7589" gradientUnits="userSpaceOnUse">
<stop stop-color="#306C00"/>
<stop offset="1" stop-color="#47A200"/>
</linearGradient>
<linearGradient id="paint4_linear" x1="7.43757" y1="46.9982" x2="84.1967" y2="52.7581" gradientUnits="userSpaceOnUse">
<stop stop-color="#015592"/>
<stop offset="1" stop-color="#0078CF"/>
</linearGradient>
<linearGradient id="paint5_linear" x1="35.3532" y1="25.7988" x2="35.3532" y2="32.3818" gradientUnits="userSpaceOnUse">
<stop stop-color="#47A200"/>
<stop offset="1" stop-color="#306C00"/>
</linearGradient>
<linearGradient id="paint6_linear" x1="35.3532" y1="25.7988" x2="35.3532" y2="32.3818" gradientUnits="userSpaceOnUse">
<stop stop-color="#47A200"/>
<stop offset="1" stop-color="#306C00"/>
</linearGradient>
<linearGradient id="paint7_linear" x1="35.3532" y1="25.7988" x2="35.3532" y2="32.3818" gradientUnits="userSpaceOnUse">
<stop stop-color="#47A200"/>
<stop offset="1" stop-color="#306C00"/>
</linearGradient>
<linearGradient id="paint8_linear" x1="35.3532" y1="25.7988" x2="35.3532" y2="32.3818" gradientUnits="userSpaceOnUse">
<stop stop-color="#47A200"/>
<stop offset="1" stop-color="#306C00"/>
</linearGradient>
<linearGradient id="paint9_linear" x1="45.3662" y1="35.479" x2="45.3662" y2="42.062" gradientUnits="userSpaceOnUse">
<stop stop-color="#0078CF"/>
<stop offset="1" stop-color="#015592"/>
</linearGradient>
<linearGradient id="paint10_linear" x1="45.3662" y1="35.479" x2="45.3662" y2="42.062" gradientUnits="userSpaceOnUse">
<stop stop-color="#0078CF"/>
<stop offset="1" stop-color="#015592"/>
</linearGradient>
<linearGradient id="paint11_linear" x1="45.3662" y1="35.479" x2="45.3662" y2="42.062" gradientUnits="userSpaceOnUse">
<stop stop-color="#0078CF"/>
<stop offset="1" stop-color="#015592"/>
</linearGradient>
<linearGradient id="paint12_linear" x1="45.3662" y1="35.479" x2="45.3662" y2="42.062" gradientUnits="userSpaceOnUse">
<stop stop-color="#0078CF"/>
<stop offset="1" stop-color="#015592"/>
</linearGradient>
<linearGradient id="paint13_linear" x1="45.3662" y1="35.479" x2="45.3662" y2="42.062" gradientUnits="userSpaceOnUse">
<stop stop-color="#0078CF"/>
<stop offset="1" stop-color="#015592"/>
</linearGradient>
<linearGradient id="paint14_linear" x1="45.3662" y1="35.479" x2="45.3662" y2="42.062" gradientUnits="userSpaceOnUse">
<stop stop-color="#0078CF"/>
<stop offset="1" stop-color="#015592"/>
</linearGradient>
<linearGradient id="paint15_linear" x1="45.3662" y1="35.479" x2="45.3662" y2="42.062" gradientUnits="userSpaceOnUse">
<stop stop-color="#0078CF"/>
<stop offset="1" stop-color="#015592"/>
</linearGradient>
</defs>
</svg>
