<svg width="167" height="50" viewBox="0 0 167 50" fill="none" xmlns="http://www.w3.org/2000/svg">
<rect x="0.437012" width="166.129" height="50" fill="#E33939"/>
<path d="M38.9182 22.7628V35.4839H14.9531V14.5161H38.9182V19.5899H20.9151V30.4247H32.9562V27.5442H25.9982V22.7628H38.9182Z" fill="white"/>
<path d="M58.5766 19.0196V23.5086H47.8832V35.4839H42.5218V19.0196H58.5766Z" fill="white"/>
<path d="M61.5649 23.5086V19.0196H81.6335V35.4839H61.5649V24.8538H76.2575V23.5086H61.5649ZM76.2575 29.3427H66.9263V30.9949H76.2575V29.3427Z" fill="white"/>
<path d="M105.306 19.0196V35.4839H99.9296V23.5086H90.5984V35.4839H85.2371V19.0196H105.306Z" fill="white"/>
<path d="M108.909 35.4839V19.0196H114.271V30.9949H123.602V19.0196H128.978V35.4839H108.909Z" fill="white"/>
<path d="M137.943 14.5161V35.4839H132.581V14.5161H137.943Z" fill="white"/>
<path d="M146.908 14.5161V17.5136H141.546V14.5161H146.908ZM146.908 19.0196V35.4839H141.546V19.0196H146.908Z" fill="white"/>
<path d="M166.566 19.0196V23.5086H155.873V35.4839H150.511V19.0196H166.566Z" fill="white"/>
<path fill-rule="evenodd" clip-rule="evenodd" d="M162.856 5.81882C164.021 5.81882 164.966 4.87451 164.966 3.70964C164.966 2.54477 164.021 1.60046 162.856 1.60046C161.691 1.60046 160.747 2.54477 160.747 3.70964C160.747 4.87451 161.691 5.81882 162.856 5.81882ZM162.856 6.12899C164.193 6.12899 165.276 5.04581 165.276 3.70964C165.276 2.37347 164.193 1.29028 162.856 1.29028C161.52 1.29028 160.437 2.37347 160.437 3.70964C160.437 5.04581 161.52 6.12899 162.856 6.12899Z" fill="white"/>
<path d="M162.05 5.16125H162.327V3.81186L162.663 3.81595L163.334 5.16125H163.656L162.984 3.81595C163.411 3.77915 163.663 3.48474 163.663 3.03903C163.663 2.5647 163.375 2.25803 162.897 2.25803H162.05V5.16125ZM162.327 3.52563V2.54835H162.864C163.196 2.54835 163.382 2.71191 163.382 3.03903C163.382 3.36616 163.196 3.52563 162.864 3.52563H162.327Z" fill="white"/>
</svg>
