<svg width="40" height="40" viewBox="0 0 40 40" fill="none" xmlns="http://www.w3.org/2000/svg">
<path fill-rule="evenodd" clip-rule="evenodd" d="M35 1H5C2.79086 1 1 2.79086 1 5V35C1 37.2091 2.79086 39 5 39H35C37.2091 39 39 37.2091 39 35V5C39 2.79086 37.2091 1 35 1ZM5 0C2.23858 0 0 2.23858 0 5V35C0 37.7614 2.23858 40 5 40H35C37.7614 40 40 37.7614 40 35V5C40 2.23858 37.7614 0 35 0H5Z" fill="#1769FF"/>
<path fill-rule="evenodd" clip-rule="evenodd" d="M29.8922 16.5691C29.0637 16.1857 28.1327 15.9932 27.0978 15.9932C25.3566 15.9932 23.9425 16.5628 22.8495 17.694C21.7596 18.8284 21.2138 20.4582 21.2138 22.5834C21.2138 24.849 21.8161 26.4867 23.0284 27.4917C24.2345 28.4983 25.6302 29 27.2124 29C29.1279 29 30.6184 28.4036 31.6823 27.2124C32.3641 26.4614 32.7494 25.7215 32.8334 24.9957H29.6614C29.478 25.3555 29.2639 25.6363 29.0209 25.8398C28.5791 26.2137 28.0028 26.4015 27.298 26.4015C26.6285 26.4015 26.0583 26.2469 25.5844 25.9392C24.8017 25.4454 24.392 24.5824 24.34 23.3533H32.997C33.0108 22.2947 32.9771 21.4806 32.8931 20.9189C32.7494 19.9581 32.4345 19.1124 31.9437 18.3835C31.4056 17.5568 30.7223 16.9509 29.8922 16.5691ZM27.0993 18.6391C26.3044 18.6391 25.6837 18.8726 25.245 19.3396C24.8062 19.8066 24.5295 20.4392 24.4164 21.2376H29.7714C29.7149 20.3856 29.4367 19.7419 28.9444 19.2985C28.4461 18.8584 27.833 18.6391 27.0993 18.6391Z" fill="#1769FF"/>
<path d="M23.6139 14.8368H30.4991V12.7731H23.6139V14.8368Z" fill="#1769FF"/>
<path fill-rule="evenodd" clip-rule="evenodd" d="M18.9284 13.7671C18.1106 12.6185 16.724 12.03 14.7643 12H7V28.5819H14.2399C15.0562 28.5819 15.8114 28.5093 16.51 28.3594C17.2086 28.208 17.8125 27.9319 18.3246 27.5264C18.7801 27.173 19.1593 26.7375 19.4619 26.2216C19.9404 25.4422 20.1789 24.5603 20.1789 23.5774C20.1789 22.6244 19.9695 21.8135 19.5537 21.1477C19.1333 20.4803 18.5157 19.9928 17.6963 19.6835C18.2359 19.3995 18.6441 19.084 18.9223 18.74C19.4191 18.1247 19.6653 17.309 19.6653 16.2977C19.6653 15.3148 19.4191 14.4723 18.9284 13.7671ZM13.7002 14.8793H10.2026V18.5381H14.1099C14.8055 18.5381 15.3726 18.4008 15.8099 18.1263C16.244 17.8518 16.4626 17.3658 16.4626 16.6716C16.4626 15.897 16.1752 15.3874 15.6004 15.1381C15.1021 14.9661 14.4692 14.8793 13.7002 14.8793ZM14.1589 21.2817H10.2026V25.7041H14.1038C14.8009 25.7041 15.3451 25.6063 15.7319 25.4122C16.4366 25.0494 16.7882 24.3615 16.7882 23.3423C16.7882 22.4777 16.4488 21.886 15.7655 21.5626C15.3833 21.3827 14.8468 21.2881 14.1589 21.2817Z" fill="#1769FF"/>
</svg>
