<svg width="40" height="40" viewBox="0 0 40 40" fill="none" xmlns="http://www.w3.org/2000/svg">
<path fill-rule="evenodd" clip-rule="evenodd" d="M35 1H5C2.79086 1 1 2.79086 1 5V35C1 37.2091 2.79086 39 5 39H35C37.2091 39 39 37.2091 39 35V5C39 2.79086 37.2091 1 35 1ZM5 0C2.23858 0 0 2.23858 0 5V35C0 37.7614 2.23858 40 5 40H35C37.7614 40 40 37.7614 40 35V5C40 2.23858 37.7614 0 35 0H5Z" fill="#D79B00"/>
<path d="M12.3857 7.05292C12.3247 7.06086 12.2637 7.06086 12.1867 7C11.5924 7.13759 10.9955 7.26196 10.4038 7.41808C9.66628 7.61653 9.09587 8.06107 8.63953 8.66701C8.0585 9.4476 7.6738 10.3208 7.36604 11.2337C7.02379 12.2445 6.90971 13.2711 7.0742 14.3375C7.21747 15.2795 7.53584 16.1606 7.85952 17.0497C8.39279 18.5236 8.98178 19.9683 9.8069 21.3098C11.0724 23.3764 12.6378 25.1916 14.3915 26.856C15.7764 28.1658 17.2727 29.338 18.9177 30.3091C20.7297 31.3754 22.6983 32.0793 24.6961 32.6932C25.7308 33.016 26.808 33.1033 27.8878 32.8625C29.0764 32.5979 30.1934 32.1666 31.1936 31.468C31.5544 31.2114 31.9126 30.8938 32.1646 30.5313C32.7669 29.6581 32.9393 28.642 32.9977 27.6074C33.0189 27.2396 32.8942 26.9724 32.5838 26.7898C32.0081 26.4458 31.4377 26.086 30.8513 25.7499C29.7583 25.1228 28.6015 24.6015 27.5668 23.8633C27.4713 23.7945 27.3545 23.7469 27.2458 23.6939C26.8558 23.4981 26.4843 23.5299 26.1447 23.8156C25.9776 23.9532 25.8051 24.0961 25.6619 24.2575C25.0649 24.927 24.4865 25.6017 23.8869 26.2659C23.2422 26.983 22.9186 27.0624 22.0881 26.594C21.2073 26.0965 20.3344 25.5753 19.496 25.0064C17.3205 23.5378 15.5986 21.6327 14.2509 19.3915C13.8874 18.7855 13.5584 18.1663 13.2268 17.5472C13.0119 17.1423 13.0941 16.7586 13.4125 16.4517C13.821 16.0601 14.2562 15.6923 14.6753 15.3086C15.1768 14.8508 15.6968 14.4036 16.169 13.9221C16.5007 13.586 16.5113 13.1627 16.2884 12.7419L16.2716 12.7132C16.1681 12.537 16.0622 12.3566 15.9515 12.181C15.8241 11.9852 15.6729 11.7999 15.5641 11.5962C15.1396 10.8368 14.7417 10.0641 14.3092 9.31265C13.9351 8.66172 13.5398 8.02667 13.1472 7.39162C12.9721 7.1032 12.7014 7.02646 12.3857 7.05292Z" fill="#D79B00"/>
</svg>
