<svg width="40" height="39" viewBox="0 0 40 39" fill="none" xmlns="http://www.w3.org/2000/svg">
<path d="M25.9181 8.47065L11.6404 14.9436L12.87 16.7489L26.8776 10.5148L25.9181 8.47065Z" fill="#D79B00"/>
<path fill-rule="evenodd" clip-rule="evenodd" d="M11.7562 14.6352C10.5214 13.2627 8.72611 12.3896 6.72865 12.3896C3.0258 12.3896 0 15.3724 0 19.0225C0 22.6727 3.0258 25.6554 6.72865 25.6554C10.4315 25.6554 13.4573 22.6727 13.4573 19.0225C13.4573 18.1337 13.2755 17.2855 12.9506 16.5093L11.7562 14.6352ZM11.2144 19.0225C11.2144 16.5673 9.21936 14.6006 6.72865 14.6006C4.23795 14.6006 2.24289 16.5673 2.24289 19.0225C2.24289 21.4778 4.23795 23.4445 6.72865 23.4445C9.21936 23.4445 11.2144 21.4778 11.2144 19.0225Z" fill="#808080"/>
<path d="M14.3988 22.8512C14.148 22.8278 13.8966 22.8883 13.6849 23.0229C13.4733 23.1576 13.3138 23.3585 13.2321 23.5934C13.1505 23.8283 13.1514 24.0834 13.2347 24.3177C13.3181 24.552 13.479 24.7519 13.6916 24.885L20.5289 29.3034C20.1051 30.0997 19.8369 30.991 19.7751 31.9429C19.5384 35.5856 22.3647 38.7529 26.06 38.9862C29.7553 39.2194 32.9682 36.4334 33.2049 32.7907C33.4415 29.148 30.6153 25.9808 26.92 25.7475C24.9941 25.6259 23.2037 26.3293 21.8929 27.5418L14.9222 23.0371C14.7664 22.9328 14.5863 22.8689 14.3988 22.8512ZM26.7767 27.954C29.2623 28.1109 31.1258 30.1992 30.9666 32.6494C30.8074 35.0997 28.6889 36.9366 26.2033 36.7797C23.7177 36.6228 21.8542 34.5345 22.0134 32.0842C22.1726 29.634 24.291 27.797 26.7767 27.954Z" fill="#808080"/>
<path fill-rule="evenodd" clip-rule="evenodd" d="M34.5719 0.388795C35.5011 0.718624 36.3734 1.25745 37.106 1.99812C39.691 4.61157 39.6369 8.82946 36.9858 11.3777C34.3346 13.9259 30.0558 13.8726 27.4708 11.2592C25.7753 9.54511 25.2188 7.14181 25.7829 4.97132C25.8519 4.70557 25.9378 4.44331 26.0404 4.18623C26.0404 4.18623 26.3866 3.45432 26.5761 3.14246C26.6183 3.07306 26.6755 2.98953 26.7389 2.90162C26.9604 2.59451 27.2581 2.23377 27.2581 2.23377L27.2852 2.20358C27.3839 2.09369 27.4828 1.9836 27.591 1.87961C28.3324 1.16699 29.2046 0.653659 30.1281 0.345664C30.2688 0.294231 30.4185 0.271136 30.5683 0.277745C30.7182 0.284353 30.8652 0.32053 31.0006 0.384137C31.1361 0.447744 31.2572 0.537488 31.3568 0.648055C31.4564 0.758622 31.5325 0.887766 31.5806 1.02784C31.6287 1.16792 31.6478 1.31608 31.6367 1.46356C31.6257 1.61104 31.5848 1.75484 31.5163 1.88645C31.4479 2.01805 31.3534 2.13479 31.2384 2.22975C31.1234 2.32471 30.9903 2.39597 30.8468 2.4393C30.2323 2.64425 29.6555 2.98328 29.1568 3.46263C27.3735 5.17668 27.3378 7.95776 29.0766 9.71568C30.8154 11.4736 33.6367 11.5087 35.42 9.79468C37.2033 8.08062 37.2389 5.29955 35.5001 3.54163C35.0073 3.04342 34.4305 2.68758 33.8121 2.46808C33.6692 2.42232 33.5371 2.34871 33.4236 2.25163C33.3101 2.15454 33.2175 2.03596 33.1514 1.90293C33.0853 1.7699 33.047 1.62512 33.0387 1.47721C33.0305 1.3293 33.0525 1.18126 33.1034 1.0419C33.1544 0.902526 33.2332 0.774669 33.3352 0.665913C33.4372 0.557157 33.5604 0.469722 33.6974 0.408802C33.8344 0.347882 33.9824 0.314718 34.1326 0.311281C34.2828 0.307844 34.4322 0.334204 34.5719 0.388795Z" fill="#808080"/>
</svg>
