<svg width="42" height="42" viewBox="0 0 42 42" fill="none" xmlns="http://www.w3.org/2000/svg">
<path d="M20 0.962402C9.49944 0.962402 0.962524 9.49932 0.962524 19.9999C0.962524 30.5005 9.49944 39.0375 20 39.0375C30.5007 39.0375 39.0376 30.5005 39.0376 19.9999C39.0376 9.49932 30.5007 0.962402 20 0.962402ZM20 3.24691C29.266 3.24691 36.7531 10.734 36.7531 19.9999C36.7531 29.2659 29.266 36.7529 20 36.7529C10.7341 36.7529 3.24703 29.2659 3.24703 19.9999C3.24703 10.734 10.7341 3.24691 20 3.24691Z" fill="#808080"/>
<path d="M0.346096 6.26918C0.237553 6.3747 0.151063 6.50073 0.0916537 6.63997C0.032244 6.7792 0.00109902 6.92885 2.85649e-05 7.08022C-0.00104189 7.2316 0.0279837 7.38167 0.0854183 7.52173C0.142853 7.66179 0.227551 7.78904 0.334591 7.89608C0.441631 8.00311 0.568877 8.08781 0.708936 8.14525C0.848994 8.20268 0.99907 8.23171 1.15044 8.23064C1.30182 8.22957 1.45147 8.19842 1.5907 8.13901C1.72993 8.0796 1.85597 7.99311 1.96148 7.88457L7.88457 1.96148C7.99311 1.85597 8.0796 1.72993 8.13901 1.5907C8.19842 1.45147 8.22957 1.30182 8.23064 1.15044C8.23171 0.99907 8.20268 0.848993 8.14525 0.708935C8.08781 0.568877 8.00311 0.441631 7.89608 0.334591C7.78904 0.227551 7.66179 0.142853 7.52173 0.085418C7.38167 0.0279833 7.2316 -0.00104189 7.08022 2.85653e-05C6.92885 0.00109902 6.7792 0.032244 6.63997 0.0916537C6.50073 0.151063 6.3747 0.237553 6.26918 0.346096L0.346096 6.26918Z" fill="#808080"/>
<path d="M33.7308 0.346096C33.6253 0.237553 33.4992 0.151063 33.36 0.0916537C33.2208 0.032244 33.0711 0.00109902 32.9197 2.85649e-05C32.7684 -0.00104189 32.6183 0.0279837 32.4782 0.0854183C32.3382 0.142853 32.2109 0.227551 32.1039 0.334591C31.9968 0.441631 31.9121 0.568877 31.8547 0.708936C31.7973 0.848994 31.7682 0.99907 31.7693 1.15044C31.7704 1.30182 31.8015 1.45147 31.8609 1.5907C31.9204 1.72993 32.0068 1.85597 32.1154 1.96148L38.0385 7.88457C38.144 7.99311 38.27 8.0796 38.4093 8.13901C38.5485 8.19842 38.6981 8.22957 38.8495 8.23064C39.0009 8.23171 39.151 8.20268 39.291 8.14525C39.4311 8.08781 39.5583 8.00311 39.6654 7.89608C39.7724 7.78904 39.8571 7.66179 39.9145 7.52173C39.972 7.38167 40.001 7.2316 39.9999 7.08022C39.9989 6.92885 39.9677 6.7792 39.9083 6.63997C39.8489 6.50073 39.7624 6.3747 39.6539 6.26918L33.7308 0.346096Z" fill="#808080"/>
<path d="M16.8539 17.9313L11.1696 16.3221C11.0246 16.2789 10.8724 16.2648 10.7218 16.2809C10.5713 16.2969 10.4255 16.3427 10.2928 16.4156C10.1602 16.4885 10.0433 16.5871 9.94905 16.7055C9.8548 16.824 9.78503 16.96 9.7438 17.1056C9.70256 17.2513 9.69069 17.4037 9.70887 17.554C9.72704 17.7043 9.77491 17.8494 9.84968 17.9811C9.92445 18.1127 10.0246 18.2281 10.1444 18.3207C10.2642 18.4133 10.4012 18.4811 10.5474 18.5203L16.2316 20.1294L16.8539 17.9313Z" fill="#808080"/>
<path fill-rule="evenodd" clip-rule="evenodd" d="M19.9822 6.27651C19.6795 6.28124 19.391 6.40591 19.1802 6.62315C18.9694 6.84039 18.8534 7.13243 18.8578 7.43512V16.3887C17.3232 16.8807 16.1925 18.3105 16.1925 19.9999C16.1925 21.6892 17.3232 23.1191 18.8578 23.6111H21.1423C22.6768 23.1191 23.8075 21.6892 23.8075 19.9999C23.8075 18.3105 22.6768 16.8807 21.1423 16.3887V7.43512C21.1445 7.28224 21.1159 7.13047 21.0584 6.98881C21.0008 6.84715 20.9155 6.71849 20.8073 6.61044C20.6991 6.50239 20.5703 6.41716 20.4286 6.3598C20.2868 6.30244 20.135 6.27412 19.9822 6.27651ZM21.523 19.9999C21.523 19.1452 20.8547 18.4769 20 18.4769C19.1453 18.4769 18.477 19.1452 18.477 19.9999C18.477 20.8545 19.1453 21.5229 20 21.5229C20.8547 21.5229 21.523 20.8545 21.523 19.9999Z" fill="#D79B00"/>
</svg>
