<svg width="40" height="40" viewBox="0 0 40 40" fill="none" xmlns="http://www.w3.org/2000/svg">
<path fill-rule="evenodd" clip-rule="evenodd" d="M35 1H5C2.79086 1 1 2.79086 1 5V35C1 37.2091 2.79086 39 5 39H35C37.2091 39 39 37.2091 39 35V5C39 2.79086 37.2091 1 35 1ZM5 0C2.23858 0 0 2.23858 0 5V35C0 37.7614 2.23858 40 5 40H35C37.7614 40 40 37.7614 40 35V5C40 2.23858 37.7614 0 35 0H5Z" fill="#4C6C91"/>
<path d="M21.2751 27.795C21.2751 27.795 21.7443 27.7428 21.9847 27.4843C22.2047 27.2473 22.197 26.8003 22.197 26.8003C22.197 26.8003 22.1678 24.7126 23.1355 24.4044C24.0893 24.1012 25.3139 26.4232 26.6135 27.3161C27.5952 27.9912 28.3404 27.8434 28.3404 27.8434L31.8133 27.795C31.8133 27.795 33.6293 27.683 32.7684 26.2526C32.6971 26.1354 32.266 25.1941 30.1869 23.2606C28.0085 21.2366 28.301 21.5639 30.9232 18.0625C32.5204 15.9302 33.1588 14.6285 32.9591 14.0718C32.7696 13.5394 31.5946 13.6808 31.5946 13.6808L27.6855 13.705C27.6855 13.705 27.3956 13.6655 27.1807 13.7942C26.9708 13.9203 26.8348 14.2145 26.8348 14.2145C26.8348 14.2145 26.2168 15.864 25.3914 17.2676C23.6505 20.2278 22.9549 20.3845 22.6701 20.2011C22.0076 19.7718 22.1729 18.479 22.1729 17.5606C22.1729 14.6909 22.6078 13.4948 21.3272 13.1853C20.9025 13.0822 20.5897 13.0147 19.5024 13.0032C18.1074 12.9892 16.9273 13.0083 16.2584 13.3356C15.8133 13.5534 15.4699 14.04 15.6798 14.068C15.9379 14.1024 16.5229 14.226 16.8332 14.6488C17.2337 15.1953 17.2198 16.4206 17.2198 16.4206C17.2198 16.4206 17.4499 19.7986 16.6818 20.2176C16.1554 20.5055 15.4331 19.9183 13.8804 17.232C13.0856 15.8563 12.4854 14.3355 12.4854 14.3355C12.4854 14.3355 12.3696 14.0515 12.1624 13.8986C11.9118 13.7139 11.5621 13.6566 11.5621 13.6566L7.84761 13.6808C7.84761 13.6808 7.28935 13.6961 7.08461 13.9394C6.90277 14.1546 7.07063 14.6017 7.07063 14.6017C7.07063 14.6017 9.97891 21.4175 13.2725 24.8527C16.2927 28.0014 19.7211 27.795 19.7211 27.795H21.2751Z" fill="#4C6C91"/>
</svg>
