<svg width="246" height="50" viewBox="0 0 246 50" fill="none" xmlns="http://www.w3.org/2000/svg">
<path d="M11.7257 22.0904V36.1017C11.7257 37.7589 11.9323 38.7759 12.3456 39.1525C12.7589 39.5292 13.8861 39.7175 15.7272 39.7175V41.0734H0.848389V39.7175C2.68945 39.7175 3.81663 39.5292 4.22993 39.1525C4.64323 38.7759 4.84988 37.7589 4.84988 36.1017V15.5367C4.84988 5.17891 8.83259 0 16.798 0C21.0437 0 24.0495 0.903955 25.8155 2.71186C27.5814 4.48211 28.4643 7.25047 28.4643 11.0169C28.4643 14.8588 27.5626 17.7966 25.7591 19.8305C23.9932 21.8267 21.0062 22.8249 16.798 22.8249C14.8818 22.8249 13.191 22.58 11.7257 22.0904ZM11.7257 11.4124C11.7257 14.9529 12.1014 17.5141 12.8529 19.096C13.6419 20.678 14.9569 21.4689 16.798 21.4689C19.9917 21.4689 21.5885 17.9849 21.5885 11.0169C21.5885 7.58945 21.194 5.14124 20.405 3.67232C19.6535 2.16573 18.4512 1.41243 16.798 1.41243C15.1824 1.41243 13.9237 2.12806 13.0219 3.55932C12.1578 4.99058 11.7257 7.60829 11.7257 11.4124Z" fill="url(#paint0_linear)"/>
<path d="M44.719 13.1073L49.6222 41.0734H43.7609L43.0846 37.5706C40.8302 40.2825 37.8995 41.6384 34.2925 41.6384C32.1509 41.6384 30.6104 40.9793 29.6711 39.661C28.7694 38.3427 28.3185 36.855 28.3185 35.1977C28.3185 30.339 32.1321 24.7081 39.7594 18.3051L38.6322 12.1469H43.3664C44.1554 12.1469 44.6063 12.467 44.719 13.1073ZM42.69 35.0847L39.9848 19.8305C35.8142 23.3333 33.729 27.0433 33.729 30.9605C33.729 32.4294 34.1047 33.8606 34.8561 35.2542C35.6076 36.6102 36.7536 37.2881 38.294 37.2881C40.1727 37.2881 41.638 36.5537 42.69 35.0847Z" fill="url(#paint1_linear)"/>
<path d="M67.9953 18.9831C66.1542 16.7985 65.0834 15.4426 64.7828 14.9153C63.0169 16.0829 61.8333 17.2505 61.2322 18.4181C60.631 19.5857 60.3304 21.1676 60.3304 23.1638C60.3304 24.8211 60.7249 26.4783 61.514 28.1356C62.303 29.7552 63.186 31.0923 64.1628 32.1469C65.1397 33.1638 66.1354 34.275 67.1499 35.4802C68.2019 36.6478 68.897 37.5895 69.2352 38.3051C71.1514 36.8738 72.3349 35.4049 72.7858 33.8983L75.9419 35.0847C73.5748 38.2109 70.4375 40.4708 66.5299 41.8644C63.2611 40.4331 60.4432 38.1544 58.0761 35.0282C55.7466 31.8644 54.5818 29.096 54.5818 26.7232C54.5818 25.2919 54.9763 23.6723 55.7653 21.8644C56.5919 20.0188 58.0197 18.0979 60.0486 16.1017C62.0776 14.0678 64.501 12.5612 67.319 11.5819C69.4982 12.5235 71.6022 14.0113 73.6312 16.0452L67.9953 18.9831Z" fill="url(#paint2_linear)"/>
<path d="M98.5983 12.1469H104.403V39.661H112.97V41.0734C112.744 41.3748 112.463 41.7891 112.124 42.3164C111.786 42.8814 111.335 43.936 110.772 45.4802C110.246 47.0621 109.983 48.5687 109.983 50H108.63C108.63 48.5311 108.236 46.9303 107.447 45.1977C106.695 43.5028 105.681 42.1281 104.403 41.0734H83.0431V12.1469H88.7918V39.661H98.5983V12.1469Z" fill="url(#paint3_linear)"/>
<path d="M140.022 41.0734H119.282V12.1469H138.557C138.557 15.3484 137.749 18.0414 136.133 20.226C134.518 22.3729 132.32 23.936 129.539 24.9153C133.635 25.4049 136.396 26.7797 137.824 29.0395C139.289 31.2994 140.022 35.3107 140.022 41.0734ZM125.031 39.661H134.274C134.198 35.1412 133.503 31.8456 132.188 29.774C130.873 27.7024 128.487 26.4972 125.031 26.1582V39.661ZM125.031 13.5593V24.5198C127.736 24.2185 129.671 23.2015 130.836 21.4689C132 19.7363 132.639 17.0998 132.752 13.5593H125.031Z" fill="url(#paint4_linear)"/>
<path d="M162.848 13.5593L153.267 18.0226V24.5198L159.353 21.6949L161.664 25.0282L153.267 28.983V35.8757C153.267 37.081 153.68 37.6836 154.506 37.6836C154.769 37.6836 154.957 37.646 155.07 37.5706L160.762 34.8023L164.426 37.6271L156.535 41.2994C155.634 41.7137 154.694 41.9209 153.717 41.9209C152.027 41.9209 150.561 41.3559 149.321 40.226C148.119 39.096 147.518 37.5141 147.518 35.4802V18.7571C147.518 17.0621 148.232 15.9134 149.66 15.3107L157.888 11.4689L162.848 13.5593Z" fill="url(#paint5_linear)"/>
<path d="M179.023 41.0734V13.5593C177.52 13.5593 176.411 13.6158 175.697 13.7288C174.984 13.8418 174.326 14.1431 173.725 14.6328C173.161 15.1224 172.804 15.838 172.654 16.7797C172.504 17.7213 172.429 19.0772 172.429 20.8475H171.02C171.02 19.4162 170.869 18.0979 170.569 16.8927C170.268 15.6497 169.968 14.7834 169.667 14.2938L169.216 13.5593V12.1469H194.578V13.5593C193.338 15.1789 192.718 17.6083 192.718 20.8475H191.365C191.365 19.0772 191.29 17.7213 191.14 16.7797C190.99 15.838 190.614 15.1224 190.013 14.6328C189.449 14.1431 188.81 13.8418 188.096 13.7288C187.383 13.6158 186.274 13.5593 184.771 13.5593V41.0734H179.023Z" fill="url(#paint6_linear)"/>
<path d="M212.822 13.1073L217.725 41.0734H211.863L211.187 37.5706C208.933 40.2825 206.002 41.6384 202.395 41.6384C200.253 41.6384 198.713 40.9793 197.774 39.661C196.872 38.3427 196.421 36.855 196.421 35.1977C196.421 30.339 200.235 24.7081 207.862 18.3051L206.735 12.1469H211.469C212.258 12.1469 212.709 12.467 212.822 13.1073ZM210.793 35.0847L208.087 19.8305C203.917 23.3333 201.832 27.0433 201.832 30.9605C201.832 32.4294 202.207 33.8606 202.959 35.2542C203.71 36.6102 204.856 37.2881 206.397 37.2881C208.275 37.2881 209.741 36.5537 210.793 35.0847Z" fill="url(#paint7_linear)"/>
<path d="M234.351 8.58757C228.828 8.58757 226.066 7.49529 226.066 5.31073C226.066 4.51977 226.254 3.89831 226.629 3.44633C227.005 2.95669 227.475 2.71186 228.038 2.71186C228.827 2.71186 229.372 2.99435 229.673 3.55932C229.973 4.12429 230.124 5.00942 230.124 6.21469C231.176 6.85499 232.585 7.17514 234.351 7.17514C235.14 7.17514 235.891 7.09981 236.605 6.94915C237.357 6.79849 237.883 6.64783 238.183 6.49717L238.634 6.21469C238.634 5.00942 238.784 4.12429 239.085 3.55932C239.385 2.99435 239.93 2.71186 240.719 2.71186C241.283 2.71186 241.753 2.95669 242.128 3.44633C242.504 3.89831 242.692 4.51977 242.692 5.31073C242.692 7.49529 239.911 8.58757 234.351 8.58757ZM239.31 12.1469H245.059V41.0734H239.31V21.9774L229.504 33.7288V41.0734H223.699V12.1469H229.504V30.8475L239.31 19.1525V12.1469Z" fill="url(#paint8_linear)"/>
<path d="M220.978 45.5208C220.978 45.2552 220.941 45.0599 220.868 44.9349C220.8 44.8047 220.657 44.7396 220.438 44.7396H220.359V44.5052H221.134C221.317 44.5052 221.458 44.5312 221.557 44.5833C221.656 44.6302 221.734 44.7135 221.792 44.8333C222.1 44.5625 222.454 44.4271 222.856 44.4271C223.383 44.4271 223.788 44.6068 224.07 44.9661C224.357 45.3203 224.5 45.7786 224.5 46.3411C224.5 46.9036 224.354 47.3646 224.062 47.724C223.775 48.0781 223.36 48.2552 222.817 48.2552C222.655 48.2552 222.499 48.2318 222.348 48.1849C222.196 48.138 222.079 48.0833 221.995 48.0208V49.6615H220.978V45.5208ZM222.661 47.9036C223.182 47.9036 223.443 47.3828 223.443 46.3411C223.443 45.862 223.383 45.4818 223.263 45.2005C223.143 44.9193 222.955 44.7786 222.7 44.7786C222.428 44.7786 222.194 44.8672 221.995 45.0443V47.6693C222.063 47.7318 222.16 47.7865 222.285 47.8333C222.41 47.8802 222.535 47.9036 222.661 47.9036Z" fill="url(#paint9_linear)"/>
<path d="M226.883 48.2552C226.522 48.2552 226.207 48.1719 225.935 48.0052C225.664 47.8385 225.453 47.612 225.301 47.3255C225.155 47.0338 225.082 46.7057 225.082 46.3411C225.082 45.9349 225.155 45.5885 225.301 45.3021C225.453 45.0156 225.659 44.7995 225.92 44.6536C226.181 44.5026 226.475 44.4271 226.804 44.4271C227.128 44.4271 227.42 44.4922 227.681 44.6224C227.942 44.7526 228.148 44.9375 228.299 45.1771C228.451 45.4115 228.526 45.6823 228.526 45.9896L228.495 46.4818H226.139C226.139 46.9766 226.215 47.3385 226.366 47.5677C226.517 47.7917 226.729 47.9036 227 47.9036C227.25 47.9036 227.459 47.849 227.626 47.7396C227.798 47.625 227.963 47.4635 228.119 47.2552L228.362 47.4349C228.211 47.6693 228.02 47.8646 227.79 48.0208C227.566 48.1771 227.263 48.2552 226.883 48.2552ZM227.47 46.1302C227.47 45.6406 227.412 45.2943 227.297 45.0911C227.183 44.8828 227.018 44.7786 226.804 44.7786C226.606 44.7786 226.444 44.8854 226.319 45.099C226.199 45.3073 226.139 45.651 226.139 46.1302H227.47Z" fill="url(#paint10_linear)"/>
<path d="M230.16 44.8568H229.926C229.68 44.8568 229.495 44.9219 229.37 45.0521C229.245 45.1823 229.182 45.3906 229.182 45.6771H228.947V45.1302C228.947 44.7135 229.143 44.5052 229.534 44.5052H232.36V44.8568H231.178V48.1771H230.16V44.8568Z" fill="url(#paint11_linear)"/>
<path d="M233.055 45.5208C233.055 45.2552 233.018 45.0599 232.945 44.9349C232.878 44.8047 232.734 44.7396 232.515 44.7396H232.437V44.5052H233.212C233.394 44.5052 233.535 44.5312 233.634 44.5833C233.733 44.6302 233.812 44.7135 233.869 44.8333C234.177 44.5625 234.532 44.4271 234.934 44.4271C235.461 44.4271 235.865 44.6068 236.147 44.9661C236.434 45.3203 236.577 45.7786 236.577 46.3411C236.577 46.9036 236.431 47.3646 236.139 47.724C235.852 48.0781 235.437 48.2552 234.894 48.2552C234.733 48.2552 234.576 48.2318 234.425 48.1849C234.273 48.138 234.156 48.0833 234.073 48.0208V49.6615H233.055V45.5208ZM234.738 47.9036C235.26 47.9036 235.521 47.3828 235.521 46.3411C235.521 45.862 235.461 45.4818 235.341 45.2005C235.221 44.9193 235.033 44.7786 234.777 44.7786C234.506 44.7786 234.271 44.8672 234.073 45.0443V47.6693C234.14 47.7318 234.237 47.7865 234.362 47.8333C234.487 47.8802 234.613 47.9036 234.738 47.9036Z" fill="url(#paint12_linear)"/>
<path d="M237.488 45.5208C237.488 45.2552 237.452 45.0599 237.379 44.9349C237.306 44.8047 237.159 44.7396 236.94 44.7396H236.862V44.5052H237.801C237.989 44.5052 238.133 44.5365 238.232 44.599C238.331 44.6615 238.401 44.7656 238.443 44.9115C238.485 45.0521 238.506 45.2552 238.506 45.5208V47.2005L239.915 44.5052H240.854V48.1771H239.836V45.4818L238.427 48.1771H237.488V45.5208Z" fill="url(#paint13_linear)"/>
<path d="M242.712 44.8568H242.477C242.232 44.8568 242.046 44.9219 241.921 45.0521C241.796 45.1823 241.733 45.3906 241.733 45.6771H241.498V45.1302C241.498 44.7135 241.694 44.5052 242.085 44.5052H244.911V44.8568H243.729V48.1771H242.712V44.8568Z" fill="url(#paint14_linear)"/>
<defs>
<linearGradient id="paint0_linear" x1="122.954" y1="0" x2="122.954" y2="50" gradientUnits="userSpaceOnUse">
<stop offset="0.307292" stop-color="#FFB800"/>
<stop offset="1" stop-color="#FF2626"/>
</linearGradient>
<linearGradient id="paint1_linear" x1="122.954" y1="0" x2="122.954" y2="50" gradientUnits="userSpaceOnUse">
<stop offset="0.307292" stop-color="#FFB800"/>
<stop offset="1" stop-color="#FF2626"/>
</linearGradient>
<linearGradient id="paint2_linear" x1="122.954" y1="0" x2="122.954" y2="50" gradientUnits="userSpaceOnUse">
<stop offset="0.307292" stop-color="#FFB800"/>
<stop offset="1" stop-color="#FF2626"/>
</linearGradient>
<linearGradient id="paint3_linear" x1="122.954" y1="0" x2="122.954" y2="50" gradientUnits="userSpaceOnUse">
<stop offset="0.307292" stop-color="#FFB800"/>
<stop offset="1" stop-color="#FF2626"/>
</linearGradient>
<linearGradient id="paint4_linear" x1="122.954" y1="0" x2="122.954" y2="50" gradientUnits="userSpaceOnUse">
<stop offset="0.307292" stop-color="#FFB800"/>
<stop offset="1" stop-color="#FF2626"/>
</linearGradient>
<linearGradient id="paint5_linear" x1="122.954" y1="0" x2="122.954" y2="50" gradientUnits="userSpaceOnUse">
<stop offset="0.307292" stop-color="#FFB800"/>
<stop offset="1" stop-color="#FF2626"/>
</linearGradient>
<linearGradient id="paint6_linear" x1="122.954" y1="0" x2="122.954" y2="50" gradientUnits="userSpaceOnUse">
<stop offset="0.307292" stop-color="#FFB800"/>
<stop offset="1" stop-color="#FF2626"/>
</linearGradient>
<linearGradient id="paint7_linear" x1="122.954" y1="0" x2="122.954" y2="50" gradientUnits="userSpaceOnUse">
<stop offset="0.307292" stop-color="#FFB800"/>
<stop offset="1" stop-color="#FF2626"/>
</linearGradient>
<linearGradient id="paint8_linear" x1="122.954" y1="0" x2="122.954" y2="50" gradientUnits="userSpaceOnUse">
<stop offset="0.307292" stop-color="#FFB800"/>
<stop offset="1" stop-color="#FF2626"/>
</linearGradient>
<linearGradient id="paint9_linear" x1="122.954" y1="0" x2="122.954" y2="50" gradientUnits="userSpaceOnUse">
<stop offset="0.307292" stop-color="#FFB800"/>
<stop offset="1" stop-color="#FF2626"/>
</linearGradient>
<linearGradient id="paint10_linear" x1="122.954" y1="0" x2="122.954" y2="50" gradientUnits="userSpaceOnUse">
<stop offset="0.307292" stop-color="#FFB800"/>
<stop offset="1" stop-color="#FF2626"/>
</linearGradient>
<linearGradient id="paint11_linear" x1="122.954" y1="0" x2="122.954" y2="50" gradientUnits="userSpaceOnUse">
<stop offset="0.307292" stop-color="#FFB800"/>
<stop offset="1" stop-color="#FF2626"/>
</linearGradient>
<linearGradient id="paint12_linear" x1="122.954" y1="0" x2="122.954" y2="50" gradientUnits="userSpaceOnUse">
<stop offset="0.307292" stop-color="#FFB800"/>
<stop offset="1" stop-color="#FF2626"/>
</linearGradient>
<linearGradient id="paint13_linear" x1="122.954" y1="0" x2="122.954" y2="50" gradientUnits="userSpaceOnUse">
<stop offset="0.307292" stop-color="#FFB800"/>
<stop offset="1" stop-color="#FF2626"/>
</linearGradient>
<linearGradient id="paint14_linear" x1="122.954" y1="0" x2="122.954" y2="50" gradientUnits="userSpaceOnUse">
<stop offset="0.307292" stop-color="#FFB800"/>
<stop offset="1" stop-color="#FF2626"/>
</linearGradient>
</defs>
</svg>
