<svg width="71" height="70" viewBox="0 0 71 70" fill="none" xmlns="http://www.w3.org/2000/svg">
<rect x="0.608887" width="70" height="70" rx="6" fill="#2D2D2D"/>
<g filter="url(#filter0_d)">
<path fill-rule="evenodd" clip-rule="evenodd" d="M23.277 28.4438C22.5841 27.0902 21.3812 24.4553 21.7086 23.145C22.1253 21.3407 22.2662 17.395 22.2662 17.395L21.1998 20.361L20.2344 19.4289L20.4191 22.5507C20.4191 22.5507 19.0337 20.8599 19.2212 21.9925C19.4525 23.1214 20.7847 25.2146 20.7847 25.2146L19.2645 24.5079C20.4837 25.8155 21.703 27.1231 22.9223 28.4307C21.4152 27.3692 19.0018 25.5474 18.4081 24.3177C17.5852 22.4892 15.0068 18.7814 15.0068 18.7814L16.1203 21.9103L14.7031 21.3713L16.9854 24.2211C16.9854 24.2211 14.6811 23.1411 15.6065 24.1208C16.5758 25.0967 19.0462 26.56 19.0462 26.56L17.3088 26.4026C18.913 27.0578 20.4908 28.4224 22.1389 29.0738C22.3889 29.4055 22.4919 29.5732 22.7419 29.9049C22.8143 29.7218 22.9629 29.3994 23.1153 29.1209C23.1361 28.8539 23.2008 28.5831 23.277 28.4438Z" fill="#81DA10"/>
<path fill-rule="evenodd" clip-rule="evenodd" d="M21.8097 31.672C20.9205 30.4321 22.915 28.317 22.915 28.317C22.915 28.317 23.2027 26.935 24.9966 26.2144C26.3011 25.6885 26.9663 26.6603 27.6193 27.6146C27.6991 27.7311 27.7786 27.8473 27.8591 27.9605C27.4168 28.2527 26.912 28.6694 26.6503 28.9431C26.5499 29.0719 26.4502 29.1961 26.3597 29.3088C26.0568 29.686 25.8574 29.9344 26.0829 29.7956C26.191 29.729 26.3798 29.565 26.6167 29.3591C27.0215 29.0073 27.5666 28.5336 28.0893 28.216C28.2012 28.3655 28.3194 28.4715 28.4376 28.5775C28.7486 28.8891 29.1468 29.2132 29.545 29.5374C29.1522 30.1036 28.7779 30.8504 28.7779 30.8504C28.7779 30.8504 29.0388 31.5107 29.2949 30.6579C29.358 30.4423 29.4924 30.2139 29.6303 29.9795C29.6835 29.889 29.7373 29.7976 29.7877 29.7057C29.8212 29.7318 29.8548 29.758 29.8885 29.7843C30.7007 30.4169 31.5748 31.0978 32.2078 31.744L32.2825 31.8437C32.2045 31.914 32.1272 31.9801 32.0527 32.0438C31.883 32.1889 31.7283 32.3212 31.6157 32.4595C31.142 32.9697 30.7554 33.4923 31.0545 33.2684C31.1443 33.2193 31.3272 33.0585 31.5623 32.8517C31.8327 32.6138 32.1722 32.3151 32.5189 32.0557C33.0237 32.5082 33.8644 33.1063 34.8278 33.7918C34.9924 33.9089 35.1606 34.0285 35.3312 34.1504C34.8823 34.7975 34.346 35.7434 34.346 35.7434C34.346 35.7434 34.6006 36.4473 34.9002 35.6008C35.0002 35.2148 35.2372 34.6841 35.5178 34.2796C35.8414 34.5041 36.2132 34.8221 36.5352 35.0575C36.616 35.1165 36.9264 35.3254 37.0073 35.3843L35.0256 37.454L34.4624 37.8099C33.9351 37.5314 33.2808 37.2249 32.4085 36.8437C32.6114 36.5336 32.8353 36.238 33.0153 36.0003C33.1893 35.7705 33.3224 35.5947 33.3562 35.5121C33.5254 35.2036 33.1273 35.5919 32.6517 36.0558C32.6189 36.0878 32.5857 36.1202 32.5524 36.1527C32.4464 36.2709 32.3295 36.4782 32.1612 36.7208C31.7006 36.5272 31.1865 36.314 30.7489 36.1228C30.2698 35.9134 29.8284 35.7205 29.477 35.577L28.8857 35.3585C29.266 34.8794 29.5964 34.4376 29.6651 34.2696C29.8007 34.0472 29.5489 34.2791 29.1903 34.6094C29.0872 34.7044 28.9753 34.8074 28.8613 34.9101C28.8051 34.991 28.6992 35.1092 28.5932 35.2274C28.3071 35.1106 28.0371 34.9817 27.7728 34.8556C27.5714 34.7594 27.3734 34.6649 27.1742 34.5786C27.3554 33.9374 27.5989 33.1718 27.9293 32.73C28.4344 32.002 27.7431 32.1695 27.7431 32.1695C27.7431 32.1695 27.0879 33.6321 26.9378 34.3666L26.9253 34.4538C26.5954 34.2729 26.2283 34.0422 25.8611 33.8115C25.4286 33.5264 24.8959 33.3316 24.3426 33.1293C24.0123 33.0085 23.6747 32.8851 23.3467 32.7381C23.5278 32.097 23.7902 31.2006 24.1269 30.7153C24.6755 29.9935 23.9406 30.1547 23.9406 30.1547C23.9406 30.1547 23.2792 31.6609 23.1789 32.3582L23.135 32.6632C22.5936 32.4074 22.1518 32.077 21.8097 31.672ZM26.6485 30.8111C26.0751 31.3958 25.177 33.0014 25.177 33.0014C25.177 33.0014 25.4316 33.7052 25.7438 32.7715C25.9912 32.1266 26.6634 31.2202 27.1108 30.6169C27.3068 30.3526 27.4596 30.1465 27.5147 30.046C27.6956 29.7162 27.1783 30.22 26.6485 30.8111Z" fill="white"/>
<path d="M37.0073 35.3843C37.2485 35.56 37.7786 35.9093 38.021 36.0775L37.1507 36.3901L35.8589 36.9764L35.0256 37.454L37.0073 35.3843Z" fill="white"/>
<path d="M36.3915 38.8399C35.8065 38.5779 35.3522 38.3346 35.1095 38.1663C35.0209 38.1048 34.6868 37.9283 34.4788 37.8185L34.4624 37.8099L35.0256 37.454L35.8589 36.9764L37.1507 36.3901L38.021 36.0775C38.8236 36.6822 39.3134 37.0806 39.8671 37.5606C39.7176 37.6725 39.6179 37.7471 39.5119 37.8653C39.0818 38.3817 38.6517 38.8981 38.9943 38.6805C39.1439 38.5686 39.605 38.1456 40.0662 37.7226C41.8828 39.3183 44.0919 41.8353 43.4692 41.8348C42.8529 41.7906 40.3561 40.6556 39.2731 40.144C38.6445 39.8756 37.5616 39.364 36.6841 38.971C37.027 38.442 37.4073 37.963 37.5195 37.8012C37.6568 37.4651 37.1894 37.9316 36.7157 38.4417C36.616 38.5164 36.5038 38.6781 36.3915 38.8399Z" fill="white"/>
<path fill-rule="evenodd" clip-rule="evenodd" d="M47.7107 28.4131C48.4037 27.0594 49.6065 24.4245 49.2792 23.1142C48.8625 21.3099 48.7216 17.3642 48.7216 17.3642L49.788 20.3302L50.7534 19.3982L50.5687 22.5199C50.5687 22.5199 51.9541 20.8291 51.7666 21.9618C51.5353 23.0906 50.2031 25.1839 50.2031 25.1839L51.7233 24.4771C50.504 25.7847 49.2848 27.0923 48.0655 28.3999C49.5726 27.3385 51.986 25.5166 52.5797 24.2869C53.4026 22.4585 55.981 18.7506 55.981 18.7506L54.8675 21.8795L56.2847 21.3406L54.0024 24.1904C54.0024 24.1904 56.3067 23.1103 55.3813 24.09C54.412 25.0659 51.9416 26.5292 51.9416 26.5292L53.679 26.3719C52.0748 27.027 50.497 28.3917 48.8489 29.043C48.5989 29.3747 48.4959 29.5425 48.2459 29.8742C48.1735 29.691 48.0249 29.3687 47.8725 29.0902C47.8517 28.8232 47.787 28.5523 47.7107 28.4131Z" fill="#81DA10"/>
<path fill-rule="evenodd" clip-rule="evenodd" d="M49.1944 31.6568C50.0822 30.4188 48.0908 28.307 48.0908 28.307C48.0908 28.307 47.8036 26.9271 46.0124 26.2076C44.7099 25.6825 44.0458 26.6529 43.3937 27.6056C43.3141 27.7219 43.2347 27.838 43.1543 27.951C43.596 28.2428 44.0999 28.6589 44.3613 28.9322C44.4615 29.0608 44.5611 29.1848 44.6514 29.2973C44.9538 29.6739 45.153 29.9219 44.9279 29.7833C44.8199 29.7169 44.6314 29.553 44.3948 29.3475C43.9907 28.9963 43.4464 28.5233 42.9245 28.2061C42.8128 28.3555 42.6948 28.4613 42.5767 28.5671C42.2662 28.8782 41.8686 29.2018 41.471 29.5255C41.8632 30.0909 42.2369 30.8365 42.2369 30.8365C42.2369 30.8365 41.9765 31.4958 41.7208 30.6443C41.6578 30.4291 41.5236 30.201 41.3859 29.9669C41.3327 29.8765 41.279 29.7853 41.2287 29.6936C41.1953 29.7196 41.1617 29.7458 41.128 29.772C40.3172 30.4037 39.4444 31.0835 38.8123 31.7288L38.7378 31.8283C38.8156 31.8984 38.8929 31.9645 38.9672 32.0281C39.1366 32.1729 39.2911 32.305 39.4036 32.4432C39.8765 32.9525 40.2625 33.4743 39.9639 33.2508C39.8742 33.2018 39.6916 33.0412 39.4569 32.8347C39.1869 32.5972 38.8479 32.299 38.5017 32.0399C37.9977 32.4917 37.1583 33.089 36.1963 33.7734C36.032 33.8903 35.8641 34.0097 35.6937 34.1314C36.1419 34.7776 36.6775 35.722 36.6775 35.722C36.6775 35.722 36.4232 36.4248 36.124 35.5796C36.0242 35.1942 35.7979 34.6831 35.5178 34.2792C35.1947 34.5034 34.8131 34.8021 34.4916 35.0371C34.4109 35.0961 34.1009 35.3046 34.0203 35.3634L35.9989 37.43L36.5612 37.7853C37.0877 37.5072 37.741 37.2012 38.6119 36.8206C38.4093 36.511 38.1858 36.2158 38.0061 35.9785C37.8323 35.749 37.6994 35.5735 37.6657 35.4911C37.4968 35.183 37.8943 35.5707 38.3691 36.0339C38.4019 36.0659 38.435 36.0982 38.4683 36.1306C38.5741 36.2487 38.6724 36.4782 38.8405 36.7204C39.3003 36.5271 39.8321 36.2917 40.269 36.1008C40.7474 35.8917 41.1881 35.6991 41.5389 35.5558L42.1293 35.3376C41.7496 34.8593 41.4197 34.4182 41.3512 34.2504C41.2157 34.0284 41.4671 34.2599 41.8252 34.5897C41.9281 34.6845 42.0398 34.7874 42.1537 34.89C42.2098 34.9708 42.3156 35.0888 42.4214 35.2068C42.707 35.0901 42.9766 34.9614 43.2405 34.8355C43.4416 34.7395 43.6393 34.6452 43.8382 34.5589C43.6573 33.9188 43.4141 33.1543 43.0842 32.7132C42.58 31.9863 43.2702 32.1535 43.2702 32.1535C43.2702 32.1535 43.9243 33.6139 44.0742 34.3473L44.0868 34.4343C44.4161 34.2537 44.7827 34.0234 45.1492 33.793C45.5811 33.5084 46.113 33.3139 46.6654 33.1119C46.9952 32.9913 47.3323 32.868 47.6598 32.7213C47.4789 32.0812 47.217 31.1862 46.8808 30.7016C46.3331 29.9809 47.0668 30.1419 47.0668 30.1419C47.0668 30.1419 47.7272 31.6458 47.8273 32.3419L47.8711 32.6465C48.4118 32.3911 48.8529 32.0612 49.1944 31.6568ZM44.3631 30.7972C44.9356 31.3811 45.8323 32.9842 45.8323 32.9842C45.8323 32.9842 45.5781 33.6869 45.2664 32.7547C45.0194 32.1108 44.3482 31.2058 43.9015 30.6034C43.7058 30.3395 43.5532 30.1337 43.4982 30.0334C43.3176 29.704 43.8341 30.2071 44.3631 30.7972Z" fill="white"/>
<path d="M34.0203 35.3634C33.7793 35.5389 33.2501 35.8877 33.0081 36.0555L33.8771 36.3677L35.1669 36.9531L35.9989 37.43L34.0203 35.3634Z" fill="white"/>
<path d="M34.635 38.8137C35.2192 38.5521 35.6728 38.3092 35.9151 38.1411C36.0036 38.0797 36.3372 37.9036 36.5449 37.7939L36.5612 37.7853L35.9989 37.43L35.1669 36.9531L33.8771 36.3677L33.0081 36.0555C32.2067 36.6593 31.7177 37.0571 31.1648 37.5363C31.3141 37.6481 31.4137 37.7226 31.5195 37.8406C31.9489 38.3562 32.3784 38.8718 32.0362 38.6545C31.8869 38.5428 31.4265 38.1205 30.966 37.6982C29.1522 39.2914 27.015 41.8401 27.6366 41.8395C28.2521 41.7954 30.6766 40.6266 31.7579 40.1158C32.3855 39.8479 33.4668 39.3371 34.343 38.9446C34.0005 38.4165 33.6209 37.9381 33.5088 37.7766C33.3717 37.441 33.8384 37.9068 34.3114 38.4162C34.4109 38.4907 34.523 38.6522 34.635 38.8137Z" fill="white"/>
</g>
<g filter="url(#filter1_d)">
<path d="M29.4798 15.8044C29.4798 16.9906 29.473 18.1041 29.4884 19.2177C29.4884 19.354 29.5682 19.5588 29.6884 19.6144C31.5609 20.4909 33.5017 21.219 35.7069 21.1771C37.1536 21.1497 38.4946 20.7352 39.8029 20.253C40.372 20.0434 41.117 19.8942 41.4111 19.5152C41.6918 19.1548 41.4938 18.5307 41.4976 18.0219C41.5024 17.2962 41.4976 16.5705 41.4976 15.8448C43.6374 15.9843 45.4446 17.2422 45.3274 19.2991C45.2255 21.0787 44.1738 22.4334 42.531 23.4744C40.2816 24.9024 37.7535 25.7789 34.8985 25.5209C31.9531 25.254 29.2039 24.4726 27.1266 22.5567C26.0355 21.5504 25.5885 20.3135 25.5501 18.9726C25.5445 18.6515 25.625 18.3335 25.7856 18.042C26.5181 16.7519 27.9254 16.2431 29.4798 15.8044ZM41.2833 20.6175C40.4633 20.9175 39.6741 21.2706 38.8349 21.4956C37.9957 21.7206 37.1344 21.8077 36.2818 21.956C37.4449 22.0987 38.6032 22.1754 39.7423 21.8472C40.4835 21.6327 41.0487 21.2561 41.2833 20.6175ZM26.2874 18.5387C26.6161 18.1444 26.8872 17.6711 27.3169 17.3454C27.7466 17.0196 28.3262 16.8503 28.8415 16.6124C27.4313 16.639 26.0788 17.751 26.2864 18.5387H26.2874Z" fill="white"/>
<path d="M41.0338 15.4452C41.0338 15.9938 41.0471 16.5425 41.0252 17.0928C41.0194 17.2238 40.8795 19.1238 40.7647 19.179C39.0493 20.0028 37.287 20.7352 35.2627 20.75C33.8742 20.7599 32.6325 20.2691 31.4066 19.774C29.376 19.3034 29.9244 17.4651 29.8881 16.0169C29.8757 15.5514 29.8718 15.0852 29.8824 14.6164C29.9101 13.3807 30.8644 12.3097 32.2662 12.0519C32.7826 11.958 33.4051 11.9695 33.8918 12.1293C35.0784 12.5272 36.2106 12.5066 37.3552 12.0832C38.407 11.696 39.2982 11.9605 40.1493 12.519C40.4073 12.6798 40.6181 12.8905 40.7647 13.1341C40.9113 13.3777 40.9897 13.6475 40.9936 13.9219C41.0137 14.4278 40.9984 14.936 40.9984 15.4427L41.0338 15.4452ZM33.2263 14.0447C33.8277 14.5892 34.2685 15.2194 34.4359 15.9543C34.5477 16.4486 34.5267 16.9593 34.5946 17.4602C34.608 17.564 34.7486 17.6554 34.8298 17.7526C34.9255 17.6661 35.1052 17.5829 35.1167 17.4907C35.2152 16.2335 34.6548 14.7054 33.2263 14.0414V14.0447ZM38.4692 12.3238C37.7836 12.201 36.3808 13.0528 36.1551 13.6929L38.4692 12.3238ZM31.0002 13.6484L31.2019 13.7308C31.3482 13.5825 31.5213 13.4474 31.6303 13.2818C31.6781 13.2085 31.594 13.0718 31.5691 12.9639C31.4573 12.9902 31.2823 12.9886 31.2459 13.0462C31.1476 13.2417 31.0654 13.4429 31.0002 13.6484Z" fill="white"/>
</g>
<g filter="url(#filter2_d)">
<path d="M18.9532 36.1084L19.6737 38.3258L22.0053 38.3258L20.119 39.6963L20.8395 41.9137L18.9532 40.5433L17.067 41.9137L17.7875 39.6963L15.9012 38.3258L18.2328 38.3258L18.9532 36.1084Z" fill="white"/>
<path d="M35.4313 43.4321L36.1518 45.6496L38.4833 45.6496L36.5971 47.02L37.3175 49.2375L35.4313 47.867L33.545 49.2375L34.2655 47.02L32.3792 45.6496L34.7108 45.6496L35.4313 43.4321Z" fill="white"/>
<path d="M52.1129 36.1443L52.8334 38.3617L55.165 38.3617L53.2787 39.7322L53.9992 41.9496L52.1129 40.5792L50.2267 41.9496L50.9471 39.7322L49.0609 38.3617L51.3924 38.3617L52.1129 36.1443Z" fill="white"/>
</g>
<g filter="url(#filter3_d)">
<mask id="path-11-outside-1" maskUnits="userSpaceOnUse" x="36.1704" y="52.9771" width="24" height="7" fill="black">
<rect fill="white" x="36.1704" y="52.9771" width="24" height="7"/>
<path d="M40.1537 57.4497C40.1537 57.8919 40.0525 58.228 39.8501 58.4579C39.6496 58.6859 39.403 58.7999 39.1102 58.7999H38.2169C37.7688 58.7999 37.4603 58.5975 37.2913 58.1926C37.2362 58.059 37.196 57.8556 37.1704 57.5824H37.5035C37.5507 57.7082 37.6588 57.7966 37.8278 57.8477C37.8809 57.8634 37.9595 57.8782 38.0636 57.8919H39.2605C39.4452 57.8919 39.5917 57.8408 39.6997 57.7386C39.8059 57.6423 39.8589 57.4959 39.8589 57.2994C39.8589 57.0419 39.7921 56.8523 39.6585 56.7304C39.5464 56.6302 39.3833 56.5801 39.1691 56.5801H37.9192C37.6657 56.5801 37.4711 56.4317 37.3355 56.1349C37.2254 55.8971 37.1704 55.6249 37.1704 55.3184C37.1704 54.9371 37.2657 54.6168 37.4564 54.3573C37.6411 54.1038 37.8946 53.9771 38.2169 53.9771H39.1102C39.5681 53.9771 39.8805 54.1785 40.0476 54.5814C40.0987 54.715 40.1341 54.9165 40.1537 55.1857H39.8236C39.7744 55.0737 39.7037 54.9931 39.6113 54.944C39.5189 54.9007 39.402 54.8791 39.2605 54.8791H38.0636C37.8986 54.8791 37.758 54.9371 37.6421 55.053C37.5261 55.169 37.4682 55.3095 37.4682 55.4746C37.4682 55.7203 37.534 55.906 37.6657 56.0318C37.7836 56.1399 37.9467 56.1939 38.155 56.1939H39.4108C39.6172 56.1939 39.7921 56.299 39.9356 56.5093C40.081 56.7216 40.1537 57.035 40.1537 57.4497Z"/>
<path d="M45.542 55.1798H45.2413C45.1568 55.0678 45.0477 54.9852 44.9141 54.9322C44.7765 54.8831 44.6379 54.8585 44.4984 54.8585C44.3294 54.8585 44.1741 54.8889 44.0326 54.9499C43.844 55.0304 43.7496 55.1071 43.7496 55.1798V57.5883C43.7496 57.6256 43.8243 57.6905 43.9737 57.7828C44.0935 57.8595 44.1997 57.8978 44.292 57.8978C44.3117 57.8978 44.3304 57.8958 44.3481 57.8919V58.7969H43.9C43.8037 58.7478 43.729 58.679 43.6759 58.5906C43.6445 58.5375 43.6189 58.455 43.5993 58.3429C43.5914 58.4157 43.5786 58.4717 43.561 58.511C43.5138 58.6368 43.4273 58.7321 43.3015 58.7969H42.8564V57.8919C43.0176 57.8919 43.1649 57.8467 43.2986 57.7563C43.4027 57.6856 43.4548 57.6295 43.4548 57.5883V55.1798C43.4548 55.1444 43.3939 55.0884 43.2721 55.0118C43.1109 54.9096 42.9321 54.8585 42.7355 54.8585C42.4525 54.8585 42.2393 54.9115 42.0958 55.0177C42.0467 55.0491 42.0005 55.1032 41.9573 55.1798H41.6595V53.9771H43.3015C43.4273 54.0419 43.5138 54.1362 43.561 54.2601C43.5786 54.3013 43.5914 54.3583 43.5993 54.431C43.6111 54.321 43.6327 54.2404 43.6641 54.1893C43.7172 54.1009 43.7958 54.0301 43.9 53.9771H45.542V55.1798Z"/>
<path d="M49.6272 58.7999H47.6904C47.5646 58.7331 47.4772 58.6377 47.4281 58.5139C47.4123 58.4746 47.4005 58.4186 47.3927 58.3459C47.3809 58.454 47.3593 58.5346 47.3278 58.5876C47.2748 58.6761 47.1962 58.7468 47.092 58.7999H46.6439V57.8919C46.7893 57.8919 46.9269 57.8497 47.0566 57.7652C47.1804 57.6846 47.2423 57.6256 47.2423 57.5883V55.1798C47.2423 55.1484 47.1824 55.0943 47.0625 55.0177C46.9171 54.9253 46.7775 54.8791 46.6439 54.8791V53.9771H47.0979C47.2217 54.038 47.3082 54.1353 47.3573 54.2689C47.373 54.3082 47.3848 54.3662 47.3927 54.4428C47.4005 54.3662 47.4123 54.3082 47.4281 54.2689C47.4772 54.1392 47.5646 54.0419 47.6904 53.9771H49.6272V55.1798H49.3324C49.2558 55.0796 49.1909 55.0108 49.1379 54.9735C49.0376 54.9106 48.903 54.8791 48.734 54.8791H48.1356C47.9901 54.8791 47.8496 54.9233 47.714 55.0118C47.5961 55.0884 47.5371 55.1444 47.5371 55.1798V55.9345C47.5371 55.9541 47.5715 56.0023 47.6403 56.0789C47.7052 56.1556 47.7514 56.1939 47.7789 56.1939H48.5837C48.6387 56.1939 48.6809 56.1516 48.7104 56.0671C48.7183 56.0396 48.7261 55.9954 48.734 55.9345H49.0347V56.8395H48.734C48.7301 56.8061 48.7261 56.7796 48.7222 56.7599C48.6888 56.64 48.6426 56.5801 48.5837 56.5801H47.7789C47.7514 56.5801 47.7052 56.6184 47.6403 56.6951C47.5715 56.7756 47.5371 56.8238 47.5371 56.8395V57.5883C47.5371 57.6295 47.6079 57.6905 47.7494 57.771C47.887 57.8516 48.0157 57.8919 48.1356 57.8919H48.734C48.8873 57.8919 49.016 57.8595 49.1202 57.7946C49.2008 57.7455 49.2715 57.6767 49.3324 57.5883H49.6272V58.7999Z"/>
<path d="M54.7148 58.7969H54.2696C54.1439 58.7321 54.0564 58.6368 54.0073 58.511C53.9915 58.4717 53.9798 58.4157 53.9719 58.3429C53.9601 58.451 53.9375 58.5316 53.9041 58.5847C53.853 58.6731 53.7744 58.7439 53.6683 58.7969H53.2231V57.8919C53.3961 57.8919 53.5248 57.8615 53.6093 57.8005C53.7469 57.7042 53.8157 57.5352 53.8157 57.2935C53.8157 57.0911 53.7626 56.9279 53.6565 56.8041C53.5327 56.6548 53.398 56.5801 53.2526 56.5801H52.268C52.2326 56.5801 52.1845 56.6184 52.1235 56.6951C52.0587 56.7717 52.0263 56.8198 52.0263 56.8395V57.5883C52.0263 57.6295 52.099 57.6924 52.2444 57.7769C52.3702 57.8536 52.4852 57.8919 52.5893 57.8919C52.6011 57.8919 52.6129 57.8919 52.6247 57.8919V58.7969H52.1795C52.0538 58.7321 51.9663 58.6368 51.9172 58.511C51.9015 58.4717 51.8897 58.4157 51.8818 58.3429C51.87 58.451 51.8484 58.5316 51.817 58.5847C51.7639 58.6731 51.6853 58.7439 51.5811 58.7969H51.133V57.8919C51.2824 57.8919 51.4259 57.8467 51.5634 57.7563C51.6754 57.6856 51.7315 57.6295 51.7315 57.5883V55.1798C51.7315 55.1444 51.6715 55.0865 51.5516 55.0059C51.4219 54.9174 51.3011 54.8732 51.189 54.8732C51.1674 54.8732 51.1488 54.8752 51.133 54.8791V53.9771H51.5811C51.6774 54.0262 51.7521 54.095 51.8052 54.1834C51.8366 54.2365 51.8622 54.319 51.8818 54.431C51.8897 54.3583 51.9015 54.3023 51.9172 54.263C51.9663 54.1372 52.0538 54.0419 52.1795 53.9771H53.0728C53.3695 53.9771 53.6122 54.0743 53.8009 54.2689C54.0112 54.4811 54.1163 54.7848 54.1163 55.1798C54.1163 55.6829 54.0181 56.0347 53.8215 56.2352C53.7567 56.3 53.6584 56.3511 53.5268 56.3885C53.7154 56.4514 53.8481 56.5398 53.9247 56.6538C54.0525 56.8464 54.1163 57.1078 54.1163 57.4379C54.1163 57.5952 54.1851 57.7121 54.3227 57.7887C54.4151 57.8398 54.5458 57.8742 54.7148 57.8919V58.7969ZM53.8215 55.4805C53.8215 55.2918 53.7793 55.1435 53.6948 55.0354C53.6103 54.9312 53.5032 54.8791 53.3735 54.8791H52.6247C52.4714 54.8791 52.3446 54.9047 52.2444 54.9558C52.099 55.0285 52.0263 55.1032 52.0263 55.1798V55.9345C52.0263 55.9541 52.0587 56.0023 52.1235 56.0789C52.1845 56.1556 52.2326 56.1939 52.268 56.1939H53.2526C53.3528 56.1939 53.458 56.1516 53.568 56.0671C53.737 55.9335 53.8215 55.738 53.8215 55.4805Z"/>
<path d="M58.9946 57.4497C58.9946 57.8919 58.8934 58.228 58.691 58.4579C58.4905 58.6859 58.2439 58.7999 57.951 58.7999H57.0578C56.6097 58.7999 56.3012 58.5975 56.1321 58.1926C56.0771 58.059 56.0368 57.8556 56.0113 57.5824H56.3444C56.3916 57.7082 56.4997 57.7966 56.6687 57.8477C56.7217 57.8634 56.8003 57.8782 56.9045 57.8919H58.1014C58.2861 57.8919 58.4325 57.8408 58.5406 57.7386C58.6467 57.6423 58.6998 57.4959 58.6998 57.2994C58.6998 57.0419 58.633 56.8523 58.4993 56.7304C58.3873 56.6302 58.2242 56.5801 58.01 56.5801H56.7601C56.5065 56.5801 56.312 56.4317 56.1764 56.1349C56.0663 55.8971 56.0113 55.6249 56.0113 55.3184C56.0113 54.9371 56.1066 54.6168 56.2972 54.3573C56.482 54.1038 56.7355 53.9771 57.0578 53.9771H57.951C58.4089 53.9771 58.7214 54.1785 58.8885 54.5814C58.9396 54.715 58.9749 54.9165 58.9946 55.1857H58.6644C58.6153 55.0737 58.5445 54.9931 58.4522 54.944C58.3598 54.9007 58.2429 54.8791 58.1014 54.8791H56.9045C56.7394 54.8791 56.5989 54.9371 56.4829 55.053C56.367 55.169 56.309 55.3095 56.309 55.4746C56.309 55.7203 56.3749 55.906 56.5065 56.0318C56.6245 56.1399 56.7876 56.1939 56.9959 56.1939H58.2517C58.4581 56.1939 58.633 56.299 58.7764 56.5093C58.9219 56.7216 58.9946 57.035 58.9946 57.4497Z"/>
</mask>
<path d="M40.1537 57.4497C40.1537 57.8919 40.0525 58.228 39.8501 58.4579C39.6496 58.6859 39.403 58.7999 39.1102 58.7999H38.2169C37.7688 58.7999 37.4603 58.5975 37.2913 58.1926C37.2362 58.059 37.196 57.8556 37.1704 57.5824H37.5035C37.5507 57.7082 37.6588 57.7966 37.8278 57.8477C37.8809 57.8634 37.9595 57.8782 38.0636 57.8919H39.2605C39.4452 57.8919 39.5917 57.8408 39.6997 57.7386C39.8059 57.6423 39.8589 57.4959 39.8589 57.2994C39.8589 57.0419 39.7921 56.8523 39.6585 56.7304C39.5464 56.6302 39.3833 56.5801 39.1691 56.5801H37.9192C37.6657 56.5801 37.4711 56.4317 37.3355 56.1349C37.2254 55.8971 37.1704 55.6249 37.1704 55.3184C37.1704 54.9371 37.2657 54.6168 37.4564 54.3573C37.6411 54.1038 37.8946 53.9771 38.2169 53.9771H39.1102C39.5681 53.9771 39.8805 54.1785 40.0476 54.5814C40.0987 54.715 40.1341 54.9165 40.1537 55.1857H39.8236C39.7744 55.0737 39.7037 54.9931 39.6113 54.944C39.5189 54.9007 39.402 54.8791 39.2605 54.8791H38.0636C37.8986 54.8791 37.758 54.9371 37.6421 55.053C37.5261 55.169 37.4682 55.3095 37.4682 55.4746C37.4682 55.7203 37.534 55.906 37.6657 56.0318C37.7836 56.1399 37.9467 56.1939 38.155 56.1939H39.4108C39.6172 56.1939 39.7921 56.299 39.9356 56.5093C40.081 56.7216 40.1537 57.035 40.1537 57.4497Z" fill="white"/>
<path d="M45.542 55.1798H45.2413C45.1568 55.0678 45.0477 54.9852 44.9141 54.9322C44.7765 54.8831 44.6379 54.8585 44.4984 54.8585C44.3294 54.8585 44.1741 54.8889 44.0326 54.9499C43.844 55.0304 43.7496 55.1071 43.7496 55.1798V57.5883C43.7496 57.6256 43.8243 57.6905 43.9737 57.7828C44.0935 57.8595 44.1997 57.8978 44.292 57.8978C44.3117 57.8978 44.3304 57.8958 44.3481 57.8919V58.7969H43.9C43.8037 58.7478 43.729 58.679 43.6759 58.5906C43.6445 58.5375 43.6189 58.455 43.5993 58.3429C43.5914 58.4157 43.5786 58.4717 43.561 58.511C43.5138 58.6368 43.4273 58.7321 43.3015 58.7969H42.8564V57.8919C43.0176 57.8919 43.1649 57.8467 43.2986 57.7563C43.4027 57.6856 43.4548 57.6295 43.4548 57.5883V55.1798C43.4548 55.1444 43.3939 55.0884 43.2721 55.0118C43.1109 54.9096 42.9321 54.8585 42.7355 54.8585C42.4525 54.8585 42.2393 54.9115 42.0958 55.0177C42.0467 55.0491 42.0005 55.1032 41.9573 55.1798H41.6595V53.9771H43.3015C43.4273 54.0419 43.5138 54.1362 43.561 54.2601C43.5786 54.3013 43.5914 54.3583 43.5993 54.431C43.6111 54.321 43.6327 54.2404 43.6641 54.1893C43.7172 54.1009 43.7958 54.0301 43.9 53.9771H45.542V55.1798Z" fill="white"/>
<path d="M49.6272 58.7999H47.6904C47.5646 58.7331 47.4772 58.6377 47.4281 58.5139C47.4123 58.4746 47.4005 58.4186 47.3927 58.3459C47.3809 58.454 47.3593 58.5346 47.3278 58.5876C47.2748 58.6761 47.1962 58.7468 47.092 58.7999H46.6439V57.8919C46.7893 57.8919 46.9269 57.8497 47.0566 57.7652C47.1804 57.6846 47.2423 57.6256 47.2423 57.5883V55.1798C47.2423 55.1484 47.1824 55.0943 47.0625 55.0177C46.9171 54.9253 46.7775 54.8791 46.6439 54.8791V53.9771H47.0979C47.2217 54.038 47.3082 54.1353 47.3573 54.2689C47.373 54.3082 47.3848 54.3662 47.3927 54.4428C47.4005 54.3662 47.4123 54.3082 47.4281 54.2689C47.4772 54.1392 47.5646 54.0419 47.6904 53.9771H49.6272V55.1798H49.3324C49.2558 55.0796 49.1909 55.0108 49.1379 54.9735C49.0376 54.9106 48.903 54.8791 48.734 54.8791H48.1356C47.9901 54.8791 47.8496 54.9233 47.714 55.0118C47.5961 55.0884 47.5371 55.1444 47.5371 55.1798V55.9345C47.5371 55.9541 47.5715 56.0023 47.6403 56.0789C47.7052 56.1556 47.7514 56.1939 47.7789 56.1939H48.5837C48.6387 56.1939 48.6809 56.1516 48.7104 56.0671C48.7183 56.0396 48.7261 55.9954 48.734 55.9345H49.0347V56.8395H48.734C48.7301 56.8061 48.7261 56.7796 48.7222 56.7599C48.6888 56.64 48.6426 56.5801 48.5837 56.5801H47.7789C47.7514 56.5801 47.7052 56.6184 47.6403 56.6951C47.5715 56.7756 47.5371 56.8238 47.5371 56.8395V57.5883C47.5371 57.6295 47.6079 57.6905 47.7494 57.771C47.887 57.8516 48.0157 57.8919 48.1356 57.8919H48.734C48.8873 57.8919 49.016 57.8595 49.1202 57.7946C49.2008 57.7455 49.2715 57.6767 49.3324 57.5883H49.6272V58.7999Z" fill="white"/>
<path d="M54.7148 58.7969H54.2696C54.1439 58.7321 54.0564 58.6368 54.0073 58.511C53.9915 58.4717 53.9798 58.4157 53.9719 58.3429C53.9601 58.451 53.9375 58.5316 53.9041 58.5847C53.853 58.6731 53.7744 58.7439 53.6683 58.7969H53.2231V57.8919C53.3961 57.8919 53.5248 57.8615 53.6093 57.8005C53.7469 57.7042 53.8157 57.5352 53.8157 57.2935C53.8157 57.0911 53.7626 56.9279 53.6565 56.8041C53.5327 56.6548 53.398 56.5801 53.2526 56.5801H52.268C52.2326 56.5801 52.1845 56.6184 52.1235 56.6951C52.0587 56.7717 52.0263 56.8198 52.0263 56.8395V57.5883C52.0263 57.6295 52.099 57.6924 52.2444 57.7769C52.3702 57.8536 52.4852 57.8919 52.5893 57.8919C52.6011 57.8919 52.6129 57.8919 52.6247 57.8919V58.7969H52.1795C52.0538 58.7321 51.9663 58.6368 51.9172 58.511C51.9015 58.4717 51.8897 58.4157 51.8818 58.3429C51.87 58.451 51.8484 58.5316 51.817 58.5847C51.7639 58.6731 51.6853 58.7439 51.5811 58.7969H51.133V57.8919C51.2824 57.8919 51.4259 57.8467 51.5634 57.7563C51.6754 57.6856 51.7315 57.6295 51.7315 57.5883V55.1798C51.7315 55.1444 51.6715 55.0865 51.5516 55.0059C51.4219 54.9174 51.3011 54.8732 51.189 54.8732C51.1674 54.8732 51.1488 54.8752 51.133 54.8791V53.9771H51.5811C51.6774 54.0262 51.7521 54.095 51.8052 54.1834C51.8366 54.2365 51.8622 54.319 51.8818 54.431C51.8897 54.3583 51.9015 54.3023 51.9172 54.263C51.9663 54.1372 52.0538 54.0419 52.1795 53.9771H53.0728C53.3695 53.9771 53.6122 54.0743 53.8009 54.2689C54.0112 54.4811 54.1163 54.7848 54.1163 55.1798C54.1163 55.6829 54.0181 56.0347 53.8215 56.2352C53.7567 56.3 53.6584 56.3511 53.5268 56.3885C53.7154 56.4514 53.8481 56.5398 53.9247 56.6538C54.0525 56.8464 54.1163 57.1078 54.1163 57.4379C54.1163 57.5952 54.1851 57.7121 54.3227 57.7887C54.4151 57.8398 54.5458 57.8742 54.7148 57.8919V58.7969ZM53.8215 55.4805C53.8215 55.2918 53.7793 55.1435 53.6948 55.0354C53.6103 54.9312 53.5032 54.8791 53.3735 54.8791H52.6247C52.4714 54.8791 52.3446 54.9047 52.2444 54.9558C52.099 55.0285 52.0263 55.1032 52.0263 55.1798V55.9345C52.0263 55.9541 52.0587 56.0023 52.1235 56.0789C52.1845 56.1556 52.2326 56.1939 52.268 56.1939H53.2526C53.3528 56.1939 53.458 56.1516 53.568 56.0671C53.737 55.9335 53.8215 55.738 53.8215 55.4805Z" fill="white"/>
<path d="M58.9946 57.4497C58.9946 57.8919 58.8934 58.228 58.691 58.4579C58.4905 58.6859 58.2439 58.7999 57.951 58.7999H57.0578C56.6097 58.7999 56.3012 58.5975 56.1321 58.1926C56.0771 58.059 56.0368 57.8556 56.0113 57.5824H56.3444C56.3916 57.7082 56.4997 57.7966 56.6687 57.8477C56.7217 57.8634 56.8003 57.8782 56.9045 57.8919H58.1014C58.2861 57.8919 58.4325 57.8408 58.5406 57.7386C58.6467 57.6423 58.6998 57.4959 58.6998 57.2994C58.6998 57.0419 58.633 56.8523 58.4993 56.7304C58.3873 56.6302 58.2242 56.5801 58.01 56.5801H56.7601C56.5065 56.5801 56.312 56.4317 56.1764 56.1349C56.0663 55.8971 56.0113 55.6249 56.0113 55.3184C56.0113 54.9371 56.1066 54.6168 56.2972 54.3573C56.482 54.1038 56.7355 53.9771 57.0578 53.9771H57.951C58.4089 53.9771 58.7214 54.1785 58.8885 54.5814C58.9396 54.715 58.9749 54.9165 58.9946 55.1857H58.6644C58.6153 55.0737 58.5445 54.9931 58.4522 54.944C58.3598 54.9007 58.2429 54.8791 58.1014 54.8791H56.9045C56.7394 54.8791 56.5989 54.9371 56.4829 55.053C56.367 55.169 56.309 55.3095 56.309 55.4746C56.309 55.7203 56.3749 55.906 56.5065 56.0318C56.6245 56.1399 56.7876 56.1939 56.9959 56.1939H58.2517C58.4581 56.1939 58.633 56.299 58.7764 56.5093C58.9219 56.7216 58.9946 57.035 58.9946 57.4497Z" fill="white"/>
<path d="M40.1537 57.4497C40.1537 57.8919 40.0525 58.228 39.8501 58.4579C39.6496 58.6859 39.403 58.7999 39.1102 58.7999H38.2169C37.7688 58.7999 37.4603 58.5975 37.2913 58.1926C37.2362 58.059 37.196 57.8556 37.1704 57.5824H37.5035C37.5507 57.7082 37.6588 57.7966 37.8278 57.8477C37.8809 57.8634 37.9595 57.8782 38.0636 57.8919H39.2605C39.4452 57.8919 39.5917 57.8408 39.6997 57.7386C39.8059 57.6423 39.8589 57.4959 39.8589 57.2994C39.8589 57.0419 39.7921 56.8523 39.6585 56.7304C39.5464 56.6302 39.3833 56.5801 39.1691 56.5801H37.9192C37.6657 56.5801 37.4711 56.4317 37.3355 56.1349C37.2254 55.8971 37.1704 55.6249 37.1704 55.3184C37.1704 54.9371 37.2657 54.6168 37.4564 54.3573C37.6411 54.1038 37.8946 53.9771 38.2169 53.9771H39.1102C39.5681 53.9771 39.8805 54.1785 40.0476 54.5814C40.0987 54.715 40.1341 54.9165 40.1537 55.1857H39.8236C39.7744 55.0737 39.7037 54.9931 39.6113 54.944C39.5189 54.9007 39.402 54.8791 39.2605 54.8791H38.0636C37.8986 54.8791 37.758 54.9371 37.6421 55.053C37.5261 55.169 37.4682 55.3095 37.4682 55.4746C37.4682 55.7203 37.534 55.906 37.6657 56.0318C37.7836 56.1399 37.9467 56.1939 38.155 56.1939H39.4108C39.6172 56.1939 39.7921 56.299 39.9356 56.5093C40.081 56.7216 40.1537 57.035 40.1537 57.4497Z" stroke="white" stroke-width="0.4" stroke-miterlimit="2.9238" stroke-linecap="round" mask="url(#path-11-outside-1)"/>
<path d="M45.542 55.1798H45.2413C45.1568 55.0678 45.0477 54.9852 44.9141 54.9322C44.7765 54.8831 44.6379 54.8585 44.4984 54.8585C44.3294 54.8585 44.1741 54.8889 44.0326 54.9499C43.844 55.0304 43.7496 55.1071 43.7496 55.1798V57.5883C43.7496 57.6256 43.8243 57.6905 43.9737 57.7828C44.0935 57.8595 44.1997 57.8978 44.292 57.8978C44.3117 57.8978 44.3304 57.8958 44.3481 57.8919V58.7969H43.9C43.8037 58.7478 43.729 58.679 43.6759 58.5906C43.6445 58.5375 43.6189 58.455 43.5993 58.3429C43.5914 58.4157 43.5786 58.4717 43.561 58.511C43.5138 58.6368 43.4273 58.7321 43.3015 58.7969H42.8564V57.8919C43.0176 57.8919 43.1649 57.8467 43.2986 57.7563C43.4027 57.6856 43.4548 57.6295 43.4548 57.5883V55.1798C43.4548 55.1444 43.3939 55.0884 43.2721 55.0118C43.1109 54.9096 42.9321 54.8585 42.7355 54.8585C42.4525 54.8585 42.2393 54.9115 42.0958 55.0177C42.0467 55.0491 42.0005 55.1032 41.9573 55.1798H41.6595V53.9771H43.3015C43.4273 54.0419 43.5138 54.1362 43.561 54.2601C43.5786 54.3013 43.5914 54.3583 43.5993 54.431C43.6111 54.321 43.6327 54.2404 43.6641 54.1893C43.7172 54.1009 43.7958 54.0301 43.9 53.9771H45.542V55.1798Z" stroke="white" stroke-width="0.4" stroke-miterlimit="2.9238" stroke-linecap="round" mask="url(#path-11-outside-1)"/>
<path d="M49.6272 58.7999H47.6904C47.5646 58.7331 47.4772 58.6377 47.4281 58.5139C47.4123 58.4746 47.4005 58.4186 47.3927 58.3459C47.3809 58.454 47.3593 58.5346 47.3278 58.5876C47.2748 58.6761 47.1962 58.7468 47.092 58.7999H46.6439V57.8919C46.7893 57.8919 46.9269 57.8497 47.0566 57.7652C47.1804 57.6846 47.2423 57.6256 47.2423 57.5883V55.1798C47.2423 55.1484 47.1824 55.0943 47.0625 55.0177C46.9171 54.9253 46.7775 54.8791 46.6439 54.8791V53.9771H47.0979C47.2217 54.038 47.3082 54.1353 47.3573 54.2689C47.373 54.3082 47.3848 54.3662 47.3927 54.4428C47.4005 54.3662 47.4123 54.3082 47.4281 54.2689C47.4772 54.1392 47.5646 54.0419 47.6904 53.9771H49.6272V55.1798H49.3324C49.2558 55.0796 49.1909 55.0108 49.1379 54.9735C49.0376 54.9106 48.903 54.8791 48.734 54.8791H48.1356C47.9901 54.8791 47.8496 54.9233 47.714 55.0118C47.5961 55.0884 47.5371 55.1444 47.5371 55.1798V55.9345C47.5371 55.9541 47.5715 56.0023 47.6403 56.0789C47.7052 56.1556 47.7514 56.1939 47.7789 56.1939H48.5837C48.6387 56.1939 48.6809 56.1516 48.7104 56.0671C48.7183 56.0396 48.7261 55.9954 48.734 55.9345H49.0347V56.8395H48.734C48.7301 56.8061 48.7261 56.7796 48.7222 56.7599C48.6888 56.64 48.6426 56.5801 48.5837 56.5801H47.7789C47.7514 56.5801 47.7052 56.6184 47.6403 56.6951C47.5715 56.7756 47.5371 56.8238 47.5371 56.8395V57.5883C47.5371 57.6295 47.6079 57.6905 47.7494 57.771C47.887 57.8516 48.0157 57.8919 48.1356 57.8919H48.734C48.8873 57.8919 49.016 57.8595 49.1202 57.7946C49.2008 57.7455 49.2715 57.6767 49.3324 57.5883H49.6272V58.7999Z" stroke="white" stroke-width="0.4" stroke-miterlimit="2.9238" stroke-linecap="round" mask="url(#path-11-outside-1)"/>
<path d="M54.7148 58.7969H54.2696C54.1439 58.7321 54.0564 58.6368 54.0073 58.511C53.9915 58.4717 53.9798 58.4157 53.9719 58.3429C53.9601 58.451 53.9375 58.5316 53.9041 58.5847C53.853 58.6731 53.7744 58.7439 53.6683 58.7969H53.2231V57.8919C53.3961 57.8919 53.5248 57.8615 53.6093 57.8005C53.7469 57.7042 53.8157 57.5352 53.8157 57.2935C53.8157 57.0911 53.7626 56.9279 53.6565 56.8041C53.5327 56.6548 53.398 56.5801 53.2526 56.5801H52.268C52.2326 56.5801 52.1845 56.6184 52.1235 56.6951C52.0587 56.7717 52.0263 56.8198 52.0263 56.8395V57.5883C52.0263 57.6295 52.099 57.6924 52.2444 57.7769C52.3702 57.8536 52.4852 57.8919 52.5893 57.8919C52.6011 57.8919 52.6129 57.8919 52.6247 57.8919V58.7969H52.1795C52.0538 58.7321 51.9663 58.6368 51.9172 58.511C51.9015 58.4717 51.8897 58.4157 51.8818 58.3429C51.87 58.451 51.8484 58.5316 51.817 58.5847C51.7639 58.6731 51.6853 58.7439 51.5811 58.7969H51.133V57.8919C51.2824 57.8919 51.4259 57.8467 51.5634 57.7563C51.6754 57.6856 51.7315 57.6295 51.7315 57.5883V55.1798C51.7315 55.1444 51.6715 55.0865 51.5516 55.0059C51.4219 54.9174 51.3011 54.8732 51.189 54.8732C51.1674 54.8732 51.1488 54.8752 51.133 54.8791V53.9771H51.5811C51.6774 54.0262 51.7521 54.095 51.8052 54.1834C51.8366 54.2365 51.8622 54.319 51.8818 54.431C51.8897 54.3583 51.9015 54.3023 51.9172 54.263C51.9663 54.1372 52.0538 54.0419 52.1795 53.9771H53.0728C53.3695 53.9771 53.6122 54.0743 53.8009 54.2689C54.0112 54.4811 54.1163 54.7848 54.1163 55.1798C54.1163 55.6829 54.0181 56.0347 53.8215 56.2352C53.7567 56.3 53.6584 56.3511 53.5268 56.3885C53.7154 56.4514 53.8481 56.5398 53.9247 56.6538C54.0525 56.8464 54.1163 57.1078 54.1163 57.4379C54.1163 57.5952 54.1851 57.7121 54.3227 57.7887C54.4151 57.8398 54.5458 57.8742 54.7148 57.8919V58.7969ZM53.8215 55.4805C53.8215 55.2918 53.7793 55.1435 53.6948 55.0354C53.6103 54.9312 53.5032 54.8791 53.3735 54.8791H52.6247C52.4714 54.8791 52.3446 54.9047 52.2444 54.9558C52.099 55.0285 52.0263 55.1032 52.0263 55.1798V55.9345C52.0263 55.9541 52.0587 56.0023 52.1235 56.0789C52.1845 56.1556 52.2326 56.1939 52.268 56.1939H53.2526C53.3528 56.1939 53.458 56.1516 53.568 56.0671C53.737 55.9335 53.8215 55.738 53.8215 55.4805Z" stroke="white" stroke-width="0.4" stroke-miterlimit="2.9238" stroke-linecap="round" mask="url(#path-11-outside-1)"/>
<path d="M58.9946 57.4497C58.9946 57.8919 58.8934 58.228 58.691 58.4579C58.4905 58.6859 58.2439 58.7999 57.951 58.7999H57.0578C56.6097 58.7999 56.3012 58.5975 56.1321 58.1926C56.0771 58.059 56.0368 57.8556 56.0113 57.5824H56.3444C56.3916 57.7082 56.4997 57.7966 56.6687 57.8477C56.7217 57.8634 56.8003 57.8782 56.9045 57.8919H58.1014C58.2861 57.8919 58.4325 57.8408 58.5406 57.7386C58.6467 57.6423 58.6998 57.4959 58.6998 57.2994C58.6998 57.0419 58.633 56.8523 58.4993 56.7304C58.3873 56.6302 58.2242 56.5801 58.01 56.5801H56.7601C56.5065 56.5801 56.312 56.4317 56.1764 56.1349C56.0663 55.8971 56.0113 55.6249 56.0113 55.3184C56.0113 54.9371 56.1066 54.6168 56.2972 54.3573C56.482 54.1038 56.7355 53.9771 57.0578 53.9771H57.951C58.4089 53.9771 58.7214 54.1785 58.8885 54.5814C58.9396 54.715 58.9749 54.9165 58.9946 55.1857H58.6644C58.6153 55.0737 58.5445 54.9931 58.4522 54.944C58.3598 54.9007 58.2429 54.8791 58.1014 54.8791H56.9045C56.7394 54.8791 56.5989 54.9371 56.4829 55.053C56.367 55.169 56.309 55.3095 56.309 55.4746C56.309 55.7203 56.3749 55.906 56.5065 56.0318C56.6245 56.1399 56.7876 56.1939 56.9959 56.1939H58.2517C58.4581 56.1939 58.633 56.299 58.7764 56.5093C58.9219 56.7216 58.9946 57.035 58.9946 57.4497Z" stroke="white" stroke-width="0.4" stroke-miterlimit="2.9238" stroke-linecap="round" mask="url(#path-11-outside-1)"/>
</g>
<g filter="url(#filter4_d)">
<mask id="path-12-outside-2" maskUnits="userSpaceOnUse" x="10.8789" y="52.9429" width="25" height="7" fill="black">
<rect fill="white" x="10.8789" y="52.9429" width="25" height="7"/>
<path d="M16.1534 54.842H15.8586C15.7466 54.842 15.6454 54.8901 15.555 54.9864C15.5196 55.0277 15.4842 55.0847 15.4489 55.1574L14.5291 57.7899C14.5291 57.8096 14.5822 57.8302 14.6883 57.8518C14.704 57.8518 14.7296 57.8538 14.7649 57.8577V58.7628H14.3198C14.2215 58.7136 14.1469 58.6448 14.0958 58.5564C14.0623 58.5033 14.0358 58.4208 14.0162 58.3088C14.0083 58.3815 13.9965 58.4375 13.9808 58.4768C13.9317 58.6026 13.8452 58.6979 13.7214 58.7628H13.2674V57.8577C13.3244 57.8577 13.3814 57.8528 13.4384 57.843C13.4816 57.8351 13.5032 57.8214 13.5032 57.8017C13.5032 57.7978 13.5032 57.7939 13.5032 57.7899L12.5864 55.1574C12.5451 55.0768 12.5127 55.0228 12.4891 54.9953C12.4046 54.8951 12.3005 54.8449 12.1766 54.8449H11.8789V53.9429H12.327C12.4233 53.992 12.498 54.0608 12.551 54.1492C12.5825 54.2023 12.608 54.2848 12.6277 54.3969C12.6355 54.3241 12.6473 54.2681 12.6631 54.2288C12.7122 54.103 12.7996 54.0077 12.9254 53.9429H13.3706V54.842L13.0758 54.8449C13.0306 54.8449 12.9844 54.8685 12.9372 54.9157C12.8842 54.9688 12.8576 55.0189 12.8576 55.066C12.8576 55.0798 12.8616 55.0985 12.8694 55.122L13.8245 57.8577H14.2343L15.1629 55.122C15.1668 55.1024 15.1688 55.0837 15.1688 55.066C15.1688 55.0228 15.155 54.9786 15.1275 54.9334C15.0882 54.8744 15.0322 54.8449 14.9595 54.8449H14.6618V53.9429H15.1098C15.2337 54.0077 15.3201 54.103 15.3693 54.2288C15.385 54.2681 15.3968 54.3241 15.4046 54.3969C15.4164 54.2888 15.439 54.2082 15.4724 54.1551C15.5235 54.0667 15.6022 53.9959 15.7083 53.9429H16.1534V54.842Z"/>
<path d="M20.1119 58.7657H18.1751C18.0493 58.6989 17.9619 58.6036 17.9127 58.4797C17.897 58.4404 17.8852 58.3844 17.8774 58.3117C17.8656 58.4198 17.844 58.5004 17.8125 58.5534C17.7595 58.6419 17.6808 58.7126 17.5767 58.7657H17.1286V57.8577C17.274 57.8577 17.4116 57.8155 17.5413 57.731C17.6651 57.6504 17.727 57.5914 17.727 57.5541V55.1456C17.727 55.1142 17.6671 55.0601 17.5472 54.9835C17.4018 54.8911 17.2622 54.8449 17.1286 54.8449V53.9429H17.5826C17.7064 54.0038 17.7929 54.1011 17.842 54.2347C17.8577 54.274 17.8695 54.332 17.8774 54.4086C17.8852 54.332 17.897 54.274 17.9127 54.2347C17.9619 54.105 18.0493 54.0077 18.1751 53.9429H20.1119V55.1456H19.8171C19.7405 55.0454 19.6756 54.9766 19.6226 54.9393C19.5223 54.8764 19.3877 54.8449 19.2187 54.8449H18.6203C18.4748 54.8449 18.3343 54.8892 18.1987 54.9776C18.0808 55.0542 18.0218 55.1103 18.0218 55.1456V55.9003C18.0218 55.92 18.0562 55.9681 18.125 56.0448C18.1899 56.1214 18.236 56.1597 18.2636 56.1597H19.0683C19.1234 56.1597 19.1656 56.1175 19.1951 56.033C19.203 56.0054 19.2108 55.9612 19.2187 55.9003H19.5194V56.8053H19.2187C19.2148 56.7719 19.2108 56.7454 19.2069 56.7257C19.1735 56.6058 19.1273 56.5459 19.0683 56.5459H18.2636C18.236 56.5459 18.1899 56.5842 18.125 56.6609C18.0562 56.7414 18.0218 56.7896 18.0218 56.8053V57.5541C18.0218 57.5954 18.0926 57.6563 18.2341 57.7369C18.3716 57.8174 18.5004 57.8577 18.6203 57.8577H19.2187C19.372 57.8577 19.5007 57.8253 19.6049 57.7605C19.6854 57.7113 19.7562 57.6425 19.8171 57.5541H20.1119V58.7657Z"/>
<path d="M24.601 57.5541C24.601 57.8961 24.4821 58.1889 24.2443 58.4326C24.0281 58.6547 23.7884 58.7657 23.525 58.7657H22.6937C22.6171 58.7657 22.5247 58.747 22.4166 58.7097C22.2024 58.637 22.0285 58.5181 21.8948 58.353C21.7101 58.1191 21.6177 57.8027 21.6177 57.4038V55.1456C21.6433 54.8803 21.6836 54.6808 21.7386 54.5472C21.9115 54.1443 22.2299 53.9429 22.6937 53.9429H23.525C23.7668 53.9743 23.9466 54.0234 24.0645 54.0903C24.4222 54.2907 24.601 54.6425 24.601 55.1456H24.2591C24.2591 55.0808 24.1962 55.0081 24.0704 54.9275C23.982 54.8725 23.9014 54.8449 23.8287 54.8449H22.396C22.2525 54.8449 22.1366 54.9029 22.0481 55.0189C21.9597 55.1388 21.9155 55.2812 21.9155 55.4463V57.2416C21.9155 57.4873 21.996 57.6642 22.1572 57.7722C22.2083 57.8037 22.2879 57.8322 22.396 57.8577H23.8287C23.9603 57.8577 24.0773 57.7968 24.1795 57.675C24.264 57.5747 24.3062 57.4843 24.3062 57.4038V56.655H23.413V56.0506H24.601V57.5541Z"/>
<path d="M30.3814 58.7657H29.9244C29.7986 58.6989 29.7122 58.6036 29.665 58.4797C29.6473 58.4404 29.6345 58.3844 29.6267 58.3117C29.6149 58.4198 29.5933 58.5004 29.5618 58.5534C29.5088 58.6419 29.4301 58.7126 29.326 58.7657H28.8897V57.8607L29.1874 57.8577C29.2307 57.8577 29.2788 57.8332 29.3319 57.784C29.3791 57.7388 29.4026 57.6926 29.4026 57.6455C29.4026 57.6337 29.3987 57.6111 29.3908 57.5777L29.1373 56.8407C29.1255 56.8053 29.0754 56.7552 28.987 56.6903C28.8592 56.5941 28.7187 56.5459 28.5654 56.5459H27.9021C27.7881 56.5459 27.683 56.5734 27.5867 56.6284C27.4491 56.7071 27.3705 56.7778 27.3509 56.8407L27.0973 57.5777C27.0895 57.5993 27.0856 57.6199 27.0856 57.6396C27.0856 57.6868 27.1101 57.731 27.1593 57.7722C27.2221 57.8292 27.2703 57.8577 27.3037 57.8577H27.5985V58.7657H27.1534C27.0276 58.6989 26.9401 58.6036 26.891 58.4797C26.8753 58.4404 26.8635 58.3844 26.8556 58.3117C26.8438 58.4198 26.8222 58.5004 26.7908 58.5534C26.7377 58.6419 26.6591 58.7126 26.5549 58.7657H26.1068V57.8577H26.4046C26.5323 57.8577 26.6385 57.8086 26.723 57.7103C26.7839 57.6435 26.8143 57.5875 26.8143 57.5423L27.6958 55.013C27.7076 54.9815 27.7135 54.955 27.7135 54.9334C27.7135 54.9019 27.7056 54.8803 27.6899 54.8685C27.6663 54.8489 27.626 54.839 27.569 54.839C27.5454 54.839 27.5228 54.839 27.5012 54.839C27.4973 54.839 27.4934 54.841 27.4894 54.8449V53.9429H27.9434C28.0672 54.0077 28.1537 54.105 28.2028 54.2347C28.2185 54.274 28.2303 54.332 28.2382 54.4086C28.25 54.3006 28.2726 54.218 28.306 54.161C28.3571 54.0686 28.4357 53.9959 28.5418 53.9429H28.987V54.8449C28.9398 54.8449 28.8917 54.8469 28.8425 54.8508C28.7934 54.8548 28.7688 54.8842 28.7688 54.9393C28.7688 54.9471 28.7737 54.9678 28.7836 55.0012L29.6768 57.5423C29.6768 57.6111 29.723 57.6838 29.8153 57.7605C29.892 57.8253 29.9824 57.8577 30.0866 57.8577H30.3814V58.7657ZM28.8307 55.9593L28.4446 54.8449H28.0348L27.6604 55.9593C27.6565 55.973 27.6545 55.9858 27.6545 55.9976C27.6545 56.029 27.6742 56.0615 27.7135 56.0949C27.7626 56.1381 27.8255 56.1597 27.9021 56.1597H28.5654C28.6656 56.1597 28.7403 56.1401 28.7895 56.1008C28.8209 56.0752 28.8366 56.0448 28.8366 56.0094C28.8366 55.9937 28.8347 55.9769 28.8307 55.9593Z"/>
<path d="M35.6399 58.7628H35.1947C35.069 58.6979 34.9825 58.6026 34.9353 58.4768C34.9196 58.4375 34.9078 58.3815 34.8999 58.3088C34.8862 58.4169 34.8636 58.4974 34.8321 58.5505C34.7791 58.6389 34.7005 58.7097 34.5963 58.7628H34.1512V57.8577C34.1826 57.8577 34.216 57.8558 34.2514 57.8518C34.2848 57.8518 34.3251 57.843 34.3723 57.8253L32.7185 55.3638C32.6536 55.2714 32.5878 55.2066 32.521 55.1692C32.4876 55.1535 32.4453 55.1456 32.3942 55.1456C32.3804 55.1456 32.3677 55.1456 32.3559 55.1456V57.5541C32.3559 57.6072 32.4571 57.6838 32.6595 57.784C32.7597 57.8332 32.8443 57.8597 32.913 57.8636C32.9288 57.8636 32.9425 57.8617 32.9543 57.8577V58.7628H32.5092C32.3834 58.6979 32.2959 58.6026 32.2468 58.4768C32.2311 58.4375 32.2193 58.3815 32.2114 58.3088C32.1996 58.4169 32.178 58.4974 32.1466 58.5505C32.0935 58.6389 32.0149 58.7097 31.9107 58.7628H31.4627V57.8577C31.6002 57.8577 31.7348 57.8155 31.8665 57.731C31.9962 57.6504 32.0611 57.5914 32.0611 57.5541V55.1456C32.0611 55.1142 32.0011 55.0601 31.8813 54.9835C31.7358 54.8911 31.5963 54.8449 31.4627 54.8449V53.9429H31.9107C32.007 53.992 32.0817 54.0608 32.1348 54.1492C32.1662 54.2023 32.1918 54.2848 32.2114 54.3969C32.2193 54.3241 32.2311 54.2681 32.2468 54.2288C32.2959 54.103 32.3834 54.0077 32.5092 53.9429H32.9543V54.8449C32.9229 54.8489 32.8885 54.8508 32.8511 54.8508C32.8158 54.8548 32.7794 54.8626 32.7421 54.8744L34.3841 57.3301C34.4607 57.444 34.5432 57.5187 34.6317 57.5541C34.669 57.5541 34.7074 57.5541 34.7467 57.5541V55.1456C34.7467 55.1103 34.6906 55.0562 34.5786 54.9835C34.4371 54.8911 34.2946 54.8449 34.1512 54.8449V53.9429H34.5963C34.6926 53.992 34.7673 54.0608 34.8204 54.1492C34.8518 54.2023 34.8783 54.2848 34.8999 54.3969C34.9078 54.3241 34.9196 54.2681 34.9353 54.2288C34.9825 54.103 35.069 54.0077 35.1947 53.9429H35.6399V54.8449C35.461 54.8449 35.3107 54.8892 35.1888 54.9776C35.0925 55.0444 35.0444 55.1004 35.0444 55.1456V57.5541C35.0444 57.5954 35.1063 57.6563 35.2301 57.7369C35.3598 57.8214 35.4787 57.8636 35.5868 57.8636C35.6065 57.8636 35.6242 57.8617 35.6399 57.8577V58.7628Z"/>
</mask>
<path d="M16.1534 54.842H15.8586C15.7466 54.842 15.6454 54.8901 15.555 54.9864C15.5196 55.0277 15.4842 55.0847 15.4489 55.1574L14.5291 57.7899C14.5291 57.8096 14.5822 57.8302 14.6883 57.8518C14.704 57.8518 14.7296 57.8538 14.7649 57.8577V58.7628H14.3198C14.2215 58.7136 14.1469 58.6448 14.0958 58.5564C14.0623 58.5033 14.0358 58.4208 14.0162 58.3088C14.0083 58.3815 13.9965 58.4375 13.9808 58.4768C13.9317 58.6026 13.8452 58.6979 13.7214 58.7628H13.2674V57.8577C13.3244 57.8577 13.3814 57.8528 13.4384 57.843C13.4816 57.8351 13.5032 57.8214 13.5032 57.8017C13.5032 57.7978 13.5032 57.7939 13.5032 57.7899L12.5864 55.1574C12.5451 55.0768 12.5127 55.0228 12.4891 54.9953C12.4046 54.8951 12.3005 54.8449 12.1766 54.8449H11.8789V53.9429H12.327C12.4233 53.992 12.498 54.0608 12.551 54.1492C12.5825 54.2023 12.608 54.2848 12.6277 54.3969C12.6355 54.3241 12.6473 54.2681 12.6631 54.2288C12.7122 54.103 12.7996 54.0077 12.9254 53.9429H13.3706V54.842L13.0758 54.8449C13.0306 54.8449 12.9844 54.8685 12.9372 54.9157C12.8842 54.9688 12.8576 55.0189 12.8576 55.066C12.8576 55.0798 12.8616 55.0985 12.8694 55.122L13.8245 57.8577H14.2343L15.1629 55.122C15.1668 55.1024 15.1688 55.0837 15.1688 55.066C15.1688 55.0228 15.155 54.9786 15.1275 54.9334C15.0882 54.8744 15.0322 54.8449 14.9595 54.8449H14.6618V53.9429H15.1098C15.2337 54.0077 15.3201 54.103 15.3693 54.2288C15.385 54.2681 15.3968 54.3241 15.4046 54.3969C15.4164 54.2888 15.439 54.2082 15.4724 54.1551C15.5235 54.0667 15.6022 53.9959 15.7083 53.9429H16.1534V54.842Z" fill="#81DA10"/>
<path d="M20.1119 58.7657H18.1751C18.0493 58.6989 17.9619 58.6036 17.9127 58.4797C17.897 58.4404 17.8852 58.3844 17.8774 58.3117C17.8656 58.4198 17.844 58.5004 17.8125 58.5534C17.7595 58.6419 17.6808 58.7126 17.5767 58.7657H17.1286V57.8577C17.274 57.8577 17.4116 57.8155 17.5413 57.731C17.6651 57.6504 17.727 57.5914 17.727 57.5541V55.1456C17.727 55.1142 17.6671 55.0601 17.5472 54.9835C17.4018 54.8911 17.2622 54.8449 17.1286 54.8449V53.9429H17.5826C17.7064 54.0038 17.7929 54.1011 17.842 54.2347C17.8577 54.274 17.8695 54.332 17.8774 54.4086C17.8852 54.332 17.897 54.274 17.9127 54.2347C17.9619 54.105 18.0493 54.0077 18.1751 53.9429H20.1119V55.1456H19.8171C19.7405 55.0454 19.6756 54.9766 19.6226 54.9393C19.5223 54.8764 19.3877 54.8449 19.2187 54.8449H18.6203C18.4748 54.8449 18.3343 54.8892 18.1987 54.9776C18.0808 55.0542 18.0218 55.1103 18.0218 55.1456V55.9003C18.0218 55.92 18.0562 55.9681 18.125 56.0448C18.1899 56.1214 18.236 56.1597 18.2636 56.1597H19.0683C19.1234 56.1597 19.1656 56.1175 19.1951 56.033C19.203 56.0054 19.2108 55.9612 19.2187 55.9003H19.5194V56.8053H19.2187C19.2148 56.7719 19.2108 56.7454 19.2069 56.7257C19.1735 56.6058 19.1273 56.5459 19.0683 56.5459H18.2636C18.236 56.5459 18.1899 56.5842 18.125 56.6609C18.0562 56.7414 18.0218 56.7896 18.0218 56.8053V57.5541C18.0218 57.5954 18.0926 57.6563 18.2341 57.7369C18.3716 57.8174 18.5004 57.8577 18.6203 57.8577H19.2187C19.372 57.8577 19.5007 57.8253 19.6049 57.7605C19.6854 57.7113 19.7562 57.6425 19.8171 57.5541H20.1119V58.7657Z" fill="#81DA10"/>
<path d="M24.601 57.5541C24.601 57.8961 24.4821 58.1889 24.2443 58.4326C24.0281 58.6547 23.7884 58.7657 23.525 58.7657H22.6937C22.6171 58.7657 22.5247 58.747 22.4166 58.7097C22.2024 58.637 22.0285 58.5181 21.8948 58.353C21.7101 58.1191 21.6177 57.8027 21.6177 57.4038V55.1456C21.6433 54.8803 21.6836 54.6808 21.7386 54.5472C21.9115 54.1443 22.2299 53.9429 22.6937 53.9429H23.525C23.7668 53.9743 23.9466 54.0234 24.0645 54.0903C24.4222 54.2907 24.601 54.6425 24.601 55.1456H24.2591C24.2591 55.0808 24.1962 55.0081 24.0704 54.9275C23.982 54.8725 23.9014 54.8449 23.8287 54.8449H22.396C22.2525 54.8449 22.1366 54.9029 22.0481 55.0189C21.9597 55.1388 21.9155 55.2812 21.9155 55.4463V57.2416C21.9155 57.4873 21.996 57.6642 22.1572 57.7722C22.2083 57.8037 22.2879 57.8322 22.396 57.8577H23.8287C23.9603 57.8577 24.0773 57.7968 24.1795 57.675C24.264 57.5747 24.3062 57.4843 24.3062 57.4038V56.655H23.413V56.0506H24.601V57.5541Z" fill="#81DA10"/>
<path d="M30.3814 58.7657H29.9244C29.7986 58.6989 29.7122 58.6036 29.665 58.4797C29.6473 58.4404 29.6345 58.3844 29.6267 58.3117C29.6149 58.4198 29.5933 58.5004 29.5618 58.5534C29.5088 58.6419 29.4301 58.7126 29.326 58.7657H28.8897V57.8607L29.1874 57.8577C29.2307 57.8577 29.2788 57.8332 29.3319 57.784C29.3791 57.7388 29.4026 57.6926 29.4026 57.6455C29.4026 57.6337 29.3987 57.6111 29.3908 57.5777L29.1373 56.8407C29.1255 56.8053 29.0754 56.7552 28.987 56.6903C28.8592 56.5941 28.7187 56.5459 28.5654 56.5459H27.9021C27.7881 56.5459 27.683 56.5734 27.5867 56.6284C27.4491 56.7071 27.3705 56.7778 27.3509 56.8407L27.0973 57.5777C27.0895 57.5993 27.0856 57.6199 27.0856 57.6396C27.0856 57.6868 27.1101 57.731 27.1593 57.7722C27.2221 57.8292 27.2703 57.8577 27.3037 57.8577H27.5985V58.7657H27.1534C27.0276 58.6989 26.9401 58.6036 26.891 58.4797C26.8753 58.4404 26.8635 58.3844 26.8556 58.3117C26.8438 58.4198 26.8222 58.5004 26.7908 58.5534C26.7377 58.6419 26.6591 58.7126 26.5549 58.7657H26.1068V57.8577H26.4046C26.5323 57.8577 26.6385 57.8086 26.723 57.7103C26.7839 57.6435 26.8143 57.5875 26.8143 57.5423L27.6958 55.013C27.7076 54.9815 27.7135 54.955 27.7135 54.9334C27.7135 54.9019 27.7056 54.8803 27.6899 54.8685C27.6663 54.8489 27.626 54.839 27.569 54.839C27.5454 54.839 27.5228 54.839 27.5012 54.839C27.4973 54.839 27.4934 54.841 27.4894 54.8449V53.9429H27.9434C28.0672 54.0077 28.1537 54.105 28.2028 54.2347C28.2185 54.274 28.2303 54.332 28.2382 54.4086C28.25 54.3006 28.2726 54.218 28.306 54.161C28.3571 54.0686 28.4357 53.9959 28.5418 53.9429H28.987V54.8449C28.9398 54.8449 28.8917 54.8469 28.8425 54.8508C28.7934 54.8548 28.7688 54.8842 28.7688 54.9393C28.7688 54.9471 28.7737 54.9678 28.7836 55.0012L29.6768 57.5423C29.6768 57.6111 29.723 57.6838 29.8153 57.7605C29.892 57.8253 29.9824 57.8577 30.0866 57.8577H30.3814V58.7657ZM28.8307 55.9593L28.4446 54.8449H28.0348L27.6604 55.9593C27.6565 55.973 27.6545 55.9858 27.6545 55.9976C27.6545 56.029 27.6742 56.0615 27.7135 56.0949C27.7626 56.1381 27.8255 56.1597 27.9021 56.1597H28.5654C28.6656 56.1597 28.7403 56.1401 28.7895 56.1008C28.8209 56.0752 28.8366 56.0448 28.8366 56.0094C28.8366 55.9937 28.8347 55.9769 28.8307 55.9593Z" fill="#81DA10"/>
<path d="M35.6399 58.7628H35.1947C35.069 58.6979 34.9825 58.6026 34.9353 58.4768C34.9196 58.4375 34.9078 58.3815 34.8999 58.3088C34.8862 58.4169 34.8636 58.4974 34.8321 58.5505C34.7791 58.6389 34.7005 58.7097 34.5963 58.7628H34.1512V57.8577C34.1826 57.8577 34.216 57.8558 34.2514 57.8518C34.2848 57.8518 34.3251 57.843 34.3723 57.8253L32.7185 55.3638C32.6536 55.2714 32.5878 55.2066 32.521 55.1692C32.4876 55.1535 32.4453 55.1456 32.3942 55.1456C32.3804 55.1456 32.3677 55.1456 32.3559 55.1456V57.5541C32.3559 57.6072 32.4571 57.6838 32.6595 57.784C32.7597 57.8332 32.8443 57.8597 32.913 57.8636C32.9288 57.8636 32.9425 57.8617 32.9543 57.8577V58.7628H32.5092C32.3834 58.6979 32.2959 58.6026 32.2468 58.4768C32.2311 58.4375 32.2193 58.3815 32.2114 58.3088C32.1996 58.4169 32.178 58.4974 32.1466 58.5505C32.0935 58.6389 32.0149 58.7097 31.9107 58.7628H31.4627V57.8577C31.6002 57.8577 31.7348 57.8155 31.8665 57.731C31.9962 57.6504 32.0611 57.5914 32.0611 57.5541V55.1456C32.0611 55.1142 32.0011 55.0601 31.8813 54.9835C31.7358 54.8911 31.5963 54.8449 31.4627 54.8449V53.9429H31.9107C32.007 53.992 32.0817 54.0608 32.1348 54.1492C32.1662 54.2023 32.1918 54.2848 32.2114 54.3969C32.2193 54.3241 32.2311 54.2681 32.2468 54.2288C32.2959 54.103 32.3834 54.0077 32.5092 53.9429H32.9543V54.8449C32.9229 54.8489 32.8885 54.8508 32.8511 54.8508C32.8158 54.8548 32.7794 54.8626 32.7421 54.8744L34.3841 57.3301C34.4607 57.444 34.5432 57.5187 34.6317 57.5541C34.669 57.5541 34.7074 57.5541 34.7467 57.5541V55.1456C34.7467 55.1103 34.6906 55.0562 34.5786 54.9835C34.4371 54.8911 34.2946 54.8449 34.1512 54.8449V53.9429H34.5963C34.6926 53.992 34.7673 54.0608 34.8204 54.1492C34.8518 54.2023 34.8783 54.2848 34.8999 54.3969C34.9078 54.3241 34.9196 54.2681 34.9353 54.2288C34.9825 54.103 35.069 54.0077 35.1947 53.9429H35.6399V54.8449C35.461 54.8449 35.3107 54.8892 35.1888 54.9776C35.0925 55.0444 35.0444 55.1004 35.0444 55.1456V57.5541C35.0444 57.5954 35.1063 57.6563 35.2301 57.7369C35.3598 57.8214 35.4787 57.8636 35.5868 57.8636C35.6065 57.8636 35.6242 57.8617 35.6399 57.8577V58.7628Z" fill="#81DA10"/>
<path d="M16.1534 54.842H15.8586C15.7466 54.842 15.6454 54.8901 15.555 54.9864C15.5196 55.0277 15.4842 55.0847 15.4489 55.1574L14.5291 57.7899C14.5291 57.8096 14.5822 57.8302 14.6883 57.8518C14.704 57.8518 14.7296 57.8538 14.7649 57.8577V58.7628H14.3198C14.2215 58.7136 14.1469 58.6448 14.0958 58.5564C14.0623 58.5033 14.0358 58.4208 14.0162 58.3088C14.0083 58.3815 13.9965 58.4375 13.9808 58.4768C13.9317 58.6026 13.8452 58.6979 13.7214 58.7628H13.2674V57.8577C13.3244 57.8577 13.3814 57.8528 13.4384 57.843C13.4816 57.8351 13.5032 57.8214 13.5032 57.8017C13.5032 57.7978 13.5032 57.7939 13.5032 57.7899L12.5864 55.1574C12.5451 55.0768 12.5127 55.0228 12.4891 54.9953C12.4046 54.8951 12.3005 54.8449 12.1766 54.8449H11.8789V53.9429H12.327C12.4233 53.992 12.498 54.0608 12.551 54.1492C12.5825 54.2023 12.608 54.2848 12.6277 54.3969C12.6355 54.3241 12.6473 54.2681 12.6631 54.2288C12.7122 54.103 12.7996 54.0077 12.9254 53.9429H13.3706V54.842L13.0758 54.8449C13.0306 54.8449 12.9844 54.8685 12.9372 54.9157C12.8842 54.9688 12.8576 55.0189 12.8576 55.066C12.8576 55.0798 12.8616 55.0985 12.8694 55.122L13.8245 57.8577H14.2343L15.1629 55.122C15.1668 55.1024 15.1688 55.0837 15.1688 55.066C15.1688 55.0228 15.155 54.9786 15.1275 54.9334C15.0882 54.8744 15.0322 54.8449 14.9595 54.8449H14.6618V53.9429H15.1098C15.2337 54.0077 15.3201 54.103 15.3693 54.2288C15.385 54.2681 15.3968 54.3241 15.4046 54.3969C15.4164 54.2888 15.439 54.2082 15.4724 54.1551C15.5235 54.0667 15.6022 53.9959 15.7083 53.9429H16.1534V54.842Z" stroke="#81DA10" stroke-width="0.4" stroke-miterlimit="2.9238" stroke-linecap="round" mask="url(#path-12-outside-2)"/>
<path d="M20.1119 58.7657H18.1751C18.0493 58.6989 17.9619 58.6036 17.9127 58.4797C17.897 58.4404 17.8852 58.3844 17.8774 58.3117C17.8656 58.4198 17.844 58.5004 17.8125 58.5534C17.7595 58.6419 17.6808 58.7126 17.5767 58.7657H17.1286V57.8577C17.274 57.8577 17.4116 57.8155 17.5413 57.731C17.6651 57.6504 17.727 57.5914 17.727 57.5541V55.1456C17.727 55.1142 17.6671 55.0601 17.5472 54.9835C17.4018 54.8911 17.2622 54.8449 17.1286 54.8449V53.9429H17.5826C17.7064 54.0038 17.7929 54.1011 17.842 54.2347C17.8577 54.274 17.8695 54.332 17.8774 54.4086C17.8852 54.332 17.897 54.274 17.9127 54.2347C17.9619 54.105 18.0493 54.0077 18.1751 53.9429H20.1119V55.1456H19.8171C19.7405 55.0454 19.6756 54.9766 19.6226 54.9393C19.5223 54.8764 19.3877 54.8449 19.2187 54.8449H18.6203C18.4748 54.8449 18.3343 54.8892 18.1987 54.9776C18.0808 55.0542 18.0218 55.1103 18.0218 55.1456V55.9003C18.0218 55.92 18.0562 55.9681 18.125 56.0448C18.1899 56.1214 18.236 56.1597 18.2636 56.1597H19.0683C19.1234 56.1597 19.1656 56.1175 19.1951 56.033C19.203 56.0054 19.2108 55.9612 19.2187 55.9003H19.5194V56.8053H19.2187C19.2148 56.7719 19.2108 56.7454 19.2069 56.7257C19.1735 56.6058 19.1273 56.5459 19.0683 56.5459H18.2636C18.236 56.5459 18.1899 56.5842 18.125 56.6609C18.0562 56.7414 18.0218 56.7896 18.0218 56.8053V57.5541C18.0218 57.5954 18.0926 57.6563 18.2341 57.7369C18.3716 57.8174 18.5004 57.8577 18.6203 57.8577H19.2187C19.372 57.8577 19.5007 57.8253 19.6049 57.7605C19.6854 57.7113 19.7562 57.6425 19.8171 57.5541H20.1119V58.7657Z" stroke="#81DA10" stroke-width="0.4" stroke-miterlimit="2.9238" stroke-linecap="round" mask="url(#path-12-outside-2)"/>
<path d="M24.601 57.5541C24.601 57.8961 24.4821 58.1889 24.2443 58.4326C24.0281 58.6547 23.7884 58.7657 23.525 58.7657H22.6937C22.6171 58.7657 22.5247 58.747 22.4166 58.7097C22.2024 58.637 22.0285 58.5181 21.8948 58.353C21.7101 58.1191 21.6177 57.8027 21.6177 57.4038V55.1456C21.6433 54.8803 21.6836 54.6808 21.7386 54.5472C21.9115 54.1443 22.2299 53.9429 22.6937 53.9429H23.525C23.7668 53.9743 23.9466 54.0234 24.0645 54.0903C24.4222 54.2907 24.601 54.6425 24.601 55.1456H24.2591C24.2591 55.0808 24.1962 55.0081 24.0704 54.9275C23.982 54.8725 23.9014 54.8449 23.8287 54.8449H22.396C22.2525 54.8449 22.1366 54.9029 22.0481 55.0189C21.9597 55.1388 21.9155 55.2812 21.9155 55.4463V57.2416C21.9155 57.4873 21.996 57.6642 22.1572 57.7722C22.2083 57.8037 22.2879 57.8322 22.396 57.8577H23.8287C23.9603 57.8577 24.0773 57.7968 24.1795 57.675C24.264 57.5747 24.3062 57.4843 24.3062 57.4038V56.655H23.413V56.0506H24.601V57.5541Z" stroke="#81DA10" stroke-width="0.4" stroke-miterlimit="2.9238" stroke-linecap="round" mask="url(#path-12-outside-2)"/>
<path d="M30.3814 58.7657H29.9244C29.7986 58.6989 29.7122 58.6036 29.665 58.4797C29.6473 58.4404 29.6345 58.3844 29.6267 58.3117C29.6149 58.4198 29.5933 58.5004 29.5618 58.5534C29.5088 58.6419 29.4301 58.7126 29.326 58.7657H28.8897V57.8607L29.1874 57.8577C29.2307 57.8577 29.2788 57.8332 29.3319 57.784C29.3791 57.7388 29.4026 57.6926 29.4026 57.6455C29.4026 57.6337 29.3987 57.6111 29.3908 57.5777L29.1373 56.8407C29.1255 56.8053 29.0754 56.7552 28.987 56.6903C28.8592 56.5941 28.7187 56.5459 28.5654 56.5459H27.9021C27.7881 56.5459 27.683 56.5734 27.5867 56.6284C27.4491 56.7071 27.3705 56.7778 27.3509 56.8407L27.0973 57.5777C27.0895 57.5993 27.0856 57.6199 27.0856 57.6396C27.0856 57.6868 27.1101 57.731 27.1593 57.7722C27.2221 57.8292 27.2703 57.8577 27.3037 57.8577H27.5985V58.7657H27.1534C27.0276 58.6989 26.9401 58.6036 26.891 58.4797C26.8753 58.4404 26.8635 58.3844 26.8556 58.3117C26.8438 58.4198 26.8222 58.5004 26.7908 58.5534C26.7377 58.6419 26.6591 58.7126 26.5549 58.7657H26.1068V57.8577H26.4046C26.5323 57.8577 26.6385 57.8086 26.723 57.7103C26.7839 57.6435 26.8143 57.5875 26.8143 57.5423L27.6958 55.013C27.7076 54.9815 27.7135 54.955 27.7135 54.9334C27.7135 54.9019 27.7056 54.8803 27.6899 54.8685C27.6663 54.8489 27.626 54.839 27.569 54.839C27.5454 54.839 27.5228 54.839 27.5012 54.839C27.4973 54.839 27.4934 54.841 27.4894 54.8449V53.9429H27.9434C28.0672 54.0077 28.1537 54.105 28.2028 54.2347C28.2185 54.274 28.2303 54.332 28.2382 54.4086C28.25 54.3006 28.2726 54.218 28.306 54.161C28.3571 54.0686 28.4357 53.9959 28.5418 53.9429H28.987V54.8449C28.9398 54.8449 28.8917 54.8469 28.8425 54.8508C28.7934 54.8548 28.7688 54.8842 28.7688 54.9393C28.7688 54.9471 28.7737 54.9678 28.7836 55.0012L29.6768 57.5423C29.6768 57.6111 29.723 57.6838 29.8153 57.7605C29.892 57.8253 29.9824 57.8577 30.0866 57.8577H30.3814V58.7657ZM28.8307 55.9593L28.4446 54.8449H28.0348L27.6604 55.9593C27.6565 55.973 27.6545 55.9858 27.6545 55.9976C27.6545 56.029 27.6742 56.0615 27.7135 56.0949C27.7626 56.1381 27.8255 56.1597 27.9021 56.1597H28.5654C28.6656 56.1597 28.7403 56.1401 28.7895 56.1008C28.8209 56.0752 28.8366 56.0448 28.8366 56.0094C28.8366 55.9937 28.8347 55.9769 28.8307 55.9593Z" stroke="#81DA10" stroke-width="0.4" stroke-miterlimit="2.9238" stroke-linecap="round" mask="url(#path-12-outside-2)"/>
<path d="M35.6399 58.7628H35.1947C35.069 58.6979 34.9825 58.6026 34.9353 58.4768C34.9196 58.4375 34.9078 58.3815 34.8999 58.3088C34.8862 58.4169 34.8636 58.4974 34.8321 58.5505C34.7791 58.6389 34.7005 58.7097 34.5963 58.7628H34.1512V57.8577C34.1826 57.8577 34.216 57.8558 34.2514 57.8518C34.2848 57.8518 34.3251 57.843 34.3723 57.8253L32.7185 55.3638C32.6536 55.2714 32.5878 55.2066 32.521 55.1692C32.4876 55.1535 32.4453 55.1456 32.3942 55.1456C32.3804 55.1456 32.3677 55.1456 32.3559 55.1456V57.5541C32.3559 57.6072 32.4571 57.6838 32.6595 57.784C32.7597 57.8332 32.8443 57.8597 32.913 57.8636C32.9288 57.8636 32.9425 57.8617 32.9543 57.8577V58.7628H32.5092C32.3834 58.6979 32.2959 58.6026 32.2468 58.4768C32.2311 58.4375 32.2193 58.3815 32.2114 58.3088C32.1996 58.4169 32.178 58.4974 32.1466 58.5505C32.0935 58.6389 32.0149 58.7097 31.9107 58.7628H31.4627V57.8577C31.6002 57.8577 31.7348 57.8155 31.8665 57.731C31.9962 57.6504 32.0611 57.5914 32.0611 57.5541V55.1456C32.0611 55.1142 32.0011 55.0601 31.8813 54.9835C31.7358 54.8911 31.5963 54.8449 31.4627 54.8449V53.9429H31.9107C32.007 53.992 32.0817 54.0608 32.1348 54.1492C32.1662 54.2023 32.1918 54.2848 32.2114 54.3969C32.2193 54.3241 32.2311 54.2681 32.2468 54.2288C32.2959 54.103 32.3834 54.0077 32.5092 53.9429H32.9543V54.8449C32.9229 54.8489 32.8885 54.8508 32.8511 54.8508C32.8158 54.8548 32.7794 54.8626 32.7421 54.8744L34.3841 57.3301C34.4607 57.444 34.5432 57.5187 34.6317 57.5541C34.669 57.5541 34.7074 57.5541 34.7467 57.5541V55.1456C34.7467 55.1103 34.6906 55.0562 34.5786 54.9835C34.4371 54.8911 34.2946 54.8449 34.1512 54.8449V53.9429H34.5963C34.6926 53.992 34.7673 54.0608 34.8204 54.1492C34.8518 54.2023 34.8783 54.2848 34.8999 54.3969C34.9078 54.3241 34.9196 54.2681 34.9353 54.2288C34.9825 54.103 35.069 54.0077 35.1947 53.9429H35.6399V54.8449C35.461 54.8449 35.3107 54.8892 35.1888 54.9776C35.0925 55.0444 35.0444 55.1004 35.0444 55.1456V57.5541C35.0444 57.5954 35.1063 57.6563 35.2301 57.7369C35.3598 57.8214 35.4787 57.8636 35.5868 57.8636C35.6065 57.8636 35.6242 57.8617 35.6399 57.8577V58.7628Z" stroke="#81DA10" stroke-width="0.4" stroke-miterlimit="2.9238" stroke-linecap="round" mask="url(#path-12-outside-2)"/>
</g>
<defs>
<filter id="filter0_d" x="10.7031" y="17.3643" width="49.5818" height="32.4753" filterUnits="userSpaceOnUse" color-interpolation-filters="sRGB">
<feFlood flood-opacity="0" result="BackgroundImageFix"/>
<feColorMatrix in="SourceAlpha" type="matrix" values="0 0 0 0 0 0 0 0 0 0 0 0 0 0 0 0 0 0 127 0"/>
<feOffset dy="4"/>
<feGaussianBlur stdDeviation="2"/>
<feColorMatrix type="matrix" values="0 0 0 0 0 0 0 0 0 0 0 0 0 0 0 0 0 0 0.25 0"/>
<feBlend mode="normal" in2="BackgroundImageFix" result="effect1_dropShadow"/>
<feBlend mode="normal" in="SourceGraphic" in2="effect1_dropShadow" result="shape"/>
</filter>
<filter id="filter1_d" x="21.5498" y="11.8999" width="27.783" height="21.6659" filterUnits="userSpaceOnUse" color-interpolation-filters="sRGB">
<feFlood flood-opacity="0" result="BackgroundImageFix"/>
<feColorMatrix in="SourceAlpha" type="matrix" values="0 0 0 0 0 0 0 0 0 0 0 0 0 0 0 0 0 0 127 0"/>
<feOffset dy="4"/>
<feGaussianBlur stdDeviation="2"/>
<feColorMatrix type="matrix" values="0 0 0 0 0 0 0 0 0 0 0 0 0 0 0 0 0 0 0.25 0"/>
<feBlend mode="normal" in2="BackgroundImageFix" result="effect1_dropShadow"/>
<feBlend mode="normal" in="SourceGraphic" in2="effect1_dropShadow" result="shape"/>
</filter>
<filter id="filter2_d" x="11.9014" y="36.1084" width="47.2638" height="21.1291" filterUnits="userSpaceOnUse" color-interpolation-filters="sRGB">
<feFlood flood-opacity="0" result="BackgroundImageFix"/>
<feColorMatrix in="SourceAlpha" type="matrix" values="0 0 0 0 0 0 0 0 0 0 0 0 0 0 0 0 0 0 127 0"/>
<feOffset dy="4"/>
<feGaussianBlur stdDeviation="2"/>
<feColorMatrix type="matrix" values="0 0 0 0 0 0 0 0 0 0 0 0 0 0 0 0 0 0 0.25 0"/>
<feBlend mode="normal" in2="BackgroundImageFix" result="effect1_dropShadow"/>
<feBlend mode="normal" in="SourceGraphic" in2="effect1_dropShadow" result="shape"/>
</filter>
<filter id="filter3_d" x="32.9507" y="53.7771" width="30.2589" height="13.2228" filterUnits="userSpaceOnUse" color-interpolation-filters="sRGB">
<feFlood flood-opacity="0" result="BackgroundImageFix"/>
<feColorMatrix in="SourceAlpha" type="matrix" values="0 0 0 0 0 0 0 0 0 0 0 0 0 0 0 0 0 0 127 0"/>
<feOffset dy="4"/>
<feGaussianBlur stdDeviation="2"/>
<feColorMatrix type="matrix" values="0 0 0 0 0 0 0 0 0 0 0 0 0 0 0 0 0 0 0.25 0"/>
<feBlend mode="normal" in2="BackgroundImageFix" result="effect1_dropShadow"/>
<feBlend mode="normal" in="SourceGraphic" in2="effect1_dropShadow" result="shape"/>
</filter>
<filter id="filter4_d" x="7.67871" y="53.7429" width="32.161" height="13.2228" filterUnits="userSpaceOnUse" color-interpolation-filters="sRGB">
<feFlood flood-opacity="0" result="BackgroundImageFix"/>
<feColorMatrix in="SourceAlpha" type="matrix" values="0 0 0 0 0 0 0 0 0 0 0 0 0 0 0 0 0 0 127 0"/>
<feOffset dy="4"/>
<feGaussianBlur stdDeviation="2"/>
<feColorMatrix type="matrix" values="0 0 0 0 0 0 0 0 0 0 0 0 0 0 0 0 0 0 0.25 0"/>
<feBlend mode="normal" in2="BackgroundImageFix" result="effect1_dropShadow"/>
<feBlend mode="normal" in="SourceGraphic" in2="effect1_dropShadow" result="shape"/>
</filter>
</defs>
</svg>
