<svg width="266" height="50" viewBox="0 0 266 50" fill="none" xmlns="http://www.w3.org/2000/svg">
<path d="M265.043 14.1025C263.216 21.8725 261.402 29.6425 259.6 37.4125C259.182 39.0442 258.839 40.7148 258.42 42.5408H247.763L250.784 28.244H249.735L242.206 42.7739H236.572L234.822 28.244H233.832L230.977 42.735H220.167L226.638 12.0045H240.493L242.434 28.5936L251.379 11.4607H265.157L265.043 14.1025Z" fill="url(#paint0_linear)"/>
<path d="M170.344 43.0847H154.357L152.416 49.8447H141.53L144.461 35.8587C148.267 35.8587 149.714 32.9061 150.665 30.0701C152.606 24.2425 154.129 18.415 155.956 11.927H184.846L180.202 35.2371L183.285 36.1307L180.354 50.0001H169.735L170.344 43.0847ZM168.022 35.3147L171.333 18.9978H165.776L160.143 35.3147H168.022Z" fill="url(#paint1_linear)"/>
<path d="M82.7998 42.0358L80.7588 49.4226H69.0952L76.7477 11.8494H87.1769L87.5195 14.1804C89.8638 13.0151 92.2947 12.0408 94.7895 11.2666C96.3458 10.6999 98.0136 10.5275 99.6496 10.7643C101.286 11.0011 102.841 11.64 104.181 12.626C105.522 13.6121 106.608 14.9158 107.345 16.425C108.083 17.9342 108.45 19.6037 108.416 21.2899C108.946 26.1977 107.687 31.133 104.879 35.1533C102.07 39.1736 97.9095 41.9971 93.1908 43.0848C89.6974 43.1895 86.2054 42.837 82.7998 42.0358ZM86.8724 33.3722C92.3534 34.5766 96.3881 30.5362 96.0075 24.3202C96.0632 23.5042 95.8817 22.6895 95.486 21.9783C95.0902 21.267 94.4977 20.6907 93.7825 20.3216C93.0673 19.9525 92.2613 19.8069 91.4655 19.9031C90.6697 19.9993 89.9193 20.333 89.3084 20.8625C87.4361 22.2534 86.1457 24.3131 85.6943 26.6313C85.2429 28.9496 85.6635 31.3563 86.8724 33.3722Z" fill="#2D2D2D"/>
<path d="M122.651 26.3405L135.516 11.7717H147.468L141.035 42.6187H129.616L131.786 29.2932L130.796 28.8659L118.883 42.6187H106.741L113.25 11.8106H124.668L122.423 26.0298L122.08 26.9234H122.385L122.651 26.3405Z" fill="#2D2D2D"/>
<path d="M185.378 30.886C185.378 15.5402 201.441 6.91547 214.687 12.4322C216.619 13.2218 218.267 14.6003 219.404 16.38C220.542 18.1597 221.114 20.2541 221.043 22.3778C221.292 25.8969 220.573 29.4171 218.965 32.5407C217.358 35.6644 214.926 38.267 211.946 40.0545C208.844 42.2057 205.233 43.4668 201.49 43.706C197.747 43.9452 194.01 43.1537 190.669 41.4143C188.811 40.4548 187.298 38.9192 186.347 37.0278C185.397 35.1364 185.058 32.9863 185.378 30.886ZM209.586 24.6311C210.019 22.1357 209.895 21.9616 209.153 21.055C208.354 20.0779 206.829 19.8166 206.237 19.736C205.189 19.6182 204.128 19.742 203.134 20.0983C202.139 20.4547 201.235 21.0346 200.489 21.7951C198.951 24.4115 198.002 27.3442 197.711 30.3809C197.731 31.251 197.66 32.8364 198.078 33.595C198.496 34.3536 198.884 34.4143 199.602 34.8842C200.426 35.1333 201.81 35.4261 202.649 35.2357C203.488 35.0454 204.584 34.8801 205.227 34.2982C206.491 33.1543 206.844 32.3496 207.629 30.886C208.59 29.0971 209.153 27.1264 209.586 24.6311Z" fill="url(#paint2_linear)"/>
<path d="M36.4474 18.8519C28.9204 14.824 16.0641 13.5549 11.9205 9.32947L9.76123 7.90283L11.9205 7.96981C18.3151 8.35831 24.7012 7.8569 30.9054 8.7116C32.8164 8.89737 35.1699 9.94604 36.4474 11.4085C37.122 12.1807 37.6008 13.2054 37.5439 14.3721C37.4932 15.415 36.803 16.8663 36.4474 18.8519Z" fill="url(#paint3_linear)"/>
<path d="M41.6538 5.99654C42.9825 -1.81757 52.155 0.246693 56.6505 0.246684L55.7069 5.06418C56.1595 5.06418 56.7488 5.03461 57.2214 5.06418C59.7727 5.22378 62.3138 5.52198 64.8339 5.95766C67.6484 6.46131 70.1545 8.07815 71.8079 10.4568C73.4613 12.8355 74.1285 15.7839 73.6645 18.6617C73.4075 23.4508 71.3926 27.9653 68.0208 31.306C64.6491 34.6467 60.1681 36.5683 55.4706 36.6881C53.5294 36.6881 51.6643 36.6881 49.9134 36.6881C48.5375 42.4768 49.6539 37.584 48.278 43.3727C40.4608 43.3727 40.6231 43.3727 34.0993 43.3727L34.9548 37.1932C28.5983 36.3385 21.1762 37.5429 18.1312 29.8506C17.2838 27.4665 16.9872 24.9149 17.2645 22.3946C17.5418 19.8743 18.3854 17.4534 19.7297 15.3205C19.7297 15.3205 31.9604 18.5349 31.1485 18.7394C30.3366 18.9439 27.7156 27.2087 31.1485 27.2087C34.5814 27.2087 37.1625 27.2087 37.1625 27.2087C37.9998 23.3237 38.9133 19.9437 39.4081 16.4472C39.6783 15.4619 39.7393 14.4291 39.5869 13.4179C39.4345 12.4066 39.0724 11.4402 38.5248 10.5833C37.9771 9.72639 37.2564 8.99866 36.411 8.44886C35.5656 7.89906 34.615 7.53974 33.6227 7.39509C31.7138 6.94135 29.759 6.71972 27.7991 6.73471C22.6226 6.73471 17.4079 6.46276 12.2695 6.73471C7.92053 6.7367 3.69743 5.24514 0.279785 2.50006C11.3179 2.50006 21.5567 2.26696 31.7575 2.50006C35.1931 3.2144 38.5208 4.39011 41.6538 5.99654ZM53.7958 14.8932L51.144 27.2087C58.2236 27.908 63.8677 25.7537 63.8677 14.8932H53.7958Z" fill="#2D2D2D"/>
<defs>
<linearGradient id="paint0_linear" x1="265.043" y1="26.4763" x2="147.293" y2="26.4763" gradientUnits="userSpaceOnUse">
<stop stop-color="#FF8A00"/>
<stop offset="1" stop-color="#FFB800"/>
</linearGradient>
<linearGradient id="paint1_linear" x1="262.953" y1="30.6569" x2="145.9" y2="30.6569" gradientUnits="userSpaceOnUse">
<stop stop-color="#FF8A00"/>
<stop offset="1" stop-color="#FFB800"/>
</linearGradient>
<linearGradient id="paint2_linear" x1="264.346" y1="27.8699" x2="145.9" y2="27.8699" gradientUnits="userSpaceOnUse">
<stop stop-color="#FF8A00"/>
<stop offset="1" stop-color="#FFB800"/>
</linearGradient>
<linearGradient id="paint3_linear" x1="37.9039" y1="13.9348" x2="10.0341" y2="13.9348" gradientUnits="userSpaceOnUse">
<stop stop-color="#FF8A00"/>
<stop offset="1" stop-color="#FFB800"/>
</linearGradient>
</defs>
</svg>
