<svg width="40" height="33" viewBox="0 0 40 33" fill="none" xmlns="http://www.w3.org/2000/svg">
<path d="M20 17.5684C17.3758 17.5684 14.7509 18.5654 12.7551 20.5613C12.653 20.6633 12.5721 20.7844 12.5169 20.9177C12.4617 21.0509 12.4333 21.1938 12.4333 21.3381C12.4333 21.4823 12.4617 21.6252 12.5169 21.7585C12.5721 21.8918 12.653 22.0129 12.7551 22.1149C12.8571 22.2169 12.9782 22.2978 13.1115 22.353C13.2447 22.4082 13.3876 22.4366 13.5319 22.4366C13.6761 22.4366 13.819 22.4082 13.9523 22.353C14.0856 22.2978 14.2067 22.2169 14.3087 22.1149C17.4615 18.9621 22.5386 18.9621 25.6914 22.1149C25.7934 22.2169 25.9145 22.2978 26.0478 22.353C26.1811 22.4082 26.3239 22.4366 26.4682 22.4366C26.6125 22.4366 26.7553 22.4082 26.8886 22.353C27.0219 22.2978 27.143 22.2169 27.245 22.1149C27.347 22.0129 27.4279 21.8918 27.4832 21.7585C27.5384 21.6252 27.5668 21.4823 27.5668 21.3381C27.5668 21.1938 27.5384 21.0509 27.4832 20.9177C27.4279 20.7844 27.347 20.6633 27.245 20.5613C25.2491 18.5654 22.6243 17.5684 20 17.5684Z" fill="#808080"/>
<path d="M20.0001 11.7144C15.8776 11.7144 11.7549 13.2834 8.61593 16.4224C8.51058 16.5235 8.42647 16.6447 8.36853 16.7787C8.31059 16.9128 8.27998 17.0571 8.2785 17.2031C8.27701 17.3491 8.30468 17.494 8.35988 17.6292C8.41508 17.7644 8.49671 17.8873 8.59998 17.9905C8.70325 18.0938 8.82608 18.1754 8.96129 18.2306C9.0965 18.2858 9.24136 18.3135 9.3874 18.312C9.53343 18.3105 9.67771 18.2799 9.81176 18.222C9.94582 18.164 10.067 18.0799 10.1681 17.9746C15.6071 12.5355 24.393 12.5355 29.832 17.9746C29.9332 18.0799 30.0543 18.164 30.1884 18.222C30.3225 18.2799 30.4667 18.3105 30.6128 18.312C30.7588 18.3135 30.9037 18.2858 31.0389 18.2306C31.1741 18.1754 31.2969 18.0938 31.4002 17.9905C31.5035 17.8873 31.5851 17.7644 31.6403 17.6292C31.6955 17.494 31.7232 17.3491 31.7217 17.2031C31.7202 17.0571 31.6896 16.9128 31.6316 16.7787C31.5737 16.6447 31.4896 16.5235 31.3842 16.4224C28.2452 13.2834 24.1226 11.7144 20.0001 11.7144Z" fill="#808080"/>
<path d="M19.9999 5.85986C14.3792 5.85986 8.7587 8.0009 4.47658 12.283C4.37124 12.3842 4.28713 12.5053 4.22919 12.6394C4.17125 12.7734 4.14064 12.9177 4.13916 13.0637C4.13767 13.2098 4.16534 13.3546 4.22054 13.4898C4.27574 13.625 4.35737 13.7479 4.46063 13.8512C4.5639 13.9544 4.68674 14.036 4.82195 14.0912C4.95716 14.1464 5.10202 14.1741 5.24806 14.1726C5.39409 14.1711 5.53836 14.1405 5.67242 14.0826C5.80648 14.0247 5.92763 13.9405 6.02877 13.8352C13.754 6.10993 26.2458 6.10993 33.971 13.8352C34.0722 13.9405 34.1933 14.0247 34.3274 14.0826C34.4615 14.1405 34.6057 14.1711 34.7518 14.1726C34.8978 14.1741 35.0427 14.1464 35.1779 14.0912C35.3131 14.036 35.4359 13.9544 35.5392 13.8512C35.6425 13.7479 35.7241 13.625 35.7793 13.4898C35.8345 13.3546 35.8622 13.2098 35.8607 13.0637C35.8592 12.9177 35.8286 12.7734 35.7706 12.6394C35.7127 12.5053 35.6286 12.3842 35.5232 12.283C31.2411 8.0009 25.6206 5.85986 19.9999 5.85986Z" fill="#808080"/>
<path d="M21.6194 0.0470472C17.6774 -0.181823 13.6952 0.424292 9.96223 1.86651C9.82356 1.91531 9.69611 1.99147 9.58743 2.09046C9.47875 2.18945 9.39106 2.30926 9.32956 2.44278C9.26807 2.5763 9.23401 2.72081 9.22942 2.86775C9.22483 3.01468 9.24979 3.16104 9.30283 3.29814C9.35587 3.43524 9.43591 3.56029 9.53819 3.66587C9.64047 3.77146 9.76292 3.85542 9.89827 3.91279C10.0336 3.97016 10.1791 3.99976 10.3261 3.99983C10.4731 3.99991 10.6186 3.97046 10.754 3.91323C19.9186 0.372583 30.7076 2.29333 38.1103 9.69606C38.2115 9.80141 38.3326 9.88552 38.4667 9.94346C38.6007 10.0014 38.745 10.032 38.891 10.0335C39.0371 10.035 39.1819 10.0073 39.3171 9.95211C39.4523 9.89691 39.5752 9.81528 39.6784 9.71201C39.7817 9.60875 39.8633 9.48591 39.9185 9.3507C39.9737 9.21549 40.0014 9.07063 39.9999 8.92459C39.9984 8.77856 39.9678 8.63429 39.9099 8.50023C39.852 8.36617 39.7678 8.24502 39.6625 8.14387C34.6481 3.12945 28.1893 0.428497 21.6194 0.0470472Z" fill="#808080"/>
<path d="M7.00075 3.33744C6.82826 3.34632 6.66029 3.39578 6.51051 3.4818C4.29617 4.71108 2.21531 6.26626 0.337485 8.14408C0.232138 8.24523 0.148031 8.36638 0.0900912 8.50044C0.0321511 8.63449 0.00154205 8.77877 5.6779e-05 8.9248C-0.00142849 9.07084 0.0262398 9.2157 0.0814412 9.35091C0.136643 9.48612 0.218268 9.60895 0.321536 9.71222C0.424804 9.81549 0.547639 9.89711 0.682848 9.95232C0.818056 10.0075 0.96292 10.0352 1.10896 10.0337C1.25499 10.0322 1.39926 10.0016 1.53332 9.94367C1.66738 9.88573 1.78853 9.80162 1.88967 9.69627C3.62231 7.96364 5.53855 6.53281 7.57675 5.40131C7.7967 5.28342 7.96993 5.09411 8.06787 4.86458C8.16581 4.63505 8.18263 4.379 8.11554 4.13863C8.04846 3.89826 7.90148 3.68792 7.69883 3.54228C7.49619 3.39664 7.24996 3.32439 7.00075 3.33744Z" fill="#D79B00"/>
<path d="M19.9999 23.4155C17.588 23.4155 15.6092 25.3943 15.6092 27.8063C15.6092 30.2182 17.588 32.197 19.9999 32.197C22.4118 32.197 24.3906 30.2182 24.3906 27.8063C24.3906 25.3943 22.4118 23.4155 19.9999 23.4155ZM19.9999 25.6109C21.2254 25.6109 22.1953 26.5808 22.1953 27.8063C22.1953 29.0317 21.2254 30.0016 19.9999 30.0016C18.7744 30.0016 17.8046 29.0317 17.8046 27.8063C17.8046 26.5808 18.7744 25.6109 19.9999 25.6109Z" fill="#808080"/>
</svg>
