<svg width="70" height="70" viewBox="0 0 70 70" fill="none" xmlns="http://www.w3.org/2000/svg">
<path d="M36.6614 70L35.4587 69.7959L35.4462 69.657C35.649 69.6459 35.8517 69.6222 36.0545 69.6278C36.61 69.6445 37.1655 69.6917 37.7211 69.6889C37.8974 69.6889 38.1821 69.6097 38.228 69.4931C38.3405 69.2 38.1821 68.989 37.8447 68.9473C37.2891 68.8765 36.7211 68.7487 36.1573 68.7376C34.9587 68.7154 33.7588 68.789 32.563 68.7487C32.0478 68.732 31.5437 68.4876 31.0256 68.4265C30.7284 68.3904 30.3062 68.4057 30.1215 68.5848C29.566 69.1195 28.9855 69.0681 28.3341 68.9195C27.4434 68.7061 26.539 68.5544 25.6273 68.4654L26.5426 68.9876C25.5704 68.6806 24.4691 68.6779 23.7358 67.8321C23.7025 67.7946 23.7872 67.6696 23.783 67.5876C23.7873 67.4992 23.7592 67.4123 23.7038 67.3432C22.8997 66.703 22.0234 66.2211 20.9054 66.2322L23.3025 67.9932C21.5693 67.5918 20.0541 66.7294 18.4542 65.6933L19.0222 65.7322C17.9833 64.8989 17.0778 63.8892 15.9515 63.3615C14.4919 62.6782 13.4697 61.5783 12.3601 60.5242C12.3157 60.4707 12.2638 60.4239 12.2059 60.3853C10.5532 59.5784 9.50746 58.116 8.39503 56.7563C7.48397 55.6453 6.72847 54.3954 5.90769 53.2121C5.78919 53.0713 5.68279 52.9208 5.58965 52.7621C5.42021 52.3913 5.32022 51.983 5.11884 51.6316C4.86052 51.1817 4.53137 50.772 4.23139 50.347C3.96752 49.9734 3.59671 49.6359 3.45644 49.2221C3.05369 48.0208 2.72177 46.7958 2.40095 45.5695C1.98431 43.9627 1.55099 42.3544 1.21074 40.7295C1.03713 39.8962 1.05658 39.0324 0.973255 38.1852C0.939924 37.8436 0.863528 37.5061 0.805198 37.1672L0.606608 37.195L0.745489 38.8269L0.526064 38.8435C0.438569 37.8005 0.359402 36.7603 0.260797 35.7132C0.203856 35.0979 0.051077 34.4827 0.0594099 33.8688C0.0734492 32.7206 0.145302 31.5739 0.274682 30.4329C0.319123 30.051 0.73021 29.7163 0.795484 29.3302C0.887145 28.7872 0.795483 28.2192 0.812149 27.6567C0.885756 25.8679 1.21908 24.1666 2.08847 22.5459C3.07869 20.7002 3.87725 18.7531 4.77442 16.8518C4.94107 16.499 5.19106 16.1838 5.3855 15.8449C5.84519 15.0519 6.29377 14.2519 6.75486 13.4603C6.84096 13.3131 6.85763 13.3312 7.1715 13.3853C7.22983 13.3964 7.31037 13.3242 7.36731 13.2701C8.54316 12.0442 9.71763 10.8165 10.8907 9.58693L10.5338 9.47582C10.6255 9.34859 10.7292 9.23047 10.8435 9.12308C12.1976 8.08008 13.6211 7.11903 14.8919 5.98299C15.8368 5.10862 16.9057 4.37855 18.0639 3.81644C18.8291 3.45535 19.5458 2.9915 20.3124 2.63319C20.6096 2.49431 20.986 2.53041 21.3193 2.45681C21.6552 2.38889 21.9846 2.29224 22.3039 2.16792C22.9011 1.91933 23.4622 1.56936 24.076 1.38187C24.8274 1.15133 25.6204 1.05549 26.3898 0.881889C27.4189 0.649958 28.4397 0.381926 29.4716 0.161106C29.9187 0.0652786 30.3826 0.0513858 30.8381 0H31.9492L31.0562 0.490253L33.5894 1.08745C32.9811 1.08745 32.27 1.14021 31.57 1.07354C30.5868 0.980494 29.6632 1.02911 28.7272 1.42492C28.1952 1.6499 27.5425 1.57352 26.9606 1.70268C26.6328 1.77628 26.1273 1.58047 26.0384 2.19988C26.0259 2.28738 25.6704 2.33876 25.469 2.38737C22.9789 2.96928 20.579 3.77616 18.3861 5.13441C16.6501 6.20379 15.0099 7.3829 13.5767 8.85642C12.9073 9.55082 12.049 10.0494 11.3073 10.6758C11.0407 10.9021 10.8796 11.2521 10.6546 11.534C10.0797 12.2534 9.46997 12.9478 8.92 13.6867C8.02422 14.8936 7.04511 16.0602 6.32848 17.3684C5.63408 18.6183 5.2355 20.028 4.71886 21.3737C4.59387 21.7001 4.36194 21.889 4.1314 22.1279C3.6967 22.5806 3.5231 23.2986 3.28145 23.9222C2.97869 24.7041 2.72593 25.5026 2.43289 26.2832C2.34262 26.5262 2.37178 26.4665 2.58427 26.6442C2.69259 26.7359 2.60371 27.0609 2.60371 27.3317L3.05646 26.9512C2.91758 27.4706 2.82453 27.8359 2.72732 28.2011C2.5065 29.0247 2.26206 29.8441 2.07735 30.676C2.00652 30.9954 1.72321 31.419 2.27874 31.6481C2.31901 31.6648 2.28845 31.912 2.25234 32.0425C1.86903 33.3925 2.06763 34.7396 2.25234 36.0895C2.33451 36.544 2.37357 37.0053 2.369 37.4672C2.29272 38.6306 2.60968 39.7859 3.26896 40.7476C3.51061 41.1128 3.50921 41.5197 3.46616 42.0114C3.38977 42.9002 3.26894 43.9307 4.13972 44.6376C4.28251 44.7475 4.39643 44.8905 4.47165 45.0543C5.16605 46.7611 5.83269 48.4818 6.54376 50.1817C6.76596 50.7095 7.11455 51.1817 7.37704 51.69C7.60341 52.1205 7.79367 52.5691 8.01172 53.0038C8.08481 53.1667 8.18429 53.3164 8.30614 53.4468C9.12693 54.2357 10.0394 54.9454 10.7643 55.8078C11.581 56.78 12.417 57.6591 13.5225 58.3424C14.2808 58.8118 14.7877 59.6756 15.4571 60.3103C15.8737 60.7006 16.339 61.088 16.8556 61.3005C17.6153 61.613 18.0236 62.2421 18.5347 62.7935C18.7375 63.0143 18.9638 63.2601 19.2291 63.3657C20.7301 63.986 22.2659 64.5183 23.8288 64.96L21.0512 63.692L21.1234 63.5143L25.1329 65.0045L23.8205 62.5379C24.3663 62.706 24.8079 62.7879 24.8524 63.4337C24.8635 63.5976 25.1746 63.7837 25.3843 63.8851C26.262 64.3114 27.1467 64.7281 28.0452 65.1114C28.3872 65.2389 28.7428 65.326 29.1049 65.3711C29.1648 65.3726 29.2241 65.3592 29.2776 65.3324C29.3311 65.3055 29.3772 65.2659 29.4118 65.217C29.6896 64.6809 30.0076 64.6614 30.4465 65.1322C30.5928 65.3017 30.7956 65.4122 31.0173 65.4433C31.9895 65.4433 32.9519 65.4156 33.9143 65.3364C34.2213 65.3114 34.5032 65.0267 34.8143 64.9836C35.2333 64.9423 35.6558 64.9516 36.0725 65.0114C38.0085 65.2211 39.8765 65.0558 41.6028 64.0559C41.7187 63.9787 41.8462 63.9205 41.9805 63.8837C43.0805 63.6698 44.211 63.5546 45.2776 63.2324C46.1678 62.9629 46.9886 62.4602 47.833 62.0463C48.8162 61.5644 49.7912 61.0658 50.7703 60.5742L50.8675 60.7464L48.6649 62.1449C49.8801 62.1074 53.7673 60.2645 55.1714 58.8812C54.7062 59.134 54.2423 59.3867 53.7826 59.6381C53.6262 59.7356 53.4606 59.8174 53.2882 59.8826C53.1597 59.8997 53.0292 59.8955 52.9021 59.8701C52.9729 59.7437 53.0132 59.5492 53.1201 59.4992C53.8534 59.1548 54.3131 58.6521 54.3937 57.798C54.4117 57.6146 54.7992 57.4688 55.0145 57.3035C55.3047 57.0799 55.4922 57.1174 55.57 57.5049C55.6556 57.5366 55.7497 57.5366 55.8353 57.5049C55.9774 57.3881 56.1114 57.2619 56.2366 57.1272C57.2257 56.2063 57.9434 55.0318 58.3115 53.7315C58.4379 53.3038 58.8198 52.951 59.0351 52.6358C59.136 52.9026 59.2222 53.1747 59.2934 53.451C59.3303 53.6083 59.3157 53.7734 59.2517 53.9218C58.974 54.4495 58.6684 54.9592 58.4559 55.5439C58.6948 55.2176 58.899 54.8495 59.1823 54.5718C59.4656 54.294 59.3364 53.7246 59.9892 53.6912C60.3447 53.6732 60.6836 53.2566 61.0669 53.0621C59.3559 55.6259 56.6935 57.4063 55.1895 60.1284L55.3659 60.2895C55.7575 59.8728 56.1227 59.4242 56.5449 59.0395C57.4685 58.1979 58.4504 57.4216 59.3489 56.5564C60.0628 55.8717 60.8155 55.1676 61.3266 54.344C62.3501 52.6774 63.2181 50.9289 64.1556 49.2165C64.3764 48.8151 64.6542 48.4402 64.85 48.0263C65.0025 47.644 65.131 47.2525 65.2347 46.8542L64.9931 46.7625L64.6528 47.2208L64.5042 47.1486C64.6806 46.8055 64.7819 46.3986 65.0417 46.132C66.2138 44.9029 66.7721 43.3627 67.0068 41.7725C67.3957 39.1449 67.5623 36.4853 67.7457 33.8313C67.0429 34.9424 67.036 35.4326 67.1901 36.9075C67.2485 37.4908 66.9124 38.1075 66.8165 38.713C66.7572 39.1703 66.7257 39.6309 66.7221 40.0921C66.7221 40.2434 66.7832 40.4045 66.7485 40.5434C66.5777 41.3183 66.323 42.0722 65.9888 42.7919L66.0555 41.8656C65.3611 42.3239 64.925 43.3585 65.0208 44.2904C65.0333 44.414 65.0889 44.5682 65.0417 44.6612C64.4667 45.857 63.8515 47.0361 63.2973 48.243C62.9904 48.911 62.9251 49.647 62.1738 50.122C61.6932 50.4248 61.4599 51.1122 61.1016 51.6164C61.006 51.7124 60.8965 51.7934 60.7766 51.8566L60.5808 51.7455L61.3113 50.2637L59.8017 51.9552L59.6892 51.865C60.1864 51.1622 60.703 50.4762 61.1683 49.7484C61.3405 49.4818 61.3655 49.1248 61.5058 48.8318C61.7141 48.3985 61.8655 47.8472 62.2182 47.5944C62.9321 47.0819 63.0918 46.3528 63.3584 45.6181C63.6542 44.8001 64.0709 44.0279 64.4361 43.2349C64.7139 42.6239 65.018 42.0308 64.6431 41.3267C64.5403 41.1351 64.6097 40.8267 64.6583 40.5823C64.8847 39.4379 65.0153 38.2519 65.4152 37.1686C65.6728 36.5199 65.8527 35.843 65.9513 35.1521C66.1388 33.6091 66.2819 32.0606 66.4471 30.5148C66.4471 30.4857 66.511 30.4621 66.6152 30.3843L66.9346 31.9578C67.1749 27.3567 66.5971 22.9445 64.1042 19.0905C63.9287 19.1043 63.755 19.1365 63.5862 19.1864C63.4681 19.2364 63.2848 19.3683 63.2945 19.4391C63.3342 19.736 63.4141 20.0262 63.532 20.3016C63.8723 21.071 64.2264 21.8293 64.6139 22.5806C64.7042 22.7556 64.9472 22.8584 65.1236 22.9792C65.1555 23.0028 65.2389 22.9792 65.2458 23.007C65.7486 24.3958 66.6485 25.6624 66.4846 27.2623L66.2666 26.8026C66.218 26.8873 66.1791 26.9234 66.1791 26.9595C66.1694 27.9428 66.1583 28.9261 66.1624 29.9093C66.1624 30.2538 66.2055 30.6037 66.2388 30.944C66.2582 31.1565 66.261 31.1357 66.0041 31.2218C65.9458 31.2398 65.9124 31.444 65.9208 31.5592C65.9597 32.1453 66.0416 32.73 66.0471 33.3161C66.0471 33.4702 65.8263 33.6258 65.7055 33.7813C65.644 33.6101 65.6012 33.4327 65.5777 33.2522C65.493 30.1968 65.7999 27.0901 64.6222 24.15C64.2167 23.1375 63.7515 22.1501 63.314 21.1515L63.0793 21.2335L63.1376 21.789L63.0196 21.832C62.7168 21.2349 62.2932 20.6654 62.1349 20.0266C61.846 18.8614 61.1627 17.9573 60.5197 16.9948C60.0475 16.2921 59.8253 15.4296 59.4239 14.6714C59.067 13.9922 58.6254 13.3575 58.2212 12.702L58.0254 12.7979C58.0532 12.9742 58.081 13.1506 58.1379 13.5159C57.281 12.5062 56.3963 11.8021 55.9075 10.691C55.6436 10.0925 54.9117 9.70081 54.3895 9.2189C54.1118 8.9578 53.7243 8.75088 53.5562 8.43145C53.2438 7.83566 52.7757 7.64261 52.1674 7.5065C51.8424 7.4329 51.2536 7.41762 51.3647 6.74544C51.38 6.64822 51.1355 6.476 50.9828 6.38712C49.9662 5.79549 48.9426 5.21774 47.9274 4.63445C47.7705 4.54417 47.6205 4.44141 47.4677 4.34558L47.5288 4.12753C47.8369 4.18138 48.1416 4.25327 48.4412 4.3428C48.9523 4.52612 49.4606 4.72888 49.9509 4.9622C50.1911 5.07608 50.3884 5.28024 50.6092 5.43718C51.5161 6.07742 52.3452 6.93293 53.3521 7.30235C54.9506 7.88843 55.688 9.27306 56.7658 10.348C56.9913 10.6059 57.24 10.8425 57.5088 11.0549C55.9047 8.99529 54.4339 6.82598 52.1035 5.44967C50.8967 4.73722 49.7981 3.84422 48.6579 3.02204C48.519 2.92483 48.4399 2.75262 48.2413 2.50541C48.701 2.65263 49.0357 2.87067 49.3426 2.83595C50.2606 2.73457 50.8911 3.16787 51.605 3.66923C52.3549 4.18865 53.3021 4.41364 54.1284 4.83583C54.4353 4.99277 54.6451 5.34274 54.8978 5.60661C55.3274 6.05566 55.7561 6.50609 56.1838 6.95792C56.7921 7.59816 57.3796 8.26339 58.0226 8.86752C58.2143 9.04668 58.4282 9.82859 58.8559 9.03141C58.9451 9.07784 59.0262 9.13834 59.0962 9.21057C59.8031 10.2286 60.4725 11.2729 61.2141 12.2659C61.758 12.9647 62.3541 13.6211 62.9973 14.2297L62.4307 13.2006C62.9668 13.5186 63.7501 13.552 63.732 14.4297C63.732 14.5908 63.8709 14.7825 63.9834 14.9158C65.8694 16.999 66.5082 19.7072 67.5818 22.1959C67.8443 22.8042 68.222 23.3542 68.1012 24.0722C67.7734 26.0262 68.3387 27.9261 68.4748 29.8538C68.5262 30.5662 68.5734 31.2815 68.6789 31.987C68.7345 32.3509 68.9386 32.6814 69.0317 33.048C69.1124 33.3314 69.1462 33.626 69.1317 33.9202C69.097 34.348 68.9928 34.7688 68.8817 35.3493L69.4372 34.8632V35.6965C69.2983 35.8354 69.0789 35.9409 69.0456 36.0937C68.9156 36.6948 68.8228 37.3033 68.7678 37.9158C68.6914 38.8241 68.7317 39.7462 68.5928 40.6434C68.454 41.5864 68.1665 42.5114 67.9193 43.4377C67.5887 44.6765 67.3165 45.9375 66.8679 47.1375C66.3888 48.4138 65.7569 49.6373 65.1486 50.8595C64.725 51.7108 64.0639 52.3747 63.3195 52.9705C63.0973 53.1482 63.0029 53.4871 62.8501 53.7524L63.7889 53.5357C63.7667 53.6524 63.732 53.8232 63.6876 54.0454L64.1778 53.7524L64.3167 53.976C63.8417 54.2801 63.4029 54.6856 62.8848 54.8634C62.1023 55.1339 61.4168 55.6291 60.9141 56.2869C60.0586 57.3452 59.1309 58.3479 58.1865 59.3284C57.7907 59.7451 57.2741 60.0339 56.8158 60.3853C56.5089 60.6517 56.1881 60.9016 55.8547 61.1339C55.3186 61.4644 54.6812 61.6644 54.209 62.0644C53.2062 62.9115 52.3827 63.9976 50.9481 64.1892C50.7606 64.2129 50.4731 64.3656 50.437 64.51C50.2467 65.2558 49.5329 65.2669 49.0371 65.4669C48.0746 65.853 47.0399 66.0544 46.0456 66.3627C45.9178 66.4016 45.8456 66.6197 45.7484 66.7544C45.8956 66.8196 46.04 66.9321 46.1914 66.9432C46.5719 66.971 46.9552 66.953 47.5344 66.953C46.2567 67.4599 45.1914 68.0529 44.0512 68.3001C42.0916 68.7167 40.1542 69.1723 38.321 70H36.6614Z" fill="url(#paint0_linear)"/>
<path d="M42.0721 26.968C42.4485 26.968 42.767 27.0838 43.0276 27.3155C43.2881 27.5423 43.4184 27.8873 43.4184 28.3506C43.4184 28.3747 43.4088 28.3964 43.3895 28.4157C43.2447 28.0779 43.0517 27.8366 42.8104 27.6919C42.5739 27.5471 42.2892 27.4747 41.9563 27.4747C41.6281 27.4747 41.2927 27.6219 40.9501 27.9163C40.6123 28.2106 40.2818 28.6329 39.9584 29.183C39.6351 29.7283 39.3335 30.3749 39.0536 31.1229C38.9137 31.4945 38.7906 31.9023 38.6845 32.3462C38.5783 32.7854 38.4456 33.3765 38.2863 34.1197L38.2212 34.4164C38.5686 33.9435 39.0005 33.4055 39.5169 32.8022C40.0332 32.199 40.33 31.8974 40.4072 31.8974C40.5665 31.8974 40.6944 31.9457 40.7909 32.0422C40.4579 32.2931 40.0501 32.6888 39.5676 33.2293C39.6496 33.5478 39.7292 33.8108 39.8064 34.0183C39.8885 34.2258 39.9946 34.4044 40.1249 34.554C40.2552 34.6987 40.4169 34.7711 40.6099 34.7711C40.7354 34.7711 40.897 34.6843 41.0949 34.5105C41.2976 34.3368 41.4858 34.11 41.6595 33.8301C41.8332 33.5502 41.949 33.2583 42.0069 32.9543C42.0504 32.9543 42.0866 32.9832 42.1155 33.0411C42.1445 33.0942 42.1589 33.1666 42.1589 33.2583C42.1589 33.4175 42.0697 33.6467 41.8911 33.9459C41.7126 34.2403 41.4954 34.5033 41.2397 34.7349C40.9887 34.9617 40.7474 35.0751 40.5158 35.0751C40.2214 35.0751 39.985 34.9521 39.8064 34.706C39.6327 34.455 39.459 34.0714 39.2853 33.555C38.8509 34.0617 38.4939 34.525 38.214 34.9448C38.1512 35.0414 38.1078 35.0896 38.0837 35.0896C38.0451 35.0896 37.992 35.0582 37.9244 34.9955C37.8617 34.9376 37.8279 34.8869 37.8231 34.8435C37.8183 34.747 37.8665 34.4574 37.9679 33.9749C38.0692 33.4875 38.1922 32.9615 38.337 32.3969C38.4866 31.8323 38.6217 31.3787 38.7424 31.0361C39.2056 29.7331 39.7099 28.7294 40.2552 28.0248C40.8053 27.3203 41.411 26.968 42.0721 26.968Z" fill="#3E2E07"/>
<path d="M42.3155 35.0389C42.1466 35.0389 41.9946 34.9834 41.8594 34.8725C41.7292 34.7566 41.664 34.5877 41.664 34.3658C41.7364 34.1341 41.8619 33.6202 42.0404 32.824C42.1273 32.4331 42.1804 32.199 42.1997 32.1218C42.2624 32.0157 42.3493 31.9626 42.4602 31.9626C42.5326 31.9626 42.5688 31.9867 42.5688 32.035C42.535 32.1556 42.4868 32.3486 42.4241 32.614C42.3661 32.8746 42.3203 33.0797 42.2865 33.2293C42.1562 33.8277 42.067 34.2113 42.0187 34.3802C42.0187 34.4912 42.0501 34.5781 42.1128 34.6408C42.1804 34.6987 42.2672 34.7277 42.3734 34.7277C42.6147 34.7277 42.8559 34.6432 43.0972 34.4743C43.3433 34.3006 43.5581 34.1003 43.7415 33.8735C43.9297 33.6467 44.0696 33.4513 44.1613 33.2872C44.1902 33.2969 44.2095 33.3138 44.2192 33.3379C44.2288 33.3572 44.2337 33.3934 44.2337 33.4465C44.2337 33.5189 44.2095 33.5937 44.1613 33.6709C43.9007 34.081 43.6088 34.4116 43.2854 34.6625C42.9621 34.9135 42.6388 35.0389 42.3155 35.0389ZM42.6484 31.0578C42.5809 31.0578 42.5278 31.0361 42.4892 30.9926C42.4506 30.9444 42.4313 30.884 42.4313 30.8117C42.4313 30.7151 42.4627 30.6283 42.5254 30.5511C42.5881 30.469 42.6677 30.428 42.7643 30.428C42.8415 30.428 42.897 30.4521 42.9307 30.5004C42.9694 30.5487 42.9887 30.6066 42.9887 30.6741C42.9887 30.7706 42.9549 30.8599 42.8873 30.942C42.8246 31.0192 42.745 31.0578 42.6484 31.0578Z" fill="#3E2E07"/>
<path d="M46.5051 33.7867C46.5293 33.8205 46.5413 33.8615 46.5413 33.9097C46.5413 33.9483 46.5341 33.9821 46.5196 34.0111C46.5051 34.04 46.481 34.0762 46.4472 34.1197C46.3218 34.2692 46.1456 34.4188 45.9188 34.5684C45.6969 34.7132 45.4628 34.8314 45.2167 34.9231C44.9706 35.0148 44.7558 35.0607 44.5725 35.0607C44.365 35.0607 44.1912 34.9979 44.0513 34.8725C43.9162 34.7422 43.8486 34.5491 43.8486 34.2934C43.8486 33.9701 43.9644 33.362 44.1961 32.4693L43.4288 32.4982C43.4191 32.4934 43.4047 32.4862 43.3854 32.4765C43.3709 32.462 43.3612 32.45 43.3564 32.4403C43.3709 32.4162 43.3974 32.3679 43.436 32.2956C43.4746 32.2232 43.5084 32.1725 43.5374 32.1435L44.2829 32.1508C44.4422 31.562 44.6256 30.9564 44.8331 30.3339C44.9199 30.2664 45.0309 30.194 45.166 30.1168C45.3011 30.0347 45.3832 29.9937 45.4121 29.9937C45.4556 30.013 45.4821 30.0396 45.4918 30.0733C45.4049 30.1071 45.3373 30.153 45.2891 30.2109C45.2408 30.2639 45.1926 30.3532 45.1443 30.4787C45.0044 30.8358 44.8355 31.3932 44.6376 32.1508L46.4834 32.158L46.4907 32.2738C46.4907 32.3124 46.4834 32.339 46.469 32.3535C46.4545 32.3679 46.4207 32.3776 46.3676 32.3824C46.3001 32.3872 45.6969 32.4114 44.558 32.4548C44.336 33.362 44.225 33.9676 44.225 34.2717C44.225 34.4406 44.266 34.566 44.3481 34.6481C44.4301 34.7253 44.5556 34.7639 44.7245 34.7639C45.2167 34.7639 45.8103 34.4381 46.5051 33.7867Z" fill="#3E2E07"/>
<path d="M47.2056 35.0245C46.9547 35.0245 46.7496 34.9666 46.5904 34.8507C46.4311 34.7301 46.3153 34.5998 46.2429 34.4599C46.1705 34.3151 46.1343 34.2162 46.1343 34.1631C46.2791 33.6178 46.4046 33.0773 46.5107 32.5417C46.5301 32.4451 46.5904 32.3559 46.6917 32.2738C46.7979 32.187 46.9185 32.117 47.0536 32.0639C47.1936 32.0108 47.3166 31.9843 47.4228 31.9843C47.529 31.9843 47.6375 32.0108 47.7485 32.0639C47.8643 32.117 47.9609 32.1846 48.0381 32.2666C48.1153 32.3486 48.1539 32.4355 48.1539 32.5272C48.1539 32.6623 48.0887 32.7805 47.9584 32.8819L47.9223 32.8746C47.9126 32.7154 47.8547 32.5803 47.7485 32.4693C47.6472 32.3535 47.5314 32.2956 47.4011 32.2956C47.2901 32.2956 47.1695 32.3342 47.0392 32.4114C46.9089 32.4838 46.8341 32.5682 46.8148 32.6647C46.7376 33.0701 46.6772 33.3717 46.6338 33.5695L46.518 34.1124C46.518 34.1751 46.5445 34.2548 46.5976 34.3513C46.6555 34.443 46.74 34.525 46.851 34.5974C46.9619 34.665 47.0995 34.6987 47.2636 34.6987C47.4373 34.6987 47.6424 34.6577 47.8788 34.5757C48.1201 34.4888 48.3614 34.3368 48.6027 34.1197C48.844 33.8977 49.0394 33.6033 49.189 33.2366C49.2372 33.2366 49.2686 33.2534 49.2831 33.2872C49.2976 33.321 49.3048 33.3668 49.3048 33.4248C49.3048 33.6467 49.1914 33.8832 48.9646 34.1341C48.7426 34.3851 48.4651 34.5974 48.1322 34.7711C47.804 34.94 47.4952 35.0245 47.2056 35.0245Z" fill="#3E2E07"/>
<path d="M52.6478 27.1128C53.0628 27.1128 53.391 27.2286 53.6322 27.4602C53.8735 27.687 53.9942 28.0079 53.9942 28.423L53.9435 28.5098C53.8373 28.1817 53.6708 27.9404 53.444 27.786C53.2172 27.6267 52.9446 27.5471 52.6261 27.5471C51.9553 27.5471 51.3859 27.9259 50.9178 28.6835C50.4497 29.4363 50.0444 30.5245 49.7017 31.9481L49.5135 32.7661L49.4194 33.1859C49.6173 32.906 49.8682 32.6358 50.1722 32.3752C50.4763 32.1098 50.7055 31.9771 50.8599 31.9771C50.8985 31.9771 50.954 32.0132 51.0264 32.0856C51.1036 32.158 51.1422 32.2111 51.1422 32.2449C51.0505 32.5103 50.9419 32.8988 50.8165 33.4103C50.691 33.9218 50.6283 34.2475 50.6283 34.3875C50.6283 34.5226 50.65 34.6215 50.6934 34.6843C50.7368 34.7422 50.8261 34.7711 50.9612 34.7711C51.2025 34.7711 51.4366 34.6794 51.6634 34.4961C51.8902 34.3127 52.0856 34.1052 52.2497 33.8735C52.4186 33.6371 52.5465 33.4296 52.6333 33.251C52.6671 33.2607 52.6936 33.2776 52.713 33.3017C52.7323 33.3258 52.7443 33.362 52.7491 33.4103V33.432C52.7491 33.4899 52.7298 33.5575 52.6912 33.6347C52.4693 34.04 52.1845 34.3827 51.8371 34.6625C51.4896 34.9376 51.1518 35.0751 50.8237 35.0751C50.6548 35.0751 50.5197 35.0221 50.4183 34.9159C50.317 34.8097 50.2663 34.6601 50.2663 34.4671C50.2663 34.2789 50.2953 34.0473 50.3532 33.7722C50.4159 33.4971 50.498 33.1738 50.5993 32.8022C50.5945 32.8264 50.621 32.7274 50.6789 32.5055C50.6741 32.4862 50.662 32.4693 50.6427 32.4548C50.6234 32.4403 50.6065 32.4331 50.5921 32.4331C50.5438 32.4331 50.4304 32.5127 50.2519 32.672C50.0733 32.8312 49.8924 33.0218 49.709 33.2438C49.5256 33.4658 49.3881 33.6733 49.2964 33.8663C49.2481 34.0593 49.1999 34.3006 49.1516 34.5902C49.1468 34.6239 49.142 34.6601 49.1371 34.6987C49.1323 34.7373 49.1251 34.7759 49.1154 34.8145C49.1009 34.9014 49.0865 34.9593 49.072 34.9883C49.0623 35.0221 49.043 35.0389 49.0141 35.0389C48.9562 35.0389 48.891 35.0245 48.8186 34.9955C48.7463 34.9666 48.7101 34.9304 48.7101 34.8869C48.7101 34.8242 48.7245 34.7325 48.7535 34.6119L49.3832 31.9409C49.7355 30.4353 50.1843 29.2554 50.7296 28.4012C51.2749 27.5423 51.9143 27.1128 52.6478 27.1128Z" fill="#3E2E07"/>
<path d="M55.2853 33.2583C55.3722 33.2727 55.4156 33.321 55.4156 33.403C55.4156 33.5961 55.2902 33.8229 55.0392 34.0835C54.7931 34.3392 54.5012 34.5612 54.1634 34.7494C53.8256 34.9328 53.5433 35.0245 53.3165 35.0245C53.0993 35.0245 52.9111 34.969 52.7519 34.858C52.5926 34.7422 52.4696 34.6143 52.3827 34.4743C52.3007 34.3344 52.2596 34.2306 52.2596 34.1631C52.3369 33.888 52.4213 33.5068 52.513 33.0194L52.5926 32.614C52.6119 32.5175 52.6819 32.4186 52.8025 32.3173C52.9232 32.2111 53.0583 32.1242 53.2079 32.0567C53.3575 31.9843 53.4781 31.9481 53.5698 31.9481C53.6422 31.9481 53.7291 31.9722 53.8304 32.0205C53.9366 32.0639 54.0282 32.1339 54.1055 32.2304C54.1875 32.3269 54.2285 32.45 54.2285 32.5996C54.2285 32.7733 54.1706 32.9374 54.0548 33.0918C53.939 33.2462 53.7677 33.3717 53.5409 33.4682C53.314 33.5647 53.0414 33.613 52.7229 33.613L52.6216 34.0979C52.6216 34.1414 52.6457 34.2138 52.6939 34.3151C52.747 34.4164 52.8291 34.5081 52.9401 34.5902C53.0559 34.6722 53.2006 34.7132 53.3744 34.7132C53.606 34.7132 53.8497 34.6384 54.1055 34.4888C54.3612 34.3344 54.5953 34.1438 54.8076 33.917C55.0199 33.6902 55.1792 33.4706 55.2853 33.2583ZM53.5119 32.2449C53.454 32.2449 53.3792 32.269 53.2875 32.3173C53.1958 32.3655 53.1114 32.4258 53.0342 32.4982C52.9618 32.5706 52.9183 32.6382 52.9039 32.7009C52.8556 32.9181 52.8122 33.1376 52.7736 33.3596C53.1451 33.3451 53.425 33.2727 53.6132 33.1425C53.8014 33.0073 53.8955 32.8553 53.8955 32.6864C53.8955 32.5658 53.8521 32.462 53.7652 32.3752C53.6784 32.2883 53.5939 32.2449 53.5119 32.2449Z" fill="#3E2E07"/>
<path d="M58.4119 33.2221C58.4601 33.2221 58.4939 33.2438 58.5132 33.2872C58.5373 33.3258 58.5494 33.3717 58.5494 33.4248C58.5494 33.5985 58.4577 33.818 58.2743 34.0835C58.0909 34.3489 57.8569 34.5805 57.5722 34.7784C57.2923 34.9762 57.0148 35.0751 56.7398 35.0751C56.566 35.0751 56.4309 35.0317 56.3344 34.9448C56.2427 34.858 56.1969 34.7253 56.1969 34.5467C56.1969 34.3006 56.2644 33.9676 56.3996 33.5478C56.5347 33.1232 56.6577 32.7709 56.7687 32.491C56.7494 32.462 56.7301 32.4476 56.7108 32.4476C56.6915 32.4476 56.6698 32.4548 56.6457 32.4693C56.5588 32.5224 56.4164 32.6406 56.2186 32.824C56.0207 33.0073 55.8277 33.2004 55.6395 33.403C55.4513 33.6057 55.3234 33.7698 55.2559 33.8953C55.1787 34.1028 55.1304 34.2355 55.1111 34.2934C55.0918 34.3465 55.0725 34.4357 55.0532 34.5612L54.988 34.8869C54.9832 34.9014 54.9784 34.9207 54.9736 34.9448C54.9687 34.9641 54.9615 34.9762 54.9519 34.981C54.947 34.9859 54.9374 34.9883 54.9229 34.9883C54.8795 34.9883 54.8216 34.9834 54.7492 34.9738C54.6816 34.9641 54.6478 34.9497 54.6478 34.9304C54.6478 34.8725 54.6647 34.7784 54.6985 34.6481C54.7323 34.5178 54.7661 34.3995 54.7998 34.2934C54.8336 34.1872 54.8602 34.1052 54.8795 34.0473L54.9446 33.8446C55.0846 33.362 55.1787 33.0122 55.2269 32.795C55.28 32.573 55.3307 32.3269 55.3789 32.0567C55.3837 32.0084 55.4175 31.9843 55.4803 31.9843C55.5237 31.9843 55.5719 31.9964 55.625 32.0205C55.6829 32.0398 55.7167 32.0687 55.7264 32.1073C55.7071 32.1942 55.6709 32.3414 55.6178 32.5489C55.5695 32.7564 55.5092 32.9856 55.4368 33.2366C55.7167 32.9229 56.0063 32.6382 56.3054 32.3824C56.6095 32.1267 56.8121 31.9988 56.9135 31.9988C56.9617 31.9988 57.0196 32.0229 57.0872 32.0712C57.1548 32.1194 57.1958 32.1653 57.2103 32.2087C57.0558 32.6237 56.9087 33.0773 56.7687 33.5695C56.6288 34.0569 56.5588 34.3778 56.5588 34.5322C56.5588 34.7011 56.6553 34.7856 56.8483 34.7856C57.1331 34.7856 57.4202 34.6263 57.7097 34.3079C58.0041 33.9894 58.2381 33.6274 58.4119 33.2221Z" fill="#3E2E07"/>
<path d="M31.8714 39.3679C32.0653 39.3679 32.1623 39.5296 32.1623 39.8528C32.1623 40.3699 31.9522 40.914 31.532 41.485C31.1226 42.0452 30.6109 42.5138 29.9968 42.8909C29.3827 43.268 28.8171 43.4565 28.3 43.4565C27.8906 43.4565 27.5296 43.338 27.2172 43.101C26.9156 42.864 26.7001 42.5569 26.5708 42.1799C26.2799 42.5462 25.9298 42.8424 25.5204 43.0687C25.111 43.2841 24.7447 43.3919 24.4215 43.3919C24.1414 43.3919 23.8612 43.3111 23.5811 43.1495C23.301 42.9771 23.064 42.7616 22.8701 42.5031C22.6762 42.2445 22.5738 41.9859 22.563 41.7274C22.8108 40.6285 23.0317 39.5619 23.2256 38.5276C23.2687 38.3121 23.4518 38.0428 23.7751 37.7196C24.0983 37.3856 24.4861 37.1001 24.9386 36.8631C25.3911 36.6261 25.822 36.5076 26.2314 36.5076C26.6085 36.5076 26.991 36.6207 27.3788 36.8469C27.4542 36.6638 27.5135 36.5507 27.5566 36.5076C27.5997 36.4537 27.6643 36.4214 27.7505 36.4106L29.1565 36.3298L29.2049 36.3621C29.0757 36.4699 28.9787 36.5884 28.9141 36.7176C28.8494 36.8469 28.7902 36.9978 28.7363 37.1701C28.5424 37.8273 28.3431 38.6246 28.1384 39.5619C27.9337 40.4884 27.8313 41.1294 27.8313 41.485C27.8313 41.7866 27.9013 42.0613 28.0414 42.3091C28.1922 42.5569 28.4239 42.6808 28.7363 42.6808C29.0595 42.6808 29.4312 42.5408 29.8514 42.2607C30.2823 41.9805 30.6809 41.5873 31.0472 41.0809C31.4243 40.5746 31.699 40.0036 31.8714 39.3679ZM24.9386 42.4223C25.0894 42.4223 25.2726 42.3468 25.4881 42.196C25.7035 42.0452 25.9028 41.8405 26.086 41.5819C26.2799 41.3234 26.4146 41.0379 26.49 40.7254L26.7486 39.5134C26.9425 38.5222 27.0772 37.8704 27.1526 37.558C26.8725 37.4287 26.5762 37.3641 26.2638 37.3641C25.7574 37.3641 25.3749 37.5257 25.1164 37.8489C24.8686 38.1613 24.7016 38.5168 24.6154 38.9155L24.1144 41.3557C24.136 41.625 24.2329 41.8728 24.4053 42.0991C24.5777 42.3145 24.7555 42.4223 24.9386 42.4223Z" fill="url(#paint1_linear)"/>
<path d="M37.3099 40.4184C37.3745 40.5046 37.4068 40.5961 37.4068 40.6931C37.4068 40.7685 37.3853 40.8816 37.3422 41.0325C37.1914 41.3772 36.8681 41.7381 36.3726 42.1152C35.877 42.4923 35.3168 42.8047 34.6919 43.0525C34.0778 43.3003 33.5391 43.4242 33.0759 43.4242C32.5587 43.4242 32.1547 43.268 31.8638 42.9556C31.5837 42.6431 31.4437 42.2229 31.4437 41.695C31.4437 41.1133 31.6591 39.7073 32.0901 37.4772L30.4902 37.5418C30.4794 37.5418 30.4579 37.5149 30.4256 37.461C30.3932 37.4072 30.3717 37.3641 30.3609 37.3317C30.5333 36.987 30.6733 36.7392 30.7811 36.5884H32.2517L32.995 32.8715C33.6846 32.4836 34.3202 32.2305 34.902 32.1119C34.9451 32.1119 34.9935 32.1443 35.0474 32.2089C35.1121 32.2628 35.1444 32.3113 35.1444 32.3544C34.7134 32.559 34.4495 32.893 34.3525 33.3563C34.2017 34.0243 33.9808 35.107 33.6899 36.6045L36.7281 36.6207C36.7173 36.6638 36.7119 36.7284 36.7119 36.8146C36.7227 36.9008 36.7281 36.9654 36.7281 37.0085C36.7281 37.1055 36.7012 37.1755 36.6473 37.2186C36.5934 37.2617 36.5126 37.2833 36.4049 37.2833L33.5445 37.4125C33.1351 39.5565 32.9304 40.914 32.9304 41.485C32.9304 41.7758 33.0058 42.0075 33.1567 42.1799C33.3075 42.3522 33.5445 42.4384 33.8677 42.4384C34.3525 42.4384 34.8966 42.2553 35.4999 41.889C36.1032 41.5227 36.7065 41.0325 37.3099 40.4184Z" fill="url(#paint2_linear)"/>
<path d="M45.2733 39.4811C45.4456 39.5242 45.5318 39.6211 45.5318 39.772C45.5318 40.0305 45.3325 40.4561 44.9339 41.0486C44.5353 41.6412 44.0451 42.1745 43.4633 42.6485C42.8923 43.1118 42.3213 43.3434 41.7503 43.3434C41.3194 43.3434 40.9531 43.2087 40.6514 42.9394C40.3497 42.6593 40.1935 42.3037 40.1827 41.8728C39.8919 42.2714 39.5579 42.6162 39.1808 42.9071C38.8037 43.198 38.4482 43.3434 38.1142 43.3434C37.7802 43.3434 37.4301 43.2087 37.0638 42.9394C36.6975 42.67 36.4928 42.3899 36.4497 42.0991L37.4032 36.8631C37.4463 36.6584 37.5163 36.556 37.6133 36.556C37.7425 36.556 37.9742 36.6045 38.3081 36.7015C38.6529 36.7877 38.8253 36.8739 38.8253 36.9601C38.8253 36.9924 38.7768 37.2025 38.6798 37.5903C38.5721 38.0428 38.4213 38.7377 38.2273 39.675C38.0442 40.6123 37.9203 41.2856 37.8557 41.695C37.8772 41.8459 37.9526 41.9859 38.0819 42.1152C38.222 42.2337 38.3836 42.293 38.5667 42.293C38.8791 42.293 39.2024 42.1098 39.5363 41.7435C39.8811 41.3664 40.1666 40.7847 40.3928 39.9982C40.5868 39.341 40.8346 38.2529 41.1362 36.7338C41.1578 36.6153 41.217 36.556 41.314 36.556C41.454 36.556 41.6749 36.6045 41.9765 36.7015C42.289 36.7877 42.4452 36.8846 42.4452 36.9924C42.1328 38.1128 41.8688 39.1255 41.6533 40.0305C41.4379 40.9355 41.3301 41.5281 41.3301 41.8082C41.3301 42.0129 41.3894 42.1852 41.5079 42.3253C41.6372 42.4654 41.8203 42.5354 42.0574 42.5354C42.5098 42.5354 43.027 42.2714 43.6087 41.7435C44.1905 41.2048 44.7454 40.4507 45.2733 39.4811Z" fill="url(#paint3_linear)"/>
<path d="M52.0393 37.4933C52.1255 37.5472 52.1686 37.6172 52.1686 37.7034C52.1686 37.9405 52.0716 38.1775 51.8777 38.4145C51.6838 38.6515 51.4144 38.8454 51.0697 38.9963C50.7249 39.1471 50.3478 39.2225 49.9384 39.2225C49.3674 39.2225 48.9096 39.0771 48.5648 38.7862C48.22 38.4953 48.0369 38.1236 48.0153 37.6711C47.5413 37.7142 47.1211 37.9081 46.7548 38.2529C46.3993 38.5976 46.13 39.0178 45.9468 39.5134V39.5457C45.9037 39.6534 45.8768 39.7343 45.866 39.7881C45.7691 40.1329 45.559 41.2372 45.2358 43.101C45.225 43.2087 44.9934 43.2626 44.5409 43.2626C44.1099 43.2626 43.8945 43.1872 43.8945 43.0364C43.8945 42.9502 43.9268 42.7293 43.9914 42.3738C44.1853 41.2856 44.3954 40.1544 44.6217 38.9801C44.8479 37.8058 44.988 37.127 45.0418 36.9439C45.0849 36.7823 45.1604 36.6746 45.2681 36.6207C45.3866 36.5668 45.5428 36.5399 45.7367 36.5399C46.103 36.5399 46.4155 36.5938 46.674 36.7015C46.5879 36.9493 46.4693 37.391 46.3185 38.0266C46.6202 37.5957 46.9595 37.2509 47.3366 36.9924C47.7245 36.7338 48.1177 36.6045 48.5163 36.6045C48.6995 36.6045 48.8557 36.6315 48.985 36.6853C49.1143 36.7284 49.1951 36.7823 49.2274 36.8469C49.2274 37.9458 49.6314 38.4953 50.4394 38.4953C51.0858 38.4953 51.6191 38.1613 52.0393 37.4933Z" fill="url(#paint4_linear)"/>
<path d="M58.2673 39.5619C58.4505 39.6481 58.5421 39.772 58.5421 39.9336C58.5421 40.4184 58.2566 40.9301 57.6856 41.4688C57.1253 41.9967 56.425 42.4438 55.5847 42.8101C54.7551 43.1656 53.9848 43.3434 53.2738 43.3434C52.692 43.3434 52.1964 43.2249 51.787 42.9879C51.3776 42.7509 51.0652 42.4869 50.8497 42.196C50.645 41.8944 50.5427 41.6735 50.5427 41.5334C50.6181 41.2533 50.6881 40.9193 50.7528 40.5315C50.8282 40.1436 50.882 39.8743 50.9144 39.7235C50.9467 39.5296 50.9844 39.3033 51.0275 39.0447C51.0814 38.7754 51.146 38.4684 51.2214 38.1236C51.2645 37.9081 51.453 37.6711 51.787 37.4125C52.121 37.1432 52.4981 36.9223 52.9183 36.75C53.3492 36.5668 53.7047 36.4752 53.9848 36.4752C54.2219 36.4752 54.502 36.5399 54.8252 36.6692C55.1592 36.7985 55.4447 36.9816 55.6817 37.2186C55.9187 37.4449 56.0372 37.7142 56.0372 38.0266C56.0372 38.4253 55.8379 38.8131 55.4393 39.1902C55.0514 39.5673 54.5558 39.8797 53.9525 40.1275C53.3492 40.3645 52.7566 40.4938 52.1749 40.5153L52.0456 41.1941C52.0779 41.5281 52.2341 41.8189 52.5142 42.0667C52.7944 42.3037 53.2145 42.4223 53.7748 42.4223C54.3134 42.4223 54.8737 42.2984 55.4554 42.0506C56.048 41.8028 56.592 41.4634 57.0876 41.0325C57.594 40.5907 57.9872 40.1006 58.2673 39.5619ZM53.8394 37.154C53.5701 37.154 53.3061 37.2833 53.0475 37.5418C52.7997 37.8004 52.6435 38.059 52.5789 38.3175L52.3042 39.7881C52.9506 39.745 53.5 39.5565 53.9525 39.2225C54.405 38.8885 54.6312 38.4953 54.6312 38.0428C54.6312 37.7735 54.5504 37.558 54.3888 37.3964C54.238 37.2348 54.0549 37.154 53.8394 37.154Z" fill="url(#paint5_linear)"/>
<path d="M23.6512 27.0012C23.9206 27.0012 24.2438 27.0551 24.6208 27.1628C25.4281 27.4122 24.6208 27.1628 25.4281 27.4122C30.6857 24.8582 32.0131 31.485 34.6419 30.208C32.7468 32.6659 26.7553 32.7268 25.3875 28.243C26.7374 27.5873 29.4276 29.5068 29.4276 29.5068C29.4276 29.5068 28.4219 27.8907 26.1157 27.7486C25.0787 27.7486 24.237 28.2133 23.5906 29.1425C22.9577 30.0582 22.4392 31.2905 22.0352 32.8392C21.6446 34.3744 21.1598 36.6638 20.5808 39.7073L19.9343 43.101C19.7997 43.1818 19.5977 43.2559 19.3283 43.3232C19.0725 43.3905 18.8368 43.4242 18.6213 43.4242C17.4632 41.1079 16.2242 38.6569 14.9044 36.0712C14.5274 35.3575 14.1907 34.6976 13.8944 34.0916C13.5981 33.4856 13.3221 32.9334 13.0662 32.4351C12.7699 33.7414 12.5208 34.9265 12.3188 35.9904C12.1302 37.0409 11.9148 38.3202 11.6724 39.8285C11.3222 41.9294 11.1202 43.1481 11.0663 43.4848H10.1573C9.88798 43.4848 9.67924 43.4242 9.53111 43.303C9.39644 43.1818 9.3291 43.0404 9.3291 42.8788C9.3291 42.6498 9.47724 41.889 9.77351 40.5961C10.0698 39.2898 10.393 37.9229 10.7431 36.4954C11.0663 35.2026 11.3559 33.9838 11.6118 32.8392C11.8811 31.6945 12.0158 31.0346 12.0158 30.8595C12.0158 30.7518 11.9686 30.6777 11.8744 30.6373C11.7801 30.5834 11.6252 30.5565 11.4097 30.5565L10.7229 30.5767C10.3728 30.6036 10.1304 30.6171 9.99572 30.6171C9.78025 30.6171 9.63211 30.5902 9.55131 30.5363C9.48397 30.4824 9.4503 30.368 9.4503 30.1929C9.4503 29.8697 9.50417 29.5667 9.61191 29.2839C9.81391 29.3781 10.0698 29.4522 10.3795 29.5061C10.7027 29.5599 11.0125 29.5869 11.3087 29.5869C11.8744 29.5869 12.4669 29.4724 13.0864 29.2435C13.1537 29.2435 13.2211 29.2771 13.2884 29.3445C13.3557 29.3983 13.4163 29.4724 13.4702 29.5667L15.0054 32.6574C16.0559 34.7851 17.3756 37.4381 18.9647 40.6163C19.7593 36.5493 20.3451 33.6741 20.7222 31.9907C21.1127 30.3074 21.5302 29.0549 21.9746 28.2335C22.419 27.412 22.9779 27.0012 23.6512 27.0012Z" fill="url(#paint6_linear)"/>
<defs>
<linearGradient id="paint0_linear" x1="34.7129" y1="0" x2="34.7129" y2="69.9562" gradientUnits="userSpaceOnUse">
<stop stop-color="#41B213"/>
<stop offset="1" stop-color="#2E7E0E"/>
</linearGradient>
<linearGradient id="paint1_linear" x1="33.9716" y1="26.7779" x2="33.9716" y2="43.4562" gradientUnits="userSpaceOnUse">
<stop stop-color="#41B213"/>
<stop offset="1" stop-color="#2E7E0E"/>
</linearGradient>
<linearGradient id="paint2_linear" x1="33.9716" y1="26.7779" x2="33.9716" y2="43.4562" gradientUnits="userSpaceOnUse">
<stop stop-color="#41B213"/>
<stop offset="1" stop-color="#2E7E0E"/>
</linearGradient>
<linearGradient id="paint3_linear" x1="33.9716" y1="26.7779" x2="33.9716" y2="43.4562" gradientUnits="userSpaceOnUse">
<stop stop-color="#41B213"/>
<stop offset="1" stop-color="#2E7E0E"/>
</linearGradient>
<linearGradient id="paint4_linear" x1="33.9716" y1="26.7779" x2="33.9716" y2="43.4562" gradientUnits="userSpaceOnUse">
<stop stop-color="#41B213"/>
<stop offset="1" stop-color="#2E7E0E"/>
</linearGradient>
<linearGradient id="paint5_linear" x1="33.9716" y1="26.7779" x2="33.9716" y2="43.4562" gradientUnits="userSpaceOnUse">
<stop stop-color="#41B213"/>
<stop offset="1" stop-color="#2E7E0E"/>
</linearGradient>
<linearGradient id="paint6_linear" x1="33.9716" y1="26.7779" x2="33.9716" y2="43.4562" gradientUnits="userSpaceOnUse">
<stop stop-color="#41B213"/>
<stop offset="1" stop-color="#2E7E0E"/>
</linearGradient>
</defs>
</svg>
