<svg width="98" height="70" viewBox="0 0 98 70" fill="none" xmlns="http://www.w3.org/2000/svg">
<path d="M68.3526 63.422C68.3526 63.622 68.3204 63.8261 68.2561 64.0341C68.1917 64.2422 68.0952 64.4382 67.9665 64.6223C67.8377 64.7984 67.6728 64.9544 67.4717 65.0904C67.2706 65.2265 67.0333 65.3305 66.7597 65.4025V65.4505C67.0011 65.4905 67.2304 65.5586 67.4476 65.6546C67.6728 65.7506 67.8699 65.8827 68.0389 66.0507C68.2078 66.2188 68.3446 66.4228 68.4491 66.6629C68.5537 66.9029 68.606 67.187 68.606 67.5151C68.606 67.9472 68.5135 68.3233 68.3285 68.6434C68.1515 68.9555 67.9142 69.2116 67.6165 69.4117C67.3269 69.6117 66.993 69.7598 66.6149 69.8558C66.2368 69.9518 65.8507 69.9998 65.4565 69.9998C65.3197 69.9998 65.1588 69.9998 64.9738 69.9998C64.7888 69.9998 64.5957 69.9918 64.3946 69.9758C64.1935 69.9678 63.9923 69.9518 63.7912 69.9278C63.5901 69.9118 63.4131 69.8838 63.2603 69.8438V61.5734C63.5579 61.5254 63.9038 61.4854 64.298 61.4534C64.6922 61.4214 65.1226 61.4054 65.5892 61.4054C65.903 61.4054 66.2207 61.4334 66.5425 61.4894C66.8724 61.5374 67.17 61.6375 67.4355 61.7895C67.701 61.9335 67.9182 62.1376 68.0871 62.4017C68.2641 62.6658 68.3526 63.0058 68.3526 63.422ZM65.553 69.1356C65.8105 69.1356 66.0598 69.1076 66.3012 69.0516C66.5425 68.9875 66.7557 68.8915 66.9408 68.7635C67.1258 68.6274 67.2706 68.4634 67.3752 68.2713C67.4878 68.0793 67.5441 67.8512 67.5441 67.5871C67.5441 67.259 67.4757 66.995 67.339 66.7949C67.2103 66.5949 67.0373 66.4388 66.8201 66.3268C66.6109 66.2148 66.3736 66.1387 66.1081 66.0987C65.8426 66.0587 65.5772 66.0387 65.3117 66.0387H64.2618V69.0516C64.3181 69.0676 64.3986 69.0796 64.5032 69.0876C64.6078 69.0956 64.7204 69.1036 64.8411 69.1116C64.9617 69.1196 65.0864 69.1276 65.2151 69.1356C65.3439 69.1356 65.4565 69.1356 65.553 69.1356ZM64.8893 65.1985C65.0261 65.1985 65.191 65.1945 65.3841 65.1865C65.5772 65.1785 65.7381 65.1665 65.8668 65.1505C66.0598 65.0864 66.2409 65.0104 66.4098 64.9224C66.5787 64.8264 66.7276 64.7183 66.8563 64.5983C66.993 64.4703 67.0976 64.3262 67.17 64.1662C67.2505 63.9981 67.2907 63.8181 67.2907 63.626C67.2907 63.3619 67.2384 63.1459 67.1338 62.9778C67.0373 62.8018 66.9045 62.6617 66.7356 62.5577C66.5667 62.4537 66.3736 62.3817 66.1564 62.3417C65.9392 62.2936 65.7179 62.2696 65.4927 62.2696C65.2272 62.2696 64.9818 62.2776 64.7566 62.2936C64.5394 62.3016 64.3745 62.3177 64.2618 62.3417V65.1985H64.8893Z" fill="#2D2D2D"/>
<path d="M74.3257 67.5751H71.2123L70.3676 69.9038H69.3781L72.5759 61.3694H73.0345L76.2444 69.9038H75.1945L74.3257 67.5751ZM71.5382 66.7109H74.024L73.0828 64.1542L72.7811 62.8818H72.769L72.4673 64.1782L71.5382 66.7109Z" fill="#2D2D2D"/>
<path d="M77.3661 61.5854C77.6718 61.5294 78.0218 61.4854 78.416 61.4534C78.8182 61.4214 79.1843 61.4054 79.5141 61.4054C79.8842 61.4054 80.2341 61.4454 80.5639 61.5254C80.9018 61.6055 81.1955 61.7375 81.4448 61.9215C81.7023 62.1056 81.9074 62.3457 82.0603 62.6417C82.2131 62.9378 82.2896 63.2979 82.2896 63.722C82.2896 64.3782 82.1085 64.9104 81.7465 65.3185C81.3845 65.7266 80.926 65.9987 80.3709 66.1347L80.9501 66.5789L83.0498 69.9038H81.8793L79.5503 66.2788L78.3677 66.0987V69.9038H77.3661V61.5854ZM79.5382 62.2696C79.4337 62.2696 79.325 62.2696 79.2124 62.2696C79.0998 62.2696 78.9912 62.2736 78.8866 62.2816C78.782 62.2896 78.6815 62.2976 78.5849 62.3056C78.4964 62.3137 78.424 62.3257 78.3677 62.3417V65.4385H79.309C79.864 65.4385 80.3226 65.3025 80.6846 65.0304C81.0466 64.7583 81.2276 64.3342 81.2276 63.7581C81.2276 63.3259 81.0788 62.9698 80.7812 62.6898C80.4835 62.4097 80.0692 62.2696 79.5382 62.2696Z" fill="#2D2D2D"/>
<path d="M19.9274 69.8466H14.9443V61.5005H15.9434V68.9643H19.9274V69.8466Z" fill="#2D2D2D"/>
<path d="M20.014 65.6736C20.014 64.2825 20.3109 63.2174 20.9047 62.4782C21.4985 61.731 22.3451 61.3574 23.4444 61.3574C24.0382 61.3574 24.5518 61.4608 24.9851 61.6674C25.4184 61.8741 25.7755 62.1682 26.0563 62.5497C26.3452 62.9233 26.5578 63.3764 26.6943 63.9089C26.8307 64.4336 26.8989 65.0218 26.8989 65.6736C26.8989 67.0646 26.598 68.1337 25.9961 68.8808C25.4023 69.6201 24.5518 69.9897 23.4444 69.9897C22.8586 69.9897 22.3491 69.8864 21.9158 69.6797C21.4905 69.473 21.1334 69.1829 20.8445 68.8093C20.5637 68.4278 20.3551 67.9747 20.2186 67.4501C20.0822 66.9175 20.014 66.3253 20.014 65.6736ZM21.0732 65.6736C21.0732 66.1346 21.1174 66.5718 21.2056 66.9851C21.3019 67.3984 21.4464 67.7641 21.6389 68.082C21.8315 68.392 22.0763 68.6424 22.3732 68.8332C22.6781 69.016 23.0352 69.1074 23.4444 69.1074C24.1907 69.1074 24.7764 68.8292 25.2017 68.2728C25.627 67.7084 25.8397 66.842 25.8397 65.6736C25.8397 65.2205 25.7915 64.7873 25.6952 64.3739C25.607 63.9527 25.4625 63.587 25.2619 63.277C25.0693 62.9591 24.8206 62.7087 24.5157 62.5259C24.2188 62.3351 23.8617 62.2397 23.4444 62.2397C22.7062 62.2397 22.1244 62.5219 21.6991 63.0863C21.2819 63.6427 21.0732 64.5051 21.0732 65.6736Z" fill="#2D2D2D"/>
<path d="M33.4298 61.5005H34.3927V67.0685C34.3927 67.5693 34.3245 68.0025 34.1881 68.3682C34.0597 68.7338 33.8711 69.0358 33.6224 69.2743C33.3816 69.5048 33.0887 69.6757 32.7437 69.787C32.3987 69.8983 32.0175 69.9539 31.6002 69.9539C30.6052 69.9539 29.855 69.7314 29.3494 69.2862C28.8439 68.8411 28.5911 68.1655 28.5911 67.2593V61.5005H29.5901V66.7943C29.5901 67.2156 29.6303 67.5733 29.7105 67.8674C29.7988 68.1535 29.9272 68.388 30.0957 68.5708C30.2642 68.7457 30.4728 68.8729 30.7216 68.9524C30.9784 69.0319 31.2753 69.0716 31.6123 69.0716C32.2622 69.0716 32.7276 68.8967 33.0085 68.547C33.2893 68.1893 33.4298 67.6051 33.4298 66.7943V61.5005Z" fill="#2D2D2D"/>
<path d="M37.9596 64.3859L37.3096 63.1816H37.2615L37.3819 64.3859V69.8466H36.443V61.3693H36.9726L41.0048 66.9374L41.6307 68.082H41.6909L41.5585 66.9374V61.5005H42.4974V69.9778H41.9678L37.9596 64.3859Z" fill="#2D2D2D"/>
<path d="M47.3824 65.6855H50.2109V69.3578C50.0825 69.4531 49.9261 69.5406 49.7415 69.6201C49.565 69.6996 49.3724 69.7671 49.1638 69.8228C48.9631 69.8784 48.7505 69.9181 48.5258 69.942C48.3092 69.9738 48.0965 69.9897 47.8879 69.9897C47.3503 69.9897 46.8568 69.9062 46.4074 69.7393C45.9581 69.5644 45.5689 69.3021 45.2399 68.9524C44.9109 68.5947 44.6541 68.1456 44.4695 67.6051C44.285 67.0566 44.1927 66.4128 44.1927 65.6736C44.1927 64.9025 44.305 64.2428 44.5297 63.6943C44.7544 63.1459 45.0473 62.7007 45.4084 62.359C45.7695 62.0092 46.1747 61.7549 46.6241 61.5959C47.0734 61.4369 47.5228 61.3574 47.9721 61.3574C48.4536 61.3574 48.8508 61.3852 49.1638 61.4409C49.4767 61.4886 49.7415 61.5561 49.9582 61.6436L49.7054 62.514C49.3202 62.3311 48.7706 62.2397 48.0564 62.2397C47.7194 62.2397 47.3824 62.2993 47.0453 62.4186C46.7163 62.5299 46.4194 62.7206 46.1546 62.9909C45.8898 63.2611 45.6732 63.6148 45.5047 64.052C45.3362 64.4892 45.2519 65.0297 45.2519 65.6736C45.2519 66.2618 45.3201 66.7705 45.4565 67.1997C45.5929 67.6289 45.7815 67.9866 46.0222 68.2728C46.271 68.551 46.5679 68.7616 46.9129 68.9047C47.258 69.0398 47.6351 69.1074 48.0444 69.1074C48.5579 69.1074 48.9952 69.008 49.3563 68.8093V66.4843L47.3824 66.2459V65.6855Z" fill="#2D2D2D"/>
<path d="M51.9117 61.5005H56.4976V62.3828H52.9108V65.1132H56.1967V65.9955H52.9108V68.9643H56.5578V69.8466H51.9117V61.5005Z" fill="#2D2D2D"/>
<path d="M0 48.4178C0.113558 46.8734 0.212353 45.4049 0.319098 43.9319C0.830865 36.8302 1.34339 29.7281 1.85667 22.6257C2.27078 16.8646 2.68375 11.1031 3.09559 5.34123V5.29102C3.19438 4.38824 3.10581 4.53219 3.91434 4.58799C11.7544 5.13628 19.5936 5.68345 27.4322 6.2295C32.9397 6.61412 38.4446 7.00283 43.9469 7.39564C44.2319 7.41572 44.5147 7.39564 44.8553 7.39564C44.7827 7.01399 44.7066 6.65913 44.6475 6.30092C44.2876 4.07244 44.8553 2.17092 46.8324 0.892075C48.6198 -0.275174 50.5332 -0.296376 52.3502 0.82512C54.2568 2.00799 54.9734 3.80573 54.6724 5.984C54.5759 6.67587 54.376 7.35212 54.2114 8.09197C55.2743 8.1712 56.3077 8.25154 57.3399 8.32408C63.3388 8.7459 69.3377 9.16622 75.3365 9.58506L93.591 10.8572C94.9207 10.9498 96.2494 11.0547 97.5803 11.1317C97.9289 11.1518 97.9959 11.2846 97.9732 11.6038C97.2343 21.6864 96.5015 31.7673 95.7747 41.8462C95.4719 46.051 95.169 50.2543 94.8662 54.4561C94.8549 54.6212 94.8287 54.7853 94.7992 55.0375L0 48.4178ZM4.07786 5.5354C4.04607 5.7318 4.01541 5.86125 4.00632 5.99181C3.72924 9.71153 3.45367 13.4287 3.17962 17.1432C2.71782 23.524 2.2598 29.9052 1.80557 36.2867C1.54893 39.8576 1.2885 43.4249 1.02429 46.9884C0.995902 47.3689 1.00612 47.5921 1.51713 47.6267C11.0446 48.2746 20.5721 48.9356 30.0996 49.6096C40.4788 50.3328 50.8584 51.0548 61.2383 51.7756C66.9162 52.1707 72.5911 52.5687 78.2629 52.9697L90.7395 53.8457C91.7911 53.9193 92.8449 53.9863 93.9623 54.0599C94.9752 40.0373 95.9848 26.0593 96.9966 12.049C96.7876 12.0189 96.623 11.9865 96.456 11.9742C94.5997 11.8403 92.7427 11.7087 90.8849 11.5792C85.6862 11.2191 80.4875 10.8594 75.2889 10.5001C68.2831 10.0136 61.2781 9.52295 54.2738 9.02822C53.9229 9.00367 53.7583 9.10187 53.6243 9.41879C52.7101 11.568 51.4667 13.5321 50.0983 15.4258C49.7281 15.938 49.5521 15.9436 49.1899 15.4447C47.6636 13.3691 46.3157 11.192 45.3732 8.795C45.2471 8.4725 45.0666 8.3676 44.7372 8.34863C40.7279 8.07709 36.7208 7.80071 32.716 7.5195L9.24702 5.88692C7.54478 5.76863 5.84142 5.65592 4.07786 5.5354ZM47.4501 5.39033C47.445 5.81765 47.5691 6.23685 47.8069 6.59468C48.0447 6.95251 48.3853 7.23283 48.7855 7.40005C49.1857 7.56727 49.6274 7.61383 50.0546 7.53384C50.4818 7.45384 50.8752 7.25089 51.1847 6.95076C51.4943 6.65063 51.7062 6.26686 51.7933 5.84818C51.8805 5.4295 51.8391 4.99481 51.6744 4.59931C51.5096 4.20381 51.229 3.86534 50.8681 3.62688C50.5072 3.38843 50.0824 3.26074 49.6475 3.26005C49.0689 3.25708 48.5127 3.47964 48.1008 3.87896C47.6889 4.27827 47.4549 4.82177 47.4501 5.39033Z" fill="#2D2D2D"/>
<path d="M37.6613 38.2287C38.5481 38.2287 39.334 38.2432 40.1175 38.2231C40.4582 38.2142 40.6047 38.2901 40.6024 38.6628C40.5873 41.0434 40.5873 43.4277 40.6024 45.8158C40.6024 46.1852 40.4616 46.2778 40.1198 46.2622C39.6428 46.241 39.1625 46.2376 38.6856 46.2622C38.3142 46.2822 38.2211 46.1294 38.2234 45.7912C38.237 44.229 38.2097 42.6667 38.2404 41.1044C38.2506 40.6078 38.0848 40.4884 37.6011 40.4906C32.8173 40.5063 28.0327 40.5063 23.2474 40.4906C22.7091 40.4906 22.5933 40.6502 22.6046 41.1479C22.6376 42.641 22.6171 44.1363 22.6171 45.6305V46.251C21.8779 46.251 21.1829 46.2599 20.4879 46.2387C20.4107 46.2387 20.2755 46.0669 20.2744 45.9742C20.2744 43.4389 20.2744 40.9035 20.2858 38.3693C20.2858 38.3403 20.3164 38.3124 20.3653 38.2276C20.7059 38.2276 21.0784 38.2019 21.4463 38.2343C21.8143 38.2666 22.0221 38.1227 22.1969 37.7879C23.6925 34.978 24.8088 32.0253 25.6832 28.98C26.5746 25.8744 27.2139 22.7174 27.3718 19.4813C27.3775 19.3697 27.4058 19.2525 27.4331 19.074H37.0117C37.6635 19.074 37.6635 19.074 37.6635 19.7435C37.6635 25.7033 37.6635 31.6641 37.6635 37.6261L37.6613 38.2287ZM35.0983 38.2041V21.9497C35.0983 21.866 35.1323 21.7566 35.0914 21.7031C34.9892 21.5714 34.8552 21.3683 34.7315 21.3683C33.1273 21.346 31.5219 21.346 29.9155 21.3683C29.786 21.3683 29.5839 21.5636 29.5475 21.7031C29.4681 22.0077 29.4828 22.3358 29.4397 22.6516C28.7502 27.9003 27.2331 33.0115 24.9428 37.8013C24.8871 37.9129 24.8519 38.0434 24.794 38.2019L35.0983 38.2041Z" fill="#2D2D2D"/>
<path d="M79.5344 40.4607V19.1177H82.0622V19.7046C82.0622 22.3237 82.0747 24.9494 82.0509 27.5618C82.0509 28.0573 82.2076 28.1778 82.6879 28.1733C84.2073 28.1611 85.7301 28.1544 87.2473 28.2235C88.6929 28.2905 90.0306 28.7224 91.1707 29.6452C92.337 30.5893 92.8491 31.8469 93.0251 33.2831C93.3805 36.2057 92.0826 38.6908 89.5741 39.8268C88.5375 40.2783 87.4147 40.5065 86.2809 40.4964C84.1619 40.5154 82.0441 40.5031 79.9217 40.4964C79.7921 40.4909 79.6628 40.479 79.5344 40.4607ZM82.0952 38.1318C83.7735 38.1318 85.3883 38.2378 86.9781 38.1039C88.845 37.9454 90.0817 36.6844 90.344 34.9693C90.7142 32.5388 89.5025 30.9096 87.0349 30.5335C86.681 30.4787 86.3235 30.4489 85.9652 30.4442C84.8387 30.4331 83.7111 30.4554 82.5857 30.4308C82.1837 30.423 82.06 30.5424 82.0622 30.9419C82.0804 33.1894 82.0702 35.4368 82.0713 37.6843C82.0622 37.8416 82.0872 38.0057 82.0952 38.1262V38.1318Z" fill="#2D2D2D"/>
<path d="M44.5187 19.0751H45.0184C48.3491 19.0751 51.6808 19.084 55.0115 19.0662C55.4464 19.0662 55.5793 19.1945 55.5532 19.6074C55.5242 20.0265 55.5242 20.447 55.5532 20.8661C55.577 21.2455 55.4248 21.3538 55.049 21.3527C52.6234 21.3393 50.1966 21.346 47.771 21.346H47.0693V28.47H47.6836C49.9218 28.47 52.1601 28.48 54.3983 28.4622C54.8003 28.4622 54.9456 28.5738 54.9229 28.971C54.8923 29.5223 54.9161 30.0747 54.9161 30.6806C54.6833 30.6962 54.488 30.7219 54.2915 30.7219C52.0703 30.7219 49.8492 30.7342 47.628 30.7163C47.184 30.7163 47.0057 30.7978 47.0125 31.2899C47.042 33.4213 47.025 35.5538 47.0261 37.6863V38.2287H56.0233C56.0233 38.9418 56.0392 39.6225 56.0006 40.2998C56.0006 40.3768 55.6849 40.4929 55.5157 40.494C53.9781 40.5096 52.4405 40.504 50.903 40.504C48.9373 40.504 46.9727 40.4962 45.0082 40.5107C44.6221 40.5107 44.479 40.4215 44.479 40.0063C44.4926 33.2067 44.4964 26.407 44.4904 19.6074C44.4926 19.4422 44.5085 19.2782 44.5187 19.0751Z" fill="#2D2D2D"/>
<path d="M5.3834 22.548C5.3834 21.7089 5.37205 20.9735 5.39362 20.2392C5.40589 20.169 5.43411 20.1025 5.47618 20.0445C5.51826 19.9865 5.57311 19.9387 5.63664 19.9044C8.47558 18.5865 11.402 18.2306 14.3738 19.3543C16.545 20.1778 17.6068 21.9108 17.5693 24.2074C17.5307 26.5218 16.4031 28.1343 14.2296 28.9813C14.0149 29.065 13.7992 29.1431 13.4415 29.2781C13.7151 29.3283 13.8389 29.3495 13.9616 29.3752C17.0424 30.0157 18.6674 32.2598 18.2768 35.3375C17.9588 37.8528 16.2327 39.7543 13.4982 40.4585C11.0306 41.0934 8.55621 40.9863 6.11699 40.2621C5.79221 40.165 5.48788 40.0032 5.16878 39.8838C4.77927 39.7376 4.64073 39.4809 4.66231 39.0658C4.69865 38.3963 4.67253 37.7267 4.67253 36.9523C4.91554 37.0828 5.08815 37.1643 5.25054 37.2636C7.05296 38.3915 9.1899 38.8889 11.3157 38.6752C11.775 38.6344 12.2285 38.5446 12.6681 38.4074C15.1119 37.6319 16.2316 35.342 15.3288 32.9763C14.8042 31.6026 13.6561 30.9676 12.2934 30.6998C11.4792 30.538 10.6343 30.5067 9.79512 30.461C9.11378 30.4242 8.43243 30.4543 7.67046 30.4543C7.67046 29.8227 7.65569 29.2268 7.68635 28.6264C7.68635 28.5383 7.90666 28.3943 8.02703 28.3898C8.64138 28.3642 9.26027 28.4189 9.87121 28.3642C10.6491 28.295 11.4485 28.2381 12.1878 28.0138C14.0865 27.4413 15.0585 25.8266 14.7871 23.8648C14.56 22.1854 13.2075 21.0415 11.2873 20.9099C9.46126 20.7838 7.76698 21.2067 6.17717 22.086C5.95119 22.2199 5.71953 22.3561 5.3834 22.548Z" fill="#2D2D2D"/>
<path d="M75.0807 22.2465C74.8059 22.1193 74.6117 22.0233 74.4164 21.9408C72.2259 20.9654 69.9365 20.6764 67.6143 21.2712C64.2984 22.1126 62.4304 24.3645 61.7331 27.5828C61.298 29.5125 61.3829 31.5204 61.9795 33.4079C62.9595 36.4722 65.5964 38.4519 68.8668 38.5925C70.8995 38.6784 72.8482 38.3525 74.6583 37.3962C74.7318 37.3548 74.8076 37.3176 74.8854 37.2846C74.9435 37.2777 75.0022 37.2777 75.0603 37.2846C75.0603 38.0111 75.0784 38.7353 75.0421 39.4651C75.0364 39.5856 74.807 39.7508 74.6503 39.7999C73.6601 40.1034 72.6756 40.4694 71.6592 40.6469C69.9247 40.9755 68.1404 40.9554 66.414 40.5877C63.1889 39.8758 60.8939 37.9754 59.7141 34.9869C58.2537 31.2921 58.3514 27.5527 60.333 24.0431C62.1612 20.807 65.0797 19.0751 68.8498 18.7727C70.7916 18.6176 72.7017 18.7827 74.5629 19.3954C74.9456 19.5203 75.1125 19.7011 75.0921 20.1129C75.0569 20.7936 75.0807 21.4765 75.0807 22.2465Z" fill="#2D2D2D"/>
</svg>
