<svg width="87" height="30" viewBox="0 0 87 30" fill="none" xmlns="http://www.w3.org/2000/svg">
<path d="M33.48 16.4H37.32V16.912L34.032 21.488H37.32V22H33.4V21.488L36.688 16.912H33.48V16.4ZM38.3597 16.4H38.8877V18.608C39.0157 18.3947 39.1864 18.232 39.3997 18.12C39.6184 18.0027 39.8717 17.944 40.1597 17.944C40.6184 17.944 40.9784 18.0827 41.2397 18.36C41.5064 18.6373 41.6397 19.0507 41.6397 19.6V22H41.1117V19.6C41.1117 19.2107 41.021 18.92 40.8397 18.728C40.6584 18.536 40.405 18.44 40.0797 18.44C39.7277 18.44 39.4424 18.544 39.2237 18.752C39.0104 18.9547 38.8984 19.2213 38.8877 19.552V22H38.3597V16.4ZM44.4413 22.056C43.9133 22.056 43.4946 21.896 43.1853 21.576C42.8759 21.2507 42.7213 20.784 42.7213 20.176V19.824C42.7213 19.2213 42.8759 18.7573 43.1853 18.432C43.4999 18.1067 43.9186 17.944 44.4413 17.944C44.9639 17.944 45.3799 18.1067 45.6893 18.432C46.0039 18.7573 46.1613 19.2213 46.1613 19.824V20.152H43.2653V20.176C43.2653 20.64 43.3719 20.9867 43.5853 21.216C43.7986 21.4453 44.0839 21.56 44.4413 21.56C44.7719 21.56 45.0226 21.4907 45.1933 21.352C45.3693 21.2133 45.4973 21.04 45.5773 20.832H46.1213C46.0786 21.0027 46.0146 21.1627 45.9293 21.312C45.8439 21.4613 45.7319 21.592 45.5933 21.704C45.4546 21.8107 45.2893 21.896 45.0973 21.96C44.9053 22.024 44.6866 22.056 44.4413 22.056ZM44.4413 18.44C44.0946 18.44 43.8173 18.5493 43.6093 18.768C43.4066 18.9813 43.2919 19.288 43.2653 19.688H45.6093C45.5879 19.272 45.4706 18.96 45.2573 18.752C45.0493 18.544 44.7773 18.44 44.4413 18.44ZM48.3216 22C47.9856 22 47.7269 21.912 47.5456 21.736C47.3696 21.5547 47.2816 21.2907 47.2816 20.944V16.4H47.8096V20.88C47.8096 21.3067 48.0016 21.52 48.3856 21.52H48.6416V22H48.3216ZM48.9266 18H49.6466V16.88H50.1746V18H51.2466V18.48H50.1746V20.88C50.1746 21.3067 50.3719 21.52 50.7666 21.52H51.3266V22H50.7026C50.3559 22 50.0919 21.912 49.9106 21.736C49.7346 21.5547 49.6466 21.2907 49.6466 20.944V18.48H48.9266V18ZM53.5214 20.136L52.8174 20.968V22H52.2894V16.4H52.8174V20.248L54.6734 18H55.3294L53.8734 19.752L55.4894 22H54.8334L53.5214 20.136ZM57.6913 22.056C57.1633 22.056 56.7446 21.896 56.4353 21.576C56.1259 21.2507 55.9713 20.784 55.9713 20.176V19.824C55.9713 19.2213 56.1259 18.7573 56.4353 18.432C56.7499 18.1067 57.1686 17.944 57.6913 17.944C58.2139 17.944 58.6299 18.1067 58.9393 18.432C59.2539 18.7573 59.4113 19.2213 59.4113 19.824V20.152H56.5153V20.176C56.5153 20.64 56.6219 20.9867 56.8353 21.216C57.0486 21.4453 57.3339 21.56 57.6913 21.56C58.0219 21.56 58.2726 21.4907 58.4433 21.352C58.6193 21.2133 58.7473 21.04 58.8273 20.832H59.3713C59.3286 21.0027 59.2646 21.1627 59.1793 21.312C59.0939 21.4613 58.9819 21.592 58.8433 21.704C58.7046 21.8107 58.5393 21.896 58.3473 21.96C58.1553 22.024 57.9366 22.056 57.6913 22.056ZM57.6913 18.44C57.3446 18.44 57.0673 18.5493 56.8593 18.768C56.6566 18.9813 56.5419 19.288 56.5153 19.688H58.8593C58.8379 19.272 58.7206 18.96 58.5073 18.752C58.2993 18.544 58.0273 18.44 57.6913 18.44ZM59.8953 18H60.4873L61.7833 21.4L63.0153 18H63.5753L62.0953 22H61.4553L59.8953 18ZM64.5334 18H65.0614V22H64.5334V18ZM64.7974 17.296C64.6908 17.296 64.6001 17.2613 64.5254 17.192C64.4561 17.1173 64.4214 17.0267 64.4214 16.92C64.4214 16.8133 64.4561 16.7253 64.5254 16.656C64.6001 16.5813 64.6908 16.544 64.7974 16.544C64.9041 16.544 64.9921 16.5813 65.0614 16.656C65.1361 16.7253 65.1734 16.8133 65.1734 16.92C65.1734 17.0267 65.1361 17.1173 65.0614 17.192C64.9921 17.2613 64.9041 17.296 64.7974 17.296ZM67.9803 22.056C67.7243 22.056 67.4896 22.0133 67.2763 21.928C67.0683 21.8427 66.887 21.72 66.7323 21.56C66.583 21.4 66.4656 21.2053 66.3803 20.976C66.3003 20.7413 66.2603 20.4747 66.2603 20.176V19.824C66.2603 19.5307 66.3003 19.2693 66.3803 19.04C66.4656 18.8053 66.583 18.608 66.7323 18.448C66.887 18.2827 67.0683 18.1573 67.2763 18.072C67.4896 17.9867 67.7243 17.944 67.9803 17.944C68.2043 17.944 68.4016 17.9733 68.5723 18.032C68.7483 18.0907 68.9003 18.1733 69.0283 18.28C69.1616 18.3813 69.2683 18.5013 69.3483 18.64C69.4336 18.7787 69.4976 18.9253 69.5403 19.08H68.9803C68.9003 18.8987 68.783 18.7467 68.6283 18.624C68.479 18.5013 68.263 18.44 67.9803 18.44C67.639 18.44 67.3563 18.56 67.1323 18.8C66.9136 19.0347 66.8043 19.376 66.8043 19.824V20.176C66.8043 20.3947 66.8336 20.592 66.8923 20.768C66.951 20.9387 67.0336 21.0827 67.1403 21.2C67.247 21.3173 67.3696 21.408 67.5083 21.472C67.6523 21.5307 67.8096 21.56 67.9803 21.56C68.2683 21.56 68.487 21.496 68.6363 21.368C68.7856 21.24 68.9003 21.064 68.9803 20.84H69.5403C69.4603 21.192 69.2923 21.4827 69.0363 21.712C68.7803 21.9413 68.4283 22.056 67.9803 22.056ZM70.5394 16.4H71.0674V18.608C71.1954 18.3947 71.366 18.232 71.5794 18.12C71.798 18.0027 72.0514 17.944 72.3394 17.944C72.798 17.944 73.158 18.0827 73.4194 18.36C73.686 18.6373 73.8194 19.0507 73.8194 19.6V22H73.2914V19.6C73.2914 19.2107 73.2007 18.92 73.0194 18.728C72.838 18.536 72.5847 18.44 72.2594 18.44C71.9074 18.44 71.622 18.544 71.4034 18.752C71.19 18.9547 71.078 19.2213 71.0674 19.552V22H70.5394V16.4Z" fill="#2D2D2D"/>
<path d="M35.008 14.056C34.7787 14.056 34.568 14.016 34.376 13.936C34.184 13.856 34.0187 13.7387 33.88 13.584C33.7413 13.424 33.632 13.2267 33.552 12.992C33.4773 12.7573 33.44 12.4853 33.44 12.176V11.824C33.44 11.52 33.4773 11.2507 33.552 11.016C33.632 10.7813 33.7413 10.584 33.88 10.424C34.0187 10.264 34.184 10.144 34.376 10.064C34.568 9.984 34.7787 9.944 35.008 9.944C35.2853 9.944 35.5307 9.99733 35.744 10.104C35.9573 10.2107 36.1333 10.3707 36.272 10.584V8.4H36.8V14H36.392L36.32 13.328C36.1867 13.5733 36.008 13.7573 35.784 13.88C35.56 13.9973 35.3013 14.056 35.008 14.056ZM35.128 13.56C35.2933 13.56 35.4453 13.5307 35.584 13.472C35.7227 13.408 35.8427 13.32 35.944 13.208C36.0453 13.0907 36.1253 12.9467 36.184 12.776C36.2427 12.6 36.272 12.4 36.272 12.176V11.76C36.2613 11.3333 36.1467 11.008 35.928 10.784C35.7147 10.5547 35.448 10.44 35.128 10.44C34.7813 10.44 34.504 10.5547 34.296 10.784C34.088 11.008 33.984 11.3547 33.984 11.824V12.176C33.984 12.64 34.088 12.9867 34.296 13.216C34.5093 13.4453 34.7867 13.56 35.128 13.56ZM39.6366 14.056C39.1086 14.056 38.6899 13.896 38.3806 13.576C38.0712 13.2507 37.9166 12.784 37.9166 12.176V11.824C37.9166 11.2213 38.0712 10.7573 38.3806 10.432C38.6952 10.1067 39.1139 9.944 39.6366 9.944C40.1592 9.944 40.5752 10.1067 40.8846 10.432C41.1992 10.7573 41.3566 11.2213 41.3566 11.824V12.152H38.4606V12.176C38.4606 12.64 38.5672 12.9867 38.7806 13.216C38.9939 13.4453 39.2792 13.56 39.6366 13.56C39.9672 13.56 40.2179 13.4907 40.3886 13.352C40.5646 13.2133 40.6926 13.04 40.7726 12.832H41.3166C41.2739 13.0027 41.2099 13.1627 41.1246 13.312C41.0392 13.4613 40.9272 13.592 40.7886 13.704C40.6499 13.8107 40.4846 13.896 40.2926 13.96C40.1006 14.024 39.8819 14.056 39.6366 14.056ZM39.6366 10.44C39.2899 10.44 39.0126 10.5493 38.8046 10.768C38.6019 10.9813 38.4872 11.288 38.4606 11.688H40.8046C40.7832 11.272 40.6659 10.96 40.4526 10.752C40.2446 10.544 39.9726 10.44 39.6366 10.44ZM41.8406 10H42.4326L43.7286 13.4L44.9606 10H45.5206L44.0406 14H43.4006L41.8406 10ZM47.7225 14.056C47.1945 14.056 46.7758 13.896 46.4665 13.576C46.1572 13.2507 46.0025 12.784 46.0025 12.176V11.824C46.0025 11.2213 46.1572 10.7573 46.4665 10.432C46.7812 10.1067 47.1998 9.944 47.7225 9.944C48.2452 9.944 48.6612 10.1067 48.9705 10.432C49.2852 10.7573 49.4425 11.2213 49.4425 11.824V12.152H46.5465V12.176C46.5465 12.64 46.6532 12.9867 46.8665 13.216C47.0798 13.4453 47.3652 13.56 47.7225 13.56C48.0532 13.56 48.3038 13.4907 48.4745 13.352C48.6505 13.2133 48.7785 13.04 48.8585 12.832H49.4025C49.3598 13.0027 49.2958 13.1627 49.2105 13.312C49.1252 13.4613 49.0132 13.592 48.8745 13.704C48.7358 13.8107 48.5705 13.896 48.3785 13.96C48.1865 14.024 47.9678 14.056 47.7225 14.056ZM47.7225 10.44C47.3758 10.44 47.0985 10.5493 46.8905 10.768C46.6878 10.9813 46.5732 11.288 46.5465 11.688H48.8905C48.8692 11.272 48.7518 10.96 48.5385 10.752C48.3305 10.544 48.0585 10.44 47.7225 10.44ZM51.6028 14C51.2668 14 51.0081 13.912 50.8268 13.736C50.6508 13.5547 50.5628 13.2907 50.5628 12.944V8.4H51.0908V12.88C51.0908 13.3067 51.2828 13.52 51.6668 13.52H51.9228V14H51.6028ZM54.3641 14.056C54.0974 14.056 53.8547 14.0133 53.6361 13.928C53.4227 13.8427 53.2387 13.72 53.0841 13.56C52.9294 13.4 52.8094 13.2053 52.7241 12.976C52.6441 12.7413 52.6041 12.4747 52.6041 12.176V11.824C52.6041 11.5307 52.6467 11.2693 52.7321 11.04C52.8174 10.8053 52.9347 10.608 53.0841 10.448C53.2387 10.2827 53.4227 10.1573 53.6361 10.072C53.8547 9.98667 54.0974 9.944 54.3641 9.944C54.6307 9.944 54.8707 9.98667 55.0841 10.072C55.3027 10.1573 55.4894 10.28 55.6441 10.44C55.7987 10.6 55.9161 10.7973 55.9961 11.032C56.0814 11.2667 56.1241 11.5307 56.1241 11.824V12.176C56.1241 12.4693 56.0814 12.7333 55.9961 12.968C55.9107 13.1973 55.7907 13.3947 55.6361 13.56C55.4867 13.72 55.3027 13.8427 55.0841 13.928C54.8654 14.0133 54.6254 14.056 54.3641 14.056ZM54.3641 13.56C54.7267 13.56 55.0201 13.4427 55.2441 13.208C55.4681 12.968 55.5801 12.624 55.5801 12.176V11.824C55.5801 11.3813 55.4654 11.04 55.2361 10.8C55.0121 10.56 54.7214 10.44 54.3641 10.44C54.0014 10.44 53.7081 10.56 53.4841 10.8C53.2601 11.0347 53.1481 11.376 53.1481 11.824V12.176C53.1481 12.6187 53.2601 12.96 53.4841 13.2C53.7134 13.44 54.0067 13.56 54.3641 13.56ZM59.0345 14.056C58.7572 14.056 58.5118 14.0053 58.2985 13.904C58.0852 13.7973 57.9092 13.6347 57.7705 13.416V15.6H57.2425V10H57.6505L57.7145 10.672C57.8532 10.4267 58.0318 10.2453 58.2505 10.128C58.4745 10.0053 58.7358 9.944 59.0345 9.944C59.2638 9.944 59.4745 9.984 59.6665 10.064C59.8585 10.144 60.0238 10.264 60.1625 10.424C60.3012 10.5787 60.4078 10.7733 60.4825 11.008C60.5625 11.2427 60.6025 11.5147 60.6025 11.824V12.176C60.6025 12.48 60.5625 12.7493 60.4825 12.984C60.4078 13.2187 60.3012 13.416 60.1625 13.576C60.0238 13.736 59.8585 13.856 59.6665 13.936C59.4745 14.016 59.2638 14.056 59.0345 14.056ZM58.9145 13.56C59.2612 13.56 59.5385 13.448 59.7465 13.224C59.9545 12.9947 60.0585 12.6453 60.0585 12.176V11.824C60.0585 11.36 59.9518 11.0133 59.7385 10.784C59.5305 10.5547 59.2558 10.44 58.9145 10.44C58.5945 10.44 58.3252 10.552 58.1065 10.776C57.8932 11 57.7812 11.328 57.7705 11.76V12.176C57.7705 12.624 57.8772 12.968 58.0905 13.208C58.3038 13.4427 58.5785 13.56 58.9145 13.56ZM63.1991 14.056C62.6711 14.056 62.2524 13.896 61.9431 13.576C61.6337 13.2507 61.4791 12.784 61.4791 12.176V11.824C61.4791 11.2213 61.6337 10.7573 61.9431 10.432C62.2577 10.1067 62.6764 9.944 63.1991 9.944C63.7217 9.944 64.1377 10.1067 64.4471 10.432C64.7617 10.7573 64.9191 11.2213 64.9191 11.824V12.152H62.0231V12.176C62.0231 12.64 62.1297 12.9867 62.3431 13.216C62.5564 13.4453 62.8417 13.56 63.1991 13.56C63.5297 13.56 63.7804 13.4907 63.9511 13.352C64.1271 13.2133 64.2551 13.04 64.3351 12.832H64.8791C64.8364 13.0027 64.7724 13.1627 64.6871 13.312C64.6017 13.4613 64.4897 13.592 64.3511 13.704C64.2124 13.8107 64.0471 13.896 63.8551 13.96C63.6631 14.024 63.4444 14.056 63.1991 14.056ZM63.1991 10.44C62.8524 10.44 62.5751 10.5493 62.3671 10.768C62.1644 10.9813 62.0497 11.288 62.0231 11.688H64.3671C64.3457 11.272 64.2284 10.96 64.0151 10.752C63.8071 10.544 63.5351 10.44 63.1991 10.44ZM67.3674 14.056C67.138 14.056 66.9274 14.016 66.7354 13.936C66.5434 13.856 66.378 13.7387 66.2394 13.584C66.1007 13.424 65.9914 13.2267 65.9114 12.992C65.8367 12.7573 65.7994 12.4853 65.7994 12.176V11.824C65.7994 11.52 65.8367 11.2507 65.9114 11.016C65.9914 10.7813 66.1007 10.584 66.2394 10.424C66.378 10.264 66.5434 10.144 66.7354 10.064C66.9274 9.984 67.138 9.944 67.3674 9.944C67.6447 9.944 67.89 9.99733 68.1034 10.104C68.3167 10.2107 68.4927 10.3707 68.6314 10.584V8.4H69.1594V14H68.7514L68.6794 13.328C68.546 13.5733 68.3674 13.7573 68.1434 13.88C67.9194 13.9973 67.6607 14.056 67.3674 14.056ZM67.4874 13.56C67.6527 13.56 67.8047 13.5307 67.9434 13.472C68.082 13.408 68.202 13.32 68.3034 13.208C68.4047 13.0907 68.4847 12.9467 68.5434 12.776C68.602 12.6 68.6314 12.4 68.6314 12.176V11.76C68.6207 11.3333 68.506 11.008 68.2874 10.784C68.074 10.5547 67.8074 10.44 67.4874 10.44C67.1407 10.44 66.8634 10.5547 66.6554 10.784C66.4474 11.008 66.3434 11.3547 66.3434 11.824V12.176C66.3434 12.64 66.4474 12.9867 66.6554 13.216C66.8687 13.4453 67.146 13.56 67.4874 13.56ZM74.3079 14.056C74.0093 14.056 73.7479 13.9973 73.5239 13.88C73.3053 13.7573 73.1266 13.5733 72.9879 13.328L72.9239 14H72.5159V8.4H73.0439V10.584C73.1826 10.3707 73.3586 10.2107 73.5719 10.104C73.7853 9.99733 74.0306 9.944 74.3079 9.944C74.5373 9.944 74.7479 9.984 74.9399 10.064C75.1319 10.144 75.2973 10.264 75.4359 10.424C75.5746 10.5787 75.6813 10.7733 75.7559 11.008C75.8359 11.2427 75.8759 11.5147 75.8759 11.824V12.176C75.8759 12.48 75.8359 12.7493 75.7559 12.984C75.6813 13.2187 75.5746 13.416 75.4359 13.576C75.2973 13.736 75.1319 13.856 74.9399 13.936C74.7479 14.016 74.5373 14.056 74.3079 14.056ZM74.1879 13.56C74.5346 13.56 74.8119 13.448 75.0199 13.224C75.2279 12.9947 75.3319 12.6453 75.3319 12.176V11.824C75.3319 11.36 75.2253 11.0133 75.0119 10.784C74.8039 10.5547 74.5293 10.44 74.1879 10.44C73.8679 10.44 73.5986 10.5547 73.3799 10.784C73.1666 11.008 73.0546 11.3333 73.0439 11.76V12.176C73.0439 12.624 73.1506 12.968 73.3639 13.208C73.5826 13.4427 73.8573 13.56 74.1879 13.56ZM78.0123 14L76.3563 10H76.9483L78.3003 13.344L79.5563 10H80.1163L77.9563 15.6H77.3963L78.0123 14Z" fill="#2D2D2D"/>
<path d="M22.5352 14.6066L23.1257 14.6609C24.6857 14.8696 25.7743 15.487 26.3914 16.513C26.7585 17.1068 27.6193 19.3965 27.4873 19.457C27.3552 19.5176 27.0715 19.013 25.7857 19.013C24.5 19.013 23.7469 20.037 23.6031 20.1043C23.5108 20.1043 23.4432 18.9901 22.9714 18C22.4743 16.9565 21.8829 16.3478 21.1971 16.1739C20.9743 16.1043 20.7257 16.0696 20.4514 16.0696H19.2686C19.4057 16.713 19.4743 23.4957 19.4743 24H15.72C15.72 23.4957 15.7886 16.713 15.9257 16.0696H14.6657C13.7229 16.0696 13.02 16.487 12.5571 17.3217C12.0943 18.1391 11.4171 19.9304 10.5257 22.6957C10.3543 23.2522 10.2171 23.687 10.1143 24H6C7.02857 20.6087 7.73143 18.513 8.10857 17.713C8.70857 16.3739 9.48857 15.4957 10.4486 15.0783C10.8771 14.887 11.4 14.7478 12.0171 14.6609L12.6096 14.5945C12.181 14.5423 11.1943 14.4087 10.8343 14.2696C10.4914 14.1304 10.1914 13.9826 9.93429 13.8261C9.67714 13.6696 9.42857 13.4174 9.18857 13.0696C8.94857 12.7217 8.74286 12.4174 8.57143 12.1565C8.41714 11.8783 8.22857 11.4435 8.00571 10.8522C7.8 10.2435 7.62857 9.73913 7.49143 9.33913C7.37143 8.92174 7.18286 8.28696 6.92571 7.43478C6.73714 6.8087 6.59143 6.33044 6.48857 6H10.4743C11.4 8.95652 12.0343 10.7739 12.3771 11.4522C13.08 12.5652 13.8429 13.1565 14.6657 13.2261H15.9257C15.7886 12.4783 15.72 6.67826 15.72 6H19.4743C19.4743 6.67826 19.4057 12.4783 19.2686 13.2261H20.4257C21.3343 13.2261 22.02 12.8 22.4829 11.9478C22.9457 11.0957 23.58 9.4087 24.3857 6.88696C24.5057 6.50435 24.6 6.2087 24.6686 6H28.6543C27.7114 9.06087 27.1029 10.9043 26.8286 11.5304C26.2457 12.8696 25.4914 13.7478 24.5657 14.1652C24.1543 14.3565 23.0837 14.5371 22.5352 14.6066Z" fill="#2D2D2D"/>
<circle cx="25.9286" cy="22.0714" r="1.92857" fill="#966b00"/>
<path d="M0.5 3C0.5 1.61929 1.61929 0.5 3 0.5H84C85.3807 0.5 86.5 1.61929 86.5 3V27C86.5 28.3807 85.3807 29.5 84 29.5H3C1.61929 29.5 0.5 28.3807 0.5 27V3Z" stroke="#2D2D2D"/>
</svg>
