<svg width="40" height="40" viewBox="0 0 40 40" fill="none" xmlns="http://www.w3.org/2000/svg">
<path d="M28.8843 4.24231C28.9157 4.27736 28.9787 4.31242 29.0417 4.31242C29.1047 4.31242 29.1677 4.27736 29.1992 4.24231C29.2936 4.13714 29.2936 3.96185 29.1992 3.89174L28.6953 3.33083C28.6009 3.22566 28.4434 3.22566 28.3804 3.33083C28.286 3.436 28.286 3.61129 28.3804 3.6814L28.8843 4.24231Z" fill="#2D2D2D"/>
<path d="M30.521 6.06457C30.5525 6.09963 30.6154 6.13469 30.6784 6.13469C30.7414 6.13469 30.8044 6.09963 30.8359 6.06457C30.9303 5.9594 30.9303 5.78412 30.8359 5.71401L30.332 5.1531C30.2376 5.04793 30.0801 5.04793 30.0171 5.1531C29.9227 5.25827 29.9227 5.43355 30.0171 5.50366L30.521 6.06457Z" fill="#2D2D2D"/>
<path d="M28.5379 6.13469C28.6009 6.13469 28.6638 6.09963 28.6953 6.06457L29.1992 5.50366C29.2936 5.39849 29.2936 5.22321 29.1992 5.1531C29.1047 5.04793 28.9472 5.04793 28.8843 5.1531L28.3804 5.71401C28.286 5.81918 28.286 5.99446 28.3804 6.06457C28.4434 6.09963 28.4749 6.13469 28.5379 6.13469Z" fill="#2D2D2D"/>
<path d="M30.1746 4.31242C30.2376 4.31242 30.3005 4.27736 30.332 4.24231L30.8359 3.6814C30.9303 3.57623 30.9303 3.40094 30.8359 3.33083C30.7414 3.22566 30.584 3.22566 30.521 3.33083L30.0171 3.89174C29.9227 3.99691 29.9227 4.17219 30.0171 4.24231C30.0801 4.27736 30.1116 4.31242 30.1746 4.31242Z" fill="#2D2D2D"/>
<path d="M0.41749 36.95C0.32302 36.8448 0.165571 36.8448 0.102591 36.95C0.0396117 37.0551 0.00812182 37.2304 0.102591 37.3005L0.606429 37.8614C0.637918 37.8965 0.700898 37.9316 0.763878 37.9316C0.826857 37.9316 0.889837 37.8965 0.921327 37.8614C1.0158 37.7563 1.0158 37.581 0.921327 37.5109L0.41749 36.95Z" fill="#2D2D2D"/>
<path d="M2.0547 38.7727C1.96023 38.6676 1.80278 38.6676 1.7398 38.7727C1.64533 38.8779 1.64533 39.0532 1.7398 39.1233L2.24363 39.6842C2.27512 39.7193 2.3381 39.7543 2.40108 39.7543C2.46406 39.7543 2.52704 39.7193 2.55853 39.6842C2.653 39.579 2.653 39.4037 2.55853 39.3336L2.0547 38.7727Z" fill="#2D2D2D"/>
<path d="M0.574689 38.7727L0.0708521 39.3336C-0.0236174 39.4388 -0.0236174 39.6141 0.0708521 39.6842C0.102342 39.7193 0.165322 39.7543 0.228301 39.7543C0.291281 39.7543 0.354261 39.7193 0.38575 39.6842L0.889587 39.1233C0.984057 39.0181 0.984057 38.8428 0.889587 38.7727C0.826608 38.6676 0.669159 38.6676 0.574689 38.7727Z" fill="#2D2D2D"/>
<path d="M2.21336 36.95L1.70952 37.5109C1.61505 37.616 1.61505 37.7913 1.70952 37.8614C1.74101 37.8965 1.80399 37.9316 1.86697 37.9316C1.92995 37.9316 1.99293 37.8965 2.02442 37.8614L2.52826 37.3005C2.62273 37.1954 2.62273 37.0201 2.52826 36.95C2.46528 36.8448 2.30783 36.8448 2.21336 36.95Z" fill="#2D2D2D"/>
<path d="M36.9771 20.1228C36.8826 20.228 36.8826 20.4033 36.9771 20.4734L37.4809 21.0343C37.5124 21.0694 37.5754 21.1044 37.6384 21.1044C37.7014 21.1044 37.7643 21.0694 37.7958 21.0343C37.8903 20.9291 37.8903 20.7538 37.7958 20.6837L37.292 20.1228C37.1975 20.0177 37.0401 20.0177 36.9771 20.1228Z" fill="#D79B00"/>
<path d="M39.1186 22.8571C39.1501 22.8921 39.2131 22.9272 39.2761 22.9272C39.3391 22.9272 39.402 22.8921 39.4335 22.8571C39.528 22.7519 39.528 22.5766 39.4335 22.5065L38.9297 21.9456C38.8352 21.8404 38.6778 21.8404 38.6148 21.9456C38.5203 22.0507 38.5203 22.226 38.6148 22.2961L39.1186 22.8571Z" fill="#D79B00"/>
<path d="M37.4809 21.9456L36.9771 22.5065C36.8826 22.6117 36.8826 22.7869 36.9771 22.8571C37.0086 22.8921 37.0716 22.9272 37.1346 22.9272C37.1975 22.9272 37.2605 22.8921 37.292 22.8571L37.7958 22.2961C37.8903 22.191 37.8903 22.0157 37.7958 21.9456C37.7014 21.8404 37.5439 21.8404 37.4809 21.9456Z" fill="#D79B00"/>
<path d="M38.7722 21.1044C38.8352 21.1044 38.8982 21.0694 38.9297 21.0343L39.4335 20.4734C39.528 20.3682 39.528 20.1929 39.4335 20.1228C39.3391 20.0177 39.1816 20.0177 39.1186 20.1228L38.6148 20.6837C38.5203 20.7889 38.5203 20.9642 38.6148 21.0343C38.6463 21.1044 38.7093 21.1044 38.7722 21.1044Z" fill="#D79B00"/>
<path d="M1.29899 11.8497C1.4252 11.8497 1.51986 11.7445 1.51986 11.6043V7.46757C1.51986 7.32734 1.4252 7.22217 1.29899 7.22217C1.17278 7.22217 1.07812 7.32734 1.07812 7.46757V11.6043C1.07813 11.7445 1.17278 11.8497 1.29899 11.8497Z" fill="#2D2D2D"/>
<path d="M1.29899 15.285C1.4252 15.285 1.51986 15.1798 1.51986 15.0396V13.5672C1.51986 13.4269 1.4252 13.3218 1.29899 13.3218C1.17278 13.3218 1.07812 13.4269 1.07812 13.5672V15.0396C1.07813 15.1447 1.17278 15.285 1.29899 15.285Z" fill="#2D2D2D"/>
<path d="M36.9767 4.66265C37.103 4.66265 37.1976 4.55748 37.1976 4.41725V0.280554C37.1976 0.140327 37.103 0.0351562 36.9767 0.0351562C36.8505 0.0351562 36.7559 0.140327 36.7559 0.280554V4.41725C36.7243 4.55748 36.8505 4.66265 36.9767 4.66265Z" fill="#2D2D2D"/>
<path d="M36.9767 8.09785C37.103 8.09785 37.1976 7.99268 37.1976 7.85245V6.34501C37.1976 6.20478 37.103 6.09961 36.9767 6.09961C36.8505 6.09961 36.7559 6.20478 36.7559 6.34501V7.81739C36.7243 7.99268 36.8505 8.09785 36.9767 8.09785Z" fill="#2D2D2D"/>
<path d="M17.7369 4.94274C18.3352 4.94274 18.8391 4.38184 18.8391 3.71576C18.8391 3.04968 18.3352 2.48877 17.7369 2.48877C17.1386 2.48877 16.6348 3.04968 16.6348 3.71576C16.6348 4.38184 17.1386 4.94274 17.7369 4.94274ZM17.7369 3.01462C18.0833 3.01462 18.3667 3.33013 18.3667 3.71576C18.3667 4.10138 18.0833 4.41689 17.7369 4.41689C17.3905 4.41689 17.1071 4.10138 17.1071 3.71576C17.1071 3.33013 17.3905 3.01462 17.7369 3.01462Z" fill="#2D2D2D"/>
<path d="M15.1852 36.6694C14.5868 36.6694 14.083 37.2303 14.083 37.8964C14.083 38.5625 14.5868 39.1234 15.1852 39.1234C15.7835 39.1234 16.2873 38.5625 16.2873 37.8964C16.2873 37.2303 15.7835 36.6694 15.1852 36.6694ZM15.1852 38.5976C14.8388 38.5976 14.5554 38.282 14.5554 37.8964C14.5554 37.5108 14.8388 37.1953 15.1852 37.1953C15.5315 37.1953 15.8149 37.5108 15.8149 37.8964C15.8149 38.282 15.5315 38.5976 15.1852 38.5976Z" fill="#2D2D2D"/>
<path d="M2.40058 26.0473C2.40058 25.3812 1.89674 24.8203 1.29843 24.8203C0.700126 24.8203 0.196289 25.3812 0.196289 26.0473C0.196289 26.7134 0.700126 27.2743 1.29843 27.2743C1.92823 27.2743 2.40058 26.7134 2.40058 26.0473ZM1.29843 26.7484C0.952045 26.7484 0.668636 26.4329 0.668636 26.0473C0.668636 25.6617 0.952045 25.3462 1.29843 25.3462C1.64482 25.3462 1.92823 25.6617 1.92823 26.0473C1.92823 26.4329 1.67631 26.7484 1.29843 26.7484Z" fill="#2D2D2D"/>
<path d="M5.5498 2.13818C5.5498 2.2782 5.64427 2.38322 5.77023 2.38322H10.6197C10.7456 2.38322 10.8401 2.2782 10.8401 2.13818C10.8401 1.99815 10.7456 1.89314 10.6197 1.89314H5.77023C5.64427 1.85813 5.5498 1.99815 5.5498 2.13818Z" fill="#D79B00"/>
<path d="M2.62204 2.38322H4.19653C4.32249 2.38322 4.41696 2.2782 4.41696 2.13818C4.41696 1.99815 4.32249 1.89314 4.19653 1.89314H2.62204C2.49608 1.85813 2.37012 1.99815 2.37012 2.13818C2.37012 2.2782 2.49608 2.38322 2.62204 2.38322Z" fill="#D79B00"/>
<path d="M2.62204 0.524817H6.02294C6.1489 0.524817 6.24337 0.4198 6.24337 0.279777C6.24337 0.139754 6.1489 0.0347374 6.02294 0.0347374H2.62204C2.49608 -0.00026835 2.37012 0.139754 2.37012 0.279777C2.37012 0.4198 2.49608 0.524817 2.62204 0.524817Z" fill="#2D2D2D"/>
<path d="M7.47165 0.525086H8.57379C8.69975 0.525086 8.79422 0.420069 8.79422 0.280046C8.79422 0.140023 8.66826 0 8.5423 0H7.44016C7.3142 0 7.21973 0.105017 7.21973 0.24504C7.21973 0.385063 7.34569 0.525086 7.47165 0.525086Z" fill="#2D2D2D"/>
<path d="M36.8196 37.8959C36.8196 37.7559 36.7251 37.6509 36.5992 37.6509H31.7497C31.6238 37.6509 31.5293 37.7559 31.5293 37.8959C31.5293 38.0359 31.6238 38.141 31.7497 38.141H36.5992C36.7251 38.176 36.8196 38.0359 36.8196 37.8959Z" fill="#D79B00"/>
<path d="M37.9531 37.8959C37.9531 38.0359 38.0476 38.141 38.1736 38.141H39.748C39.874 38.141 39.9685 38.0359 39.9685 37.8959C39.9685 37.7559 39.874 37.6509 39.748 37.6509H38.1736C38.0791 37.6509 37.9531 37.7559 37.9531 37.8959Z" fill="#D79B00"/>
<path d="M39.7795 39.5093H36.3786C36.2527 39.5093 36.1582 39.6143 36.1582 39.7543C36.1582 39.8943 36.2527 39.9994 36.3786 39.9994H39.7795C39.9055 39.9994 40 39.8943 40 39.7543C40 39.6143 39.9055 39.5093 39.7795 39.5093Z" fill="#2D2D2D"/>
<path d="M34.93 39.5093H33.8279C33.7019 39.5093 33.6074 39.6143 33.6074 39.7543C33.6074 39.8943 33.7019 39.9994 33.8279 39.9994H34.93C35.056 39.9994 35.1504 39.8943 35.1504 39.7543C35.1504 39.6143 35.056 39.5093 34.93 39.5093Z" fill="#2D2D2D"/>
<path d="M7.40741 12.4652C6.5593 12.4652 5.85742 13.181 5.85742 14.046V29.3174C5.85742 29.4367 5.94516 29.5261 6.06214 29.5261H33.9327C34.0497 29.5261 34.1375 29.4367 34.1375 29.3174V14.046C34.1375 13.181 33.4356 12.4652 32.5875 12.4652H24.6913C24.3696 11.809 23.9602 11.2423 23.463 10.7054C22.2054 9.42283 20.5677 8.73682 18.813 8.73682C17.0583 8.73682 15.3913 9.42283 14.163 10.7054C13.6659 11.2124 13.2272 11.809 12.9347 12.4652H7.40741ZM32.6167 12.9126C33.2309 12.9126 33.728 13.4196 33.728 14.046V29.1086H6.26685V14.046C6.26685 13.4196 6.76402 12.9126 7.37817 12.9126H12.7008C12.6715 13.0021 12.6423 13.0617 12.613 13.1512C12.4668 13.5688 12.3498 14.046 12.2621 14.5232C12.2329 14.8215 12.2036 15.1198 12.2036 15.4479C12.2036 16.3128 12.3498 17.148 12.6423 17.9235C12.964 18.7885 13.4612 19.564 14.1338 20.25C15.4206 21.5624 17.1168 22.2186 18.7838 22.2186C20.1583 22.2186 21.5621 21.7712 22.7319 20.8465L28.2592 27.5277C28.4347 27.7365 28.6686 27.826 28.9026 27.8558H28.9318C29.1658 27.8558 29.3998 27.7664 29.5752 27.5874L30.628 26.5136C30.8035 26.3347 30.8913 26.0961 30.8913 25.8276C30.8913 25.5592 30.7743 25.3206 30.5696 25.1714L24.0771 19.5043C24.4281 19.0271 24.7498 18.4902 24.9545 17.9235C25.2469 17.148 25.4224 16.3128 25.3932 15.4479C25.3932 15.1198 25.3639 14.8215 25.3347 14.5232C25.2762 14.046 25.1592 13.5986 24.9837 13.1512C24.9545 13.0617 24.9252 13.0021 24.896 12.9126H32.6167ZM23.463 20.2202C23.58 20.1009 23.6677 19.9815 23.7554 19.8921L23.7847 19.8622L30.3356 25.4995C30.4233 25.589 30.4818 25.7083 30.5111 25.8574C30.5111 25.9767 30.4818 26.1259 30.3648 26.2154L29.312 27.2891C29.2243 27.3786 29.1073 27.4383 28.9611 27.4383C28.8148 27.4383 28.6979 27.3786 28.6101 27.2593L23.112 20.5781C23.1413 20.5781 23.1413 20.5483 23.1413 20.5483C23.2583 20.4289 23.3753 20.3395 23.463 20.2202ZM14.4555 11.0335C15.6253 9.84041 17.1753 9.18422 18.813 9.18422C20.4507 9.18422 22.0007 9.84041 23.1705 11.0335C23.8139 11.6897 24.2819 12.4353 24.6035 13.3003C24.7498 13.7179 24.8668 14.1355 24.9252 14.5829C24.9545 14.8513 24.9837 15.1496 24.9837 15.4479C24.9837 16.2532 24.8375 17.0287 24.5743 17.7445C24.3403 18.3411 24.0186 18.9078 23.6385 19.385C23.5215 19.5043 23.4337 19.6534 23.2875 19.7728C23.2583 19.8026 23.229 19.8622 23.1705 19.8921C23.0828 19.9815 22.9951 20.071 22.8781 20.1605C22.8196 20.2202 22.7319 20.2798 22.6441 20.3395C20.1875 22.3379 16.6489 22.1589 14.4262 19.8921C13.8121 19.2657 13.3442 18.5499 13.0517 17.7147C12.7593 16.969 12.6423 16.1935 12.6423 15.418C12.6423 15.1198 12.6715 14.8215 12.7008 14.5531C12.7593 14.1057 12.8763 13.6881 13.0225 13.2705C13.3442 12.4353 13.8121 11.6897 14.4555 11.0335Z" fill="#2D2D2D"/>
<path d="M36.7409 31.6139L37.0626 31.0472C37.1211 30.9279 37.1211 30.7788 37.0626 30.6595C37.0041 30.5402 36.8579 30.4507 36.7409 30.4507H3.25521C3.10899 30.4507 2.99201 30.5402 2.93352 30.6595C2.87503 30.7788 2.87503 30.9279 2.93352 31.0472L3.25521 31.6139C3.81087 32.5684 4.86369 33.1649 5.94576 33.1649H34.0211C35.1324 33.1649 36.156 32.5684 36.7409 31.6139ZM3.6354 31.4051L3.34295 30.9279H36.6239L36.3314 31.4051C35.8343 32.2403 34.9569 32.7474 33.9918 32.7474H5.91652C5.00992 32.7474 4.13257 32.2105 3.6354 31.4051Z" fill="#2D2D2D"/>
<path d="M18.8135 17.2375C18.9013 17.2375 19.0182 17.2375 19.106 17.2077C19.5739 17.1182 19.9541 16.8796 20.2173 16.4918C20.4805 16.1041 20.5975 15.6268 20.5097 15.1794C20.3343 14.225 19.4569 13.5688 18.4918 13.7179C17.556 13.8969 16.9126 14.7917 17.0588 15.776C17.2343 16.6409 17.9654 17.2375 18.8135 17.2375ZM18.5796 14.1653C18.6673 14.1653 18.7258 14.1355 18.8135 14.1355C19.0767 14.1355 19.3399 14.225 19.5739 14.3741C19.8663 14.5829 20.0418 14.8812 20.1003 15.2391C20.1588 15.597 20.0711 15.9549 19.8663 16.2234C19.6616 16.5216 19.3692 16.7006 19.0182 16.7603C18.3163 16.8796 17.6437 16.4023 17.4975 15.6567C17.4097 14.9706 17.8777 14.2846 18.5796 14.1653Z" fill="#D79B00"/>
<path d="M14.3687 15.5673L14.6612 15.5374C14.7489 15.5374 14.8659 15.5673 14.9244 15.6269C15.0121 15.6866 15.0414 15.7761 15.0706 15.8954C15.0706 15.9848 15.0414 16.1041 14.9829 16.1638C14.9244 16.2533 14.8366 16.2831 14.7197 16.3129L14.4272 16.3428C14.3687 16.3428 14.3102 16.3726 14.281 16.4322C14.2517 16.4919 14.2225 16.5515 14.2517 16.6112C14.4565 17.4165 14.8366 18.1622 15.3923 18.7587C15.4216 18.8184 15.5093 18.8482 15.5678 18.8184C15.6263 18.8184 15.6848 18.7886 15.714 18.7289L15.9187 18.4903C16.0357 18.3412 16.2989 18.3113 16.4451 18.4306C16.6206 18.5499 16.6206 18.8184 16.5036 18.9675L16.3281 19.236C16.2989 19.2956 16.2697 19.3553 16.2697 19.4149C16.2697 19.4746 16.3281 19.5342 16.3574 19.5641C17.0593 19.9816 17.8489 20.2203 18.6678 20.2501C18.7262 20.2501 18.7847 20.2203 18.814 20.1904C18.8432 20.1308 18.8725 20.0711 18.8725 20.0115L18.8432 19.7132C18.8432 19.6237 18.8725 19.5044 18.931 19.4448C18.9895 19.3553 19.0772 19.3254 19.1942 19.2956C19.3989 19.2658 19.5744 19.4149 19.6036 19.6237L19.6328 19.922C19.6328 19.9816 19.6621 20.0413 19.7206 20.0711C19.7791 20.1009 19.8376 20.1308 19.8961 20.1009C20.6857 19.8922 21.4168 19.5044 22.0017 18.9377C22.0602 18.9079 22.0602 18.8184 22.0602 18.7587C22.0602 18.6991 22.0309 18.6394 21.9725 18.6096L21.7385 18.4008C21.5923 18.2815 21.563 18.0131 21.68 17.8639C21.797 17.7148 22.0602 17.685 22.2064 17.8043L22.4404 18.0131C22.4989 18.0429 22.5574 18.0727 22.6159 18.0727C22.6743 18.0727 22.7328 18.0131 22.7621 17.9832C23.1715 17.2674 23.4055 16.4621 23.4347 15.6269C23.4347 15.5673 23.4055 15.5076 23.3762 15.448C23.3177 15.4181 23.2592 15.3883 23.2008 15.3883L22.9083 15.4181C22.7036 15.448 22.5281 15.2988 22.4989 15.09C22.4989 15.0006 22.5281 14.8812 22.5866 14.8216C22.6451 14.7321 22.7328 14.7023 22.8498 14.6725L23.1423 14.6426C23.2008 14.6426 23.2592 14.6128 23.2885 14.5531C23.3177 14.4935 23.347 14.4338 23.3177 14.3742C23.113 13.5689 22.7328 12.8232 22.1772 12.2267C22.1479 12.167 22.0894 12.167 22.0017 12.167C21.9432 12.167 21.8847 12.1968 21.8555 12.2565L21.6508 12.4951C21.5338 12.6741 21.2706 12.6741 21.1244 12.5547C20.9781 12.4354 20.9489 12.167 21.0659 12.0179L21.2706 11.7793C21.2998 11.7196 21.3291 11.6599 21.3291 11.6003C21.3291 11.5406 21.2706 11.481 21.2413 11.4512C20.5394 11.0336 19.7498 10.795 18.931 10.7651C18.8725 10.7651 18.814 10.795 18.7555 10.8248C18.7262 10.8844 18.697 10.9441 18.697 11.0038L18.7263 11.302C18.7263 11.3915 18.697 11.5108 18.6385 11.5705C18.58 11.6599 18.4923 11.6898 18.3753 11.7196C18.2876 11.7196 18.1706 11.6898 18.1121 11.6301C18.0244 11.5705 17.9951 11.481 17.9659 11.3617L17.9366 11.0634C17.9366 11.0038 17.9074 10.9441 17.8489 10.9143C17.7904 10.8844 17.7319 10.8546 17.6734 10.8844C16.8838 11.0932 16.1527 11.481 15.5678 12.0477C15.5093 12.0775 15.5093 12.167 15.5093 12.2267C15.5093 12.2863 15.5385 12.346 15.597 12.3758L15.831 12.5846C16.0065 12.7039 16.0065 12.9723 15.8895 13.1215C15.7725 13.3004 15.5093 13.3004 15.3631 13.1811L15.1291 12.9723C15.0706 12.9425 15.0121 12.9127 14.9536 12.9127C14.8951 12.9127 14.8366 12.9723 14.8074 13.0022C14.398 13.718 14.164 14.5233 14.1348 15.3585C14.1348 15.4181 14.164 15.4778 14.1933 15.5374C14.2517 15.5673 14.3102 15.5971 14.3687 15.5673ZM15.0706 13.4496L15.0999 13.4794C15.4508 13.7478 15.948 13.718 16.2404 13.3601C16.5036 13.0022 16.4744 12.4951 16.1234 12.1968L16.0942 12.167C16.5329 11.7793 17.03 11.5108 17.5857 11.3318V11.3915C17.6149 11.6003 17.7027 11.8091 17.8781 11.9582C18.0536 12.1073 18.2583 12.167 18.463 12.1372C18.6678 12.1073 18.8725 12.0179 19.0187 11.8389C19.1649 11.6599 19.2234 11.4512 19.1942 11.2424V11.1827C19.7498 11.2424 20.3055 11.3915 20.8319 11.6599L20.8027 11.6898C20.5394 12.0477 20.5687 12.5547 20.9196 12.853C21.2706 13.1215 21.7677 13.0916 22.0602 12.7337L22.0894 12.7039C22.4696 13.1513 22.7328 13.6583 22.9083 14.2251H22.8498C22.6451 14.2549 22.4404 14.3444 22.2942 14.5233C22.1479 14.7023 22.0894 14.9111 22.1187 15.1199C22.1772 15.5673 22.5574 15.8954 22.996 15.8357H23.0545C22.996 16.4024 22.8498 16.9691 22.5866 17.506L22.5281 17.4762C22.1772 17.2077 21.68 17.2376 21.3876 17.5955C21.1244 17.9534 21.1536 18.4605 21.5045 18.7587L21.5338 18.7886C21.0951 19.1763 20.5979 19.4448 20.0423 19.6237V19.5641C19.9838 19.1167 19.6036 18.7886 19.1649 18.8482C18.9602 18.878 18.7555 18.9675 18.6093 19.1465C18.463 19.3254 18.4046 19.5342 18.4338 19.743V19.8027C17.8781 19.743 17.3225 19.5939 16.7961 19.3254L16.8253 19.2956C17.0885 18.9377 17.0593 18.4306 16.7083 18.1324C16.3574 17.8639 15.8602 17.8938 15.5678 18.2517L15.5385 18.2815C15.1583 17.8341 14.8951 17.327 14.7197 16.7603H14.7782C14.9829 16.7305 15.1876 16.641 15.3338 16.4621C15.48 16.2831 15.5385 16.0743 15.5093 15.8655C15.48 15.6567 15.3923 15.448 15.2168 15.2988C15.0414 15.1497 14.8366 15.09 14.6319 15.1199H14.5734C14.6319 14.5233 14.8074 13.9864 15.0706 13.4496Z" fill="#2D2D2D"/>
<path d="M15.539 23.8592C15.4512 23.7995 15.305 23.8293 15.2465 23.9188C15.188 24.0083 15.2173 24.1574 15.305 24.2171L17.2644 25.4698L15.305 26.7225C15.2173 26.7822 15.1588 26.9313 15.2465 27.0208C15.2758 27.0805 15.3635 27.1103 15.422 27.1103C15.4512 27.1103 15.5097 27.1103 15.539 27.0805L17.7909 25.6488C17.8493 25.6189 17.8786 25.5295 17.8786 25.4698C17.8786 25.4102 17.8493 25.3207 17.7909 25.2908L15.539 23.8592Z" fill="#D79B00"/>
<path d="M10.9172 23.9189C10.8587 23.8294 10.7125 23.7697 10.6248 23.8592L8.37289 25.2909C8.3144 25.3207 8.28516 25.4102 8.28516 25.4699C8.28516 25.5295 8.3144 25.619 8.37289 25.6488L10.6248 27.0805C10.654 27.1103 10.7125 27.1103 10.7417 27.1103C10.8002 27.1103 10.888 27.0805 10.9172 27.0209C10.9757 26.9314 10.9465 26.7822 10.8587 26.7226L8.8993 25.4699L10.8587 24.2171C10.9465 24.1575 10.9757 24.0382 10.9172 23.9189Z" fill="#D79B00"/>
<path d="M13.9584 23.0835C13.8414 23.0537 13.7244 23.0835 13.6952 23.2028L12.0867 27.5277C12.0575 27.647 12.0867 27.7663 12.2037 27.7962C12.2329 27.7962 12.2622 27.7962 12.2914 27.7962C12.3792 27.7962 12.4669 27.7365 12.4962 27.647L14.1046 23.3221C14.1339 23.2326 14.0754 23.1133 13.9584 23.0835Z" fill="#D79B00"/>
</svg>
