<svg width="40" height="40" viewBox="0 0 40 40" fill="none" xmlns="http://www.w3.org/2000/svg">
<path d="M18.0791 22.0118L17.5292 21.3662C17.4192 21.2451 17.2359 21.2451 17.1626 21.3662C17.0526 21.4872 17.0526 21.689 17.1626 21.7697L17.7492 22.4153C17.7858 22.4557 17.8591 22.496 17.9325 22.496C18.0058 22.496 18.0791 22.4557 18.1158 22.4153C18.1891 22.2942 18.1891 22.0925 18.0791 22.0118Z" fill="#2D2D2D"/>
<path d="M19.5828 24.4739C19.6194 24.5142 19.6927 24.5546 19.7661 24.5546C19.8394 24.5546 19.9127 24.5142 19.9494 24.4739C20.0594 24.3528 20.0594 24.1511 19.9494 24.0704L19.3628 23.4248C19.2528 23.3037 19.0695 23.3037 18.9962 23.4248C18.9228 23.5458 18.8862 23.7476 18.9962 23.8283L19.5828 24.4739Z" fill="#2D2D2D"/>
<path d="M17.713 23.4241L17.1264 24.0697C17.0164 24.1907 17.0164 24.3925 17.1264 24.4732C17.1631 24.5135 17.2364 24.5539 17.3097 24.5539C17.3831 24.5539 17.4564 24.5135 17.493 24.4732L18.0796 23.8276C18.1896 23.7065 18.1896 23.5048 18.0796 23.4241C17.9696 23.3434 17.823 23.303 17.713 23.4241Z" fill="#2D2D2D"/>
<path d="M19.216 22.496C19.2893 22.496 19.3626 22.4557 19.3993 22.4153L19.9859 21.7697C20.0959 21.6486 20.0959 21.4469 19.9859 21.3662C19.8759 21.2451 19.6926 21.2451 19.6193 21.3662L19.0327 22.0118C18.9227 22.1328 18.9227 22.3346 19.0327 22.4153C19.0693 22.4557 19.1427 22.496 19.216 22.496Z" fill="#2D2D2D"/>
<path d="M37.4972 22.5349C37.5339 22.5753 37.6072 22.6156 37.6805 22.6156C37.7538 22.6156 37.8272 22.5753 37.8638 22.5349C37.9738 22.4139 37.9738 22.2121 37.8638 22.1314L37.2772 21.4858C37.1672 21.3648 36.9839 21.3648 36.9106 21.4858C36.8006 21.6069 36.8006 21.8086 36.9106 21.8893L37.4972 22.5349Z" fill="#2D2D2D"/>
<path d="M39.1835 23.5444C39.0735 23.4234 38.8902 23.4234 38.8169 23.5444C38.7069 23.6655 38.7069 23.8672 38.8169 23.9479L39.4034 24.5935C39.4401 24.6339 39.5134 24.6742 39.5868 24.6742C39.6601 24.6742 39.7334 24.6339 39.7701 24.5935C39.88 24.4725 39.88 24.2707 39.7701 24.19L39.1835 23.5444Z" fill="#2D2D2D"/>
<path d="M37.3143 24.5935L37.9009 23.9479C38.0109 23.8269 38.0109 23.6251 37.9009 23.5444C37.7909 23.4234 37.6076 23.4234 37.5343 23.5444L36.9477 24.19C36.8377 24.3111 36.8377 24.5128 36.9477 24.5935C36.9844 24.6339 37.0577 24.6742 37.131 24.6742C37.2044 24.6742 37.241 24.6742 37.3143 24.5935Z" fill="#2D2D2D"/>
<path d="M39.3673 21.4858L38.7807 22.1314C38.6707 22.2525 38.6707 22.4542 38.7807 22.5349C38.8174 22.5753 38.8907 22.6156 38.964 22.6156C39.0374 22.6156 39.1107 22.5753 39.1473 22.5349L39.7339 21.8893C39.8439 21.7683 39.8439 21.5665 39.7339 21.4858C39.6606 21.3648 39.4773 21.3648 39.3673 21.4858Z" fill="#2D2D2D"/>
<path d="M39.743 9.38902C39.8896 9.38902 39.9996 9.26797 39.9996 9.10656V4.95042C39.9996 4.78902 39.8896 4.66797 39.743 4.66797C39.5963 4.66797 39.4863 4.78902 39.4863 4.95042V9.06621C39.4863 9.26797 39.5963 9.38902 39.743 9.38902Z" fill="#2D2D2D"/>
<path d="M39.4863 12.5362C39.4863 12.6976 39.5963 12.8186 39.743 12.8186C39.8896 12.8186 39.9996 12.6976 39.9996 12.5362V11.0432C39.9996 10.8818 39.8896 10.7607 39.743 10.7607C39.5963 10.7607 39.4863 10.8818 39.4863 11.0432V12.5362Z" fill="#2D2D2D"/>
<path d="M1.43514 23.8684C1.43514 23.707 1.32515 23.5859 1.17851 23.5859C1.03186 23.5859 0.921875 23.707 0.921875 23.8684V27.9842C0.921875 28.1456 1.03186 28.2666 1.17851 28.2666C1.32515 28.2666 1.43514 28.1456 1.43514 27.9842V23.8684Z" fill="#2D2D2D"/>
<path d="M1.1414 29.6382C0.99475 29.6382 0.884766 29.7592 0.884766 29.9206V31.4136C0.884766 31.575 0.99475 31.6961 1.1414 31.6961C1.28804 31.6961 1.39803 31.575 1.39803 31.4136V29.9206C1.43469 29.7996 1.3247 29.6382 1.1414 29.6382Z" fill="#2D2D2D"/>
<path d="M26.0774 15.7768C26.0774 14.9294 25.4541 14.2031 24.6476 14.2031C23.8777 14.2031 23.2178 14.8891 23.2178 15.7768C23.2178 16.6242 23.841 17.3505 24.6476 17.3505C25.4541 17.3505 26.0774 16.6645 26.0774 15.7768ZM23.8044 15.7768C23.8044 15.2522 24.2076 14.8084 24.6842 14.8084C25.1608 14.8084 25.5641 15.2522 25.5641 15.7768C25.5641 16.3014 25.1608 16.7452 24.6842 16.7452C24.171 16.7452 23.8044 16.3417 23.8044 15.7768Z" fill="#D79B00"/>
<path d="M38.2579 36.5664C37.488 36.5664 36.8281 37.2524 36.8281 38.1401C36.8281 39.0278 37.4514 39.7138 38.2579 39.7138C39.0278 39.7138 39.6877 39.0278 39.6877 38.1401C39.6877 37.2524 39.0278 36.5664 38.2579 36.5664ZM38.2579 39.1085C37.7813 39.1085 37.378 38.6647 37.378 38.1401C37.378 37.6155 37.7813 37.1717 38.2579 37.1717C38.7345 37.1717 39.1378 37.6155 39.1378 38.1401C39.1378 38.6647 38.7345 39.1085 38.2579 39.1085Z" fill="#2D2D2D"/>
<path d="M31.7693 0.564912H36.462C36.6087 0.564912 36.7186 0.443859 36.7186 0.282456C36.7186 0.121052 36.6087 0 36.462 0H31.7693C31.6227 0 31.5127 0.121052 31.5127 0.282456C31.5127 0.443859 31.6227 0.564912 31.7693 0.564912Z" fill="#2D2D2D"/>
<path d="M37.9656 0.564912H39.4687C39.6154 0.564912 39.7254 0.443859 39.7254 0.282456C39.7254 0.121052 39.6154 0 39.4687 0H37.9656C37.819 0 37.709 0.121052 37.709 0.282456C37.709 0.443859 37.819 0.564912 37.9656 0.564912Z" fill="#D79B00"/>
<path d="M39.5049 1.73486H36.242C36.0953 1.73486 35.9854 1.85592 35.9854 2.01732C35.9854 2.17872 36.0953 2.29978 36.242 2.29978H39.5049C39.6515 2.29978 39.7615 2.17872 39.7615 2.01732C39.7615 1.89627 39.6515 1.73486 39.5049 1.73486Z" fill="#2D2D2D"/>
<path d="M34.812 1.73486H33.7488C33.6022 1.73486 33.4922 1.85592 33.4922 2.01732C33.4922 2.17872 33.6022 2.29978 33.7488 2.29978H34.812C34.9587 2.29978 35.0686 2.17872 35.0686 2.01732C35.1053 1.89627 34.9953 1.73486 34.812 1.73486Z" fill="#2D2D2D"/>
<path d="M8.36435 39.2305H3.67167C3.52502 39.2305 3.41504 39.3515 3.41504 39.5129C3.41504 39.6743 3.52502 39.7954 3.67167 39.7954H8.36435C8.511 39.7954 8.62099 39.6743 8.62099 39.5129C8.62099 39.3515 8.511 39.2305 8.36435 39.2305Z" fill="#2D2D2D"/>
<path d="M2.13183 39.2305H0.628701C0.482055 39.2305 0.37207 39.3515 0.37207 39.5129C0.37207 39.6743 0.482055 39.7954 0.628701 39.7954H2.13183C2.27847 39.7954 2.38846 39.6743 2.38846 39.5129C2.38846 39.3515 2.27847 39.2305 2.13183 39.2305Z" fill="#D79B00"/>
<path d="M0.62854 38.0605H3.89142C4.03807 38.0605 4.14805 37.9395 4.14805 37.7781C4.14805 37.6167 4.03807 37.4956 3.89142 37.4956H0.62854C0.481893 37.4956 0.371909 37.6167 0.371909 37.7781C0.335247 37.8991 0.481893 38.0605 0.62854 38.0605Z" fill="#2D2D2D"/>
<path d="M5.28397 38.0605H6.34716C6.49381 38.0605 6.60379 37.9395 6.60379 37.7781C6.60379 37.6167 6.49381 37.4956 6.34716 37.4956H5.28397C5.13733 37.4956 5.02734 37.6167 5.02734 37.7781C5.02734 37.8991 5.13733 38.0605 5.28397 38.0605Z" fill="#2D2D2D"/>
<path d="M33.0694 20.228H24.2494C23.6649 20.228 23.1602 20.7568 23.1602 21.4326V38.7954C23.1602 39.4417 23.6384 39.9999 24.2494 39.9999H33.0694C33.6539 39.9999 34.1586 39.4711 34.1586 38.7954V21.4032C34.1586 20.7568 33.6804 20.228 33.0694 20.228ZM23.5587 23.0778H33.7601V37.0914H23.5587V23.0778ZM24.2494 20.6393H33.0694C33.4413 20.6393 33.7601 20.9919 33.7601 21.4032V22.6371H23.5587V21.4032C23.5587 20.9919 23.8774 20.6393 24.2494 20.6393ZM33.0694 39.5299H24.2494C23.8774 39.5299 23.5587 39.1773 23.5587 38.766V37.5321H33.7601V38.766C33.7601 39.2067 33.4679 39.5299 33.0694 39.5299Z" fill="#2D2D2D"/>
<path d="M28.1032 21.8425H29.2187C29.3179 21.8425 29.3922 21.756 29.3922 21.6407C29.3922 21.5254 29.3179 21.439 29.2187 21.439H28.1032C28.004 21.439 27.9296 21.5254 27.9296 21.6407C27.9048 21.7272 28.004 21.8425 28.1032 21.8425Z" fill="#2D2D2D"/>
<path d="M29.9392 38.3862H27.3764C27.2718 38.3862 27.1934 38.4727 27.1934 38.588C27.1934 38.7033 27.2718 38.7897 27.3764 38.7897H29.9392C30.0438 38.7897 30.1222 38.7033 30.1222 38.588C30.1484 38.4727 30.0438 38.3862 29.9392 38.3862Z" fill="#2D2D2D"/>
<path d="M24.8127 25.4743H32.5068C32.6129 25.4743 32.6925 25.3878 32.6925 25.2726C32.6925 25.1573 32.6129 25.0708 32.5068 25.0708H24.8127C24.7065 25.0708 24.627 25.1573 24.627 25.2726C24.627 25.359 24.7065 25.4743 24.8127 25.4743Z" fill="#2D2D2D"/>
<path d="M24.7779 27.4914H25.2092C25.2955 27.4914 25.3602 27.4049 25.3602 27.2896C25.3602 27.1744 25.2955 27.0879 25.2092 27.0879H24.7779C24.6916 27.0879 24.627 27.1744 24.627 27.2896C24.627 27.3761 24.6916 27.4914 24.7779 27.4914Z" fill="#2D2D2D"/>
<path d="M27.1926 27.2874C27.1926 27.1734 27.0956 27.0879 26.9662 27.0879H26.3192C26.1898 27.0879 26.0928 27.1734 26.0928 27.2874C26.0928 27.4015 26.1898 27.487 26.3192 27.487H26.9662C27.0956 27.5155 27.1926 27.4015 27.1926 27.2874Z" fill="#2D2D2D"/>
<path d="M28.5081 27.4914C28.5943 27.4914 28.659 27.4049 28.659 27.2896C28.659 27.1744 28.5943 27.0879 28.5081 27.0879H28.0767C27.9905 27.0879 27.9258 27.1744 27.9258 27.2896C27.9258 27.4049 27.9905 27.4914 28.0767 27.4914H28.5081Z" fill="#2D2D2D"/>
<path d="M30.1258 27.2874C30.1258 27.1734 30.0611 27.0879 29.9748 27.0879H29.5435C29.4573 27.0879 29.3926 27.1734 29.3926 27.2874C29.3926 27.4015 29.4573 27.487 29.5435 27.487H29.9748C30.0611 27.5155 30.1258 27.4015 30.1258 27.2874Z" fill="#2D2D2D"/>
<path d="M27.5596 29.3072C27.5596 29.4225 27.6415 29.509 27.7507 29.509H29.0884H29.1157H29.143H29.9348C30.044 29.509 30.1259 29.4225 30.1259 29.3072C30.1259 29.1919 30.044 29.1055 29.9348 29.1055H29.143H29.1157H29.0884H27.7507C27.6415 29.1055 27.5596 29.1919 27.5596 29.3072Z" fill="#D79B00"/>
<path d="M26.9866 29.509H27.0324C27.124 29.509 27.1928 29.4225 27.1928 29.3072C27.1928 29.1919 27.124 29.1055 27.0324 29.1055H26.9866C26.8949 29.1055 26.8262 29.1919 26.8262 29.3072C26.8262 29.4225 26.8949 29.509 26.9866 29.509Z" fill="#D79B00"/>
<path d="M24.8019 29.509H25.5518C25.6518 29.509 25.7268 29.4225 25.7268 29.3072C25.7268 29.1919 25.6518 29.1055 25.5518 29.1055H24.8019C24.7019 29.1055 24.627 29.1919 24.627 29.3072C24.627 29.4225 24.7019 29.509 24.8019 29.509Z" fill="#D79B00"/>
<path d="M24.8122 31.5261H32.1407C32.2465 31.5261 32.3259 31.4396 32.3259 31.3243C32.3259 31.209 32.2465 31.1226 32.1407 31.1226H24.8122C24.7063 31.1226 24.627 31.209 24.627 31.3243C24.627 31.4396 24.7063 31.5261 24.8122 31.5261Z" fill="#2D2D2D"/>
<path d="M29.5435 33.1406C29.4573 33.1406 29.3926 33.2271 29.3926 33.3424C29.3926 33.4577 29.4573 33.5441 29.5435 33.5441H29.9748C30.0611 33.5441 30.1258 33.4577 30.1258 33.3424C30.1258 33.2271 30.0611 33.1406 29.9748 33.1406H29.5435Z" fill="#2D2D2D"/>
<path d="M26.3192 33.1406C26.1898 33.1406 26.0928 33.2271 26.0928 33.3424C26.0928 33.4577 26.1898 33.5441 26.3192 33.5441H26.9662C27.0956 33.5441 27.1926 33.4577 27.1926 33.3424C27.1926 33.2271 27.0956 33.1406 26.9662 33.1406H26.3192Z" fill="#2D2D2D"/>
<path d="M24.7779 33.5441H25.2092C25.2955 33.5441 25.3602 33.4577 25.3602 33.3424C25.3602 33.2271 25.2955 33.1406 25.2092 33.1406H24.7779C24.6916 33.1406 24.627 33.2271 24.627 33.3424C24.627 33.4577 24.6916 33.5441 24.7779 33.5441Z" fill="#2D2D2D"/>
<path d="M31.0858 33.1406C30.9564 33.1406 30.8594 33.2271 30.8594 33.3424C30.8594 33.4577 30.9564 33.5441 31.0858 33.5441H31.7328C31.8622 33.5441 31.9592 33.4577 31.9592 33.3424C31.9592 33.2271 31.8622 33.1406 31.7328 33.1406H31.0858Z" fill="#2D2D2D"/>
<path d="M28.0767 33.1406C27.9905 33.1406 27.9258 33.2271 27.9258 33.3424C27.9258 33.4577 27.9905 33.5441 28.0767 33.5441H28.5081C28.5943 33.5441 28.659 33.4577 28.659 33.3424C28.659 33.2271 28.5943 33.1406 28.5081 33.1406H28.0767Z" fill="#2D2D2D"/>
<path d="M32.5018 35.1582H24.8126C24.7065 35.1582 24.627 35.2447 24.627 35.36C24.627 35.4752 24.7065 35.5617 24.8126 35.5617H32.5018C32.6079 35.5617 32.6874 35.4752 32.6874 35.36C32.7139 35.2735 32.6344 35.1582 32.5018 35.1582Z" fill="#2D2D2D"/>
<path d="M19.5459 32.3819C19.5459 32.3012 19.5092 32.2205 19.4359 32.1398L18.0794 30.8486C17.9695 30.7275 17.7862 30.7679 17.7128 30.8889C17.6028 31.01 17.6395 31.2117 17.7495 31.2924L18.4827 32.0188C16.5763 31.817 14.7799 30.8486 13.4601 29.2749C11.9936 27.5398 11.1871 25.2802 11.2604 22.8995C11.2604 22.7381 11.1504 22.617 11.0038 22.5767C10.8571 22.5767 10.7471 22.6977 10.7105 22.8591C10.6371 25.4012 11.4804 27.8223 13.0568 29.6381C14.5233 31.3328 16.4297 32.3819 18.5194 32.5837L17.6762 33.31C17.5662 33.3907 17.5295 33.5924 17.6395 33.7135C17.6762 33.7942 17.7862 33.8345 17.8595 33.8345C17.9328 33.8345 17.9695 33.8345 18.0061 33.7538L19.4359 32.5433C19.5092 32.5837 19.5459 32.4626 19.5459 32.3819Z" fill="#2D2D2D"/>
<path d="M4.9176 21.7291C5.06425 21.7291 5.17423 21.6081 5.17423 21.4467V21.366C5.17423 21.2045 5.06425 21.0835 4.9176 21.0835C4.77096 21.0835 4.66097 21.2045 4.66097 21.366V21.4467C4.62431 21.6081 4.77096 21.7291 4.9176 21.7291Z" fill="#2D2D2D"/>
<path d="M16.026 38.0313C15.4761 37.8296 14.9262 37.5875 14.3763 37.305H14.3396H14.3029C13.7897 37.0226 13.2398 36.6998 12.7632 36.3769C12.6532 36.2962 12.4699 36.3366 12.3965 36.4576C12.3232 36.5787 12.3599 36.7805 12.4699 36.8612C12.9831 37.2243 13.5331 37.5471 14.083 37.8296H14.1196C14.1196 37.8296 14.1563 37.8296 14.1563 37.8699C14.7062 38.1524 15.2928 38.3945 15.8427 38.6366C15.8794 38.6366 15.9161 38.6366 15.9161 38.6366C16.026 38.6366 16.136 38.5559 16.1727 38.4348C16.246 38.2734 16.1727 38.0717 16.026 38.0313Z" fill="#D79B00"/>
<path d="M21.306 39C20.7194 39 20.1328 38.9596 19.5462 38.8789C19.3996 38.8789 19.2529 38.9596 19.2529 39.1614C19.2529 39.3228 19.3263 39.4842 19.5096 39.4842C20.0961 39.5649 20.7194 39.6052 21.3426 39.6052C21.4893 39.6052 21.5993 39.4842 21.5993 39.3228C21.5626 39.1614 21.4526 39 21.306 39Z" fill="#D79B00"/>
<path d="M11.2602 35.1664C11.1502 35.0453 10.9669 35.0857 10.8936 35.2067C10.7836 35.3278 10.8202 35.5295 10.9302 35.6102L11.0035 35.6506C11.0402 35.6909 11.1135 35.7313 11.1868 35.7313C11.2602 35.7313 11.3335 35.6909 11.4068 35.6102C11.5168 35.4892 11.4801 35.2874 11.3702 35.2067L11.2602 35.1664Z" fill="#2D2D2D"/>
<path d="M17.7864 38.5962H17.713C17.5664 38.5558 17.4197 38.6769 17.3831 38.8383C17.3464 38.9997 17.4564 39.1611 17.6031 39.2015H17.6764C17.713 39.2015 17.713 39.2015 17.7497 39.2015C17.8597 39.2015 17.9697 39.1208 18.0063 38.9594C18.043 38.798 17.933 38.6366 17.7864 38.5962Z" fill="#2D2D2D"/>
<path d="M8.76783 32.4223C8.76783 32.4223 8.73117 32.4223 8.76783 32.4223C8.73117 32.3819 8.73117 32.3819 8.73117 32.3819C8.36456 31.8574 7.99794 31.3328 7.70465 30.8082C7.63133 30.6872 7.44802 30.6468 7.33803 30.7275C7.22805 30.8082 7.19139 31.01 7.26471 31.131C7.59466 31.696 7.96128 32.2609 8.3279 32.7451C8.3279 32.7451 8.3279 32.7854 8.36456 32.7854C8.36456 32.7854 8.36456 32.8258 8.40122 32.8258C8.76783 33.3503 9.20777 33.8345 9.61105 34.3188C9.64771 34.3591 9.72104 34.3995 9.79436 34.3995C9.86768 34.3995 9.94101 34.3591 9.97767 34.3188C10.0877 34.1977 10.0877 33.996 9.97767 33.9152C9.53773 33.431 9.13445 32.9468 8.76783 32.4223Z" fill="#D79B00"/>
<path d="M5.0646 25.4823C5.21125 26.1683 5.39455 26.8139 5.57786 27.4595C5.61452 27.5806 5.72451 27.6613 5.83449 27.6613C5.87115 27.6613 5.90782 27.6613 5.90782 27.6613C6.05446 27.6209 6.12779 27.4192 6.05446 27.2981C5.87115 26.6928 5.68785 26.0472 5.5412 25.442V25.4016V25.3613C5.39455 24.7156 5.32123 24.07 5.24791 23.4648C5.24791 23.3034 5.10126 23.1823 4.95461 23.2227C4.80797 23.2227 4.69798 23.3841 4.73464 23.5455C4.80797 24.1104 4.91795 24.7963 5.0646 25.4823C5.0646 25.442 5.0646 25.442 5.0646 25.4823Z" fill="#D79B00"/>
<path d="M6.82434 29.1137L6.78768 29.033C6.71435 28.8716 6.56771 28.8312 6.42106 28.9119C6.27441 28.9926 6.23775 29.154 6.31108 29.3154L6.34774 29.3961C6.3844 29.5172 6.49438 29.5575 6.60437 29.5575C6.64103 29.5575 6.67769 29.5575 6.71435 29.5172C6.82434 29.4365 6.89766 29.2347 6.82434 29.1137Z" fill="#2D2D2D"/>
<path d="M23.6943 8.07002C23.6943 8.15072 23.731 8.23142 23.8043 8.31212L25.1608 9.60335C25.1975 9.6437 25.2708 9.68405 25.3441 9.68405C25.4174 9.68405 25.4908 9.6437 25.5641 9.563C25.6741 9.44195 25.6374 9.24019 25.5274 9.15949L24.7942 8.43318C26.7006 8.63493 28.497 9.60335 29.8168 11.177C31.2833 12.9121 32.0898 15.1718 32.0165 17.5525C32.0165 17.7139 32.1265 17.8349 32.2731 17.8753C32.4198 17.8753 32.5298 17.7542 32.5298 17.5928C32.6031 15.0507 31.7599 12.6297 30.1834 10.8139C28.717 9.11914 26.8106 8.11037 24.7209 7.86827L25.5641 7.14195C25.6741 7.06125 25.7107 6.85949 25.6007 6.73844C25.5274 6.61739 25.3441 6.57704 25.2341 6.69809L23.8043 7.90862C23.731 7.90862 23.6943 7.98932 23.6943 8.07002Z" fill="#2D2D2D"/>
<path d="M38.3221 18.7227C38.1754 18.7227 38.0654 18.8437 38.0654 19.0051V19.0858C38.0654 19.2472 38.1754 19.3683 38.3221 19.3683C38.4687 19.3683 38.5787 19.2472 38.5787 19.0858V19.0051C38.5787 18.8437 38.4687 18.7227 38.3221 18.7227Z" fill="#2D2D2D"/>
<path d="M36.4522 11.4596C36.4889 11.5807 36.5989 11.621 36.7089 11.621C36.7455 11.621 36.7822 11.621 36.8188 11.5807C36.9655 11.5 37.0022 11.3386 36.9288 11.1772L36.8922 11.0965C36.8188 10.9351 36.6722 10.8947 36.5256 10.9754C36.3789 11.0561 36.3422 11.2175 36.4156 11.3789L36.4522 11.4596Z" fill="#2D2D2D"/>
<path d="M37.626 15.0911C37.626 15.0911 37.626 15.1315 37.626 15.0911C37.626 15.1315 37.626 15.1718 37.626 15.1718C37.7727 15.8174 37.846 16.463 37.9193 17.0683C37.9193 17.2297 38.0659 17.3104 38.1759 17.3104H38.2126C38.3592 17.3104 38.4692 17.149 38.4326 16.9876C38.3592 16.342 38.2493 15.656 38.1026 15.0104V14.9701V14.9297C37.956 14.2841 37.7727 13.6385 37.5893 12.9929C37.5527 12.8315 37.3694 12.7508 37.2594 12.8315C37.1127 12.8718 37.0394 13.0736 37.1127 13.1946C37.3327 13.8402 37.4794 14.4858 37.626 15.0911Z" fill="#D79B00"/>
<path d="M34.473 8.02927C34.473 8.02927 34.473 8.06962 34.473 8.02927C34.5096 8.06962 34.5096 8.06962 34.5096 8.06962C34.8763 8.59418 35.2062 9.11874 35.5362 9.6433C35.5728 9.72401 35.6828 9.76436 35.7561 9.76436C35.7928 9.76436 35.8661 9.76436 35.9028 9.72401C36.0128 9.64331 36.0494 9.44155 35.9761 9.3205C35.6462 8.75559 35.2795 8.19067 34.9129 7.70646C34.9129 7.70646 34.9129 7.66611 34.8763 7.66611C34.8763 7.66611 34.8763 7.62576 34.8396 7.62576C34.473 7.1012 34.033 6.61699 33.6298 6.13278C33.5198 6.01173 33.3365 6.01173 33.2632 6.13278C33.1532 6.25383 33.1532 6.45559 33.2632 6.53629C33.7031 7.06085 34.1064 7.54506 34.473 8.02927Z" fill="#D79B00"/>
<path d="M23.7313 1.57348C23.878 1.57348 23.9879 1.45243 23.9879 1.29103C23.9879 1.12962 23.9146 0.968221 23.7313 0.968221C23.1447 0.887519 22.5215 0.847168 21.8982 0.847168C21.7516 0.847168 21.6416 0.96822 21.6416 1.12962C21.6416 1.29103 21.7882 1.45243 21.9349 1.45243C22.5215 1.45243 23.1081 1.49278 23.7313 1.57348C23.7313 1.57348 23.6947 1.57348 23.7313 1.57348Z" fill="#D79B00"/>
<path d="M25.4536 1.89677H25.527C25.5636 1.89677 25.5636 1.89677 25.6003 1.89677C25.7103 1.89677 25.8203 1.81607 25.8569 1.65467C25.8936 1.49327 25.7836 1.33186 25.6369 1.29151H25.5636C25.417 1.25116 25.2703 1.37221 25.2337 1.53362C25.197 1.69502 25.307 1.85642 25.4536 1.89677Z" fill="#2D2D2D"/>
<path d="M31.9434 5.28582C31.9801 5.32617 32.0534 5.36652 32.1267 5.36652C32.2001 5.36652 32.2734 5.32617 32.3467 5.24547C32.4567 5.12441 32.42 4.92266 32.3101 4.84196L32.2367 4.80161C32.1268 4.68055 31.9434 4.7209 31.8701 4.84196C31.7601 4.96301 31.7968 5.16476 31.9068 5.24547L31.9434 5.28582Z" fill="#2D2D2D"/>
<path d="M27.2145 2.42041C27.7644 2.62216 28.3143 2.86427 28.8642 3.14672H28.9009H28.9376C29.4508 3.42918 30.0008 3.75199 30.4774 4.07479C30.514 4.11515 30.5873 4.11515 30.624 4.11515C30.6973 4.11515 30.8073 4.07479 30.844 3.99409C30.9173 3.87304 30.8806 3.67129 30.7706 3.59058C30.2207 3.26778 29.6708 2.94497 29.1575 2.66251C29.1209 2.66251 29.1209 2.66251 29.1209 2.66251C29.1209 2.66251 29.0842 2.66251 29.0842 2.62216C28.5343 2.33971 27.9844 2.0976 27.3978 1.8555C27.2511 1.81515 27.1045 1.89585 27.0678 2.05725C26.9945 2.21866 27.0678 2.38006 27.2145 2.42041Z" fill="#D79B00"/>
<path d="M20.4397 14.1123V1.40793C20.4397 0.8619 20.0097 0.388672 19.5136 0.388672H2.71206C2.21595 0.388672 1.78599 0.8619 1.78599 1.40793V7.52349H0.727626C0.330739 7.52349 0 7.88751 0 8.32434V18.7718C0 19.2086 0.330739 19.5726 0.727626 19.5726H6.68093C7.07782 19.5726 7.40856 19.2086 7.40856 18.7718V16.624H20.7043L21.6303 15.2043V14.1123H20.4397V14.1123ZM2.71206 0.934704H19.5136C19.7451 0.934704 19.9436 1.15312 19.9436 1.40793V2.71841H2.2821V1.40793C2.2821 1.15312 2.48054 0.934704 2.71206 0.934704ZM2.2821 3.26444H19.9436V14.1123H7.40856V8.32434C7.40856 7.88751 7.07782 7.52349 6.68093 7.52349H2.2821V3.26444ZM0.727626 8.06952H6.68093C6.81323 8.06952 6.91245 8.17873 6.91245 8.32434V9.19799H0.496109V8.32434C0.496109 8.17873 0.595331 8.06952 0.727626 8.06952ZM6.91245 9.78043V17.3521H0.496109V9.78043H6.91245ZM6.64786 19.063H0.727626C0.595331 19.063 0.496109 18.9538 0.496109 18.8082V17.8981H6.91245V18.8082C6.91245 18.9538 6.81323 19.063 6.64786 19.063ZM21.1673 15.0223L20.4728 16.078H7.40856V14.6583H21.1673V15.0223Z" fill="#2D2D2D"/>
<path d="M17.8262 1.92444V1.87452C17.8262 1.73752 17.7151 1.62646 17.5781 1.62646C17.4411 1.62646 17.3301 1.73752 17.3301 1.87452V1.92444C17.3301 2.06144 17.4411 2.1725 17.5781 2.1725C17.7151 2.1725 17.8262 2.06144 17.8262 1.92444Z" fill="#2D2D2D"/>
<path d="M18.9844 1.92444V1.87452C18.9844 1.73752 18.8733 1.62646 18.7363 1.62646C18.5993 1.62646 18.4883 1.73752 18.4883 1.87452V1.92444C18.4883 2.06144 18.5993 2.1725 18.7363 2.1725C18.8733 2.1725 18.9844 2.06144 18.9844 1.92444Z" fill="#2D2D2D"/>
<path d="M16.669 1.92444V1.87452C16.669 1.73752 16.5579 1.62646 16.4209 1.62646C16.2839 1.62646 16.1729 1.73752 16.1729 1.87452V1.92444C16.1729 2.06144 16.2839 2.1725 16.4209 2.1725C16.5579 2.1725 16.669 2.06144 16.669 1.92444Z" fill="#2D2D2D"/>
<path d="M4.05996 8.36084H3.34919C3.19841 8.36084 3.07617 8.48307 3.07617 8.63386C3.07617 8.78464 3.19841 8.90687 3.34919 8.90687H4.05996C4.21075 8.90687 4.33298 8.78464 4.33298 8.63386C4.33298 8.48307 4.21075 8.36084 4.05996 8.36084Z" fill="#2D2D2D"/>
<path d="M4.4647 18.2256H2.91023C2.77793 18.2256 2.67871 18.3348 2.67871 18.5168C2.67871 18.6624 2.77793 18.808 2.91023 18.808H4.4647C4.597 18.808 4.72929 18.6988 4.72929 18.5168C4.72929 18.3348 4.597 18.2256 4.4647 18.2256Z" fill="#2D2D2D"/>
<path d="M4.99452 4.61182H3.34082V5.15785H4.99452V4.61182Z" fill="#2D2D2D"/>
<path d="M15.867 4.61182H14.7593C14.6086 4.61182 14.4863 4.73405 14.4863 4.88483C14.4863 5.03562 14.6086 5.15785 14.7593 5.15785H15.867C16.0178 5.15785 16.14 5.03562 16.14 4.88483C16.14 4.73405 16.0178 4.61182 15.867 4.61182Z" fill="#2D2D2D"/>
<path d="M18.645 4.61182H16.942C16.7912 4.61182 16.6689 4.73405 16.6689 4.88483C16.6689 5.03562 16.7912 5.15785 16.942 5.15785H18.645C18.7957 5.15785 18.918 5.03562 18.918 4.88483C18.918 4.73405 18.7957 4.61182 18.645 4.61182Z" fill="#2D2D2D"/>
<path d="M6.01086 4.61182H5.73005C5.57926 4.61182 5.45703 4.73405 5.45703 4.88483C5.45703 5.03562 5.57927 5.15785 5.73005 5.15785H6.01086C6.16165 5.15785 6.28388 5.03562 6.28388 4.88483C6.28388 4.73405 6.16165 4.61182 6.01086 4.61182Z" fill="#2D2D2D"/>
<path d="M14.0235 4.90979V4.85987C14.0235 4.72287 13.9124 4.61182 13.7754 4.61182C13.6384 4.61182 13.5273 4.72287 13.5273 4.85987V4.90979C13.5273 5.04679 13.6384 5.15785 13.7754 5.15785C13.9124 5.15785 14.0235 5.04679 14.0235 4.90979Z" fill="#2D2D2D"/>
<path d="M12.9649 4.90979V4.85987C12.9649 4.72287 12.8538 4.61182 12.7168 4.61182C12.5798 4.61182 12.4688 4.72287 12.4688 4.85987V4.90979C12.4688 5.04679 12.5798 5.15785 12.7168 5.15785C12.8538 5.15785 12.9649 5.04679 12.9649 4.90979Z" fill="#2D2D2D"/>
<path d="M11.667 4.61182H7.1197C6.96891 4.61182 6.84668 4.73405 6.84668 4.88483C6.84668 5.03562 6.96891 5.15785 7.1197 5.15785H11.667C11.8178 5.15785 11.9401 5.03562 11.9401 4.88483C11.9401 4.73405 11.8178 4.61182 11.667 4.61182Z" fill="#2D2D2D"/>
<path d="M15.867 8.25146H14.7593C14.6086 8.25146 14.4863 8.3737 14.4863 8.52448C14.4863 8.67526 14.6086 8.7975 14.7593 8.7975H15.867C16.0178 8.7975 16.14 8.67526 16.14 8.52448C16.14 8.3737 16.0178 8.25146 15.867 8.25146Z" fill="#2D2D2D"/>
<path d="M18.645 8.25146H16.942C16.7912 8.25146 16.6689 8.3737 16.6689 8.52448C16.6689 8.67526 16.7912 8.7975 16.942 8.7975H18.645C18.7957 8.7975 18.918 8.67526 18.918 8.52448C18.918 8.3737 18.7957 8.25146 18.645 8.25146Z" fill="#2D2D2D"/>
<path d="M4.15879 12.5835H1.49665C1.34587 12.5835 1.22363 12.7057 1.22363 12.8565C1.22363 13.0073 1.34587 13.1295 1.49665 13.1295H4.15879C4.30957 13.1295 4.4318 13.0073 4.4318 12.8565C4.4318 12.7057 4.30957 12.5835 4.15879 12.5835Z" fill="#2D2D2D"/>
<path d="M5.91153 12.5835H5.20075C5.04997 12.5835 4.92773 12.7057 4.92773 12.8565C4.92773 13.0073 5.04997 13.1295 5.20075 13.1295H5.91153C6.06231 13.1295 6.18454 13.0073 6.18454 12.8565C6.18454 12.7057 6.06231 12.5835 5.91153 12.5835Z" fill="#2D2D2D"/>
<path d="M14.0235 8.54944V8.49952C14.0235 8.36252 13.9124 8.25146 13.7754 8.25146C13.6384 8.25146 13.5273 8.36252 13.5273 8.49952V8.54944C13.5273 8.68644 13.6384 8.7975 13.7754 8.7975C13.9124 8.7975 14.0235 8.68644 14.0235 8.54944Z" fill="#2D2D2D"/>
<path d="M12.7251 8.25146H10.0299C9.87907 8.25146 9.75684 8.3737 9.75684 8.52448C9.75684 8.67526 9.87907 8.7975 10.0299 8.7975H12.7251C12.8758 8.7975 12.9981 8.67526 12.9981 8.52448C12.9981 8.3737 12.8758 8.25146 12.7251 8.25146Z" fill="#2D2D2D"/>
<path d="M14.908 10.1084H13.8004C13.6496 10.1084 13.5273 10.2306 13.5273 10.3814C13.5273 10.5322 13.6496 10.6544 13.8004 10.6544H14.908C15.0588 10.6544 15.181 10.5322 15.181 10.3814C15.181 10.2306 15.0588 10.1084 14.908 10.1084Z" fill="#2D2D2D"/>
<path d="M12.7252 10.1084H8.57477C8.42399 10.1084 8.30176 10.2306 8.30176 10.3814C8.30176 10.5322 8.42399 10.6544 8.57477 10.6544H12.7252C12.876 10.6544 12.9983 10.5322 12.9983 10.3814C12.9983 10.2306 12.876 10.1084 12.7252 10.1084Z" fill="#2D2D2D"/>
<path d="M16.1074 10.4064V10.3565C16.1074 10.2195 15.9964 10.1084 15.8594 10.1084C15.7224 10.1084 15.6113 10.2195 15.6113 10.3565V10.4064C15.6113 10.5434 15.7224 10.6544 15.8594 10.6544C15.9964 10.6544 16.1074 10.5434 16.1074 10.4064Z" fill="#2D2D2D"/>
<path d="M17.1651 10.4064V10.3565C17.1651 10.2195 17.054 10.1084 16.917 10.1084C16.78 10.1084 16.6689 10.2195 16.6689 10.3565V10.4064C16.6689 10.5434 16.78 10.6544 16.917 10.6544C17.054 10.6544 17.1651 10.5434 17.1651 10.4064Z" fill="#2D2D2D"/>
<path d="M18.6451 10.1084H17.9674C17.8166 10.1084 17.6943 10.2306 17.6943 10.3814C17.6943 10.5322 17.8166 10.6544 17.9674 10.6544H18.6451C18.7958 10.6544 18.9181 10.5322 18.9181 10.3814C18.9181 10.2306 18.7958 10.1084 18.6451 10.1084Z" fill="#2D2D2D"/>
<path d="M15.8668 11.9287H13.7008C13.55 11.9287 13.4277 12.0509 13.4277 12.2017C13.4277 12.3525 13.55 12.4747 13.7008 12.4747H15.8668C16.0176 12.4747 16.1398 12.3525 16.1398 12.2017C16.1398 12.0509 16.0176 11.9287 15.8668 11.9287Z" fill="#2D2D2D"/>
<path d="M18.645 11.9287H16.942C16.7912 11.9287 16.6689 12.0509 16.6689 12.2017C16.6689 12.3525 16.7912 12.4747 16.942 12.4747H18.645C18.7957 12.4747 18.918 12.3525 18.918 12.2017C18.918 12.0509 18.7957 11.9287 18.645 11.9287Z" fill="#2D2D2D"/>
<path d="M10.749 12.2267V12.1768C10.749 12.0398 10.638 11.9287 10.501 11.9287C10.364 11.9287 10.2529 12.0398 10.2529 12.1768V12.2267C10.2529 12.3637 10.364 12.4747 10.501 12.4747C10.638 12.4747 10.749 12.3637 10.749 12.2267Z" fill="#2D2D2D"/>
<path d="M12.8652 12.2267V12.1768C12.8652 12.0398 12.7542 11.9287 12.6172 11.9287C12.4802 11.9287 12.3691 12.0398 12.3691 12.1768V12.2267C12.3691 12.3637 12.4802 12.4747 12.6172 12.4747C12.7542 12.4747 12.8652 12.3637 12.8652 12.2267Z" fill="#2D2D2D"/>
<path d="M11.8076 12.2267V12.1768C11.8076 12.0398 11.6966 11.9287 11.5596 11.9287C11.4226 11.9287 11.3115 12.0398 11.3115 12.1768V12.2267C11.3115 12.3637 11.4226 12.4747 11.5596 12.4747C11.6966 12.4747 11.8076 12.3637 11.8076 12.2267Z" fill="#2D2D2D"/>
<path d="M18.6453 6.43164H17.5377C17.3869 6.43164 17.2646 6.55387 17.2646 6.70466C17.2646 6.85544 17.3869 6.97767 17.5377 6.97767H18.6453C18.7961 6.97767 18.9183 6.85544 18.9183 6.70466C18.9183 6.55387 18.7961 6.43164 18.6453 6.43164Z" fill="#2D2D2D"/>
<path d="M7.49982 6.43164H6.39216C6.24137 6.43164 6.11914 6.55387 6.11914 6.70466C6.11914 6.85544 6.24137 6.97767 6.39216 6.97767H7.49982C7.6506 6.97767 7.77284 6.85544 7.77284 6.70466C7.77284 6.55387 7.6506 6.43164 7.49982 6.43164Z" fill="#2D2D2D"/>
<path d="M5.31683 6.43164H3.61384C3.46305 6.43164 3.34082 6.55387 3.34082 6.70466C3.34082 6.85544 3.46305 6.97767 3.61384 6.97767H5.31683C5.46761 6.97767 5.58985 6.85544 5.58985 6.70466C5.58985 6.55387 5.46761 6.43164 5.31683 6.43164Z" fill="#2D2D2D"/>
<path d="M16.4952 6.43164H16.2144C16.0636 6.43164 15.9414 6.55387 15.9414 6.70466C15.9414 6.85544 16.0636 6.97767 16.2144 6.97767H16.4952C16.646 6.97767 16.7683 6.85544 16.7683 6.70466C16.7683 6.55387 16.646 6.43164 16.4952 6.43164Z" fill="#2D2D2D"/>
<path d="M8.69826 6.72962V6.6797C8.69826 6.5427 8.5872 6.43164 8.4502 6.43164C8.31321 6.43164 8.20215 6.5427 8.20215 6.6797V6.72962C8.20215 6.86661 8.31321 6.97767 8.4502 6.97767C8.5872 6.97767 8.69826 6.86661 8.69826 6.72962Z" fill="#2D2D2D"/>
<path d="M9.75685 6.72962V6.6797C9.75685 6.5427 9.64579 6.43164 9.5088 6.43164C9.3718 6.43164 9.26074 6.5427 9.26074 6.6797V6.72962C9.26074 6.86661 9.3718 6.97767 9.5088 6.97767C9.64579 6.97767 9.75685 6.86661 9.75685 6.72962Z" fill="#2D2D2D"/>
<path d="M5.9119 11.1641H3.54743C3.39665 11.1641 3.27441 11.2863 3.27441 11.4371C3.27441 11.5879 3.39665 11.7101 3.54743 11.7101H5.9119C6.06269 11.7101 6.18492 11.5879 6.18492 11.4371C6.18492 11.2863 6.06269 11.1641 5.9119 11.1641Z" fill="#D79B00"/>
<path d="M2.77834 11.462V11.4121C2.77834 11.2751 2.66728 11.1641 2.53028 11.1641C2.39328 11.1641 2.28223 11.2751 2.28223 11.4121V11.462C2.28223 11.599 2.39328 11.7101 2.53028 11.7101C2.66728 11.7101 2.77834 11.599 2.77834 11.462Z" fill="#D79B00"/>
<path d="M1.71974 11.462V11.4121C1.71974 11.2751 1.60868 11.1641 1.47169 11.1641C1.33469 11.1641 1.22363 11.2751 1.22363 11.4121V11.462C1.22363 11.599 1.33469 11.7101 1.47169 11.7101C1.60868 11.7101 1.71974 11.599 1.71974 11.462Z" fill="#D79B00"/>
<path d="M15.1065 6.43164H10.5591C10.4084 6.43164 10.2861 6.55387 10.2861 6.70466C10.2861 6.85544 10.4084 6.97767 10.5591 6.97767H15.1065C15.2573 6.97767 15.3795 6.85544 15.3795 6.70466C15.3795 6.55387 15.2573 6.43164 15.1065 6.43164Z" fill="#2D2D2D"/>
</svg>
