<svg width="41" height="40" viewBox="0 0 41 40" fill="none" xmlns="http://www.w3.org/2000/svg">
<path d="M35.0502 8.73733C35.1868 8.73733 35.2893 8.63814 35.2893 8.50588V4.67042C35.2893 4.53816 35.1868 4.43896 35.0502 4.43896C34.9135 4.43896 34.811 4.53816 34.811 4.67042V8.47282C34.7768 8.63814 34.9135 8.73733 35.0502 8.73733Z" fill="#D79B00"/>
<path d="M35.0502 11.217C35.1868 11.217 35.2893 11.1179 35.2893 10.9856V9.76221C35.2893 9.62996 35.1868 9.53076 35.0502 9.53076C34.9135 9.53076 34.811 9.62996 34.811 9.76221V10.9856C34.7768 11.1179 34.9135 11.217 35.0502 11.217Z" fill="#D79B00"/>
<path d="M3.1386 28.7412C3.00192 28.7412 2.89941 28.8404 2.89941 28.9727V32.7751C2.89941 32.9073 3.00192 33.0065 3.1386 33.0065C3.27527 33.0065 3.37778 32.9073 3.37778 32.7751V28.9727C3.37778 28.8404 3.27527 28.7412 3.1386 28.7412Z" fill="#2D2D2D"/>
<path d="M3.1386 33.8003C3.00192 33.8003 2.89941 33.8995 2.89941 34.0317V35.2551C2.89941 35.3874 3.00192 35.4866 3.1386 35.4866C3.27527 35.4866 3.37778 35.3874 3.37778 35.2551V34.0317C3.37778 33.8995 3.27527 33.8003 3.1386 33.8003Z" fill="#2D2D2D"/>
<path d="M28.4627 0.934068C28.4968 0.967132 28.5651 1.0002 28.6334 1.0002C28.7016 1.0002 28.7699 0.967132 28.804 0.934068C28.9064 0.834875 28.9064 0.669553 28.804 0.603424L28.2579 0.0743948C28.1555 -0.0247983 27.9849 -0.0247983 27.9166 0.0743948C27.8142 0.173588 27.8142 0.33891 27.9166 0.405038L28.4627 0.934068Z" fill="#2D2D2D"/>
<path d="M30.2039 2.62059C30.2381 2.65366 30.3063 2.68672 30.3746 2.68672C30.4428 2.68672 30.5111 2.65366 30.5452 2.62059C30.6476 2.5214 30.6476 2.35608 30.5452 2.28995L29.9991 1.76092C29.8968 1.66173 29.7261 1.66173 29.6578 1.76092C29.5555 1.86011 29.5555 2.02543 29.6578 2.09156L30.2039 2.62059Z" fill="#2D2D2D"/>
<path d="M28.1215 2.68672C28.1897 2.68672 28.258 2.65366 28.2921 2.62059L28.8382 2.09156C28.9406 1.99237 28.9406 1.82705 28.8382 1.76092C28.7358 1.66173 28.5652 1.66173 28.4969 1.76092L27.9508 2.28995C27.8484 2.38914 27.8484 2.55446 27.9508 2.62059C27.9849 2.65366 28.0532 2.68672 28.1215 2.68672Z" fill="#2D2D2D"/>
<path d="M29.8285 1.0002C29.8968 1.0002 29.965 0.967132 29.9991 0.934068L30.5452 0.405038C30.6476 0.305845 30.6476 0.140523 30.5452 0.0743948C30.4428 -0.0247983 30.2722 -0.0247983 30.2039 0.0743948L29.6578 0.603424C29.5555 0.702617 29.5555 0.867939 29.6578 0.934068C29.692 1.0002 29.7602 1.0002 29.8285 1.0002Z" fill="#2D2D2D"/>
<path d="M6.4845 37.3879C6.38211 37.2887 6.21146 37.2887 6.1432 37.3879C6.04081 37.4871 6.04081 37.6524 6.1432 37.7185L6.68928 38.2475C6.72341 38.2806 6.79167 38.3137 6.85993 38.3137C6.92819 38.3137 6.99645 38.2806 7.03058 38.2475C7.13297 38.1484 7.13297 37.983 7.03058 37.9169L6.4845 37.3879Z" fill="#2D2D2D"/>
<path d="M8.19055 39.0744C8.08816 38.9752 7.91751 38.9752 7.84925 39.0744C7.74686 39.1736 7.74686 39.3389 7.84925 39.405L8.39533 39.9341C8.42946 39.9671 8.49772 40.0002 8.56598 40.0002C8.63424 40.0002 8.7025 39.9671 8.73663 39.9341C8.83902 39.8349 8.83902 39.6696 8.73663 39.6034L8.19055 39.0744Z" fill="#2D2D2D"/>
<path d="M6.65412 39.0744L6.10804 39.6034C6.00565 39.7026 6.00565 39.8679 6.10804 39.9341C6.14217 39.9671 6.21043 40.0002 6.27869 40.0002C6.34695 40.0002 6.41521 39.9671 6.44934 39.9341L6.99542 39.405C7.09781 39.3058 7.09781 39.1405 6.99542 39.0744C6.89303 38.9752 6.75651 38.9752 6.65412 39.0744Z" fill="#2D2D2D"/>
<path d="M8.36115 37.3879L7.81507 37.9169C7.71268 38.0161 7.71268 38.1814 7.81507 38.2475C7.8492 38.2806 7.91746 38.3137 7.98572 38.3137C8.05398 38.3137 8.12224 38.2806 8.15637 38.2475L8.70245 37.7185C8.80484 37.6193 8.80484 37.454 8.70245 37.3879C8.63419 37.2887 8.46354 37.2887 8.36115 37.3879Z" fill="#2D2D2D"/>
<path d="M36.2108 27.8813C36.2449 27.9144 36.3132 27.9475 36.3814 27.9475C36.4497 27.9475 36.5179 27.9144 36.5521 27.8813C36.6545 27.7821 36.6545 27.6168 36.5521 27.5507L36.006 27.0217C35.9036 26.9225 35.7329 26.9225 35.6647 27.0217C35.5623 27.1209 35.5623 27.2862 35.6647 27.3523L36.2108 27.8813Z" fill="#2D2D2D"/>
<path d="M37.4049 29.0388L37.951 29.5679C37.9851 29.6009 38.0534 29.634 38.1216 29.634C38.1899 29.634 38.2582 29.6009 38.2923 29.5679C38.3947 29.4687 38.3947 29.3033 38.2923 29.2372L37.7462 28.7082C37.6438 28.609 37.4732 28.609 37.4049 28.7082C37.3025 28.8074 37.3025 28.9396 37.4049 29.0388Z" fill="#2D2D2D"/>
<path d="M35.6645 29.5679C35.6986 29.6009 35.7669 29.634 35.8351 29.634C35.9034 29.634 35.9716 29.6009 36.0058 29.5679L36.5519 29.0388C36.6542 28.9396 36.6542 28.7743 36.5519 28.7082C36.4495 28.609 36.2788 28.609 36.2106 28.7082L35.6645 29.2372C35.5962 29.3033 35.5962 29.4687 35.6645 29.5679Z" fill="#2D2D2D"/>
<path d="M37.5756 27.9475C37.6438 27.9475 37.7121 27.9144 37.7462 27.8813L38.2923 27.3523C38.3947 27.2531 38.3947 27.0878 38.2923 27.0217C38.1899 26.9225 38.0193 26.9225 37.951 27.0217L37.4049 27.5507C37.3025 27.6499 37.3025 27.8152 37.4049 27.8813C37.4732 27.9144 37.5073 27.9475 37.5756 27.9475Z" fill="#2D2D2D"/>
<path d="M39.213 5.89354C39.8956 5.89354 40.4758 5.33145 40.4758 4.67016C40.4758 4.00887 39.8956 3.44678 39.213 3.44678C38.5304 3.44678 37.9502 4.00887 37.9502 4.67016C37.9502 5.33145 38.4963 5.89354 39.213 5.89354ZM39.213 3.94274C39.6226 3.94274 39.9639 4.27339 39.9639 4.67016C39.9639 5.06693 39.6226 5.39757 39.213 5.39757C38.8034 5.39757 38.4621 5.06693 38.4621 4.67016C38.4621 4.27339 38.8034 3.94274 39.213 3.94274Z" fill="#2D2D2D"/>
<path d="M21.7062 37.1895C21.0236 37.1895 20.4434 37.7515 20.4434 38.4128C20.4434 39.0741 21.0236 39.6362 21.7062 39.6362C22.3888 39.6362 22.969 39.0741 22.969 38.4128C22.969 37.7515 22.4229 37.1895 21.7062 37.1895ZM21.7062 39.1402C21.2966 39.1402 20.9553 38.8096 20.9553 38.4128C20.9553 38.0161 21.2966 37.6854 21.7062 37.6854C22.1157 37.6854 22.457 38.0161 22.457 38.4128C22.457 38.8096 22.1157 39.1402 21.7062 39.1402Z" fill="#2D2D2D"/>
<path d="M1.73937 22.9219C1.05677 22.9219 0.476562 23.484 0.476562 24.1453C0.476562 24.8065 1.05677 25.3686 1.73937 25.3686C2.42197 25.3686 3.00218 24.8065 3.00218 24.1453C3.00218 23.484 2.42197 22.9219 1.73937 22.9219ZM1.73937 24.8727C1.32981 24.8727 0.988513 24.542 0.988513 24.1453C0.988513 23.7485 1.32981 23.4178 1.73937 23.4178C2.14893 23.4178 2.49023 23.7485 2.49023 24.1453C2.49023 24.542 2.14893 24.8727 1.73937 24.8727Z" fill="#2D2D2D"/>
<path d="M8.83562 1.42969H4.15981C4.02329 1.42969 3.9209 1.52888 3.9209 1.66114C3.9209 1.7934 4.02329 1.89259 4.15981 1.89259H8.83562C8.97214 1.89259 9.07453 1.7934 9.07453 1.66114C9.10866 1.52888 8.97214 1.42969 8.83562 1.42969Z" fill="#2D2D2D"/>
<path d="M1.12214 1.89259H2.62386C2.76038 1.89259 2.86278 1.7934 2.86278 1.66114C2.86278 1.52888 2.76038 1.42969 2.62386 1.42969H1.12214C0.985624 1.42969 0.883234 1.52888 0.883234 1.66114C0.849104 1.7934 0.985624 1.89259 1.12214 1.89259Z" fill="#2D2D2D"/>
<path d="M4.63809 3.21534C4.63809 3.08308 4.5357 2.98389 4.39918 2.98389H1.1227C0.986179 2.98389 0.883789 3.08308 0.883789 3.21534C0.883789 3.34759 0.986179 3.44679 1.1227 3.44679H4.39918C4.5357 3.47985 4.63809 3.34759 4.63809 3.21534Z" fill="#D79B00"/>
<path d="M6.82135 2.98389H5.76332C5.6268 2.98389 5.52441 3.08308 5.52441 3.21534C5.52441 3.34759 5.6268 3.44679 5.76332 3.44679H6.82135C6.95787 3.44679 7.06026 3.34759 7.06026 3.21534C7.09439 3.08308 6.992 2.98389 6.82135 2.98389Z" fill="#D79B00"/>
<path d="M35.8805 38.1479H31.2047C31.0682 38.1479 30.9658 38.2471 30.9658 38.3794C30.9658 38.5117 31.0682 38.6109 31.2047 38.6109H35.8805C36.0171 38.6109 36.1195 38.5117 36.1195 38.3794C36.1195 38.2802 36.0171 38.1479 35.8805 38.1479Z" fill="#2D2D2D"/>
<path d="M38.9164 38.1479H37.4147C37.2782 38.1479 37.1758 38.2471 37.1758 38.3794C37.1758 38.5117 37.2782 38.6109 37.4147 38.6109H38.9164C39.0529 38.6109 39.1553 38.5117 39.1553 38.3794C39.1895 38.2802 39.0529 38.1479 38.9164 38.1479Z" fill="#2D2D2D"/>
<path d="M35.4023 36.8591C35.4023 36.9914 35.5047 37.0906 35.6413 37.0906H38.9177C39.0543 37.0906 39.1566 36.9914 39.1566 36.8591C39.1566 36.7269 39.0543 36.6277 38.9177 36.6277H35.6413C35.5047 36.5946 35.4023 36.7269 35.4023 36.8591Z" fill="#D79B00"/>
<path d="M32.9443 36.8591C32.9443 36.9914 33.0467 37.0906 33.1832 37.0906H34.2413C34.3778 37.0906 34.4802 36.9914 34.4802 36.8591C34.4802 36.7269 34.3778 36.6277 34.2413 36.6277H33.1832C33.0467 36.5946 32.9443 36.7269 32.9443 36.8591Z" fill="#D79B00"/>
<path d="M35.4702 16.5792C35.4702 16.3579 35.3852 16.1088 35.2151 15.9428C34.8467 15.6107 34.28 15.6107 33.9115 15.9428L29.9441 19.817V7.91751C29.9441 7.4194 29.5473 7.03197 29.0372 7.03197H22.9443L23.4261 5.20553C23.4544 5.15019 23.4261 5.06717 23.3977 5.0395C23.3694 4.98415 23.2844 4.95648 23.2277 4.95648H20.8472C20.9322 4.76276 20.9606 4.59672 20.9606 4.40301C20.9606 3.71118 20.4221 3.15771 19.742 3.15771C19.0619 3.15771 18.5234 3.71118 18.5234 4.40301C18.5234 4.59672 18.5518 4.76276 18.6368 4.9288H16.2563C16.1996 4.9288 16.1429 4.95648 16.0863 5.01182C16.0579 5.06717 16.0296 5.12252 16.0579 5.17786L16.5397 7.0043H10.6168C10.1067 7.0043 9.70996 7.39172 9.70996 7.88984V32.8511C9.70996 33.3492 10.1067 33.7367 10.6168 33.7367H29.0089C29.519 33.7367 29.9157 33.3492 29.9157 32.8511V22.3353L35.1868 17.1881C35.3852 17.022 35.4702 16.8006 35.4702 16.5792ZM19.742 3.57281C20.1954 3.57281 20.5638 3.96024 20.5638 4.43068C20.5638 4.6244 20.5072 4.79044 20.3938 4.95648H19.1185C18.9768 4.79044 18.9202 4.59672 18.9202 4.40301C18.9202 3.96024 19.2886 3.57281 19.742 3.57281ZM16.5113 5.3439H19.0052H20.4788H22.9727L22.5192 7.03197H16.9364L16.5113 5.3439ZM10.135 7.91751C10.135 7.64078 10.3618 7.4194 10.6452 7.4194H16.8231H22.7176H29.0372C29.3206 7.4194 29.5473 7.64078 29.5473 7.91751V13.6735H10.135V7.91751ZM29.519 32.8788C29.519 33.1555 29.2923 33.3769 29.0089 33.3769H10.6168C10.3334 33.3769 10.1067 33.1555 10.1067 32.8788V14.061H29.4907V20.2321L23.6245 25.9605L20.4505 22.8611C20.2804 22.695 20.0537 22.612 19.7987 22.612C19.5436 22.612 19.3169 22.695 19.1469 22.8611C18.9768 23.0271 18.8635 23.2485 18.8635 23.4976C18.8635 23.7466 18.9485 23.968 19.1469 24.134L23.4828 28.368C23.5111 28.3957 23.5678 28.4234 23.6245 28.4234C23.6811 28.4234 23.7378 28.3957 23.7662 28.368L29.4907 22.778V32.8788H29.519ZM34.9034 16.9113L29.604 22.0862C29.5757 22.0862 29.5757 22.1139 29.5473 22.1416L23.6245 27.9253L19.4586 23.8296C19.3736 23.7466 19.3169 23.6082 19.3169 23.4976C19.3169 23.3592 19.3736 23.2485 19.4586 23.1655C19.5436 23.0825 19.6853 23.0271 19.7987 23.0271C19.9404 23.0271 20.0537 23.0825 20.1387 23.1655L23.4828 26.4309C23.5678 26.5139 23.7095 26.5139 23.7662 26.4309L34.1949 16.2195C34.3933 16.0258 34.705 16.0258 34.9034 16.2195C34.9884 16.3025 35.0451 16.4409 35.0451 16.5516C35.0451 16.6899 34.9884 16.8283 34.9034 16.9113Z" fill="#2D2D2D"/>
<path d="M17.991 6.47389H21.3004C21.4063 6.47389 21.4857 6.39494 21.4857 6.28968C21.4857 6.18442 21.4327 6.10547 21.3004 6.10547H17.991C17.8851 6.10547 17.8057 6.18442 17.8057 6.28968C17.8057 6.39494 17.8851 6.47389 17.991 6.47389Z" fill="#2D2D2D"/>
<path d="M15.0648 17.158H26.0704C26.1841 17.158 26.2694 17.079 26.2694 16.9738C26.2694 16.8685 26.1841 16.7896 26.0704 16.7896H15.0648C14.9511 16.7896 14.8657 16.8685 14.8657 16.9738C14.8373 17.079 14.9511 17.158 15.0648 17.158Z" fill="#2D2D2D"/>
<path d="M12.5206 16.0527C11.9781 16.0527 11.5498 16.4591 11.5498 16.9738C11.5498 17.4885 11.9781 17.8948 12.5206 17.8948C13.0631 17.8948 13.4914 17.4885 13.4914 16.9738C13.4914 16.4591 13.0631 16.0527 12.5206 16.0527ZM12.5206 17.4885C12.2065 17.4885 11.9781 17.2447 11.9781 16.9738C11.9781 16.6758 12.2351 16.4591 12.5206 16.4591C12.8347 16.4591 13.0631 16.7029 13.0631 16.9738C13.0631 17.2447 12.8062 17.4885 12.5206 17.4885Z" fill="#D79B00"/>
<path d="M15.0567 20.4734H24.602C24.7137 20.4734 24.7974 20.3945 24.7974 20.2892C24.7974 20.1839 24.7137 20.105 24.602 20.105H15.0567C14.9451 20.105 14.8613 20.1839 14.8613 20.2892C14.8613 20.3945 14.9451 20.4734 15.0567 20.4734Z" fill="#2D2D2D"/>
<path d="M12.5206 19.3682C11.9781 19.3682 11.5498 19.7745 11.5498 20.2892C11.5498 20.8039 11.9781 21.2103 12.5206 21.2103C13.0631 21.2103 13.4914 20.8039 13.4914 20.2892C13.4914 19.7745 13.0631 19.3682 12.5206 19.3682ZM12.5206 20.8039C12.2065 20.8039 11.9781 20.5601 11.9781 20.2892C11.9781 19.9912 12.2351 19.7745 12.5206 19.7745C12.8347 19.7745 13.0631 20.0183 13.0631 20.2892C13.0631 20.5601 12.8062 20.8039 12.5206 20.8039Z" fill="#D79B00"/>
<path d="M15.0598 23.7893H17.6112C17.7222 23.7893 17.8054 23.7104 17.8054 23.6051C17.8054 23.4998 17.7222 23.4209 17.6112 23.4209H15.0598C14.9488 23.4209 14.8656 23.4998 14.8656 23.6051C14.8379 23.7104 14.9488 23.7893 15.0598 23.7893Z" fill="#2D2D2D"/>
<path d="M12.5206 22.6841C11.9781 22.6841 11.5498 23.0904 11.5498 23.6051C11.5498 24.1198 11.9781 24.5262 12.5206 24.5262C13.0631 24.5262 13.4914 24.1198 13.4914 23.6051C13.4914 23.0904 13.0631 22.6841 12.5206 22.6841ZM12.5206 24.1198C12.2065 24.1198 11.9781 23.876 11.9781 23.6051C11.9781 23.3071 12.2351 23.0904 12.5206 23.0904C12.8347 23.0904 13.0631 23.3342 13.0631 23.6051C13.0631 23.876 12.8062 24.1198 12.5206 24.1198Z" fill="#D79B00"/>
<path d="M15.0574 27.1052H19.0856C19.1952 27.1052 19.2774 27.0263 19.2774 26.921C19.2774 26.8158 19.1952 26.7368 19.0856 26.7368H15.0574C14.9478 26.7368 14.8656 26.8158 14.8656 26.921C14.8382 27.0263 14.9478 27.1052 15.0574 27.1052Z" fill="#2D2D2D"/>
<path d="M12.5206 26C11.9781 26 11.5498 26.4063 11.5498 26.9211C11.5498 27.4358 11.9781 27.8421 12.5206 27.8421C13.0631 27.8421 13.4914 27.4358 13.4914 26.9211C13.4914 26.4063 13.0631 26 12.5206 26ZM12.5206 27.4358C12.2065 27.4358 11.9781 27.1919 11.9781 26.9211C11.9781 26.6231 12.2351 26.4063 12.5206 26.4063C12.8347 26.4063 13.0631 26.6502 13.0631 26.9211C13.0631 27.1919 12.8062 27.4358 12.5206 27.4358Z" fill="#D79B00"/>
<path d="M14.8613 30.2369C14.8613 30.3422 14.9467 30.4212 15.0605 30.4212H26.0703C26.1841 30.4212 26.2694 30.3422 26.2694 30.2369C26.2694 30.1317 26.1841 30.0527 26.0703 30.0527H15.0889C14.9751 30.0527 14.8613 30.1317 14.8613 30.2369Z" fill="#2D2D2D"/>
<path d="M12.5206 29.3159C11.9781 29.3159 11.5498 29.7223 11.5498 30.237C11.5498 30.7517 11.9781 31.158 12.5206 31.158C13.0631 31.158 13.4914 30.7517 13.4914 30.237C13.4914 29.7223 13.0631 29.3159 12.5206 29.3159ZM12.5206 30.7517C12.2065 30.7517 11.9781 30.5079 11.9781 30.237C11.9781 29.939 12.2351 29.7223 12.5206 29.7223C12.8347 29.7223 13.0631 29.9661 13.0631 30.237C13.0631 30.5079 12.8062 30.7517 12.5206 30.7517Z" fill="#D79B00"/>
<path d="M27.8775 9.78955H20.5852C20.469 9.78955 20.3818 9.8685 20.3818 9.97376C20.3818 10.079 20.469 10.158 20.5852 10.158H27.9065C28.0227 10.158 28.1099 10.079 28.1099 9.97376C28.1099 9.89481 28.0227 9.78955 27.8775 9.78955Z" fill="#2D2D2D"/>
<path d="M27.8795 11.6313H18.0071C17.892 11.6313 17.8057 11.7103 17.8057 11.8156C17.8057 11.9208 17.892 11.9998 18.0071 11.9998H27.9083C28.0234 11.9998 28.1098 11.9208 28.1098 11.8156C28.1098 11.7103 28.0234 11.6313 27.8795 11.6313Z" fill="#2D2D2D"/>
<path d="M15.7343 10.0843H14.3522L13.9375 8.81872C13.9099 8.73794 13.8269 8.68408 13.744 8.68408C13.6611 8.68408 13.5781 8.73794 13.5505 8.81872L13.1358 10.0843H11.7537C11.6707 10.0843 11.5878 10.1382 11.5602 10.219C11.5325 10.2997 11.5602 10.3805 11.6431 10.4344L12.7488 11.2153L12.3342 12.4809C12.3065 12.5617 12.3342 12.6425 12.4171 12.6963C12.5 12.7502 12.583 12.7502 12.6659 12.6963L13.7716 11.9154L14.8774 12.6963C14.905 12.7232 14.9603 12.7232 14.988 12.7232C15.0156 12.7232 15.0709 12.7232 15.0985 12.6963C15.1815 12.6425 15.2091 12.5617 15.1815 12.4809L14.7668 11.2153L15.8725 10.4344C15.9555 10.3805 15.9831 10.2997 15.9555 10.219C15.9002 10.1382 15.8173 10.0843 15.7343 10.0843ZM14.3798 10.9999C14.2969 11.0537 14.2692 11.1345 14.2969 11.2153L14.5733 12.0501L13.8546 11.5384C13.7716 11.4846 13.6887 11.4846 13.6058 11.5384L12.8871 12.0501L13.1635 11.2153C13.1911 11.1345 13.1635 11.0537 13.0806 10.9999L12.3618 10.4882H13.2464C13.3294 10.4882 13.4123 10.4344 13.4399 10.3536L13.7164 9.51884L13.9928 10.3536C14.0204 10.4344 14.1034 10.4882 14.1863 10.4882H15.0709L14.3798 10.9999Z" fill="#D79B00"/>
</svg>
