<svg width="42" height="42" viewBox="0 0 42 42" fill="none" xmlns="http://www.w3.org/2000/svg">
<path d="M9.6353 11.5626C9.48209 11.5604 9.32997 11.5888 9.18779 11.6459C9.0456 11.703 8.91619 11.7878 8.80708 11.8954C8.69796 12.003 8.61132 12.1312 8.55218 12.2726C8.49304 12.4139 8.46259 12.5656 8.46259 12.7189C8.46259 12.8721 8.49304 13.0238 8.55218 13.1652C8.61132 13.3065 8.69796 13.4347 8.80708 13.5423C8.91619 13.6499 9.0456 13.7347 9.18779 13.7918C9.32997 13.849 9.48209 13.8773 9.6353 13.8751H22.7395C22.8927 13.8773 23.0448 13.849 23.187 13.7918C23.3292 13.7347 23.4586 13.6499 23.5677 13.5423C23.6768 13.4347 23.7635 13.3065 23.8226 13.1652C23.8817 13.0238 23.9122 12.8721 23.9122 12.7189C23.9122 12.5656 23.8817 12.4139 23.8226 12.2726C23.7635 12.1312 23.6768 12.003 23.5677 11.8954C23.4586 11.7878 23.3292 11.703 23.187 11.6459C23.0448 11.5888 22.8927 11.5604 22.7395 11.5626H9.6353Z" fill="#D79B00"/>
<path d="M9.6353 16.1876C9.48209 16.1854 9.32997 16.2138 9.18779 16.2709C9.0456 16.328 8.91619 16.4128 8.80708 16.5204C8.69796 16.628 8.61132 16.7562 8.55218 16.8976C8.49304 17.0389 8.46259 17.1906 8.46259 17.3439C8.46259 17.4971 8.49304 17.6488 8.55218 17.7902C8.61132 17.9315 8.69796 18.0597 8.80708 18.1673C8.91619 18.2749 9.0456 18.3597 9.18779 18.4168C9.32997 18.474 9.48209 18.5023 9.6353 18.5001H22.7395C22.8927 18.5023 23.0448 18.474 23.187 18.4168C23.3292 18.3597 23.4586 18.2749 23.5677 18.1673C23.6768 18.0597 23.7635 17.9315 23.8226 17.7902C23.8817 17.6488 23.9122 17.4971 23.9122 17.3439C23.9122 17.1906 23.8817 17.0389 23.8226 16.8976C23.7635 16.7562 23.6768 16.628 23.5677 16.5204C23.4586 16.4128 23.3292 16.328 23.187 16.2709C23.0448 16.2138 22.8927 16.1854 22.7395 16.1876H9.6353Z" fill="#808080"/>
<path d="M9.6353 20.8126C9.48209 20.8104 9.32997 20.8388 9.18779 20.8959C9.0456 20.953 8.91619 21.0378 8.80708 21.1454C8.69796 21.253 8.61132 21.3812 8.55218 21.5226C8.49304 21.6639 8.46259 21.8156 8.46259 21.9689C8.46259 22.1221 8.49304 22.2738 8.55218 22.4152C8.61132 22.5565 8.69796 22.6847 8.80708 22.7923C8.91619 22.8999 9.0456 22.9847 9.18779 23.0418C9.32997 23.099 9.48209 23.1273 9.6353 23.1251H16.5728C16.726 23.1273 16.8781 23.099 17.0203 23.0418C17.1625 22.9847 17.2919 22.8999 17.401 22.7923C17.5101 22.6847 17.5968 22.5565 17.6559 22.4152C17.7151 22.2738 17.7455 22.1221 17.7455 21.9689C17.7455 21.8156 17.7151 21.6639 17.6559 21.5226C17.5968 21.3812 17.5101 21.253 17.401 21.1454C17.2919 21.0378 17.1625 20.953 17.0203 20.8959C16.8781 20.8388 16.726 20.8104 16.5728 20.8126H9.6353Z" fill="#808080"/>
<path fill-rule="evenodd" clip-rule="evenodd" d="M3.96429 0C1.79093 0 0 1.56706 0 3.46875V31.2188C6.7446e-05 31.5254 0.139322 31.8194 0.387137 32.0363L6.15806 37.0858C6.15806 37.0858 10.931 41.3299 11.0924 41.391C11.3206 41.5419 11.6001 41.625 11.8894 41.625H33.0357C35.2091 41.625 37 40.0579 37 38.1562V3.46875C37 1.56706 35.2091 0 33.0357 0H3.96429ZM33.0357 2.3125H3.96429C3.20936 2.3125 2.64286 2.80819 2.64286 3.46875V30.0194C2.64286 30.0194 2.62961 30.2216 2.69914 30.3986C2.76866 30.5756 2.94612 30.7671 2.94612 30.7671L12.0115 38.7505C12.0115 38.7505 12.2578 39.0344 12.6348 39.1903C13.0118 39.3462 13.4312 39.3125 13.4312 39.3125H33.0357C33.7906 39.3125 34.3571 38.8168 34.3571 38.1562V3.46875C34.3571 2.80819 33.7906 2.3125 33.0357 2.3125Z" fill="#808080"/>
</svg>
