<svg width="40" height="40" viewBox="0 0 40 40" fill="none" xmlns="http://www.w3.org/2000/svg">
<rect x="0.5" y="0.5" width="39" height="39" rx="4.5" stroke="url(#paint0_linear)"/>
<path fill-rule="evenodd" clip-rule="evenodd" d="M20.0001 7C12.8213 7 7 12.9673 7 20.329C7 26.2182 10.7249 31.2146 15.8903 32.9771C16.54 33.1005 16.7785 32.6879 16.7785 32.3359C16.7785 32.018 16.7664 30.968 16.7608 29.8543C13.1442 30.6606 12.381 28.2816 12.381 28.2816C11.7897 26.7409 10.9376 26.3312 10.9376 26.3312C9.75812 25.504 11.0265 25.5209 11.0265 25.5209C12.332 25.6148 13.0193 26.8945 13.0193 26.8945C14.1788 28.9323 16.0606 28.3432 16.8024 28.0026C16.9191 27.1413 17.256 26.5528 17.6278 26.2202C14.7403 25.8832 11.7049 24.7402 11.7049 19.6328C11.7049 18.1776 12.2127 16.9885 13.0443 16.0551C12.9093 15.7191 12.4644 14.3637 13.1703 12.5277C13.1703 12.5277 14.2619 12.1694 16.7462 13.894C17.7832 13.5986 18.8953 13.4505 20.0001 13.4454C21.1049 13.4505 22.2179 13.5986 23.2568 13.894C25.7381 12.1694 26.8282 12.5277 26.8282 12.5277C27.5359 14.3637 27.0907 15.7191 26.9557 16.0551C27.7892 16.9885 28.2936 18.1776 28.2936 19.6328C28.2936 24.7524 25.2524 25.8796 22.3576 26.2096C22.8239 26.6233 23.2394 27.4344 23.2394 28.678C23.2394 30.4612 23.2243 31.8966 23.2243 32.3359C23.2243 32.6906 23.4583 33.1062 24.1173 32.9753C29.2798 31.2108 33 26.2162 33 20.329C33 12.9673 27.1796 7 20.0001 7Z" fill="url(#paint1_linear)"/>
<defs>
<linearGradient id="paint0_linear" x1="20" y1="0" x2="20" y2="40" gradientUnits="userSpaceOnUse">
<stop stop-color="#A74EB3"/>
<stop offset="1" stop-color="#4E2A7B"/>
</linearGradient>
<linearGradient id="paint1_linear" x1="20" y1="7" x2="20" y2="33" gradientUnits="userSpaceOnUse">
<stop stop-color="#A84EB3"/>
<stop offset="1" stop-color="#4C297A"/>
</linearGradient>
</defs>
</svg>
