<svg width="40" height="40" viewBox="0 0 40 40" fill="none" xmlns="http://www.w3.org/2000/svg">
<path fill-rule="evenodd" clip-rule="evenodd" d="M35 1H5C2.79086 1 1 2.79086 1 5V35C1 37.2091 2.79086 39 5 39H35C37.2091 39 39 37.2091 39 35V5C39 2.79086 37.2091 1 35 1ZM5 0C2.23858 0 0 2.23858 0 5V35C0 37.7614 2.23858 40 5 40H35C37.7614 40 40 37.7614 40 35V5C40 2.23858 37.7614 0 35 0H5Z" fill="#2D2D2D"/>
<path fill-rule="evenodd" clip-rule="evenodd" d="M19.8567 7C14.4982 7.00051 10.7853 7.01834 8.87935 8.8795C7.01829 10.785 7.00045 14.6723 7.00045 19.8565C12.7569 19.6828 15.3893 19.5387 17.4888 17.4885C19.5388 15.389 19.683 12.7567 19.8567 7ZM8.87902 31.1207C7.01795 29.2152 7.00012 25.3279 7.00012 20.1437C12.7566 20.3174 15.389 20.4616 17.4885 22.5117C19.5385 24.6112 19.6827 27.2435 19.8564 32.9997C14.4979 32.9997 10.7849 32.9824 8.87902 31.1207ZM20.1438 32.9997C20.3175 27.2435 20.4617 24.6112 22.5118 22.5117C24.6112 20.4616 27.2436 20.3174 33.0001 20.1437C32.9995 25.3279 32.9817 29.2152 31.1206 31.1207C29.2147 32.9824 25.5023 32.9997 20.1438 32.9997ZM20.1438 7C20.3175 12.7567 20.4617 15.389 22.5118 17.4885C24.6112 19.5387 27.2436 19.6828 33.0001 19.8565C32.9995 14.6723 32.9817 10.785 31.1206 8.8795C29.2147 7.01834 25.5023 7.00051 20.1438 7Z" fill="#2C3036"/>
<path fill-rule="evenodd" clip-rule="evenodd" d="M22.5118 22.5117C20.4617 24.6112 20.3175 27.2435 20.1438 32.9997C25.5023 32.9997 29.2147 32.9824 31.1206 31.1207C32.9817 29.2152 32.9995 25.3279 33.0001 20.1437C27.2437 20.3174 24.6112 20.4616 22.5118 22.5117ZM7.00012 20.1437C7.00012 25.3279 7.01795 29.2152 8.87902 31.1207C10.7849 32.9824 14.4979 32.9997 19.8564 32.9997C19.6827 27.2435 19.5385 24.6112 17.4885 22.5117C15.389 20.4616 12.7566 20.3174 7.00012 20.1437ZM19.8567 7C14.4982 7.00051 10.7853 7.01834 8.87935 8.8795C7.01829 10.785 7.00045 14.6723 7.00045 19.8565C12.7569 19.6828 15.3893 19.5387 17.4888 17.4885C19.5388 15.389 19.683 12.7567 19.8567 7ZM22.5118 17.4885C20.4617 15.389 20.3175 12.7567 20.1438 7C25.5023 7.00051 29.2147 7.01834 31.1206 8.8795C32.9817 10.785 32.9995 14.6723 33.0001 19.8565C27.2437 19.6828 24.6112 19.5387 22.5118 17.4885Z" fill="url(#paint0_linear)"/>
<path fill-rule="evenodd" clip-rule="evenodd" d="M32.9999 20.1443V20.0006V19.8574C27.2435 19.6832 24.6111 19.5397 22.5116 17.489C20.4616 15.3899 20.3174 12.7577 20.1437 7.00098H19.9999H19.8563C19.6826 12.7577 19.5384 15.3899 17.4883 17.489C15.3888 19.5397 12.7564 19.6832 7 19.8574V20.0006V20.1443C12.7564 20.3184 15.3888 20.4621 17.4883 22.5122C19.5384 24.6118 19.6826 27.2441 19.8563 33.0007H19.9999H20.1437C20.3174 27.2441 20.4616 24.6118 22.5116 22.5122C24.6111 20.4621 27.2435 20.3184 32.9999 20.1443Z" fill="white"/>
<defs>
<linearGradient id="paint0_linear" x1="33.0001" y1="32.9997" x2="33.0001" y2="7" gradientUnits="userSpaceOnUse">
<stop stop-color="white" stop-opacity="0.01"/>
<stop offset="0.47509" stop-color="white" stop-opacity="0.01"/>
<stop offset="0.76042" stop-color="white" stop-opacity="0.04271"/>
<stop offset="0.99531" stop-color="white" stop-opacity="0.09855"/>
<stop offset="1" stop-color="white" stop-opacity="0.1"/>
</linearGradient>
</defs>
</svg>
