<svg width="40" height="40" viewBox="0 0 40 40" fill="none" xmlns="http://www.w3.org/2000/svg">
<path fill-rule="evenodd" clip-rule="evenodd" d="M35 1H5C2.79086 1 1 2.79086 1 5V35C1 37.2091 2.79086 39 5 39H35C37.2091 39 39 37.2091 39 35V5C39 2.79086 37.2091 1 35 1ZM5 0C2.23858 0 0 2.23858 0 5V35C0 37.7614 2.23858 40 5 40H35C37.7614 40 40 37.7614 40 35V5C40 2.23858 37.7614 0 35 0H5Z" fill="url(#paint0_linear)"/>
<path fill-rule="evenodd" clip-rule="evenodd" d="M20.0012 13.324C16.3143 13.324 13.3251 16.3131 13.3251 20C13.3251 23.6869 16.3143 26.6747 20.0012 26.6747C23.6881 26.6747 26.6762 23.6869 26.6762 20C26.6762 16.3131 23.6881 13.324 20.0012 13.324ZM24.3346 20C24.3346 17.6066 22.3943 15.6667 20.0012 15.6667C17.6078 15.6667 15.6678 17.6066 15.6678 20C15.6678 22.3931 17.6078 24.3333 20.0012 24.3333C22.3943 24.3333 24.3346 22.3931 24.3346 20Z" fill="url(#paint1_linear)"/>
<path d="M26.9406 11.5013C26.0793 11.5013 25.3806 12.1992 25.3806 13.0607C25.3806 13.922 26.0793 14.6207 26.9406 14.6207C27.8018 14.6207 28.5006 13.922 28.5006 13.0607C28.5006 12.1995 27.8018 11.5013 26.9406 11.5013Z" fill="url(#paint2_linear)"/>
<path fill-rule="evenodd" clip-rule="evenodd" d="M20.0012 7C16.4706 7 16.0275 7.01544 14.6408 7.07854C13.2569 7.14192 12.3122 7.36102 11.4856 7.6825C10.6306 8.01454 9.90526 8.45871 9.18267 9.18156C8.45954 9.90415 8.01536 10.6294 7.68224 11.4842C7.35994 12.311 7.14056 13.256 7.07827 14.6394C7.01625 16.0261 7 16.4694 7 20C7 23.5306 7.01571 23.9723 7.07854 25.359C7.14219 26.7429 7.3613 27.6876 7.68251 28.5142C8.01482 29.3692 8.45899 30.0945 9.18186 30.8171C9.90418 31.5402 10.6295 31.9855 11.484 32.3175C12.3111 32.639 13.256 32.8581 14.6397 32.9215C16.0264 32.9846 16.4692 33 19.9996 33C23.5305 33 23.9722 32.9846 25.3589 32.9215C26.7429 32.8581 27.6886 32.639 28.5158 32.3175C29.3705 31.9855 30.0947 31.5402 30.8171 30.8171C31.5402 30.0945 31.9844 29.3692 32.3175 28.5145C32.6371 27.6876 32.8565 26.7427 32.9215 25.3593C32.9837 23.9726 33 23.5306 33 20C33 16.4694 32.9837 16.0263 32.9215 14.6397C32.8565 13.2557 32.6371 12.311 32.3175 11.4845C31.9844 10.6294 31.5402 9.90415 30.8171 9.18156C30.0939 8.45844 29.3708 8.01427 28.515 7.6825C27.6862 7.36102 26.741 7.14192 25.357 7.07854C23.9703 7.01544 23.5289 7 19.9972 7H20.0012ZM20.0012 9.34271C19.5673 9.34271 19.1811 9.34217 18.835 9.34271V9.33946C16.4121 9.34217 15.9473 9.35842 14.7481 9.41258C13.4806 9.47081 12.7924 9.68206 12.3341 9.86081C11.7274 10.097 11.2941 10.3786 10.8391 10.8336C10.3841 11.2886 10.1019 11.722 9.86626 12.3286C9.68832 12.7869 9.47653 13.4748 9.41857 14.7423C9.35627 16.1127 9.34382 16.5222 9.34382 19.9938C9.34382 23.4653 9.35627 23.877 9.41857 25.2474C9.47626 26.5149 9.68832 27.2028 9.86626 27.6605C10.1024 28.2675 10.3841 28.6997 10.8391 29.1547C11.2941 29.6097 11.7274 29.8914 12.3341 30.127C12.7926 30.3049 13.4806 30.5167 14.7481 30.5752C16.1185 30.6375 16.5299 30.6511 20.0012 30.6511C23.4723 30.6511 23.8839 30.6375 25.2544 30.5752C26.5219 30.5173 27.2103 30.306 27.668 30.1273C28.275 29.8916 28.707 29.61 29.162 29.155C29.617 28.7003 29.8992 28.2683 30.1348 27.6616C30.3128 27.2039 30.5246 26.516 30.5825 25.2485C30.6448 23.8781 30.6583 23.4664 30.6583 19.997C30.6583 16.5276 30.6448 16.116 30.5825 14.7456C30.5248 13.4781 30.3128 12.7901 30.1348 12.3324C29.8987 11.7258 29.617 11.2924 29.162 10.8374C28.7072 10.3824 28.2747 10.1008 27.668 9.86515C27.2098 9.68721 26.5219 9.47542 25.2544 9.41746C23.8837 9.35517 23.4723 9.34271 20.0012 9.34271Z" fill="url(#paint3_linear)"/>
<defs>
<linearGradient id="paint0_linear" x1="8.5" y1="31.5" x2="31.5" y2="8.5" gradientUnits="userSpaceOnUse">
<stop stop-color="#F5A817"/>
<stop offset="1" stop-color="#9C13D5"/>
</linearGradient>
<linearGradient id="paint1_linear" x1="7" y1="33" x2="33" y2="7" gradientUnits="userSpaceOnUse">
<stop stop-color="#FEB802"/>
<stop offset="1" stop-color="#9202E9"/>
</linearGradient>
<linearGradient id="paint2_linear" x1="7" y1="33" x2="33" y2="7" gradientUnits="userSpaceOnUse">
<stop stop-color="#FEB802"/>
<stop offset="1" stop-color="#9202E9"/>
</linearGradient>
<linearGradient id="paint3_linear" x1="7" y1="33" x2="33" y2="7" gradientUnits="userSpaceOnUse">
<stop stop-color="#FEB802"/>
<stop offset="1" stop-color="#9202E9"/>
</linearGradient>
</defs>
</svg>
