<svg width="16" height="12" viewBox="0 0 16 12" fill="none" xmlns="http://www.w3.org/2000/svg">
<path d="M6.56869 8.89308L4.95845 10.5275C4.46601 11.0271 3.66513 11.0271 3.17269 10.5275L1.45079 8.77975C0.958535 8.28012 0.958535 7.46704 1.45079 6.96723L4.92652 3.4394C5.41895 2.93977 6.21984 2.93977 6.71227 3.4394L8.43417 5.18711C8.77744 5.5357 8.89378 6.06115 8.73036 6.526C8.6297 6.81179 8.77653 7.12596 9.05792 7.22794C9.33932 7.3301 9.64885 7.18107 9.7495 6.89546C10.0531 6.03314 9.83698 5.05749 9.19934 4.41047L7.47744 2.66276C6.56328 1.73471 5.07551 1.73471 4.16117 2.66276L0.685622 6.19059C-0.22854 7.11845 -0.22854 8.62834 0.685622 9.55639L2.40752 11.3041C2.8646 11.768 3.46509 12 4.06557 12C4.66605 12 5.26653 11.768 5.72361 11.3039L7.33386 9.66953C7.54526 9.45514 7.54526 9.10729 7.33386 8.89271C7.12264 8.67851 6.7801 8.67851 6.56869 8.89308ZM15.3144 2.44379L13.5925 0.695899C12.6783 -0.231966 11.1905 -0.231966 10.2762 0.695899L8.66596 2.33047C8.45456 2.54486 8.45456 2.89271 8.66596 3.10729C8.87737 3.32168 9.22009 3.32168 9.43113 3.10729L11.0414 1.47272C11.5338 0.973087 12.3347 0.973087 12.8271 1.47272L14.549 3.22043C15.0413 3.72007 15.0413 4.53314 14.549 5.03295L11.0735 8.5606C10.581 9.06023 9.78016 9.06023 9.28773 8.5606L7.56583 6.81289C7.22257 6.4643 7.10622 5.93867 7.26964 5.474C7.3703 5.18839 7.22347 4.87404 6.94208 4.77206C6.66104 4.66972 6.35115 4.81875 6.2505 5.10454C5.94692 5.96686 6.16302 6.94233 6.80066 7.58953L8.52256 9.33724C8.97964 9.80117 9.58012 10.0331 10.1806 10.0331C10.7811 10.0331 11.3816 9.80117 11.8386 9.33705L15.3144 5.80959C16.2285 4.88173 16.2285 3.37184 15.3144 2.44379Z" fill="#966b00"/>
</svg>
