<svg width="42" height="43" viewBox="0 0 42 43" fill="none" xmlns="http://www.w3.org/2000/svg">
<path d="M25.7866 11.5496L11.5813 18.0828L12.8047 19.9048L26.7413 13.6127L25.7866 11.5496Z" fill="#D79B00"/>
<path fill-rule="evenodd" clip-rule="evenodd" d="M11.6965 17.7713C10.4681 16.386 8.68186 15.5049 6.69453 15.5049C3.01046 15.5049 0 18.5153 0 22.1994C0 25.8835 3.01046 28.8939 6.69453 28.8939C10.3786 28.8939 13.3891 25.8835 13.3891 22.1994C13.3891 21.3023 13.2082 20.4463 12.8849 19.6628L11.6965 17.7713ZM11.1576 22.1994C11.1576 19.7213 9.1726 17.7364 6.69453 17.7364C4.21646 17.7364 2.23151 19.7213 2.23151 22.1994C2.23151 24.6775 4.21646 26.6624 6.69453 26.6624C9.1726 26.6624 11.1576 24.6775 11.1576 22.1994Z" fill="#808080"/>
<path d="M14.3258 26.0637C14.0763 26.04 13.8261 26.1011 13.6155 26.237C13.405 26.3729 13.2463 26.5757 13.165 26.8128C13.0838 27.0498 13.0847 27.3073 13.1676 27.5438C13.2505 27.7803 13.4107 27.982 13.6222 28.1164L20.4248 32.5758C20.0031 33.3795 19.7363 34.2791 19.6748 35.2399C19.4394 38.9164 22.2513 42.1131 25.9278 42.3486C29.6044 42.584 32.8011 39.7721 33.0365 36.0955C33.2719 32.419 30.46 29.2223 26.7835 28.9869C24.8674 28.8642 23.0861 29.5741 21.7819 30.7978L14.8465 26.2513C14.6915 26.146 14.5124 26.0815 14.3258 26.0637ZM26.6409 31.2138C29.1139 31.3722 30.9679 33.4799 30.8095 35.9529C30.6512 38.4259 28.5434 40.28 26.0704 40.1216C23.5974 39.9632 21.7434 37.8555 21.9017 35.3825C22.0601 32.9095 24.1679 31.0555 26.6409 31.2138Z" fill="#808080"/>
<path fill-rule="evenodd" clip-rule="evenodd" d="M34.3965 3.39278C35.321 3.72567 36.1888 4.26951 36.9177 5.01706C39.4897 7.65479 39.4359 11.9119 36.7981 14.4838C34.1604 17.0557 29.9033 17.0019 27.3314 14.3642C25.6446 12.6342 25.0909 10.2086 25.652 8.01789C25.7208 7.74967 25.8062 7.48497 25.9083 7.2255C25.9083 7.2255 26.2528 6.48679 26.4413 6.17203C26.4833 6.10198 26.5402 6.01768 26.6033 5.92895C26.8237 5.61899 27.1198 5.2549 27.1198 5.2549L27.1468 5.22442C27.245 5.11352 27.3434 5.0024 27.451 4.89745C28.1887 4.1782 29.0565 3.6601 29.9753 3.34925C30.1152 3.29734 30.2642 3.27403 30.4133 3.2807C30.5624 3.28737 30.7086 3.32388 30.8434 3.38808C30.9781 3.45227 31.0986 3.54285 31.1977 3.65445C31.2968 3.76604 31.3725 3.89639 31.4204 4.03776C31.4682 4.17914 31.4872 4.32868 31.4762 4.47753C31.4653 4.62638 31.4245 4.77152 31.3565 4.90435C31.2884 5.03717 31.1944 5.155 31.08 5.25084C30.9655 5.34668 30.8331 5.4186 30.6904 5.46234C30.079 5.66919 29.505 6.01138 29.0089 6.49517C27.2346 8.22516 27.1991 11.0321 28.9291 12.8063C30.6591 14.5806 33.466 14.6161 35.2403 12.8861C37.0145 11.1561 37.05 8.34917 35.32 6.57491C34.8297 6.07207 34.2558 5.71293 33.6406 5.49139C33.4984 5.4452 33.3669 5.37091 33.254 5.27292C33.1411 5.17493 33.049 5.05525 32.9832 4.92098C32.9175 4.78671 32.8793 4.64059 32.8711 4.49131C32.8629 4.34202 32.8848 4.19261 32.9355 4.05195C32.9862 3.91128 33.0646 3.78224 33.1661 3.67247C33.2676 3.5627 33.3902 3.47446 33.5264 3.41297C33.6627 3.35149 33.81 3.31801 33.9594 3.31454C34.1089 3.31107 34.2576 3.33768 34.3965 3.39278Z" fill="#808080"/>
</svg>
