<svg width="40" height="40" viewBox="0 0 40 40" fill="none" xmlns="http://www.w3.org/2000/svg">
<path fill-rule="evenodd" clip-rule="evenodd" d="M35 1H5C2.79086 1 1 2.79086 1 5V35C1 37.2091 2.79086 39 5 39H35C37.2091 39 39 37.2091 39 35V5C39 2.79086 37.2091 1 35 1ZM5 0C2.23858 0 0 2.23858 0 5V35C0 37.7614 2.23858 40 5 40H35C37.7614 40 40 37.7614 40 35V5C40 2.23858 37.7614 0 35 0H5Z" fill="#25D366"/>
<path d="M26.5764 22.9567C26.4955 22.8224 26.2799 22.7419 25.9564 22.5807C25.633 22.4196 24.0427 21.6409 23.7461 21.5333C23.4497 21.4259 23.2339 21.3723 23.0183 21.6944C22.8027 22.0167 22.1828 22.7419 21.9941 22.9567C21.8054 23.1715 21.6167 23.1985 21.2934 23.0373C20.9699 22.8762 19.9276 22.5363 18.6921 21.4395C17.7305 20.5858 17.0813 19.5317 16.8926 19.2094C16.7039 18.8871 16.8725 18.7129 17.0344 18.5524C17.18 18.4081 17.3579 18.1763 17.5196 17.9884C17.6814 17.8005 17.7353 17.6661 17.8431 17.4514C17.9509 17.2365 17.897 17.0486 17.8161 16.8874C17.7353 16.7263 17.0884 15.1417 16.8188 14.4971C16.5562 13.8694 16.2896 13.9544 16.091 13.9445C15.9026 13.9351 15.6867 13.9331 15.4711 13.9331C15.2555 13.9331 14.905 14.0137 14.6085 14.336C14.312 14.6583 13.4764 15.4371 13.4764 17.0215C13.4764 18.5978 14.6234 20.1209 14.7946 20.3482L14.7972 20.3517C14.9589 20.5666 17.0781 23.8181 20.323 25.2125C21.0947 25.5442 21.6972 25.7423 22.167 25.8906C22.9419 26.1357 23.6471 26.1011 24.2043 26.0182C24.8259 25.9258 26.1181 25.2395 26.3878 24.4876C26.6572 23.7355 26.6572 23.0909 26.5764 22.9567Z" fill="#25D366"/>
<path fill-rule="evenodd" clip-rule="evenodd" d="M20.0544 32.7766C27.192 32.7737 32.9971 26.995 33 19.893C33.0014 16.4506 31.6561 13.2137 29.2119 10.7785C26.7678 8.34321 23.5174 7.00149 20.0543 7C12.9188 7 7.11138 12.7793 7.10854 19.8829C7.10756 22.1536 7.70368 24.3699 8.83657 26.3238L7 33L13.8627 31.2084C15.7535 32.2348 17.8824 32.7758 20.0491 32.7766H20.0544ZM10.1082 29.9392L14.1806 28.876L14.5735 29.1081C16.2256 30.0837 18.1193 30.6 20.0501 30.6007H20.0544C25.985 30.6007 30.8118 25.7969 30.8142 19.8923C30.8153 17.031 29.6972 14.3406 27.6657 12.3164C25.6342 10.2923 22.9326 9.17708 20.0587 9.17609C14.1235 9.17609 9.29662 13.9795 9.29427 19.8836C9.29343 21.907 9.8623 23.8775 10.9394 25.5825L11.1952 25.9876L10.1082 29.9392Z" fill="#25D366"/>
</svg>
