<svg width="40" height="40" viewBox="0 0 40 40" fill="none" xmlns="http://www.w3.org/2000/svg">
<path fill-rule="evenodd" clip-rule="evenodd" d="M35 1H5C2.79086 1 1 2.79086 1 5V35C1 37.2091 2.79086 39 5 39H35C37.2091 39 39 37.2091 39 35V5C39 2.79086 37.2091 1 35 1ZM5 0C2.23858 0 0 2.23858 0 5V35C0 37.7614 2.23858 40 5 40H35C37.7614 40 40 37.7614 40 35V5C40 2.23858 37.7614 0 35 0H5Z" fill="#0077B5"/>
<path d="M33 22.2152C33 17.0722 30.2508 14.6786 26.5836 14.6786C23.6248 14.6786 22.3001 16.3038 21.5605 17.4438V15.0722H15.987C16.0605 16.6434 15.987 31.8162 15.987 31.8162H21.5605V22.465C21.5605 21.9645 21.5966 21.4653 21.744 21.1071C22.1468 20.1073 23.0638 19.0722 24.6034 19.0722C26.6208 19.0722 27.4272 20.6076 27.4272 22.8577V31.8157H32.9998L33 22.2152Z" fill="#0077B5"/>
<path d="M12.9023 15.0718H7.32953V31.8157H12.9023V15.0718Z" fill="#0077B5"/>
<path d="M13.2694 9.89218C13.2332 8.25044 12.0592 7 10.1528 7C8.24635 7 7 8.25044 7 9.89218C7 11.4999 8.20951 12.7864 10.0804 12.7864H10.116C12.0592 12.7864 13.2694 11.4999 13.2694 9.89218Z" fill="#0077B5"/>
</svg>
