<svg width="37" height="37" viewBox="0 0 37 37" fill="none" xmlns="http://www.w3.org/2000/svg">
<path d="M3.46885 0C1.56717 0 0.000119113 1.56705 0.000119113 3.46873V15.802C-0.00204774 15.9552 0.0262584 16.1073 0.0833927 16.2495C0.140527 16.3917 0.22535 16.5211 0.332932 16.6302C0.440514 16.7393 0.56871 16.826 0.710069 16.8851C0.851428 16.9442 1.00313 16.9747 1.15636 16.9747C1.30959 16.9747 1.4613 16.9442 1.60265 16.8851C1.74401 16.826 1.87221 16.7393 1.97979 16.6302C2.08737 16.5211 2.1722 16.3917 2.22933 16.2495C2.28647 16.1073 2.31477 15.9552 2.3126 15.802V3.46873C2.3126 2.80817 2.80829 2.31249 3.46885 2.31249H33.5312C34.1917 2.31249 34.6874 2.80817 34.6874 3.46873V19.2707C34.6852 19.4239 34.7135 19.576 34.7707 19.7182C34.8278 19.8604 34.9126 19.9898 35.0202 20.0989C35.1278 20.208 35.256 20.2947 35.3974 20.3538C35.5387 20.413 35.6904 20.4434 35.8436 20.4434C35.9969 20.4434 36.1486 20.413 36.2899 20.3538C36.4313 20.2947 36.5595 20.208 36.6671 20.0989C36.7747 19.9898 36.8595 19.8604 36.9166 19.7182C36.9737 19.576 37.0021 19.4239 36.9999 19.2707V3.46873C36.9999 1.56705 35.4328 0 33.5312 0H3.46885ZM10.7887 15.4166C8.66663 15.421 6.5758 15.8061 4.61154 16.5412C4.46929 16.5945 4.33893 16.6753 4.22789 16.7789C4.11686 16.8826 4.02733 17.0071 3.96442 17.1454C3.83737 17.4246 3.82645 17.7429 3.93405 18.0302C4.04166 18.3174 4.25899 18.5502 4.53822 18.6773C4.81746 18.8043 5.13573 18.8153 5.42302 18.7076C7.13016 18.0688 8.94733 17.7332 10.7917 17.7291C19.3197 17.7291 26.2083 24.6176 26.2083 33.1456C26.2046 33.6612 26.1657 34.175 26.1104 34.6873H3.46885C2.80829 34.6873 2.3126 34.1916 2.3126 33.531V19.6561C2.31482 19.5014 2.28596 19.3477 2.22771 19.2043C2.16946 19.061 2.08302 18.9307 1.97351 18.8213C1.864 18.712 1.73365 18.6257 1.59018 18.5676C1.44671 18.5096 1.29305 18.4809 1.1383 18.4833C0.831903 18.4881 0.539939 18.6143 0.326531 18.8342C0.113123 19.0541 -0.00427616 19.3497 0.000119113 19.6561V33.531C0.000119113 35.4327 1.56717 36.9998 3.46885 36.9998H33.5312C35.4328 36.9998 36.9999 35.4327 36.9999 33.531V23.1249C37.0021 22.9716 36.9737 22.8195 36.9166 22.6773C36.8595 22.5352 36.7747 22.4057 36.6671 22.2966C36.5595 22.1875 36.4313 22.1009 36.2899 22.0417C36.1486 21.9826 35.9969 21.9521 35.8436 21.9521C35.6904 21.9521 35.5387 21.9826 35.3974 22.0417C35.256 22.1009 35.1278 22.1875 35.0202 22.2966C34.9126 22.4057 34.8278 22.5352 34.7707 22.6773C34.7135 22.8195 34.6852 22.9716 34.6874 23.1249V33.531C34.6874 34.1916 34.1917 34.6873 33.5312 34.6873H28.441C28.4887 34.1774 28.5173 33.6657 28.5208 33.1531C28.5208 33.1506 28.5208 33.1481 28.5208 33.1456C28.5208 29.9383 27.6611 26.9304 26.1661 24.3323C27.5005 23.311 29.1359 22.7424 30.8333 22.7394C31.1718 22.7394 31.5089 22.7618 31.842 22.8057C31.9925 22.8256 32.1455 22.8156 32.2922 22.7763C32.4389 22.7371 32.5764 22.6693 32.6969 22.5769C32.8175 22.4845 32.9186 22.3692 32.9945 22.2377C33.0705 22.1063 33.1199 21.9611 33.1397 21.8105C33.1596 21.66 33.1496 21.507 33.1104 21.3603C33.0711 21.2136 33.0033 21.0761 32.9109 20.9555C32.8185 20.835 32.7033 20.7339 32.5718 20.6579C32.4403 20.582 32.2951 20.5326 32.1446 20.5128C31.7116 20.4557 31.2733 20.4269 30.8333 20.427C30.8328 20.427 30.8323 20.427 30.8318 20.427C28.6772 20.4303 26.5996 21.1379 24.8879 22.4082C21.6463 18.1623 16.5354 15.4166 10.7917 15.4166C10.7907 15.4166 10.7897 15.4166 10.7887 15.4166Z" fill="#808080"/>
<path d="M26.2082 4.625C23.6676 4.625 21.5833 6.70937 21.5833 9.24997C21.5833 11.7906 23.6676 13.8749 26.2082 13.8749C28.7488 13.8749 30.8332 11.7906 30.8332 9.24997C30.8332 6.70937 28.7488 4.625 26.2082 4.625ZM26.2082 6.93749C27.4991 6.93749 28.5207 7.95912 28.5207 9.24997C28.5207 10.5408 27.4991 11.5625 26.2082 11.5625C24.9174 11.5625 23.8957 10.5408 23.8957 9.24997C23.8957 7.95912 24.9174 6.93749 26.2082 6.93749Z" fill="#D79B00"/>
</svg>
