<svg width="163" height="50" viewBox="0 0 163 50" fill="none" xmlns="http://www.w3.org/2000/svg">
<path fill-rule="evenodd" clip-rule="evenodd" d="M55.7378 36.2839H56.2588L58.6536 32.4957V36.2839H59.0575V32.0636H58.5365L56.1416 35.8517V32.0636H55.7378V36.2839ZM63.2777 35.044C63.2802 34.8782 63.25 34.7136 63.1889 34.5594C63.1314 34.426 63.0428 34.3082 62.9304 34.2161C62.8124 34.1223 62.6741 34.0573 62.5266 34.0263C62.6091 33.9981 62.6868 33.9572 62.7568 33.9052C62.8306 33.8475 62.897 33.7811 62.9547 33.7073C63.0143 33.6271 63.0619 33.5387 63.096 33.4448C63.132 33.3451 63.1498 33.2398 63.1485 33.1338C63.154 32.9548 63.1152 32.7772 63.0354 32.6169C62.9639 32.4738 62.8586 32.3505 62.7285 32.2574C62.5887 32.1616 62.4327 32.0918 62.2681 32.0515C62.0863 32.0034 61.8988 31.9803 61.7108 31.9828C61.502 31.9795 61.2938 32.0067 61.0929 32.0636C60.9159 32.1121 60.7499 32.1944 60.6042 32.3059C60.4657 32.4137 60.3538 32.5519 60.2771 32.7098C60.191 32.8875 60.1442 33.0817 60.1398 33.2792H60.5437C60.5545 33.1389 60.5915 33.002 60.6527 32.8753C60.7121 32.7578 60.7977 32.6555 60.9031 32.5765C61.0143 32.4929 61.1404 32.4313 61.2746 32.3948C61.4258 32.353 61.5822 32.3326 61.7391 32.3342C61.8755 32.332 62.0115 32.3497 62.1429 32.3867C62.2608 32.4162 62.3719 32.4683 62.47 32.5401C62.5625 32.6091 62.6373 32.6991 62.6881 32.8026C62.7417 32.922 62.7692 33.0514 62.7689 33.1823C62.7701 33.2942 62.7452 33.4048 62.6962 33.5054C62.6532 33.5967 62.5896 33.6769 62.5104 33.7396C62.4316 33.8026 62.341 33.8493 62.2439 33.8769C62.1393 33.9094 62.0303 33.9257 61.9208 33.9254H61.2423V34.2686H61.9208C62.0481 34.2684 62.1748 34.2875 62.2964 34.3252C62.408 34.3629 62.512 34.4204 62.6033 34.4948C62.6916 34.566 62.7622 34.6566 62.8099 34.7596C62.8575 34.8625 62.8808 34.9751 62.8779 35.0885C62.8819 35.227 62.8557 35.3648 62.8012 35.4923C62.747 35.611 62.6701 35.718 62.575 35.8073C62.4706 35.9018 62.3484 35.9745 62.2156 36.0214C62.0615 36.0766 61.8987 36.104 61.735 36.1021C61.4947 36.1084 61.2557 36.0658 61.0323 35.9769C60.8426 35.9002 60.6816 35.766 60.5719 35.5933C60.4574 35.3976 60.4 35.1738 60.4063 34.9471H60.0025V34.9835C59.9956 35.2558 60.0656 35.5245 60.2044 35.7589C60.3448 35.9768 60.5454 36.1493 60.7819 36.2556C61.0677 36.377 61.3761 36.4362 61.6866 36.4293C61.8959 36.4318 62.1043 36.4019 62.3045 36.3404C62.4667 36.2918 62.6187 36.2138 62.7527 36.1102C62.8691 36.0237 62.9689 35.917 63.0475 35.7952C63.1198 35.6855 63.1756 35.5657 63.2131 35.4398C63.2459 35.3297 63.2622 35.2154 63.2616 35.1006L63.2777 35.044ZM67.9261 37.4147V35.9406H67.4819V32.0636H64.8608V32.3059C64.8608 32.5038 64.8608 32.7098 64.8608 32.948C64.8608 33.1863 64.8608 33.4125 64.8285 33.6588C64.8124 33.912 64.7828 34.1641 64.7397 34.414C64.6936 34.6751 64.6302 34.9328 64.5499 35.1854C64.4672 35.4458 64.3618 35.6986 64.2349 35.9406H63.831V37.4147H64.2349V36.2839H67.5061V37.4147H67.9261ZM67.078 35.9406H64.6549C64.7753 35.713 64.8754 35.4751 64.9537 35.2298C65.0301 34.9906 65.0894 34.7464 65.1314 34.4988C65.1759 34.2525 65.2041 34.0102 65.2243 33.7759C65.2445 33.5417 65.2526 33.3115 65.2566 33.0934C65.2607 32.8753 65.2566 32.6896 65.2566 32.4836V32.4069H67.0699V35.9406H67.078ZM71.6375 32.0636H68.7096V36.2839H71.6617V35.9406H69.1134V34.2646H71.48V33.9254H69.1134V32.4069H71.6375V32.0636ZM75.6397 36.2839V32.0636H73.156L73.0752 34.6685C73.0684 34.8928 73.0496 35.1166 73.0187 35.3389C73.0004 35.4773 72.9651 35.6129 72.9137 35.7427C72.8837 35.8282 72.8306 35.9037 72.7602 35.9608C72.702 36.0041 72.6309 36.0269 72.5583 36.0254H72.4129C72.3612 36.0216 72.3098 36.0135 72.2594 36.0012C72.2187 35.9934 72.1792 35.9798 72.1423 35.9608V36.2839C72.2047 36.3106 72.2697 36.3309 72.3362 36.3444C72.4131 36.3611 72.4917 36.3692 72.5704 36.3687C72.7133 36.372 72.8539 36.3326 72.9743 36.2556C73.0898 36.1771 73.1831 36.0699 73.2449 35.9446C73.3188 35.7969 73.3705 35.639 73.3983 35.4762C73.4361 35.2818 73.4564 35.0845 73.4589 34.8865L73.5356 32.4028H75.2359V36.2839H75.6397ZM76.7745 36.2839H77.3157L79.7105 32.4957V36.2839H80.1144V32.0636H79.5934L77.1945 35.8517V32.0636H76.7907V36.2839H76.7745ZM82.8323 34.41H83.737V36.2839H84.1408V32.0636H82.3679C82.1348 32.0585 81.9033 32.104 81.6894 32.1969C81.5049 32.285 81.3504 32.4254 81.2452 32.6007C81.143 32.795 81.0896 33.0112 81.0896 33.2307C81.0896 33.4503 81.143 33.6665 81.2452 33.8607C81.339 34.0307 81.479 34.1707 81.649 34.2646C81.8507 34.3622 82.0712 34.4146 82.2952 34.4181L80.8413 36.2839H81.3542L82.8081 34.41H82.8323ZM83.737 34.0667H82.4568C82.2809 34.0709 82.1061 34.0379 81.9439 33.9698C81.8065 33.9129 81.6897 33.8158 81.6087 33.6911C81.5274 33.5516 81.4868 33.3921 81.4915 33.2307C81.4863 33.0706 81.5269 32.9122 81.6087 32.7744C81.6901 32.6511 81.8069 32.5553 81.9439 32.4998C82.1064 32.4332 82.2812 32.4015 82.4568 32.4069H83.737V34.0667ZM86.6447 36.2839H87.1657L89.5605 32.4957V36.2839H89.9644V32.0636H89.4313L87.0324 35.8517V32.0636H86.6286V36.2839H86.6447ZM94.1847 35.044C94.1873 34.8778 94.1557 34.7129 94.0918 34.5594C94.0344 34.427 93.9474 34.3095 93.8374 34.2161C93.7193 34.1223 93.5811 34.0573 93.4335 34.0263V34.0263C93.5149 33.9982 93.5912 33.9573 93.6597 33.9052C93.7356 33.8487 93.8036 33.7821 93.8616 33.7073C93.9197 33.6262 93.9672 33.5379 94.0029 33.4448C94.037 33.3446 94.0547 33.2396 94.0554 33.1338C94.059 32.955 94.0203 32.7779 93.9424 32.6169C93.8709 32.4738 93.7655 32.3505 93.6354 32.2574C93.4956 32.1616 93.3397 32.0918 93.175 32.0515C92.9919 32.0031 92.8031 31.98 92.6137 31.9828C92.4062 31.9794 92.1994 32.0067 91.9998 32.0636C91.8228 32.1121 91.6569 32.1944 91.5112 32.3059C91.3716 32.4126 91.2595 32.5511 91.184 32.7098C91.0984 32.8879 91.0503 33.0817 91.0427 33.2792H91.4465C91.4557 33.1387 91.4927 33.0014 91.5556 32.8753C91.615 32.7578 91.7006 32.6555 91.806 32.5765C91.9172 32.4929 92.0433 32.4313 92.1775 32.3948C92.3274 32.3529 92.4824 32.3325 92.6379 32.3342C92.7743 32.3324 92.9103 32.3501 93.0418 32.3867C93.1597 32.4162 93.2708 32.4683 93.3689 32.5401C93.4614 32.6091 93.5361 32.6991 93.587 32.8026C93.6411 32.9217 93.6673 33.0515 93.6637 33.1823C93.6662 33.2938 93.6427 33.4044 93.595 33.5054C93.552 33.5967 93.4884 33.6769 93.4093 33.7396C93.3289 33.8026 93.237 33.8493 93.1387 33.8769C93.0341 33.9096 92.9252 33.926 92.8156 33.9254H92.1412V34.2686H92.8156C92.9443 34.2681 93.0723 34.2872 93.1952 34.3252C93.306 34.362 93.4088 34.4196 93.4981 34.4948C93.585 34.563 93.6554 34.65 93.7041 34.7492C93.7536 34.8554 93.7785 34.9713 93.7768 35.0885C93.7808 35.227 93.7546 35.3648 93.7001 35.4923C93.6458 35.611 93.569 35.718 93.4739 35.8073C93.3695 35.9018 93.2473 35.9745 93.1145 36.0214C92.9603 36.0766 92.7976 36.104 92.6339 36.1021C92.3936 36.1084 92.1545 36.0658 91.9312 35.9769C91.7415 35.9002 91.5805 35.766 91.4708 35.5933C91.3541 35.3985 91.2966 35.174 91.3052 34.9471H90.9013V34.9835C90.8945 35.2558 90.9645 35.5245 91.1033 35.7589C91.2426 35.9777 91.4435 36.1505 91.6808 36.2556C91.9666 36.377 92.275 36.4362 92.5854 36.4293C92.7947 36.4318 93.0032 36.4019 93.2033 36.3404C93.3649 36.2901 93.5166 36.2122 93.6516 36.1102C93.7679 36.0237 93.8678 35.917 93.9464 35.7952C94.0187 35.6855 94.0744 35.5657 94.112 35.4398C94.1428 35.3293 94.1591 35.2153 94.1604 35.1006L94.1847 35.044ZM98.1707 32.0515H97.7224L96.002 36.2839H96.4341L96.9511 34.9552H98.8815L99.3903 36.2839H99.8346L98.1546 32.0515H98.1707ZM98.7725 34.6281H97.0884L97.9122 32.4311L98.7401 34.6281H98.7725ZM103.914 32.0636H103.364L100.905 34.3333V32.0636H100.501V36.2839H100.905V34.7977L101.713 34.0586L103.477 36.2839H103.994L101.995 33.7881L103.897 32.0636H103.914ZM104.685 32.0636V36.2839H105.089V34.4827H106.482C106.667 34.4839 106.85 34.458 107.027 34.4059C107.183 34.3584 107.327 34.2801 107.451 34.1757C107.573 34.064 107.667 33.9258 107.726 33.7719C107.792 33.5992 107.825 33.4156 107.823 33.2307C107.825 33.0537 107.792 32.8781 107.726 32.7138C107.664 32.5705 107.57 32.4433 107.451 32.3423C107.333 32.2423 107.195 32.1668 107.047 32.1201C106.871 32.0701 106.689 32.0456 106.506 32.0474L104.685 32.0636ZM105.089 32.4069H106.393C106.575 32.4027 106.756 32.4329 106.926 32.4957C107.069 32.5528 107.19 32.6531 107.274 32.7825C107.365 32.9317 107.41 33.1045 107.403 33.2792C107.408 33.4187 107.379 33.5573 107.318 33.683C107.268 33.7896 107.192 33.8815 107.096 33.9496C106.995 34.0215 106.881 34.0735 106.761 34.1031C106.628 34.1326 106.493 34.1475 106.357 34.1475H105.077V32.4069H105.089ZM108.699 36.2839H109.22L111.615 32.4957V36.2839H112.019V32.0636H111.482L109.087 35.8517V32.0636H108.683V36.2839H108.699ZM116.288 36.2839V32.0636H113.804L113.703 34.6685C113.699 34.8928 113.682 35.1167 113.65 35.3389C113.632 35.4773 113.597 35.6129 113.545 35.7427C113.514 35.8275 113.461 35.9026 113.392 35.9608C113.333 36.0036 113.263 36.0263 113.19 36.0254H113.045C112.993 36.0216 112.942 36.0135 112.891 36.0012C112.85 35.9934 112.811 35.9798 112.774 35.9608V36.2839C112.835 36.3106 112.899 36.3309 112.964 36.3444C113.042 36.3611 113.122 36.3692 113.202 36.3687C113.345 36.3712 113.485 36.3319 113.606 36.2556C113.722 36.1771 113.815 36.0699 113.877 35.9446C113.95 35.7969 114.002 35.639 114.03 35.4762C114.068 35.2818 114.088 35.0845 114.091 34.8865L114.167 32.4028H115.868V36.2839H116.288ZM119.187 31.9626C118.91 31.9591 118.635 32.0127 118.38 32.1201C118.141 32.2251 117.928 32.3792 117.754 32.5724C117.574 32.7764 117.437 33.0139 117.35 33.2711C117.25 33.5607 117.201 33.8654 117.204 34.1717C117.201 34.479 117.249 34.7848 117.346 35.0763C117.434 35.3333 117.571 35.5706 117.75 35.775C117.924 35.9674 118.137 36.1203 118.376 36.2233C118.631 36.3321 118.906 36.3871 119.183 36.3848C119.46 36.3861 119.735 36.3326 119.991 36.2273C120.232 36.1264 120.447 35.9733 120.621 35.779C120.801 35.5774 120.939 35.341 121.025 35.0844C121.219 34.4983 121.219 33.8653 121.025 33.2792C120.939 33.0201 120.802 32.781 120.621 32.5765C120.446 32.3819 120.231 32.2276 119.991 32.1242C119.736 32.0134 119.461 31.9584 119.183 31.9626H119.187ZM119.187 32.3099C119.413 32.3096 119.635 32.3564 119.841 32.4473C120.035 32.5341 120.206 32.664 120.342 32.8269C120.488 33.0008 120.599 33.2009 120.669 33.4165C120.748 33.6633 120.786 33.921 120.782 34.1798C120.786 34.4373 120.748 34.6938 120.669 34.939C120.603 35.1543 120.493 35.3536 120.346 35.5246C120.21 35.6863 120.039 35.8147 119.846 35.9002C119.64 35.9882 119.419 36.0336 119.195 36.0336C118.972 36.0336 118.751 35.9882 118.545 35.9002C118.352 35.8138 118.181 35.6855 118.044 35.5246C117.9 35.3494 117.792 35.1477 117.725 34.931C117.648 34.6812 117.61 34.421 117.612 34.1596C117.611 33.9048 117.649 33.6514 117.725 33.4084C117.793 33.1939 117.903 32.9949 118.048 32.8228C118.184 32.6613 118.354 32.5317 118.545 32.4432C118.748 32.3564 118.966 32.3111 119.187 32.3099V32.3099ZM122.119 32.0636V36.2839H123.985C124.172 36.2854 124.358 36.2609 124.538 36.2112C124.702 36.1639 124.855 36.0873 124.991 35.985C125.122 35.8852 125.228 35.7567 125.302 35.6094C125.365 35.438 125.39 35.2545 125.374 35.0723C125.377 34.9276 125.353 34.7837 125.302 34.6483C125.256 34.5366 125.189 34.4351 125.104 34.3494C125.02 34.2682 124.923 34.2014 124.817 34.1515C124.709 34.1021 124.595 34.0668 124.478 34.0465C124.613 34.0151 124.738 33.9529 124.845 33.8648C124.956 33.7781 125.046 33.6677 125.108 33.5417C125.172 33.4082 125.207 33.262 125.209 33.1136C125.213 32.9468 125.176 32.7815 125.1 32.633C125.031 32.5008 124.931 32.3872 124.809 32.3019C124.679 32.2174 124.535 32.1547 124.385 32.1161C124.221 32.0764 124.053 32.0574 123.884 32.0596L122.119 32.0636ZM122.523 32.4069H123.735C123.87 32.4065 124.005 32.4146 124.139 32.4311C124.262 32.4485 124.382 32.4853 124.494 32.5401C124.6 32.5907 124.69 32.6706 124.752 32.7703C124.82 32.894 124.852 33.0336 124.845 33.1742C124.851 33.3026 124.82 33.4299 124.756 33.5417C124.7 33.6376 124.621 33.718 124.526 33.7759C124.426 33.8342 124.317 33.8752 124.203 33.8971C124.085 33.9214 123.964 33.9335 123.844 33.9334H122.507V32.4069H122.523ZM122.523 34.2565H123.759C123.877 34.2506 123.996 34.2506 124.114 34.2565C124.229 34.2675 124.343 34.2892 124.454 34.3211C124.558 34.3517 124.656 34.3995 124.744 34.4625C124.83 34.5242 124.899 34.606 124.946 34.7008C125.002 34.8136 125.028 34.9386 125.023 35.0642C125.027 35.1946 125.002 35.3241 124.95 35.4438C124.908 35.5412 124.841 35.626 124.756 35.6902C124.671 35.7549 124.575 35.8053 124.474 35.8396C124.364 35.8714 124.252 35.8944 124.139 35.9083C124.02 35.9144 123.902 35.9144 123.783 35.9083H122.523V34.2646V34.2565ZM128.149 31.9626C127.872 31.9591 127.597 32.0127 127.341 32.1201C127.103 32.2251 126.89 32.3792 126.715 32.5724C126.536 32.7766 126.399 33.014 126.311 33.2711C126.121 33.8579 126.121 34.4896 126.311 35.0763C126.399 35.3333 126.536 35.5706 126.715 35.775C126.889 35.9683 127.102 36.1213 127.341 36.2233C127.596 36.3321 127.871 36.3871 128.149 36.3848C128.426 36.3858 128.7 36.3323 128.956 36.2273C129.197 36.1264 129.412 35.9733 129.586 35.779C129.767 35.5774 129.904 35.341 129.99 35.0844C130.184 34.4983 130.184 33.8653 129.99 33.2792C129.903 33.0208 129.766 32.7821 129.586 32.5765C129.411 32.3828 129.196 32.2286 128.956 32.1242C128.702 32.0134 128.426 31.9584 128.149 31.9626V31.9626ZM128.149 32.3099C128.374 32.3096 128.597 32.3564 128.803 32.4473C128.997 32.5341 129.168 32.664 129.304 32.8269C129.449 33.0008 129.56 33.2009 129.631 33.4165C129.709 33.6633 129.747 33.921 129.744 34.1798C129.748 34.4373 129.71 34.6938 129.631 34.939C129.564 35.1543 129.454 35.3536 129.308 35.5246C129.172 35.6863 129 35.8147 128.807 35.9002C128.602 35.9882 128.38 36.0336 128.157 36.0336C127.933 36.0336 127.712 35.9882 127.507 35.9002C127.314 35.8138 127.143 35.6855 127.006 35.5246C126.862 35.3494 126.754 35.1477 126.687 34.931C126.608 34.6816 126.57 34.4211 126.574 34.1596C126.57 33.9047 126.608 33.6509 126.687 33.4084C126.755 33.1948 126.864 32.9962 127.006 32.8228C127.144 32.6621 127.315 32.5326 127.507 32.4432C127.71 32.3564 127.928 32.3111 128.149 32.3099V32.3099ZM131.432 36.2839V32.4069H133.653V32.0636H131.028V36.2839H131.432ZM136.181 31.9626C135.904 31.9591 135.629 32.0127 135.374 32.1201C135.135 32.226 134.92 32.38 134.744 32.5724C134.566 32.7775 134.429 33.0146 134.34 33.2711C134.151 33.8581 134.151 34.4894 134.34 35.0763C134.425 35.3347 134.562 35.5726 134.744 35.775C134.916 35.9692 135.13 36.1223 135.37 36.2233C135.625 36.333 135.9 36.388 136.177 36.3848C136.454 36.3854 136.729 36.3319 136.985 36.2273C137.225 36.1244 137.439 35.9716 137.615 35.779C137.794 35.5764 137.931 35.3403 138.019 35.0844C138.213 34.4983 138.213 33.8653 138.019 33.2792C137.93 33.0215 137.793 32.7831 137.615 32.5765C137.44 32.3828 137.225 32.2286 136.985 32.1242C136.73 32.0136 136.455 31.9585 136.177 31.9626H136.181ZM136.181 32.3099C136.405 32.3102 136.627 32.3569 136.832 32.4473C137.026 32.5341 137.199 32.6639 137.336 32.8269C137.482 33 137.592 33.2005 137.66 33.4165C137.739 33.663 137.779 33.9207 137.777 34.1798C137.779 34.4372 137.741 34.6934 137.664 34.939C137.594 35.1528 137.484 35.3515 137.34 35.5246C137.204 35.6855 137.032 35.8138 136.84 35.9002C136.634 35.9911 136.411 36.0366 136.185 36.0335C135.962 36.0366 135.74 35.9912 135.535 35.9002C135.343 35.8147 135.173 35.6862 135.039 35.5246C134.893 35.3496 134.784 35.1479 134.715 34.931C134.64 34.6808 134.602 34.4209 134.602 34.1596C134.602 33.9046 134.641 33.6511 134.719 33.4084C134.786 33.1941 134.895 32.9951 135.039 32.8228C135.176 32.663 135.345 32.5337 135.535 32.4432C135.74 32.3561 135.959 32.3108 136.181 32.3099V32.3099ZM143.855 32.0636H143.322L140.862 34.3333V32.0636H140.458V36.2839H140.862V34.7977L141.67 34.0586L143.414 36.2839H143.952L141.932 33.7881L143.834 32.0636H143.855ZM146.278 32.0636H145.834L144.109 36.2839H144.541L145.058 34.9552H146.989L147.497 36.2839H147.946L146.262 32.0515L146.278 32.0636ZM146.88 34.6402H145.163L146.019 32.4432L146.827 34.6402H146.88ZM152.731 32.0757H152.182L150.971 35.0965C150.922 35.2258 150.874 35.355 150.829 35.5004C150.785 35.6458 150.74 35.7629 150.692 35.9042L150.555 35.5004C150.506 35.3671 150.458 35.2379 150.401 35.0965L149.19 32.0838H148.64V36.2839H149.044V33.7234C149.044 33.5054 149.044 33.2913 149.044 33.0773C149.044 32.8632 149.024 32.6451 149.008 32.4311C149.048 32.5603 149.093 32.6896 149.137 32.835C149.181 32.9803 149.234 33.0934 149.286 33.2388L150.494 36.2839H150.853L152.101 33.1702L152.247 32.7905L152.38 32.4069C152.38 32.629 152.352 32.8511 152.344 33.0692C152.336 33.2873 152.344 33.5134 152.344 33.7356V36.2839H152.727V32.0636L152.731 32.0757ZM157.174 32.0757H156.77V33.9011H154.25V32.0636H153.846V36.2839H154.25V34.2646H156.77V36.2839H157.174V32.0636V32.0757ZM159.896 34.4221H160.804V36.2839H161.208V32.0636H159.435C159.202 32.0576 158.97 32.1031 158.757 32.1969C158.572 32.285 158.418 32.4254 158.313 32.6007C158.203 32.7937 158.149 33.013 158.155 33.2348C158.15 33.4528 158.202 33.6684 158.305 33.8607C158.4 34.0296 158.54 34.1692 158.708 34.2646C158.91 34.3627 159.131 34.4151 159.355 34.4181L157.921 36.2839H158.446L159.896 34.41V34.4221ZM160.804 34.0788H159.524C159.348 34.0834 159.173 34.0504 159.011 33.9819C158.873 33.9262 158.756 33.8288 158.676 33.7032C158.594 33.5641 158.552 33.4046 158.555 33.2428C158.551 33.0823 158.593 32.924 158.676 32.7865C158.757 32.6623 158.874 32.5663 159.011 32.5119C159.174 32.4449 159.349 32.4133 159.524 32.419H160.804V34.0788Z" fill="#2D2D2D"/>
<path fill-rule="evenodd" clip-rule="evenodd" d="M55.8228 43.416H56.3478L58.7709 39.6077V43.416H59.1747V39.1715H58.6497L56.2266 42.9799V39.1715H55.8228V43.416V43.416ZM65.0791 39.1715H64.542L62.0663 41.4533V39.1715H61.6625V43.416H62.0663V41.9379L62.874 41.1989L64.651 43.4322H65.1679L63.1487 40.9242L65.0629 39.1877L65.0791 39.1715ZM65.802 39.1715V43.416H67.6799C68.4593 43.416 69.1176 43.0122 69.1176 42.2045C69.127 41.9504 69.0391 41.7022 68.8717 41.5108C68.7043 41.3194 68.4701 41.1992 68.217 41.1746C68.4259 41.1224 68.6113 41.0018 68.7438 40.832C68.8763 40.6622 68.9481 40.453 68.948 40.2377C68.948 39.4784 68.318 39.1756 67.6193 39.1756L65.802 39.1715ZM66.2058 39.5188H67.4457C67.9909 39.5188 68.5603 39.6198 68.5603 40.2862C68.5603 40.8758 68.0353 41.0494 67.5547 41.0494H66.2058V39.5148V39.5188ZM66.2058 41.3766H67.4537C68.0313 41.3766 68.7218 41.4775 68.7218 42.1843C68.7218 42.891 68.0676 43.0485 67.478 43.0485H66.2058V41.3564V41.3766ZM71.7346 39.1594H71.2904L69.5699 43.416H70.0061L70.5271 42.0793H72.4696L72.9825 43.416H73.4267L71.7346 39.1594V39.1594ZM72.3444 41.7521H70.6523L71.5084 39.5431L72.3444 41.7521ZM74.0931 39.1715V43.416H74.497V41.6027H75.8983C76.706 41.6027 77.2472 41.1989 77.2472 40.3629C77.2472 39.5269 76.702 39.1715 75.9104 39.1715H74.0931ZM74.497 39.5188H75.8256C76.4355 39.5188 76.8393 39.7854 76.8393 40.3952C76.8393 41.005 76.3708 41.2635 75.7853 41.2635H74.4889V39.5148L74.497 39.5188ZM81.8794 44.5549V43.0687H81.4311V39.1715H81.0273V43.0687H78.487V39.1715H78.0832V43.416H81.4634V44.5549H81.8794ZM85.607 39.1715H82.6629V43.416H85.6312V43.0687H83.0708V41.3887H85.4454V41.0494H83.0708V39.5148H85.607V39.1675V39.1715ZM86.4631 39.1715V43.416H88.3411C89.1205 43.416 89.7788 43.0122 89.7788 42.2045C89.7882 41.9504 89.7002 41.7022 89.5328 41.5108C89.3654 41.3194 89.1313 41.1992 88.8782 41.1746C89.0871 41.1224 89.2725 41.0018 89.405 40.832C89.5374 40.6622 89.6093 40.453 89.6092 40.2377C89.6092 39.4784 88.9791 39.1756 88.2805 39.1756L86.4631 39.1715ZM86.867 39.5188H88.1068C88.652 39.5188 89.2215 39.6198 89.2215 40.2862C89.2215 40.8758 88.7005 41.0494 88.2159 41.0494H86.867V39.5148V39.5188ZM86.867 41.3766H88.1149C88.6924 41.3766 89.383 41.4775 89.383 42.1843C89.383 42.891 88.7288 43.0485 88.1391 43.0485H86.867V41.3564V41.3766ZM92.4927 39.0706C91.2811 39.0706 90.4734 39.9712 90.4734 41.2958C90.4734 42.6204 91.2811 43.517 92.4644 43.517C93.6477 43.517 94.4837 42.6285 94.4837 41.3079C94.4837 39.9873 93.676 39.0706 92.4644 39.0706H92.4927ZM92.4927 39.4219C93.4539 39.4219 94.1081 40.1812 94.1081 41.2998C94.1081 42.4185 93.4296 43.1495 92.4685 43.1495C91.5073 43.1495 90.8773 42.4064 90.8773 41.2675C90.8773 40.1287 91.5154 39.4058 92.4604 39.4058L92.4927 39.4219ZM95.8002 43.416V39.5148H98.0295V39.1675H95.3681V43.412L95.8002 43.416ZM100.509 39.0706C99.2976 39.0706 98.4899 39.9712 98.4899 41.2958C98.4899 42.6204 99.2976 43.517 100.481 43.517C101.664 43.517 102.5 42.6285 102.5 41.3079C102.5 39.9873 101.692 39.0706 100.481 39.0706H100.509ZM100.509 39.4219C101.47 39.4219 102.125 40.1812 102.125 41.2998C102.125 42.4185 101.466 43.1495 100.509 43.1495C99.552 43.1495 98.918 42.4064 98.918 41.2675C98.918 40.1287 99.5561 39.4058 100.501 39.4058L100.509 39.4219ZM106.494 39.1594H106.046L104.33 43.416H104.778L105.299 42.0793H107.241L107.754 43.416H108.199L106.506 39.1594H106.494ZM107.104 41.7521H105.412L106.268 39.5431L107.104 41.7521ZM109.228 43.416V39.5148H111.458V39.1675H108.816V43.412L109.228 43.416ZM115.327 43.416V39.1715H112.831L112.746 41.7764C112.71 42.8627 112.532 43.1616 112.229 43.1616C112.091 43.1634 111.954 43.1388 111.825 43.0889V43.4241C111.961 43.4779 112.107 43.5053 112.253 43.5049C112.895 43.5049 113.122 42.8668 113.146 42.0147L113.222 39.5188H114.935V43.416H115.327ZM118.21 39.0706C117.019 39.0706 116.211 39.9712 116.211 41.2958C116.211 42.6204 117.019 43.517 118.202 43.517C119.385 43.517 120.221 42.6285 120.221 41.3079C120.221 39.9873 119.414 39.0706 118.202 39.0706H118.21ZM118.21 39.4219C119.171 39.4219 119.826 40.1812 119.826 41.2998C119.826 42.4185 119.191 43.1656 118.23 43.1656C117.269 43.1656 116.639 42.4225 116.639 41.2837C116.639 40.1448 117.277 39.4219 118.222 39.4219H118.21ZM125.241 39.1715H124.688L123.476 42.2125C123.375 42.467 123.291 42.7375 123.198 43.0001C123.101 42.7295 123.012 42.4629 122.903 42.1923L121.671 39.1634H121.122V43.4079H121.526V40.8314C121.526 40.3992 121.506 39.9671 121.477 39.535C121.562 39.7975 121.651 40.06 121.756 40.3144L123.028 43.4079H123.392L124.643 40.2781C124.744 40.0277 124.837 39.7652 124.922 39.5108C124.894 39.959 124.874 40.3992 124.874 40.8435V43.4079H125.278V39.1715H125.241ZM129.3 39.1715H126.352V43.416H129.32V43.0687H126.76V41.3887H129.138V41.0494H126.76V39.5148H129.3V39.1675V39.1715ZM130.172 39.1715V43.416H130.576V41.6027H131.977C132.785 41.6027 133.322 41.1989 133.322 40.3629C133.322 39.5269 132.781 39.1715 131.99 39.1715H130.172ZM130.576 39.5188H131.905C132.515 39.5188 132.918 39.7854 132.918 40.3952C132.918 41.005 132.45 41.2635 131.864 41.2635H130.576V39.5148V39.5188ZM135.854 39.1594H135.39L133.674 43.416H134.11L134.627 42.0793H136.573L137.082 43.416H137.53L135.838 39.1594H135.854ZM136.464 41.7521H134.768L135.628 39.5431L136.464 41.7521ZM141.113 39.1715H137.728V39.5148H139.219V43.412H139.622V39.5148H141.113V39.1675V39.1715ZM143.455 39.1715H143.007L141.29 43.4281H141.726L142.243 42.0914H144.186L144.699 43.4281H145.147L143.455 39.1715V39.1715ZM144.061 41.7643H142.336L143.197 39.5552L144.061 41.7643Z" fill="#2D2D2D"/>
<path fill-rule="evenodd" clip-rule="evenodd" d="M83.4206 20.5653L87.3339 9.03121L91.2513 20.5653H83.4206ZM97.7493 27.9033L89.7732 6.29712C89.7126 6.13154 89.5995 5.84884 89.4259 5.76807C89.315 5.72652 89.1967 5.70864 89.0786 5.71557H85.5933C85.4764 5.70797 85.3593 5.72589 85.25 5.76807C85.0723 5.84884 84.9673 6.11538 84.9027 6.285L76.8862 27.9114H80.4724C80.5836 27.9182 80.6952 27.9087 80.8036 27.8831C80.8925 27.8346 81.0136 27.4793 81.0459 27.3904L82.2575 23.9536H92.3538L93.5654 27.3985C93.5977 27.4873 93.7189 27.8387 93.8037 27.8831C93.9134 27.9088 94.0264 27.9184 94.1389 27.9114L97.7493 27.9033Z" fill="#2D2D2D"/>
<path fill-rule="evenodd" clip-rule="evenodd" d="M120.01 27.9114L114.356 19.7092L115.426 19.3457C116.552 18.9139 117.545 18.1939 118.306 17.2578C119.331 16.0483 119.893 14.514 119.893 12.9285C119.893 11.1152 119.36 9.13224 118.039 7.82779C117.853 7.64605 117.659 7.46836 117.458 7.30278C116.803 6.77057 116.043 6.38249 115.228 6.16391C113.98 5.85987 112.696 5.72405 111.412 5.76006H102.111C102.111 5.82467 102.111 5.91756 102.111 5.95794V27.7095C102.108 27.7768 102.108 27.8442 102.111 27.9114H105.863C105.927 27.915 105.992 27.915 106.057 27.9114C106.06 27.8469 106.06 27.7822 106.057 27.7176V9.14031H111.739C112.379 9.12032 113.015 9.24629 113.6 9.50868C114.184 9.77107 114.701 10.163 115.111 10.6548C115.648 11.3471 115.933 12.2018 115.919 13.0779C115.919 13.5258 115.83 13.9692 115.656 14.3823C114.994 15.9978 113.294 16.8701 111.618 16.8701H110.891C110.826 16.8665 110.762 16.8665 110.697 16.8701C110.693 16.9346 110.693 16.9994 110.697 17.0639V19.9717C110.691 20.2575 110.703 20.5435 110.733 20.8278C110.748 20.9582 110.788 21.0844 110.85 21.1994C110.872 21.2373 110.897 21.2737 110.923 21.3084V21.3084L114.857 27.1764C115.01 27.4462 115.23 27.6727 115.495 27.8347C115.656 27.8954 115.828 27.9229 116 27.9155L120.01 27.9114Z" fill="#2D2D2D"/>
<path fill-rule="evenodd" clip-rule="evenodd" d="M130.256 20.5653L134.169 9.03121L138.082 20.5653H130.256ZM144.58 27.9033L136.608 6.29712C136.544 6.13154 136.435 5.84884 136.257 5.76807C136.148 5.72589 136.03 5.70797 135.914 5.71557H132.424C132.309 5.70856 132.193 5.72646 132.085 5.76807C131.907 5.84884 131.798 6.11538 131.738 6.285L123.721 27.9114H127.303C127.416 27.9184 127.529 27.9088 127.639 27.8831C127.727 27.8346 127.849 27.4793 127.881 27.3904L129.092 23.9536H139.189L140.4 27.3985C140.433 27.4873 140.554 27.8387 140.639 27.8831C140.748 27.9088 140.861 27.9184 140.974 27.9114L144.58 27.9033Z" fill="#2D2D2D"/>
<path fill-rule="evenodd" clip-rule="evenodd" d="M156.308 27.9033C156.312 27.8388 156.312 27.774 156.308 27.7095V9.1322H162.718C162.782 9.13583 162.847 9.13583 162.911 9.1322C162.915 9.06763 162.915 9.00291 162.911 8.93835V5.91752C162.915 5.85296 162.915 5.78824 162.911 5.72367C162.847 5.72004 162.782 5.72004 162.718 5.72367H145.873C145.808 5.72004 145.744 5.72004 145.679 5.72367C145.675 5.78824 145.675 5.85296 145.679 5.91752V8.93027C145.675 8.99484 145.675 9.05956 145.679 9.12412C145.744 9.12776 145.808 9.12776 145.873 9.12412H152.335V27.7014C152.331 27.766 152.331 27.8307 152.335 27.8952C152.399 27.8988 152.464 27.8988 152.528 27.8952H156.123C156.184 27.9012 156.246 27.9039 156.308 27.9033Z" fill="#2D2D2D"/>
<path fill-rule="evenodd" clip-rule="evenodd" d="M73.9502 27.9114L65.8732 14.6367L66.0105 14.4873L73.9462 5.88119C73.9601 5.86739 73.9695 5.84972 73.9731 5.83049C73.9767 5.81127 73.9745 5.79139 73.9666 5.77347C73.9588 5.75555 73.9456 5.74043 73.929 5.7301C73.9124 5.71978 73.893 5.71472 73.8735 5.71561H69.835C69.6509 5.70461 69.4662 5.7182 69.2857 5.75599C69.0383 5.89603 68.8213 6.08415 68.6476 6.30927L59.6821 16.2239V5.91753C59.6875 5.85168 59.6875 5.7855 59.6821 5.71964H55.7405C55.7369 5.78556 55.7369 5.85162 55.7405 5.91753V27.7256C55.7369 27.7916 55.7369 27.8576 55.7405 27.9235H59.6821C59.6875 27.8577 59.6875 27.7915 59.6821 27.7256V20.9045L62.9129 17.4839L63.4904 18.4451L65.3845 21.6153C66.1599 22.8754 66.9151 24.1408 67.6501 25.4116C67.9974 25.9971 68.3447 26.5868 68.6961 27.1724C68.8401 27.4503 69.0618 27.6804 69.3342 27.8347C69.4782 27.8905 69.6321 27.9166 69.7865 27.9114H73.9502Z" fill="#2D2D2D"/>
<path fill-rule="evenodd" clip-rule="evenodd" d="M49.0949 22.2638V19.3384C49.165 15.1085 47.882 10.9668 45.433 7.51728V7.51728C43.3839 4.70293 38.5864 0 29.4315 0H1.25508C1.00115 0.00108286 0.757932 0.102435 0.578377 0.28199C0.398822 0.461545 0.29747 0.704763 0.296387 0.95869L0.296387 27.7033C1.03289 34.0602 9.54178 39.0635 19.9557 39.0635C12.4508 39.0635 11.2041 33.7928 11.2041 30.6493V10.8994H29.4315C39.8495 10.9077 48.3584 15.911 49.0949 22.2638Z" fill="url(#paint0_linear)"/>
<path fill-rule="evenodd" clip-rule="evenodd" d="M49.0947 49.0206V22.2761C48.3582 15.9232 39.8493 10.9199 29.4313 10.9199C36.9362 10.9199 38.1829 16.1948 38.1829 19.3383V39.0881H19.9554C9.54153 39.0881 1.02852 34.0848 0.296135 27.7361V30.6739C0.226687 34.9037 1.50964 39.0452 3.95808 42.495V42.495C6.01536 45.297 10.8047 49.9999 19.9554 49.9999H48.136C48.2636 49.9999 48.39 49.9745 48.5077 49.925C48.6254 49.8756 48.732 49.8031 48.8213 49.7119C48.9106 49.6207 48.9807 49.5125 49.0277 49.3938C49.0747 49.2751 49.0974 49.1483 49.0947 49.0206V49.0206Z" fill="url(#paint1_linear)"/>
<defs>
<linearGradient id="paint0_linear" x1="24.6957" y1="-50.4073" x2="24.6957" y2="89.4668" gradientUnits="userSpaceOnUse">
<stop stop-color="#9CC665"/>
<stop offset="1" stop-color="#6EA153"/>
</linearGradient>
<linearGradient id="paint1_linear" x1="24.6954" y1="100.411" x2="24.6954" y2="-39.5203" gradientUnits="userSpaceOnUse">
<stop stop-color="#5B7BBB"/>
<stop offset="1" stop-color="#3B4167"/>
</linearGradient>
</defs>
</svg>
