<svg width="220" height="50" viewBox="0 0 220 50" fill="none" xmlns="http://www.w3.org/2000/svg">
<path d="M13.6343 26.0503V49.9999H24.5586V36.9747H26.6595V49.9999H37.5839V36.9747H39.6847V49.9999H50.6091V26.0503H13.6343Z" fill="url(#paint0_linear)"/>
<path d="M0.608887 0V10.9244H39.6845V13.0252H0.608887V50H11.5333V23.9496H50.6089V0H0.608887Z" fill="url(#paint1_linear)"/>
<path d="M67.6259 28.8614V44.2433H64.4185V6.47363H77.3434C81.2853 6.47363 84.4003 7.47898 86.6887 9.48969C88.977 11.5004 90.1183 14.2579 90.1126 17.7623C90.1126 21.3069 89.0146 24.0443 86.8186 25.9746C84.6225 27.9049 81.4382 28.8671 77.2655 28.8614H67.6259ZM67.6259 26.1642H77.3434C80.4542 26.1642 82.8262 25.4274 84.4595 23.9538C86.0928 22.4803 86.9094 20.4279 86.9094 17.7968C86.9094 15.18 86.0971 13.0975 84.4725 11.5492C82.8479 10.001 80.5393 9.20819 77.5469 9.17085H67.6259V26.1642Z" fill="#2D2D2D"/>
<path d="M67.6259 28.8614V44.2433H64.4185V6.47363H77.3434C81.2853 6.47363 84.4003 7.47898 86.6887 9.48969C88.977 11.5004 90.1183 14.2579 90.1126 17.7623C90.1126 21.3069 89.0146 24.0443 86.8186 25.9746C84.6225 27.9049 81.4382 28.8671 77.2655 28.8614H67.6259ZM67.6259 26.1642H77.3434C80.4542 26.1642 82.8262 25.4274 84.4595 23.9538C86.0928 22.4803 86.9094 20.4279 86.9094 17.7968C86.9094 15.18 86.0971 13.0975 84.4725 11.5492C82.8479 10.001 80.5393 9.20819 77.5469 9.17085H67.6259V26.1642Z" stroke="black"/>
<path d="M112.526 28.4865H101.501V44.2303H98.272V6.47363H110.595C114.635 6.47363 117.798 7.45026 120.083 9.40351C122.369 11.3568 123.506 14.0856 123.494 17.5899C123.53 19.9015 122.778 22.157 121.36 23.9883C119.916 25.8509 117.903 27.1965 115.625 27.823L125.113 43.9072V44.2433H121.698L112.526 28.4865ZM101.501 25.7893H111.327C114.019 25.7893 116.183 25.0267 117.82 23.5014C118.628 22.7446 119.265 21.8245 119.688 20.8028C120.11 19.7811 120.309 18.6813 120.27 17.577C120.27 14.9114 119.418 12.8418 117.716 11.3683C116.013 9.8947 113.624 9.15792 110.548 9.15792H101.501V25.7893Z" fill="#2D2D2D"/>
<path d="M112.526 28.4865H101.501V44.2303H98.272V6.47363H110.595C114.635 6.47363 117.798 7.45026 120.083 9.40351C122.369 11.3568 123.506 14.0856 123.494 17.5899C123.53 19.9015 122.778 22.157 121.36 23.9883C119.916 25.8509 117.903 27.1965 115.625 27.823L125.113 43.9072V44.2433H121.698L112.526 28.4865ZM101.501 25.7893H111.327C114.019 25.7893 116.183 25.0267 117.82 23.5014C118.628 22.7446 119.265 21.8245 119.688 20.8028C120.11 19.7811 120.309 18.6813 120.27 17.577C120.27 14.9114 119.418 12.8418 117.716 11.3683C116.013 9.8947 113.624 9.15792 110.548 9.15792H101.501V25.7893Z" stroke="black"/>
<path d="M137.202 44.2433H134.012V6.47363H137.22L137.202 44.2433Z" fill="#2D2D2D"/>
<path d="M137.202 44.2433H134.012V6.47363H137.22L137.202 44.2433Z" stroke="black"/>
<path d="M152.811 6.47363L166.805 39.8096L180.851 6.47363H185.124V44.2433H181.92V27.7971L182.18 10.9374L168.056 44.2433H165.58L151.508 11.0667L151.768 27.6937V44.2433H148.561V6.47363H152.811Z" fill="#2D2D2D"/>
<path d="M152.811 6.47363L166.805 39.8096L180.851 6.47363H185.124V44.2433H181.92V27.7971L182.18 10.9374L168.056 44.2433H165.58L151.508 11.0667L151.768 27.6937V44.2433H148.561V6.47363H152.811Z" stroke="black"/>
<path d="M216.761 26.1383H199.014V41.546H219.419V44.2433H195.807V6.47363H219.285V9.17085H199.014V23.4411H216.761V26.1383Z" fill="#2D2D2D"/>
<path d="M216.761 26.1383H199.014V41.546H219.419V44.2433H195.807V6.47363H219.285V9.17085H199.014V23.4411H216.761V26.1383Z" stroke="black"/>
<defs>
<linearGradient id="paint0_linear" x1="32.1217" y1="26.0503" x2="32.1217" y2="49.9999" gradientUnits="userSpaceOnUse">
<stop stop-color="#EA9E41"/>
<stop offset="1" stop-color="#C66E02"/>
</linearGradient>
<linearGradient id="paint1_linear" x1="25.6089" y1="0" x2="25.6089" y2="50" gradientUnits="userSpaceOnUse">
<stop stop-color="#EA9E41"/>
<stop offset="1" stop-color="#C66E02"/>
</linearGradient>
</defs>
</svg>
