<svg width="128" height="70" viewBox="0 0 128 70" fill="none" xmlns="http://www.w3.org/2000/svg">
<path d="M73.6869 65.4235H77.8486V69.5633C77.201 69.7069 76.5423 69.8156 75.8724 69.8893C75.2025 69.9631 74.4266 70 73.5445 70C71.6912 70 70.2481 69.6176 69.2154 68.8529C68.1826 68.0843 67.6663 67.0091 67.6663 65.6272C67.6663 64.7422 67.9203 63.9678 68.4283 63.3041C68.9418 62.6364 69.6787 62.1279 70.6389 61.7786C71.5991 61.4253 72.7239 61.2487 74.0135 61.2487C75.3197 61.2487 76.5367 61.4156 77.6644 61.7494L77.1117 62.6228C76.0064 62.2968 74.9429 62.1337 73.9214 62.1337C72.4308 62.1337 71.2669 62.4423 70.4296 63.0595C69.5922 63.6767 69.1735 64.5326 69.1735 65.6272C69.1735 66.7762 69.5754 67.6477 70.3793 68.2415C71.1888 68.8354 72.375 69.1324 73.9381 69.1324C74.7866 69.1324 75.6156 69.0645 76.4251 68.9286V66.3085H73.6869V65.4235Z" fill="url(#paint0_linear)"/>
<path d="M82.9056 66.3434V69.8835H81.4821V61.371H84.8399C86.3415 61.371 87.4497 61.5709 88.1642 61.9707C88.8843 62.3705 89.2444 62.9722 89.2444 63.7757C89.2444 64.9014 88.4238 65.6622 86.7826 66.0581L90.1069 69.8835H88.4238L85.4595 66.3434H82.9056ZM82.9056 65.4933H84.8566C85.8615 65.4933 86.5983 65.3555 87.0673 65.0799C87.5362 64.8004 87.7706 64.3832 87.7706 63.8281C87.7706 63.2652 87.5306 62.8596 87.0505 62.6112C86.576 62.3627 85.8112 62.2385 84.7561 62.2385H82.9056V65.4933Z" fill="url(#paint1_linear)"/>
<path d="M103.395 65.6156C103.395 66.9781 102.898 68.0494 101.905 68.8296C100.917 69.6098 99.5405 70 97.7764 70C95.9733 70 94.5805 69.6176 93.598 68.8529C92.6211 68.0843 92.1326 67.0014 92.1326 65.6039C92.1326 64.2182 92.6239 63.1449 93.6064 62.3841C94.5889 61.6194 95.9845 61.2371 97.7932 61.2371C99.5516 61.2371 100.925 61.6252 101.913 62.4016C102.901 63.1779 103.395 64.2492 103.395 65.6156ZM93.6399 65.6156C93.6399 66.7685 93.9916 67.6438 94.6949 68.2415C95.4039 68.8354 96.4311 69.1324 97.7764 69.1324C99.133 69.1324 100.157 68.8354 100.85 68.2415C101.542 67.6477 101.888 66.7723 101.888 65.6156C101.888 64.4705 101.542 63.6029 100.85 63.0129C100.163 62.419 99.1441 62.1221 97.7932 62.1221C96.4367 62.1221 95.4039 62.421 94.6949 63.0188C93.9916 63.6126 93.6399 64.4783 93.6399 65.6156Z" fill="url(#paint2_linear)"/>
<path d="M116.064 61.371V66.8791C116.064 67.8495 115.642 68.6122 114.799 69.1673C113.956 69.7224 112.798 70 111.324 70C109.851 70 108.709 69.7205 107.899 69.1615C107.096 68.6025 106.694 67.834 106.694 66.8558V61.371H108.117V66.9257C108.117 67.636 108.396 68.1814 108.955 68.5618C109.513 68.9422 110.333 69.1324 111.416 69.1324C112.449 69.1324 113.245 68.9422 113.803 68.5618C114.361 68.1775 114.64 67.6282 114.64 66.914V61.371H116.064Z" fill="url(#paint3_linear)"/>
<path d="M127.761 63.8514C127.761 64.7131 127.337 65.3769 126.488 65.8427C125.645 66.3046 124.437 66.5356 122.862 66.5356H121.422V69.8835H119.999V61.371H123.172C126.231 61.371 127.761 62.1978 127.761 63.8514ZM121.422 65.6855H122.703C123.965 65.6855 124.878 65.5438 125.442 65.2604C126.005 64.9771 126.287 64.5229 126.287 63.898C126.287 63.3351 126.022 62.9159 125.492 62.6403C124.961 62.3647 124.135 62.2269 123.013 62.2269H121.422V65.6855Z" fill="url(#paint4_linear)"/>
<path d="M12.048 70L7.90731 62.2638H7.84052C7.91844 62.8766 7.95739 63.6049 7.95739 64.4485V70H6.64673V61.2729H8.78387L12.6491 68.4718H12.7159L16.6145 61.2729H18.7349V70H17.3157V64.3769C17.3157 63.7322 17.3547 63.0318 17.4326 62.2757H17.3658L13.1917 70H12.048Z" fill="url(#paint5_linear)"/>
<path d="M29.5785 70H22.7748V61.2729H29.5785V62.1742H24.194V64.9858H29.253V65.8812H24.194V69.0926H29.5785V70Z" fill="url(#paint6_linear)"/>
<path d="M42.7179 65.5528C42.7179 66.9934 42.1697 68.0958 41.0733 68.8598C39.9825 69.6199 38.4103 70 36.3566 70H32.9756V61.2729H36.7156C38.6134 61.2729 40.0883 61.6489 41.1401 62.4011C42.192 63.1532 42.7179 64.2038 42.7179 65.5528ZM41.2153 65.5887C41.2153 64.4505 40.8145 63.5929 40.0131 63.0159C39.2173 62.4389 38.0318 62.1504 36.4568 62.1504H34.3948V69.1225H36.1229C37.8148 69.1225 39.0865 68.826 39.938 68.233C40.7895 67.6361 41.2153 66.7547 41.2153 65.5887Z" fill="url(#paint7_linear)"/>
<path d="M46.1317 70V61.2729H47.5509V70H46.1317Z" fill="url(#paint8_linear)"/>
<path d="M59.2627 70L57.7433 67.2242H52.8513L51.3486 70H49.9127L54.738 61.2371H55.9318L60.732 70H59.2627ZM57.3009 66.3109L55.8817 63.6069C55.698 63.2646 55.5088 62.8448 55.314 62.3473C55.1916 62.7294 55.0163 63.1492 54.7881 63.6069L53.3522 66.3109H57.3009Z" fill="url(#paint9_linear)"/>
<rect x="6.77905" y="55.9119" width="121.069" height="0.880503" fill="#7B2AFF"/>
<path d="M23.7506 43.5252C23.7506 45.9777 22.8951 47.9099 21.1841 49.3219C19.4851 50.7339 17.1161 51.4399 14.077 51.4399C11.2772 51.4399 8.80042 50.8949 6.64673 49.805V44.4542C8.41754 45.2717 9.91316 45.8476 11.1336 46.182C12.366 46.5165 13.4907 46.6837 14.5077 46.6837C15.7281 46.6837 16.6614 46.4422 17.3075 45.9591C17.9656 45.476 18.2946 44.7577 18.2946 43.8039C18.2946 43.2713 18.151 42.8007 17.8639 42.3919C17.5767 41.9708 17.152 41.5683 16.5896 41.1843C16.0392 40.8003 14.9085 40.1872 13.1975 39.345C11.5942 38.5646 10.3918 37.8153 9.59011 37.0969C8.78845 36.3785 8.14833 35.5425 7.66973 34.5887C7.19113 33.635 6.95183 32.5203 6.95183 31.2445C6.95183 28.8416 7.73554 26.9527 9.30295 25.5779C10.8823 24.203 13.0599 23.5156 15.8358 23.5156C17.1998 23.5156 18.498 23.6828 19.7304 24.0173C20.9748 24.3517 22.2729 24.8224 23.625 25.4293L21.8302 29.9068C20.4303 29.3123 19.2697 28.8974 18.3484 28.662C17.4391 28.4267 16.5417 28.309 15.6563 28.309C14.6034 28.309 13.7958 28.5629 13.2334 29.0708C12.6711 29.5786 12.3899 30.2412 12.3899 31.0587C12.3899 31.5665 12.5036 32.0124 12.7309 32.3964C12.9582 32.768 13.3172 33.1334 13.8077 33.4926C14.3103 33.8394 15.4888 34.4711 17.3434 35.3876C19.7962 36.6015 21.4773 37.8215 22.3866 39.0477C23.2959 40.2615 23.7506 41.754 23.7506 43.5252Z" fill="#2D2D2D"/>
<path d="M69.9773 51.4399V28.9045L75.0622 28.9045V51.4399H69.9773Z" fill="#2D2D2D"/>
<path d="M63.9679 51.4394H58.8829L45.9394 32.8232C45.9394 40.6616 45.9394 30.3737 45.9394 38.2121V51.4394H40.8545V23.5151H45.9394L58.8829 42.6212C58.8829 35.2727 58.8829 44.0909 58.8829 36.7424V23.5151H63.9679V51.4394Z" fill="#2D2D2D"/>
<path d="M29.7603 51.4399V28.9045H34.8452V51.4399H29.7603Z" fill="#2D2D2D"/>
<path d="M93.1346 28.3085C91.0044 28.3085 89.3551 29.126 88.1866 30.761C87.018 32.3835 86.4338 34.6502 86.4338 37.5609C86.4338 43.6176 88.6674 46.646 93.1346 46.646C95.0091 46.646 97.2792 46.1692 99.9449 45.2154V50.046C97.7539 50.9749 95.3073 51.4394 92.6051 51.4394C88.7222 51.4394 85.7521 50.2442 83.695 47.8537C81.6379 45.4508 80.6094 42.0075 80.6094 37.5237C80.6094 34.6997 81.1145 32.2287 82.1248 30.1107C83.1351 27.9803 84.5836 26.3515 86.4703 25.2244C88.3692 24.0849 90.5906 23.5151 93.1346 23.5151C95.7273 23.5151 98.3321 24.153 100.949 25.4288L99.1233 30.1107C98.1252 29.6276 97.121 29.2065 96.1107 28.8473C95.1004 28.4881 94.1084 28.3085 93.1346 28.3085Z" fill="#2D2D2D"/>
<path d="M122.079 51.4394L120.276 44.8198H111.208L109.405 51.4394H103.723L112.501 23.5151H118.949L127.761 51.4394H122.079ZM119.017 39.8741C117.349 33.8758 116.408 30.4835 116.193 29.6973C115.989 28.911 115.841 28.2897 115.75 27.8331C115.376 29.4563 114.304 33.47 112.535 39.8741H119.017Z" fill="#2D2D2D"/>
<path d="M29.7603 23.5156H34.8452V28.9045H29.7603V23.5156Z" fill="url(#paint10_linear)"/>
<path d="M69.9773 23.5151H75.0622V28.904H69.9773V23.5151Z" fill="url(#paint11_linear)"/>
<path fill-rule="evenodd" clip-rule="evenodd" d="M6.32397 21.7866C6.35334 21.7662 6.37677 21.7378 6.39169 21.7045L8.6791 16.6484C8.76993 16.4455 8.55269 16.3164 8.3999 16.4739L5.01105 20.6482L0.563848 25.3646C0.527737 25.4322 0.143075 25.9226 0.177466 25.9611C0.211857 25.9996 0.697193 25.7173 0.814339 25.6667L3.67343 23.6278L6.32397 21.7866Z" fill="url(#paint12_linear)"/>
<path fill-rule="evenodd" clip-rule="evenodd" d="M15.8852 18.4532C16.0715 18.389 16.0571 18.1098 15.8654 18.0666L9.20238 16.566C9.11445 16.5462 9.02506 16.5924 8.98705 16.6774L6.97609 21.1709C6.90472 21.3304 7.05093 21.5015 7.21129 21.4462L15.8852 18.4532Z" fill="url(#paint13_linear)"/>
<path fill-rule="evenodd" clip-rule="evenodd" d="M17.8378 16.1306C17.7818 16.3495 18.0624 16.4823 18.1838 16.2943L21.4892 11.176C21.5133 11.1388 21.5486 11.1111 21.5895 11.0972L23.2283 10.5419C23.3367 10.5051 24.2209 10.1901 24.2131 10.1505C24.2079 10.1234 23.2808 10.1505 23.1617 10.1505L21.6618 10.2072C21.6192 10.2088 21.5773 10.1957 21.5426 10.1698L19.9394 8.97431C19.8299 8.89265 19.6758 8.95024 19.6411 9.08579L17.8378 16.1306Z" fill="url(#paint14_linear)"/>
<path fill-rule="evenodd" clip-rule="evenodd" d="M19.1029 8.80482C19.2424 8.77704 19.3618 8.91069 19.3252 9.05364L17.2163 17.2924C17.1719 17.4656 16.9484 17.496 16.8629 17.3404L13.8118 11.7855C13.7685 11.7066 13.7815 11.6071 13.8435 11.5432L15.835 9.49018C15.8622 9.46215 15.8968 9.44319 15.9343 9.43571L19.1029 8.80482Z" fill="url(#paint15_linear)"/>
<path fill-rule="evenodd" clip-rule="evenodd" d="M13.6329 12.116C13.57 12.0015 13.4201 11.9802 13.3301 12.073L9.53108 15.9894C9.42235 16.1015 9.47636 16.2945 9.62588 16.3282L16.416 17.8574C16.579 17.8941 16.7068 17.7124 16.624 17.5616L13.6329 12.116Z" fill="url(#paint16_linear)"/>
<path fill-rule="evenodd" clip-rule="evenodd" d="M8.3999 16.0353C8.56191 16.1176 8.66573 16.0316 8.59175 15.8604L6.70945 11.5208C6.67713 11.446 6.60437 11.3992 6.52569 11.4027L0.907138 11.648C0.707368 11.6568 0.651022 11.9375 0.830709 12.0289L8.3999 16.0353Z" fill="url(#paint17_linear)"/>
<path fill-rule="evenodd" clip-rule="evenodd" d="M12.8736 12.0835C12.9923 11.9611 12.9155 11.7502 12.7488 11.7405L7.31688 11.4246C7.17263 11.4162 7.07117 11.5701 7.13046 11.7073L8.89863 15.8001C8.95378 15.9278 9.11431 15.9589 9.20983 15.8604L12.8736 12.0835Z" fill="url(#paint18_linear)"/>
<path fill-rule="evenodd" clip-rule="evenodd" d="M6.80518 10.9805C6.83383 11.0381 6.88956 11.0757 6.95175 11.0793L12.9979 11.4309C13.1308 11.4386 13.2236 11.2959 13.1674 11.1702L10.9834 6.28876C10.9694 6.25744 10.9471 6.23088 10.9193 6.21213L1.72915 0.0304472C1.57744 -0.0716016 1.39413 0.101949 1.47722 0.268979L6.80518 10.9805Z" fill="url(#paint19_linear)"/>
<defs>
<linearGradient id="paint0_linear" x1="97.7136" y1="61.2371" x2="97.7136" y2="70" gradientUnits="userSpaceOnUse">
<stop stop-color="#7B2AFF"/>
<stop offset="1" stop-color="#FB2BFF"/>
</linearGradient>
<linearGradient id="paint1_linear" x1="97.7136" y1="61.2371" x2="97.7136" y2="70" gradientUnits="userSpaceOnUse">
<stop stop-color="#7B2AFF"/>
<stop offset="1" stop-color="#FB2BFF"/>
</linearGradient>
<linearGradient id="paint2_linear" x1="97.7136" y1="61.2371" x2="97.7136" y2="70" gradientUnits="userSpaceOnUse">
<stop stop-color="#7B2AFF"/>
<stop offset="1" stop-color="#FB2BFF"/>
</linearGradient>
<linearGradient id="paint3_linear" x1="97.7136" y1="61.2371" x2="97.7136" y2="70" gradientUnits="userSpaceOnUse">
<stop stop-color="#7B2AFF"/>
<stop offset="1" stop-color="#FB2BFF"/>
</linearGradient>
<linearGradient id="paint4_linear" x1="97.7136" y1="61.2371" x2="97.7136" y2="70" gradientUnits="userSpaceOnUse">
<stop stop-color="#7B2AFF"/>
<stop offset="1" stop-color="#FB2BFF"/>
</linearGradient>
<linearGradient id="paint5_linear" x1="33.6894" y1="61.2371" x2="33.6894" y2="70" gradientUnits="userSpaceOnUse">
<stop stop-color="#7B2AFF"/>
<stop offset="1" stop-color="#FB2BFF"/>
</linearGradient>
<linearGradient id="paint6_linear" x1="33.6894" y1="61.2371" x2="33.6894" y2="70" gradientUnits="userSpaceOnUse">
<stop stop-color="#7B2AFF"/>
<stop offset="1" stop-color="#FB2BFF"/>
</linearGradient>
<linearGradient id="paint7_linear" x1="33.6894" y1="61.2371" x2="33.6894" y2="70" gradientUnits="userSpaceOnUse">
<stop stop-color="#7B2AFF"/>
<stop offset="1" stop-color="#FB2BFF"/>
</linearGradient>
<linearGradient id="paint8_linear" x1="33.6894" y1="61.2371" x2="33.6894" y2="70" gradientUnits="userSpaceOnUse">
<stop stop-color="#7B2AFF"/>
<stop offset="1" stop-color="#FB2BFF"/>
</linearGradient>
<linearGradient id="paint9_linear" x1="33.6894" y1="61.2371" x2="33.6894" y2="70" gradientUnits="userSpaceOnUse">
<stop stop-color="#7B2AFF"/>
<stop offset="1" stop-color="#FB2BFF"/>
</linearGradient>
<linearGradient id="paint10_linear" x1="32.3027" y1="23.5156" x2="32.3027" y2="28.9045" gradientUnits="userSpaceOnUse">
<stop stop-color="#7B2AFF"/>
<stop offset="1" stop-color="#FB2BFF"/>
</linearGradient>
<linearGradient id="paint11_linear" x1="72.5198" y1="23.5151" x2="72.5198" y2="28.904" gradientUnits="userSpaceOnUse">
<stop stop-color="#7B2AFF"/>
<stop offset="1" stop-color="#FB2BFF"/>
</linearGradient>
<linearGradient id="paint12_linear" x1="12.1942" y1="0" x2="12.1942" y2="25.9647" gradientUnits="userSpaceOnUse">
<stop stop-color="#7B2BFF"/>
<stop offset="1" stop-color="#FB2BFF"/>
</linearGradient>
<linearGradient id="paint13_linear" x1="12.1942" y1="0" x2="12.1942" y2="25.9647" gradientUnits="userSpaceOnUse">
<stop stop-color="#7B2BFF"/>
<stop offset="1" stop-color="#FB2BFF"/>
</linearGradient>
<linearGradient id="paint14_linear" x1="12.1942" y1="0" x2="12.1942" y2="25.9647" gradientUnits="userSpaceOnUse">
<stop stop-color="#7B2BFF"/>
<stop offset="1" stop-color="#FB2BFF"/>
</linearGradient>
<linearGradient id="paint15_linear" x1="12.1942" y1="0" x2="12.1942" y2="25.9647" gradientUnits="userSpaceOnUse">
<stop stop-color="#7B2BFF"/>
<stop offset="1" stop-color="#FB2BFF"/>
</linearGradient>
<linearGradient id="paint16_linear" x1="12.1942" y1="0" x2="12.1942" y2="25.9647" gradientUnits="userSpaceOnUse">
<stop stop-color="#7B2BFF"/>
<stop offset="1" stop-color="#FB2BFF"/>
</linearGradient>
<linearGradient id="paint17_linear" x1="12.1942" y1="0" x2="12.1942" y2="25.9647" gradientUnits="userSpaceOnUse">
<stop stop-color="#7B2BFF"/>
<stop offset="1" stop-color="#FB2BFF"/>
</linearGradient>
<linearGradient id="paint18_linear" x1="12.1942" y1="0" x2="12.1942" y2="25.9647" gradientUnits="userSpaceOnUse">
<stop stop-color="#7B2BFF"/>
<stop offset="1" stop-color="#FB2BFF"/>
</linearGradient>
<linearGradient id="paint19_linear" x1="12.1942" y1="0" x2="12.1942" y2="25.9647" gradientUnits="userSpaceOnUse">
<stop stop-color="#7B2BFF"/>
<stop offset="1" stop-color="#FB2BFF"/>
</linearGradient>
</defs>
</svg>
