<svg width="84" height="70" viewBox="0 0 84 70" fill="none" xmlns="http://www.w3.org/2000/svg">
<path fill-rule="evenodd" clip-rule="evenodd" d="M81.3846 1.90909H11.3846C6.46423 1.90909 2.4755 5.89783 2.4755 10.8182V68.0909H72.4755C77.3958 68.0909 81.3846 64.1022 81.3846 59.1818V1.90909ZM11.3846 0C5.40987 0 0.566406 4.84346 0.566406 10.8182V70H72.4755C78.4502 70 83.2937 65.1565 83.2937 59.1818V0H11.3846Z" fill="#2D2D2D"/>
<path d="M30.6491 22.9091H83.2937V24.8182H30.6491V22.9091Z" fill="#2D2D2D"/>
<path d="M0.566406 45.1818H53.211V47.0909H0.566406V45.1818Z" fill="#2D2D2D"/>
<path d="M71.6485 30.4603V29.5503H76.3175V30.1803L73.2025 33.0223H76.3175V33.9323H71.6485V33.3023L74.7705 30.4603H71.6485Z" fill="#2D2D2D"/>
<path d="M71.6485 41.9565L72.6285 41.5435V39.6605L71.6485 39.2475V38.2605L76.3175 40.2695V40.9835L71.6485 42.9365V41.9565ZM73.3705 39.9475V41.2775L75.0505 40.6125L73.3705 39.9475Z" fill="#2D2D2D"/>
<path d="M76.3175 47.2617V48.1717H71.6485V47.2617H76.3175Z" fill="#2D2D2D"/>
<path d="M76.3175 53.0172V53.9272H72.4325V55.3692H71.6485V53.0172H76.3175Z" fill="#2D2D2D"/>
<path d="M75.8765 62.5497L75.2535 62.0737C75.5195 61.873 75.6525 61.6187 75.6525 61.3107C75.6525 61.0867 75.5965 60.9234 75.4845 60.8207C75.3771 60.718 75.2511 60.6667 75.1065 60.6667C74.9805 60.6667 74.8755 60.7157 74.7915 60.8137C74.7215 60.8884 74.6328 61.075 74.5255 61.3737C74.3668 61.8357 74.2105 62.1507 74.0565 62.3187C73.8185 62.5847 73.4918 62.7177 73.0765 62.7177C72.6191 62.7177 72.2481 62.566 71.9635 62.2627C71.6835 61.964 71.5435 61.5744 71.5435 61.0937C71.5435 60.4217 71.8375 59.885 72.4255 59.4837L72.9925 60.0787C72.7825 60.1814 72.6261 60.3237 72.5235 60.5057C72.4208 60.6877 72.3695 60.872 72.3695 61.0587C72.3695 61.2687 72.4278 61.4414 72.5445 61.5767C72.6658 61.712 72.8221 61.7797 73.0135 61.7797C73.1768 61.7797 73.3168 61.719 73.4335 61.5977C73.5361 61.4857 73.6505 61.2454 73.7765 60.8767C73.8931 60.5314 74.0285 60.2724 74.1825 60.0997C74.3971 59.8524 74.6865 59.7287 75.0505 59.7287C75.4285 59.7287 75.7505 59.857 76.0165 60.1137C76.2871 60.3704 76.4225 60.7414 76.4225 61.2267C76.4225 61.754 76.2405 62.195 75.8765 62.5497Z" fill="#2D2D2D"/>
<path d="M11.9219 9.98592L11.2989 9.50992C11.5649 9.30926 11.6979 9.05492 11.6979 8.74692C11.6979 8.52292 11.6419 8.35959 11.5299 8.25692C11.4225 8.15426 11.2965 8.10292 11.1519 8.10292C11.0259 8.10292 10.9209 8.15192 10.8369 8.24992C10.7669 8.32459 10.6782 8.51126 10.5709 8.80992C10.4122 9.27192 10.2559 9.58692 10.1019 9.75492C9.86387 10.0209 9.5372 10.1539 9.12187 10.1539C8.66453 10.1539 8.29353 10.0023 8.00887 9.69892C7.72887 9.40026 7.58887 9.01059 7.58887 8.52992C7.58887 7.85792 7.88287 7.32126 8.47087 6.91992L9.03787 7.51492C8.82787 7.61759 8.67153 7.75992 8.56887 7.94192C8.4662 8.12392 8.41487 8.30826 8.41487 8.49492C8.41487 8.70492 8.4732 8.87759 8.58987 9.01292C8.7112 9.14826 8.86753 9.21592 9.05887 9.21592C9.2222 9.21592 9.3622 9.15526 9.47887 9.03392C9.58153 8.92192 9.69587 8.68159 9.82187 8.31292C9.93853 7.96759 10.0739 7.70859 10.2279 7.53592C10.4425 7.28859 10.7319 7.16492 11.0959 7.16492C11.4739 7.16492 11.7959 7.29326 12.0619 7.54992C12.3325 7.80659 12.4679 8.17759 12.4679 8.66292C12.4679 9.19026 12.2859 9.63126 11.9219 9.98592Z" fill="#2D2D2D"/>
<path d="M7.69387 15.4628L8.67387 15.0498V13.1668L7.69387 12.7538V11.7668L12.3629 13.7758V14.4898L7.69387 16.4428V15.4628ZM9.41587 13.4538V14.7838L11.0959 14.1188L9.41587 13.4538Z" fill="#2D2D2D"/>
<path d="M12.3629 17.4393V18.4333L9.22687 19.6793L12.3629 20.9253V21.9193L7.69387 19.9453V19.3993L12.3629 17.4393Z" fill="#2D2D2D"/>
<path d="M12.3629 26.4522H11.5789V24.7722H10.5359V26.3822H9.75187V24.7722H8.47787V26.4522H7.69387V23.8622H12.3629V26.4522Z" fill="#2D2D2D"/>
<path d="M12.3629 28.7348V29.6448H8.47787V31.0868H7.69387V28.7348H12.3629Z" fill="#2D2D2D"/>
<path d="M12.3629 35.7053H11.5789V34.0253H10.5359V35.6353H9.75187V34.0253H8.47787V35.7053H7.69387V33.1153H12.3629V35.7053Z" fill="#2D2D2D"/>
<path d="M12.3629 37.4699V38.4639L9.22687 39.7099L12.3629 40.9559V41.9499L7.69387 39.9759V39.4299L12.3629 37.4699Z" fill="#2D2D2D"/>
<path fill-rule="evenodd" clip-rule="evenodd" d="M77.0573 9.19542C77.0573 10.8297 75.7325 12.1545 74.0983 12.1545C72.464 12.1545 71.1392 10.8297 71.1392 9.19542C71.1392 7.56116 72.464 6.23633 74.0983 6.23633C75.7325 6.23633 77.0573 7.56116 77.0573 9.19542ZM74.0983 11.6454C75.4513 11.6454 76.5483 10.5485 76.5483 9.19542C76.5483 7.84232 75.4513 6.74542 74.0983 6.74542C72.7452 6.74542 71.6483 7.84232 71.6483 9.19542C71.6483 10.5485 72.7452 11.6454 74.0983 11.6454Z" fill="#2D2D2D"/>
<path d="M74.1333 9.40038H73.5784V10.3717H73.2653V7.97067H74.0473C74.3134 7.97067 74.5178 8.03223 74.6606 8.15536C74.8045 8.27849 74.8764 8.45768 74.8764 8.69295C74.8764 8.84246 74.8364 8.97273 74.7564 9.08377C74.6774 9.1948 74.5671 9.27781 74.4254 9.33277L74.9803 10.3519V10.3717H74.646L74.1333 9.40038ZM73.5784 9.14149H74.057C74.2117 9.14149 74.3345 9.10081 74.4254 9.01946C74.5173 8.9381 74.5633 8.82927 74.5633 8.69295C74.5633 8.54453 74.5195 8.43075 74.4319 8.3516C74.3453 8.27244 74.2198 8.23232 74.0554 8.23122H73.5784V9.14149Z" fill="#2D2D2D"/>
<path fill-rule="evenodd" clip-rule="evenodd" d="M74.646 10.3717L74.1333 9.40038H73.5784V10.3717H73.2653V7.97067H74.0473C74.3134 7.97067 74.5178 8.03223 74.6606 8.15536C74.8045 8.27849 74.8764 8.45768 74.8764 8.69295C74.8764 8.84246 74.8364 8.97273 74.7564 9.08377C74.7002 9.16268 74.6283 9.22743 74.5405 9.27803C74.5047 9.29862 74.4664 9.31687 74.4254 9.33277L74.9803 10.3519V10.3717H74.646ZM74.6013 9.38983L75.1075 10.3195V10.4989H74.5693L74.0566 9.52766H73.7057V10.4989H73.138V7.8434H74.0473C74.3314 7.8434 74.5698 7.90903 74.7436 8.05882C74.9222 8.21183 75.0037 8.43037 75.0037 8.69295C75.0037 8.86643 74.9568 9.0232 74.8598 9.15785C74.7917 9.25357 74.7048 9.33068 74.6013 9.38983ZM74.341 8.92414C74.4025 8.86977 74.436 8.79731 74.436 8.69295C74.436 8.57062 74.4009 8.49513 74.3465 8.44604L74.3459 8.44551C74.2906 8.39489 74.2003 8.35953 74.055 8.35849H73.7057V9.01421H74.057C74.1891 9.01421 74.2787 8.97994 74.3405 8.92464L74.341 8.92414ZM73.5784 9.14149V8.23122H74.0554C74.2198 8.23232 74.3453 8.27244 74.4319 8.3516C74.5195 8.43075 74.5633 8.54453 74.5633 8.69295C74.5633 8.82927 74.5173 8.9381 74.4254 9.01946C74.3345 9.10081 74.2117 9.14149 74.057 9.14149H73.5784Z" fill="#2D2D2D"/>
</svg>
