<svg width="66" height="70" viewBox="0 0 66 70" fill="none" xmlns="http://www.w3.org/2000/svg">
<path d="M17.324 67.5038C35.2754 74.659 55.6283 65.9071 62.7835 47.9557C69.9387 30.0043 61.1867 9.65142 43.2354 2.49619C36.5439 -0.17098 29.5187 -0.627865 22.9677 0.778109C28.8005 -0.161355 34.9547 0.415624 40.8419 2.76216C58.1973 9.67985 66.6587 29.3571 59.741 46.7125C52.8233 64.0679 33.1461 72.5293 15.7907 65.6116C9.60353 63.1455 4.54672 59.0577 0.914062 54.0317C4.71879 59.9133 10.3215 64.7127 17.324 67.5038Z" fill="url(#paint0_linear)"/>
<path d="M1.78955 40.9923C2.68107 40.3102 3.54637 39.4917 4.38544 38.5368C5.22452 37.5819 6.32056 36.1652 7.67357 34.2868L9.95481 31.0915C10.6575 30.1051 11.6435 28.9456 12.9126 27.6129L19.0168 21.3324L18.9382 21.2694C17.0398 22.6756 15.3669 23.3786 13.9194 23.3786C13.2901 23.3786 12.7919 23.2265 12.4248 22.9222C12.0682 22.6074 11.8899 22.2821 11.8899 21.9463C11.8899 21.7049 11.9634 21.4583 12.1102 21.2064C12.2675 20.9441 12.3462 20.771 12.3462 20.687C12.3462 20.3617 12.0105 20.0469 11.3393 19.7426C10.6785 19.4278 9.87091 19.2704 8.91646 19.2704C7.34319 19.2704 5.83809 19.7321 4.40118 20.6555C2.97475 21.579 2.26153 22.6493 2.26153 23.8666C2.26153 24.6012 2.57094 25.1993 3.18976 25.661C3.80858 26.1227 4.5585 26.3536 5.43953 26.3536C7.27501 26.3536 9.28355 25.4564 11.4652 23.662L11.5281 23.7564C9.60869 25.7922 7.68931 26.8101 5.76992 26.8101C4.82596 26.8101 3.97115 26.5268 3.20549 25.9601C2.45032 25.3934 2.07274 24.7218 2.07274 23.9453C2.07274 22.5916 2.78595 21.4478 4.21238 20.5139C5.6493 19.5799 7.25404 19.113 9.02658 19.113C10.3062 19.113 11.3445 19.3858 12.1417 19.9315C12.9388 20.4771 13.3373 21.0123 13.3373 21.537C13.3373 21.7259 13.2849 21.941 13.18 22.1824C13.0856 22.4132 13.0384 22.5654 13.0384 22.6388C13.0384 22.7962 13.1223 22.9274 13.2901 23.0324C13.458 23.1373 13.673 23.1898 13.9352 23.1898C16.0014 23.1898 18.44 21.7679 21.2509 18.9241L21.4082 19.0972L19.7877 20.7342C18.8333 21.6997 17.9313 22.7123 17.0817 23.7722C16.2426 24.8215 15.0784 26.3851 13.5891 28.4628L12.1574 30.4776C11.3708 31.59 10.0649 33.1378 8.23995 35.1211C6.42545 37.0939 4.43789 38.9985 2.27726 40.8349L2.32446 40.9608C3.10061 40.8559 3.9292 40.5936 4.81023 40.1738C5.69126 39.7436 6.80828 39.072 8.16129 38.159C9.5143 37.2461 10.9093 36.139 12.3462 34.8378C13.7936 33.526 15.8703 31.4378 18.5763 28.573C21.2823 25.7082 23.4115 23.6305 24.9638 22.3398C26.5266 21.0386 27.9582 20.0941 29.2588 19.5065C30.5594 18.9188 31.6921 18.625 32.6571 18.625C33.5381 18.625 34.2251 18.8191 34.7181 19.2074C35.211 19.5852 35.4575 20.0574 35.4575 20.624C35.4575 21.0018 35.3369 21.3271 35.0956 21.6C34.8544 21.8623 34.5765 21.9935 34.2618 21.9935C34.0311 21.9935 33.8318 21.9148 33.664 21.7574C33.5066 21.6 33.428 21.4216 33.428 21.2222C33.428 21.0018 33.5066 20.8129 33.664 20.6555C33.8318 20.4876 34.0258 20.4037 34.2461 20.4037C34.4873 20.4037 34.6971 20.5191 34.8754 20.75C35.0117 20.75 35.0799 20.645 35.0799 20.4352C35.0799 20.0049 34.8649 19.6324 34.4349 19.3176C34.0153 18.9923 33.4227 18.8296 32.6571 18.8296C31.8075 18.8296 30.916 19.008 29.9825 19.3648C29.049 19.7111 27.9897 20.304 26.8045 21.1435C25.6298 21.983 24.5233 22.8802 23.4849 23.8351C22.4466 24.7796 20.244 27.0305 16.8772 30.5878C13.5209 34.1347 10.6261 36.7371 8.19275 38.3951C5.76992 40.0426 3.68272 40.9818 1.93114 41.2127L1.78955 40.9923Z" fill="url(#paint1_linear)"/>
<path d="M22.6354 34.8378H24.0356L19.6147 39.4497C19.1847 39.901 18.9696 40.263 18.9696 40.5358C18.9696 40.7142 19.0273 40.8506 19.1427 40.9451C19.2686 41.029 19.3944 41.071 19.5203 41.071C19.772 41.071 20.1758 40.8874 20.7317 40.5201C21.2876 40.1423 22.3574 39.2766 23.9412 37.9229L24.0513 38.0331C22.3627 39.4602 21.2404 40.347 20.6845 40.6932C20.1391 41.029 19.7248 41.1969 19.4416 41.1969C19.1899 41.1969 18.9906 41.1077 18.8438 40.9294C18.7074 40.7405 18.6393 40.5201 18.6393 40.2682C18.6393 39.8275 18.8543 39.2766 19.2843 38.6155L19.2214 38.5683C17.0922 40.3207 15.6396 41.1969 14.8634 41.1969C14.5383 41.1969 14.2813 41.0658 14.0925 40.8034C13.9142 40.5306 13.8251 40.1791 13.8251 39.7488C13.8251 38.5525 14.6641 37.4402 16.3423 36.4118C18.0309 35.3729 19.4521 34.8535 20.6058 34.8535C21.2037 34.8535 21.5026 35.1053 21.5026 35.609C21.5026 35.7245 21.4921 35.8714 21.4711 36.0498L22.6354 34.8378ZM21.2981 35.5776C21.2981 35.1998 21.0568 35.0109 20.5744 35.0109C19.7038 35.0109 18.4242 35.7717 16.7356 37.2933C15.0574 38.8044 14.2184 39.8695 14.2184 40.4886C14.2184 40.625 14.2761 40.7562 14.3914 40.8821C14.5068 40.9976 14.6694 41.0553 14.8791 41.0553C15.1833 41.0553 15.6815 40.8611 16.3737 40.4729C17.0765 40.0846 17.9365 39.455 18.9539 38.584C19.9713 37.713 20.6163 37.0834 20.889 36.6951C21.1617 36.2964 21.2981 35.9239 21.2981 35.5776Z" fill="url(#paint2_linear)"/>
<path d="M24.0513 38.0331L23.9412 37.9229C26.2486 35.9501 27.5964 34.822 27.9845 34.5387C28.383 34.2554 28.6924 34.0612 28.9127 33.9563C29.1434 33.8514 29.3375 33.7202 29.4948 33.5628C31.2778 31.6529 32.9875 29.9529 34.6237 28.4628C36.2599 26.9727 37.6548 25.8184 38.8086 24.9999C39.9728 24.1709 40.9429 23.7564 41.7191 23.7564C42.0023 23.7564 42.2383 23.8456 42.4271 24.024C42.6263 24.1919 42.726 24.3808 42.726 24.5907C42.726 25.1993 42.0547 26.107 40.7122 27.3138C39.3697 28.5101 37.7073 29.7063 35.7249 30.9026C33.7426 32.0989 32.2218 32.8492 31.1625 33.1535C30.9212 33.4369 30.4755 33.9301 29.8252 34.6331L28.5666 36.0183L26.9776 37.9072C25.8763 39.2189 25.2889 40.0531 25.2155 40.4099V40.5516C25.2155 40.8979 25.4096 41.071 25.7976 41.071C26.6996 41.071 28.3306 40.0216 30.6905 37.9229L30.8006 38.0331L29.8409 38.8516C27.932 40.4781 26.5475 41.2914 25.6875 41.2914C25.4253 41.2914 25.1945 41.1864 24.9953 40.9766C24.8065 40.7772 24.7121 40.5358 24.7121 40.2525C24.7121 39.476 25.3152 38.3531 26.5213 36.884C27.7275 35.4149 28.5036 34.5649 28.8498 34.3341L28.834 34.2396C28.4564 34.4075 27.9006 34.8115 27.1664 35.4516L24.0513 38.0331ZM31.3827 32.9174C32.2218 32.6446 33.643 31.9205 35.6463 30.7452C37.6601 29.5594 39.3068 28.3789 40.5863 27.2036C41.8659 26.0178 42.5057 25.1468 42.5057 24.5907C42.5057 24.4228 42.4271 24.2759 42.2697 24.1499C42.1124 24.0135 41.9131 23.9453 41.6719 23.9453C41.0426 23.9453 40.2769 24.2496 39.3749 24.8583C38.4834 25.4564 37.1094 26.7156 35.253 28.636C33.407 30.5563 32.1169 31.9835 31.3827 32.9174Z" fill="url(#paint3_linear)"/>
<path d="M37.078 37.9229L37.1881 38.0331C35.9295 39.1454 34.781 39.9534 33.7426 40.4571C32.7043 40.9503 31.8757 41.1969 31.2569 41.1969C30.3968 41.1969 29.9668 40.7562 29.9668 39.8747C29.9668 38.6889 30.7744 37.5714 32.3896 36.522C34.0153 35.4726 35.2844 34.9479 36.1969 34.9479C36.3647 34.9479 36.5063 34.9952 36.6217 35.0896C36.7476 35.1841 36.8105 35.2995 36.8105 35.4359C36.8105 35.9501 36.3018 36.4905 35.2844 37.0572C34.267 37.6238 33.1395 37.9754 31.9019 38.1118C30.8321 39.1822 30.2972 39.9167 30.2972 40.3155C30.2972 40.5044 30.3916 40.6827 30.5804 40.8506C30.7692 41.0081 30.9894 41.0868 31.2411 41.0868C31.7865 41.0868 32.5574 40.8506 33.5538 40.3784C34.5607 39.8957 35.7354 39.0772 37.078 37.9229ZM32.1379 37.9229C32.4525 37.9229 33.0084 37.7865 33.8056 37.5137C34.6027 37.2408 35.2635 36.8893 35.7879 36.459C36.3228 36.0288 36.5902 35.672 36.5902 35.3887C36.5902 35.1893 36.4749 35.0896 36.2441 35.0896C35.9714 35.0896 35.6673 35.1736 35.3316 35.3415C35.0065 35.5094 34.5083 35.8556 33.837 36.3803C33.1658 36.8945 32.5994 37.4087 32.1379 37.9229Z" fill="url(#paint4_linear)"/>
<path d="M37.1724 38.0331L37.0622 37.9229L39.4536 35.9553C39.8312 35.651 40.0986 35.4149 40.256 35.247C39.9203 35.0476 39.7525 34.7748 39.7525 34.4285C39.7525 34.2081 39.8259 34.014 39.9728 33.8461C40.1301 33.6782 40.3032 33.5943 40.4919 33.5943C40.6283 33.5943 40.7489 33.652 40.8538 33.7674C40.9692 33.8828 41.0269 34.0245 41.0269 34.1924C41.0269 34.3603 40.9692 34.5072 40.8538 34.6331C40.7384 34.7486 40.5968 34.8063 40.429 34.8063C40.3136 34.8063 40.193 34.7643 40.0672 34.6804C40.0567 34.7223 40.0514 34.7486 40.0514 34.7591C40.0514 34.8535 40.1249 34.9479 40.2717 35.0424C40.4185 35.1368 40.6335 35.1841 40.9167 35.1841C41.3258 35.1841 41.7663 35.0791 42.2383 34.8692L43.0721 35.7979C42.8728 36.1862 42.4585 36.6689 41.8292 37.2461C41.2104 37.8127 40.5916 38.4214 39.9728 39.072C39.354 39.7121 39.0026 40.0951 38.9187 40.221C38.8348 40.347 38.7928 40.4676 38.7928 40.5831C38.7928 40.8769 38.9606 41.0238 39.2963 41.0238C39.6948 41.0238 40.3136 40.7929 41.1527 40.3312C41.9918 39.859 43.0616 39.0562 44.3622 37.9229L44.4723 38.0331C42.0285 40.1423 40.2927 41.1969 39.2648 41.1969C38.9606 41.1969 38.7194 41.1025 38.5411 40.9136C38.3733 40.7142 38.2894 40.4571 38.2894 40.1423C38.2894 39.7436 38.4152 39.3448 38.667 38.946C38.9292 38.5473 39.4851 37.9334 40.3346 37.1044C41.1842 36.2754 41.7715 35.6563 42.0967 35.247L42.0337 35.1368C41.5932 35.2942 41.1842 35.3729 40.8066 35.3729C40.7017 35.3729 40.5916 35.3572 40.4762 35.3257L37.1724 38.0331Z" fill="url(#paint5_linear)"/>
<path d="M44.4723 38.0331L44.3622 37.9229L45.8411 36.6794C46.3445 36.2492 46.9423 35.8347 47.6346 35.4359C48.3373 35.0266 48.888 34.822 49.2865 34.822C49.5278 34.822 49.7218 34.906 49.8686 35.0739C50.0155 35.2313 50.0889 35.4202 50.0889 35.6405C50.0889 36.0813 49.9316 36.501 49.6169 36.8998C49.3022 37.2985 48.4107 38.1433 46.9423 39.434C46.3969 39.9272 46.1242 40.2997 46.1242 40.5516C46.1242 40.8244 46.2763 40.9608 46.5805 40.9608C47.021 40.9608 47.6241 40.7195 48.3898 40.2368C49.1554 39.7436 50.5137 38.6207 52.4645 36.8683L53.9749 35.5146C54.0797 35.4202 54.279 35.1945 54.5727 34.8378H56.0988L49.4124 41.8738C51.6045 41.3071 53.8805 39.9902 56.2404 37.9229L56.3505 38.0331C53.7389 40.2787 51.3213 41.6482 49.0977 42.1414L47.4143 43.8886C46.4494 44.896 45.3061 45.8981 43.9846 46.895C42.6631 47.8919 41.5251 48.3904 40.5706 48.3904C39.9413 48.3904 39.6267 48.17 39.6267 47.7293C39.6267 47.0996 40.3241 46.2864 41.7191 45.2895C43.1141 44.3031 45.0334 43.4269 47.4773 42.6608L53.8805 35.9711L53.8018 35.8924C53.5081 36.1442 53.1096 36.501 52.6061 36.9627L51.1587 38.3007C50.8021 38.626 50.2043 39.0982 49.3652 39.7173C48.5261 40.326 47.902 40.7195 47.493 40.8979C47.0944 41.0658 46.7483 41.1497 46.4546 41.1497C46.2658 41.1497 46.0718 41.0815 45.8725 40.9451C45.6837 40.8087 45.5893 40.5936 45.5893 40.2997C45.5893 39.4707 46.1242 38.605 47.1941 37.7025C48.2639 36.8001 48.9247 36.2072 49.1764 35.9239C49.4281 35.6405 49.554 35.4202 49.554 35.2628C49.554 35.0844 49.4281 34.9952 49.1764 34.9952C48.9037 34.9952 48.4527 35.1683 47.8234 35.5146C47.2046 35.8609 46.4756 36.3803 45.6365 37.0729L44.4723 38.0331ZM47.1783 43.0386C45.4058 43.4478 43.7381 44.1772 42.1753 45.2265C40.6021 46.2864 39.8154 47.1259 39.8154 47.745C39.8154 48.0598 40.0672 48.2172 40.5706 48.2172C41.2628 48.2172 41.9498 47.9864 42.6316 47.5246C43.3133 47.0734 44.3832 46.066 45.8411 44.5025L47.1783 43.0386Z" fill="url(#paint6_linear)"/>
<mask id="path-3-outside-1" maskUnits="userSpaceOnUse" x="1.06104" y="42.4985" width="35" height="6" fill="black">
<rect fill="white" x="1.06104" y="42.4985" width="35" height="6"/>
<path d="M4.92428 43.9356V44.2269C4.78028 44.0595 4.60949 43.9305 4.41191 43.8401C4.21768 43.7463 4.01173 43.6995 3.79405 43.6995C3.36875 43.6995 3.0121 43.8485 2.7241 44.1465C2.4361 44.4446 2.2921 44.8079 2.2921 45.2366C2.2921 45.4743 2.33731 45.692 2.42773 45.8896C2.5215 46.0872 2.64206 46.2479 2.78941 46.3718C2.9401 46.4924 3.10252 46.5862 3.27666 46.6531C3.4508 46.7168 3.62494 46.7486 3.79908 46.7486C3.98661 46.7486 4.18084 46.7084 4.38177 46.628C4.5827 46.5443 4.76354 46.4154 4.92428 46.2412V46.5326C4.60949 46.8105 4.23777 46.9495 3.80912 46.9495C3.3135 46.9495 2.89824 46.7804 2.56336 46.4422C2.22848 46.1039 2.06104 45.6987 2.06104 45.2265C2.06104 44.7443 2.23015 44.3357 2.56838 44.0009C2.90661 43.666 3.31685 43.4985 3.79908 43.4985C4.24112 43.4985 4.61619 43.6442 4.92428 43.9356Z"/>
<path d="M6.2742 46.8942V45.0356H5.5609V44.8448H7.18843V45.0356H6.47513V46.8942H6.2742Z"/>
<path d="M8.19473 48.0496L8.67696 46.9294L7.70245 44.8448H7.93352L8.79249 46.6682L9.54095 44.8448H9.77202L8.42579 48.0496H8.19473Z"/>
<path d="M10.6397 44.8448H11.9859V46.7034H12.2873V47.4468H12.0964V46.8942H10.3685V47.4468H10.1776V46.7034C10.345 46.6933 10.4706 46.6029 10.5543 46.4321C10.6112 46.3149 10.6397 46.1307 10.6397 45.8796V44.8448ZM11.785 46.7034V45.0356H10.8406V45.9398C10.8406 46.3015 10.7536 46.556 10.5794 46.7034H11.785Z"/>
<path d="M13.038 44.8448H13.2389V46.4874L14.6956 44.7292V46.8942H14.4947V45.2617L13.038 47.0198V44.8448Z"/>
<path d="M15.5226 46.8942L16.1756 46.0001C16.0182 45.9934 15.8843 45.9432 15.7738 45.8494C15.6599 45.7489 15.603 45.6133 15.603 45.4425C15.603 45.2449 15.6649 45.0943 15.7888 44.9904C15.8994 44.8933 16.0618 44.8448 16.2761 44.8448H16.9593V46.8942H16.7583V46.0102H16.4067L15.7637 46.8942H15.5226ZM16.7583 45.8193V45.0356H16.2761C16.1354 45.0356 16.0266 45.0658 15.9496 45.1261C15.8592 45.2031 15.814 45.3069 15.814 45.4375C15.814 45.5648 15.8575 45.6619 15.9446 45.7289C16.0249 45.7891 16.1354 45.8193 16.2761 45.8193H16.7583Z"/>
<path d="M19.5067 44.8448H20.1748C20.3657 44.8448 20.5114 44.8849 20.6119 44.9653C20.7324 45.0624 20.7927 45.193 20.7927 45.3571C20.7927 45.5447 20.7173 45.687 20.5667 45.7841C20.6604 45.7975 20.7441 45.836 20.8178 45.8996C20.935 46.0035 20.9936 46.1408 20.9936 46.3115C20.9936 46.5024 20.925 46.6498 20.7877 46.7536C20.6671 46.8474 20.4997 46.8942 20.2854 46.8942H19.5067V44.8448ZM19.7077 45.7389H20.1748C20.2987 45.7389 20.3959 45.7104 20.4662 45.6535C20.5499 45.5865 20.5918 45.4961 20.5918 45.3823C20.5918 45.2717 20.5499 45.183 20.4662 45.116C20.3992 45.0624 20.3021 45.0356 20.1748 45.0356H19.7077V45.7389ZM19.7077 46.7034H20.2854C20.4394 46.7034 20.5566 46.6732 20.637 46.6129C20.7341 46.5393 20.7827 46.4371 20.7827 46.3065C20.7827 46.186 20.7374 46.0905 20.647 46.0202C20.5667 45.9599 20.4461 45.9298 20.2854 45.9298H19.7077V46.7034Z"/>
<path d="M21.971 45.2768L21.8053 45.1612C21.9459 44.9201 22.1619 44.7996 22.4533 44.7996C22.6509 44.7996 22.8016 44.8481 22.9054 44.9452C23.0159 45.0423 23.0711 45.1746 23.0711 45.3421C23.0711 45.543 22.9924 45.6853 22.835 45.769C22.9255 45.7891 23.0058 45.8343 23.0762 45.9047C23.1733 46.0018 23.2218 46.1324 23.2218 46.2965C23.2218 46.5075 23.1415 46.6749 22.9807 46.7988C22.8468 46.8993 22.6726 46.9495 22.4583 46.9495C22.2373 46.9495 22.0581 46.8976 21.9208 46.7938C21.8103 46.7034 21.7283 46.6046 21.6747 46.4974L21.8555 46.3819C21.9057 46.4924 21.9777 46.5795 22.0715 46.6431C22.1753 46.7201 22.3042 46.7586 22.4583 46.7586C22.6291 46.7586 22.7597 46.7201 22.8501 46.6431C22.9573 46.556 23.0109 46.4388 23.0109 46.2915C23.0109 46.1609 22.964 46.0604 22.8702 45.9901C22.7898 45.9298 22.6642 45.8996 22.4935 45.8996H22.2825V45.7088H22.4382C22.5688 45.7088 22.6709 45.6803 22.7446 45.6234C22.8283 45.5564 22.8702 45.4693 22.8702 45.3622C22.8702 45.255 22.835 45.1663 22.7647 45.0959C22.6877 45.0256 22.5822 44.9904 22.4482 44.9904C22.2339 44.9904 22.0749 45.0859 21.971 45.2768Z"/>
<path d="M24.143 46.8942V44.8448H25.2482V45.0356H24.344V46.8942H24.143Z"/>
<path d="M27.2601 44.8448V46.8942H27.0592V45.0356H26.1148V46.2211C26.1148 46.4455 26.0746 46.6113 25.9943 46.7184C25.9038 46.8423 25.7732 46.9043 25.6025 46.9043C25.5824 46.9043 25.5489 46.9009 25.502 46.8942V46.7034C25.5355 46.7101 25.5606 46.7134 25.5773 46.7134C25.6912 46.7134 25.7799 46.6682 25.8436 46.5778C25.8904 46.5041 25.9139 46.3852 25.9139 46.2211V44.8448H27.2601Z"/>
<path d="M28.0874 46.8942L28.7404 46.0001C28.583 45.9934 28.4491 45.9432 28.3385 45.8494C28.2247 45.7489 28.1678 45.6133 28.1678 45.4425C28.1678 45.2449 28.2297 45.0943 28.3536 44.9904C28.4641 44.8933 28.6265 44.8448 28.8409 44.8448H29.524V46.8942H29.3231V46.0102H28.9715L28.3285 46.8942H28.0874ZM29.3231 45.8193V45.0356H28.8409C28.7002 45.0356 28.5914 45.0658 28.5144 45.1261C28.4239 45.2031 28.3787 45.3069 28.3787 45.4375C28.3787 45.5648 28.4223 45.6619 28.5093 45.7289C28.5897 45.7891 28.7002 45.8193 28.8409 45.8193H29.3231Z"/>
<path d="M30.7132 44.8448H32.0595V46.7034H32.3609V47.4468H32.17V46.8942H30.442V47.4468H30.2511V46.7034C30.4185 46.6933 30.5441 46.6029 30.6279 46.4321C30.6848 46.3149 30.7132 46.1307 30.7132 45.8796V44.8448ZM31.8585 46.7034V45.0356H30.9142V45.9398C30.9142 46.3015 30.8271 46.556 30.653 46.7034H31.8585Z"/>
<path d="M34.7792 45.2014V44.8448H34.9801V46.8942H34.7792V46.5275C34.595 46.8089 34.3288 46.9495 33.9805 46.9495C33.7026 46.9495 33.4665 46.8507 33.2722 46.6531C33.078 46.4555 32.9809 46.1943 32.9809 45.8695C32.9809 45.5514 33.073 45.2935 33.2572 45.0959C33.4413 44.8983 33.6825 44.7996 33.9805 44.7996C34.3221 44.7996 34.5883 44.9335 34.7792 45.2014ZM33.9906 44.9904C33.7729 44.9904 33.5853 45.0691 33.428 45.2265C33.2706 45.3806 33.1919 45.5899 33.1919 45.8544C33.1919 46.0989 33.2639 46.3115 33.4079 46.4924C33.5519 46.6699 33.7478 46.7586 33.9956 46.7586C34.24 46.7586 34.4326 46.6715 34.5733 46.4974C34.7173 46.3199 34.7893 46.1056 34.7893 45.8544C34.7893 45.5765 34.7072 45.3638 34.5431 45.2165C34.379 45.0658 34.1948 44.9904 33.9906 44.9904Z"/>
</mask>
<path d="M4.92428 43.9356V44.2269C4.78028 44.0595 4.60949 43.9305 4.41191 43.8401C4.21768 43.7463 4.01173 43.6995 3.79405 43.6995C3.36875 43.6995 3.0121 43.8485 2.7241 44.1465C2.4361 44.4446 2.2921 44.8079 2.2921 45.2366C2.2921 45.4743 2.33731 45.692 2.42773 45.8896C2.5215 46.0872 2.64206 46.2479 2.78941 46.3718C2.9401 46.4924 3.10252 46.5862 3.27666 46.6531C3.4508 46.7168 3.62494 46.7486 3.79908 46.7486C3.98661 46.7486 4.18084 46.7084 4.38177 46.628C4.5827 46.5443 4.76354 46.4154 4.92428 46.2412V46.5326C4.60949 46.8105 4.23777 46.9495 3.80912 46.9495C3.3135 46.9495 2.89824 46.7804 2.56336 46.4422C2.22848 46.1039 2.06104 45.6987 2.06104 45.2265C2.06104 44.7443 2.23015 44.3357 2.56838 44.0009C2.90661 43.666 3.31685 43.4985 3.79908 43.4985C4.24112 43.4985 4.61619 43.6442 4.92428 43.9356Z" fill="url(#paint7_linear)"/>
<path d="M6.2742 46.8942V45.0356H5.5609V44.8448H7.18843V45.0356H6.47513V46.8942H6.2742Z" fill="url(#paint8_linear)"/>
<path d="M8.19473 48.0496L8.67696 46.9294L7.70245 44.8448H7.93352L8.79249 46.6682L9.54095 44.8448H9.77202L8.42579 48.0496H8.19473Z" fill="url(#paint9_linear)"/>
<path d="M10.6397 44.8448H11.9859V46.7034H12.2873V47.4468H12.0964V46.8942H10.3685V47.4468H10.1776V46.7034C10.345 46.6933 10.4706 46.6029 10.5543 46.4321C10.6112 46.3149 10.6397 46.1307 10.6397 45.8796V44.8448ZM11.785 46.7034V45.0356H10.8406V45.9398C10.8406 46.3015 10.7536 46.556 10.5794 46.7034H11.785Z" fill="url(#paint10_linear)"/>
<path d="M13.038 44.8448H13.2389V46.4874L14.6956 44.7292V46.8942H14.4947V45.2617L13.038 47.0198V44.8448Z" fill="url(#paint11_linear)"/>
<path d="M15.5226 46.8942L16.1756 46.0001C16.0182 45.9934 15.8843 45.9432 15.7738 45.8494C15.6599 45.7489 15.603 45.6133 15.603 45.4425C15.603 45.2449 15.6649 45.0943 15.7888 44.9904C15.8994 44.8933 16.0618 44.8448 16.2761 44.8448H16.9593V46.8942H16.7583V46.0102H16.4067L15.7637 46.8942H15.5226ZM16.7583 45.8193V45.0356H16.2761C16.1354 45.0356 16.0266 45.0658 15.9496 45.1261C15.8592 45.2031 15.814 45.3069 15.814 45.4375C15.814 45.5648 15.8575 45.6619 15.9446 45.7289C16.0249 45.7891 16.1354 45.8193 16.2761 45.8193H16.7583Z" fill="url(#paint12_linear)"/>
<path d="M19.5067 44.8448H20.1748C20.3657 44.8448 20.5114 44.8849 20.6119 44.9653C20.7324 45.0624 20.7927 45.193 20.7927 45.3571C20.7927 45.5447 20.7173 45.687 20.5667 45.7841C20.6604 45.7975 20.7441 45.836 20.8178 45.8996C20.935 46.0035 20.9936 46.1408 20.9936 46.3115C20.9936 46.5024 20.925 46.6498 20.7877 46.7536C20.6671 46.8474 20.4997 46.8942 20.2854 46.8942H19.5067V44.8448ZM19.7077 45.7389H20.1748C20.2987 45.7389 20.3959 45.7104 20.4662 45.6535C20.5499 45.5865 20.5918 45.4961 20.5918 45.3823C20.5918 45.2717 20.5499 45.183 20.4662 45.116C20.3992 45.0624 20.3021 45.0356 20.1748 45.0356H19.7077V45.7389ZM19.7077 46.7034H20.2854C20.4394 46.7034 20.5566 46.6732 20.637 46.6129C20.7341 46.5393 20.7827 46.4371 20.7827 46.3065C20.7827 46.186 20.7374 46.0905 20.647 46.0202C20.5667 45.9599 20.4461 45.9298 20.2854 45.9298H19.7077V46.7034Z" fill="url(#paint13_linear)"/>
<path d="M21.971 45.2768L21.8053 45.1612C21.9459 44.9201 22.1619 44.7996 22.4533 44.7996C22.6509 44.7996 22.8016 44.8481 22.9054 44.9452C23.0159 45.0423 23.0711 45.1746 23.0711 45.3421C23.0711 45.543 22.9924 45.6853 22.835 45.769C22.9255 45.7891 23.0058 45.8343 23.0762 45.9047C23.1733 46.0018 23.2218 46.1324 23.2218 46.2965C23.2218 46.5075 23.1415 46.6749 22.9807 46.7988C22.8468 46.8993 22.6726 46.9495 22.4583 46.9495C22.2373 46.9495 22.0581 46.8976 21.9208 46.7938C21.8103 46.7034 21.7283 46.6046 21.6747 46.4974L21.8555 46.3819C21.9057 46.4924 21.9777 46.5795 22.0715 46.6431C22.1753 46.7201 22.3042 46.7586 22.4583 46.7586C22.6291 46.7586 22.7597 46.7201 22.8501 46.6431C22.9573 46.556 23.0109 46.4388 23.0109 46.2915C23.0109 46.1609 22.964 46.0604 22.8702 45.9901C22.7898 45.9298 22.6642 45.8996 22.4935 45.8996H22.2825V45.7088H22.4382C22.5688 45.7088 22.6709 45.6803 22.7446 45.6234C22.8283 45.5564 22.8702 45.4693 22.8702 45.3622C22.8702 45.255 22.835 45.1663 22.7647 45.0959C22.6877 45.0256 22.5822 44.9904 22.4482 44.9904C22.2339 44.9904 22.0749 45.0859 21.971 45.2768Z" fill="url(#paint14_linear)"/>
<path d="M24.143 46.8942V44.8448H25.2482V45.0356H24.344V46.8942H24.143Z" fill="url(#paint15_linear)"/>
<path d="M27.2601 44.8448V46.8942H27.0592V45.0356H26.1148V46.2211C26.1148 46.4455 26.0746 46.6113 25.9943 46.7184C25.9038 46.8423 25.7732 46.9043 25.6025 46.9043C25.5824 46.9043 25.5489 46.9009 25.502 46.8942V46.7034C25.5355 46.7101 25.5606 46.7134 25.5773 46.7134C25.6912 46.7134 25.7799 46.6682 25.8436 46.5778C25.8904 46.5041 25.9139 46.3852 25.9139 46.2211V44.8448H27.2601Z" fill="url(#paint16_linear)"/>
<path d="M28.0874 46.8942L28.7404 46.0001C28.583 45.9934 28.4491 45.9432 28.3385 45.8494C28.2247 45.7489 28.1678 45.6133 28.1678 45.4425C28.1678 45.2449 28.2297 45.0943 28.3536 44.9904C28.4641 44.8933 28.6265 44.8448 28.8409 44.8448H29.524V46.8942H29.3231V46.0102H28.9715L28.3285 46.8942H28.0874ZM29.3231 45.8193V45.0356H28.8409C28.7002 45.0356 28.5914 45.0658 28.5144 45.1261C28.4239 45.2031 28.3787 45.3069 28.3787 45.4375C28.3787 45.5648 28.4223 45.6619 28.5093 45.7289C28.5897 45.7891 28.7002 45.8193 28.8409 45.8193H29.3231Z" fill="url(#paint17_linear)"/>
<path d="M30.7132 44.8448H32.0595V46.7034H32.3609V47.4468H32.17V46.8942H30.442V47.4468H30.2511V46.7034C30.4185 46.6933 30.5441 46.6029 30.6279 46.4321C30.6848 46.3149 30.7132 46.1307 30.7132 45.8796V44.8448ZM31.8585 46.7034V45.0356H30.9142V45.9398C30.9142 46.3015 30.8271 46.556 30.653 46.7034H31.8585Z" fill="url(#paint18_linear)"/>
<path d="M34.7792 45.2014V44.8448H34.9801V46.8942H34.7792V46.5275C34.595 46.8089 34.3288 46.9495 33.9805 46.9495C33.7026 46.9495 33.4665 46.8507 33.2722 46.6531C33.078 46.4555 32.9809 46.1943 32.9809 45.8695C32.9809 45.5514 33.073 45.2935 33.2572 45.0959C33.4413 44.8983 33.6825 44.7996 33.9805 44.7996C34.3221 44.7996 34.5883 44.9335 34.7792 45.2014ZM33.9906 44.9904C33.7729 44.9904 33.5853 45.0691 33.428 45.2265C33.2706 45.3806 33.1919 45.5899 33.1919 45.8544C33.1919 46.0989 33.2639 46.3115 33.4079 46.4924C33.5519 46.6699 33.7478 46.7586 33.9956 46.7586C34.24 46.7586 34.4326 46.6715 34.5733 46.4974C34.7173 46.3199 34.7893 46.1056 34.7893 45.8544C34.7893 45.5765 34.7072 45.3638 34.5431 45.2165C34.379 45.0658 34.1948 44.9904 33.9906 44.9904Z" fill="url(#paint19_linear)"/>
<path d="M4.92428 43.9356V44.2269C4.78028 44.0595 4.60949 43.9305 4.41191 43.8401C4.21768 43.7463 4.01173 43.6995 3.79405 43.6995C3.36875 43.6995 3.0121 43.8485 2.7241 44.1465C2.4361 44.4446 2.2921 44.8079 2.2921 45.2366C2.2921 45.4743 2.33731 45.692 2.42773 45.8896C2.5215 46.0872 2.64206 46.2479 2.78941 46.3718C2.9401 46.4924 3.10252 46.5862 3.27666 46.6531C3.4508 46.7168 3.62494 46.7486 3.79908 46.7486C3.98661 46.7486 4.18084 46.7084 4.38177 46.628C4.5827 46.5443 4.76354 46.4154 4.92428 46.2412V46.5326C4.60949 46.8105 4.23777 46.9495 3.80912 46.9495C3.3135 46.9495 2.89824 46.7804 2.56336 46.4422C2.22848 46.1039 2.06104 45.6987 2.06104 45.2265C2.06104 44.7443 2.23015 44.3357 2.56838 44.0009C2.90661 43.666 3.31685 43.4985 3.79908 43.4985C4.24112 43.4985 4.61619 43.6442 4.92428 43.9356Z" stroke="url(#paint20_linear)" stroke-width="0.2" mask="url(#path-3-outside-1)"/>
<path d="M6.2742 46.8942V45.0356H5.5609V44.8448H7.18843V45.0356H6.47513V46.8942H6.2742Z" stroke="url(#paint21_linear)" stroke-width="0.2" mask="url(#path-3-outside-1)"/>
<path d="M8.19473 48.0496L8.67696 46.9294L7.70245 44.8448H7.93352L8.79249 46.6682L9.54095 44.8448H9.77202L8.42579 48.0496H8.19473Z" stroke="url(#paint22_linear)" stroke-width="0.2" mask="url(#path-3-outside-1)"/>
<path d="M10.6397 44.8448H11.9859V46.7034H12.2873V47.4468H12.0964V46.8942H10.3685V47.4468H10.1776V46.7034C10.345 46.6933 10.4706 46.6029 10.5543 46.4321C10.6112 46.3149 10.6397 46.1307 10.6397 45.8796V44.8448ZM11.785 46.7034V45.0356H10.8406V45.9398C10.8406 46.3015 10.7536 46.556 10.5794 46.7034H11.785Z" stroke="url(#paint23_linear)" stroke-width="0.2" mask="url(#path-3-outside-1)"/>
<path d="M13.038 44.8448H13.2389V46.4874L14.6956 44.7292V46.8942H14.4947V45.2617L13.038 47.0198V44.8448Z" stroke="url(#paint24_linear)" stroke-width="0.2" mask="url(#path-3-outside-1)"/>
<path d="M15.5226 46.8942L16.1756 46.0001C16.0182 45.9934 15.8843 45.9432 15.7738 45.8494C15.6599 45.7489 15.603 45.6133 15.603 45.4425C15.603 45.2449 15.6649 45.0943 15.7888 44.9904C15.8994 44.8933 16.0618 44.8448 16.2761 44.8448H16.9593V46.8942H16.7583V46.0102H16.4067L15.7637 46.8942H15.5226ZM16.7583 45.8193V45.0356H16.2761C16.1354 45.0356 16.0266 45.0658 15.9496 45.1261C15.8592 45.2031 15.814 45.3069 15.814 45.4375C15.814 45.5648 15.8575 45.6619 15.9446 45.7289C16.0249 45.7891 16.1354 45.8193 16.2761 45.8193H16.7583Z" stroke="url(#paint25_linear)" stroke-width="0.2" mask="url(#path-3-outside-1)"/>
<path d="M19.5067 44.8448H20.1748C20.3657 44.8448 20.5114 44.8849 20.6119 44.9653C20.7324 45.0624 20.7927 45.193 20.7927 45.3571C20.7927 45.5447 20.7173 45.687 20.5667 45.7841C20.6604 45.7975 20.7441 45.836 20.8178 45.8996C20.935 46.0035 20.9936 46.1408 20.9936 46.3115C20.9936 46.5024 20.925 46.6498 20.7877 46.7536C20.6671 46.8474 20.4997 46.8942 20.2854 46.8942H19.5067V44.8448ZM19.7077 45.7389H20.1748C20.2987 45.7389 20.3959 45.7104 20.4662 45.6535C20.5499 45.5865 20.5918 45.4961 20.5918 45.3823C20.5918 45.2717 20.5499 45.183 20.4662 45.116C20.3992 45.0624 20.3021 45.0356 20.1748 45.0356H19.7077V45.7389ZM19.7077 46.7034H20.2854C20.4394 46.7034 20.5566 46.6732 20.637 46.6129C20.7341 46.5393 20.7827 46.4371 20.7827 46.3065C20.7827 46.186 20.7374 46.0905 20.647 46.0202C20.5667 45.9599 20.4461 45.9298 20.2854 45.9298H19.7077V46.7034Z" stroke="url(#paint26_linear)" stroke-width="0.2" mask="url(#path-3-outside-1)"/>
<path d="M21.971 45.2768L21.8053 45.1612C21.9459 44.9201 22.1619 44.7996 22.4533 44.7996C22.6509 44.7996 22.8016 44.8481 22.9054 44.9452C23.0159 45.0423 23.0711 45.1746 23.0711 45.3421C23.0711 45.543 22.9924 45.6853 22.835 45.769C22.9255 45.7891 23.0058 45.8343 23.0762 45.9047C23.1733 46.0018 23.2218 46.1324 23.2218 46.2965C23.2218 46.5075 23.1415 46.6749 22.9807 46.7988C22.8468 46.8993 22.6726 46.9495 22.4583 46.9495C22.2373 46.9495 22.0581 46.8976 21.9208 46.7938C21.8103 46.7034 21.7283 46.6046 21.6747 46.4974L21.8555 46.3819C21.9057 46.4924 21.9777 46.5795 22.0715 46.6431C22.1753 46.7201 22.3042 46.7586 22.4583 46.7586C22.6291 46.7586 22.7597 46.7201 22.8501 46.6431C22.9573 46.556 23.0109 46.4388 23.0109 46.2915C23.0109 46.1609 22.964 46.0604 22.8702 45.9901C22.7898 45.9298 22.6642 45.8996 22.4935 45.8996H22.2825V45.7088H22.4382C22.5688 45.7088 22.6709 45.6803 22.7446 45.6234C22.8283 45.5564 22.8702 45.4693 22.8702 45.3622C22.8702 45.255 22.835 45.1663 22.7647 45.0959C22.6877 45.0256 22.5822 44.9904 22.4482 44.9904C22.2339 44.9904 22.0749 45.0859 21.971 45.2768Z" stroke="url(#paint27_linear)" stroke-width="0.2" mask="url(#path-3-outside-1)"/>
<path d="M24.143 46.8942V44.8448H25.2482V45.0356H24.344V46.8942H24.143Z" stroke="url(#paint28_linear)" stroke-width="0.2" mask="url(#path-3-outside-1)"/>
<path d="M27.2601 44.8448V46.8942H27.0592V45.0356H26.1148V46.2211C26.1148 46.4455 26.0746 46.6113 25.9943 46.7184C25.9038 46.8423 25.7732 46.9043 25.6025 46.9043C25.5824 46.9043 25.5489 46.9009 25.502 46.8942V46.7034C25.5355 46.7101 25.5606 46.7134 25.5773 46.7134C25.6912 46.7134 25.7799 46.6682 25.8436 46.5778C25.8904 46.5041 25.9139 46.3852 25.9139 46.2211V44.8448H27.2601Z" stroke="url(#paint29_linear)" stroke-width="0.2" mask="url(#path-3-outside-1)"/>
<path d="M28.0874 46.8942L28.7404 46.0001C28.583 45.9934 28.4491 45.9432 28.3385 45.8494C28.2247 45.7489 28.1678 45.6133 28.1678 45.4425C28.1678 45.2449 28.2297 45.0943 28.3536 44.9904C28.4641 44.8933 28.6265 44.8448 28.8409 44.8448H29.524V46.8942H29.3231V46.0102H28.9715L28.3285 46.8942H28.0874ZM29.3231 45.8193V45.0356H28.8409C28.7002 45.0356 28.5914 45.0658 28.5144 45.1261C28.4239 45.2031 28.3787 45.3069 28.3787 45.4375C28.3787 45.5648 28.4223 45.6619 28.5093 45.7289C28.5897 45.7891 28.7002 45.8193 28.8409 45.8193H29.3231Z" stroke="url(#paint30_linear)" stroke-width="0.2" mask="url(#path-3-outside-1)"/>
<path d="M30.7132 44.8448H32.0595V46.7034H32.3609V47.4468H32.17V46.8942H30.442V47.4468H30.2511V46.7034C30.4185 46.6933 30.5441 46.6029 30.6279 46.4321C30.6848 46.3149 30.7132 46.1307 30.7132 45.8796V44.8448ZM31.8585 46.7034V45.0356H30.9142V45.9398C30.9142 46.3015 30.8271 46.556 30.653 46.7034H31.8585Z" stroke="url(#paint31_linear)" stroke-width="0.2" mask="url(#path-3-outside-1)"/>
<path d="M34.7792 45.2014V44.8448H34.9801V46.8942H34.7792V46.5275C34.595 46.8089 34.3288 46.9495 33.9805 46.9495C33.7026 46.9495 33.4665 46.8507 33.2722 46.6531C33.078 46.4555 32.9809 46.1943 32.9809 45.8695C32.9809 45.5514 33.073 45.2935 33.2572 45.0959C33.4413 44.8983 33.6825 44.7996 33.9805 44.7996C34.3221 44.7996 34.5883 44.9335 34.7792 45.2014ZM33.9906 44.9904C33.7729 44.9904 33.5853 45.0691 33.428 45.2265C33.2706 45.3806 33.1919 45.5899 33.1919 45.8544C33.1919 46.0989 33.2639 46.3115 33.4079 46.4924C33.5519 46.6699 33.7478 46.7586 33.9956 46.7586C34.24 46.7586 34.4326 46.6715 34.5733 46.4974C34.7173 46.3199 34.7893 46.1056 34.7893 45.8544C34.7893 45.5765 34.7072 45.3638 34.5431 45.2165C34.379 45.0658 34.1948 44.9904 33.9906 44.9904Z" stroke="url(#paint32_linear)" stroke-width="0.2" mask="url(#path-3-outside-1)"/>
<defs>
<linearGradient id="paint0_linear" x1="17.9591" y1="30.905" x2="63.949" y2="50.6451" gradientUnits="userSpaceOnUse">
<stop offset="0.088439" stop-color="#E22222"/>
<stop offset="0.669904" stop-color="#A2549E"/>
<stop offset="1" stop-color="#1B44D3"/>
</linearGradient>
<linearGradient id="paint1_linear" x1="9.99242" y1="23.4078" x2="56.3505" y2="48.3904" gradientUnits="userSpaceOnUse">
<stop stop-color="#E22222"/>
<stop offset="0.536534" stop-color="#A2549E"/>
<stop offset="1" stop-color="#1B44D3"/>
</linearGradient>
<linearGradient id="paint2_linear" x1="9.99242" y1="23.4078" x2="56.3505" y2="48.3904" gradientUnits="userSpaceOnUse">
<stop stop-color="#E22222"/>
<stop offset="0.536534" stop-color="#A2549E"/>
<stop offset="1" stop-color="#1B44D3"/>
</linearGradient>
<linearGradient id="paint3_linear" x1="9.99242" y1="23.4078" x2="56.3505" y2="48.3904" gradientUnits="userSpaceOnUse">
<stop stop-color="#E22222"/>
<stop offset="0.536534" stop-color="#A2549E"/>
<stop offset="1" stop-color="#1B44D3"/>
</linearGradient>
<linearGradient id="paint4_linear" x1="9.99242" y1="23.4078" x2="56.3505" y2="48.3904" gradientUnits="userSpaceOnUse">
<stop stop-color="#E22222"/>
<stop offset="0.536534" stop-color="#A2549E"/>
<stop offset="1" stop-color="#1B44D3"/>
</linearGradient>
<linearGradient id="paint5_linear" x1="9.99242" y1="23.4078" x2="56.3505" y2="48.3904" gradientUnits="userSpaceOnUse">
<stop stop-color="#E22222"/>
<stop offset="0.536534" stop-color="#A2549E"/>
<stop offset="1" stop-color="#1B44D3"/>
</linearGradient>
<linearGradient id="paint6_linear" x1="9.99242" y1="23.4078" x2="56.3505" y2="48.3904" gradientUnits="userSpaceOnUse">
<stop stop-color="#E22222"/>
<stop offset="0.536534" stop-color="#A2549E"/>
<stop offset="1" stop-color="#1B44D3"/>
</linearGradient>
<linearGradient id="paint7_linear" x1="2.057" y1="45.772" x2="34.9753" y2="45.772" gradientUnits="userSpaceOnUse">
<stop stop-color="#E22222"/>
<stop offset="1" stop-color="#A2549E"/>
</linearGradient>
<linearGradient id="paint8_linear" x1="2.057" y1="45.772" x2="34.9753" y2="45.772" gradientUnits="userSpaceOnUse">
<stop stop-color="#E22222"/>
<stop offset="1" stop-color="#A2549E"/>
</linearGradient>
<linearGradient id="paint9_linear" x1="2.057" y1="45.772" x2="34.9753" y2="45.772" gradientUnits="userSpaceOnUse">
<stop stop-color="#E22222"/>
<stop offset="1" stop-color="#A2549E"/>
</linearGradient>
<linearGradient id="paint10_linear" x1="2.057" y1="45.772" x2="34.9753" y2="45.772" gradientUnits="userSpaceOnUse">
<stop stop-color="#E22222"/>
<stop offset="1" stop-color="#A2549E"/>
</linearGradient>
<linearGradient id="paint11_linear" x1="2.057" y1="45.772" x2="34.9753" y2="45.772" gradientUnits="userSpaceOnUse">
<stop stop-color="#E22222"/>
<stop offset="1" stop-color="#A2549E"/>
</linearGradient>
<linearGradient id="paint12_linear" x1="2.057" y1="45.772" x2="34.9753" y2="45.772" gradientUnits="userSpaceOnUse">
<stop stop-color="#E22222"/>
<stop offset="1" stop-color="#A2549E"/>
</linearGradient>
<linearGradient id="paint13_linear" x1="2.057" y1="45.772" x2="34.9753" y2="45.772" gradientUnits="userSpaceOnUse">
<stop stop-color="#E22222"/>
<stop offset="1" stop-color="#A2549E"/>
</linearGradient>
<linearGradient id="paint14_linear" x1="2.057" y1="45.772" x2="34.9753" y2="45.772" gradientUnits="userSpaceOnUse">
<stop stop-color="#E22222"/>
<stop offset="1" stop-color="#A2549E"/>
</linearGradient>
<linearGradient id="paint15_linear" x1="2.057" y1="45.772" x2="34.9753" y2="45.772" gradientUnits="userSpaceOnUse">
<stop stop-color="#E22222"/>
<stop offset="1" stop-color="#A2549E"/>
</linearGradient>
<linearGradient id="paint16_linear" x1="2.057" y1="45.772" x2="34.9753" y2="45.772" gradientUnits="userSpaceOnUse">
<stop stop-color="#E22222"/>
<stop offset="1" stop-color="#A2549E"/>
</linearGradient>
<linearGradient id="paint17_linear" x1="2.057" y1="45.772" x2="34.9753" y2="45.772" gradientUnits="userSpaceOnUse">
<stop stop-color="#E22222"/>
<stop offset="1" stop-color="#A2549E"/>
</linearGradient>
<linearGradient id="paint18_linear" x1="2.057" y1="45.772" x2="34.9753" y2="45.772" gradientUnits="userSpaceOnUse">
<stop stop-color="#E22222"/>
<stop offset="1" stop-color="#A2549E"/>
</linearGradient>
<linearGradient id="paint19_linear" x1="2.057" y1="45.772" x2="34.9753" y2="45.772" gradientUnits="userSpaceOnUse">
<stop stop-color="#E22222"/>
<stop offset="1" stop-color="#A2549E"/>
</linearGradient>
<linearGradient id="paint20_linear" x1="2.05697" y1="43.4742" x2="55.9232" y2="48.0699" gradientUnits="userSpaceOnUse">
<stop stop-color="#E22222"/>
<stop offset="0.619792" stop-color="#A2549E"/>
<stop offset="1" stop-color="#153FD3"/>
</linearGradient>
<linearGradient id="paint21_linear" x1="2.05697" y1="43.4742" x2="55.9232" y2="48.0699" gradientUnits="userSpaceOnUse">
<stop stop-color="#E22222"/>
<stop offset="0.619792" stop-color="#A2549E"/>
<stop offset="1" stop-color="#153FD3"/>
</linearGradient>
<linearGradient id="paint22_linear" x1="2.05697" y1="43.4742" x2="55.9232" y2="48.0699" gradientUnits="userSpaceOnUse">
<stop stop-color="#E22222"/>
<stop offset="0.619792" stop-color="#A2549E"/>
<stop offset="1" stop-color="#153FD3"/>
</linearGradient>
<linearGradient id="paint23_linear" x1="2.05697" y1="43.4742" x2="55.9232" y2="48.0699" gradientUnits="userSpaceOnUse">
<stop stop-color="#E22222"/>
<stop offset="0.619792" stop-color="#A2549E"/>
<stop offset="1" stop-color="#153FD3"/>
</linearGradient>
<linearGradient id="paint24_linear" x1="2.05697" y1="43.4742" x2="55.9232" y2="48.0699" gradientUnits="userSpaceOnUse">
<stop stop-color="#E22222"/>
<stop offset="0.619792" stop-color="#A2549E"/>
<stop offset="1" stop-color="#153FD3"/>
</linearGradient>
<linearGradient id="paint25_linear" x1="2.05697" y1="43.4742" x2="55.9232" y2="48.0699" gradientUnits="userSpaceOnUse">
<stop stop-color="#E22222"/>
<stop offset="0.619792" stop-color="#A2549E"/>
<stop offset="1" stop-color="#153FD3"/>
</linearGradient>
<linearGradient id="paint26_linear" x1="2.05697" y1="43.4742" x2="55.9232" y2="48.0699" gradientUnits="userSpaceOnUse">
<stop stop-color="#E22222"/>
<stop offset="0.619792" stop-color="#A2549E"/>
<stop offset="1" stop-color="#153FD3"/>
</linearGradient>
<linearGradient id="paint27_linear" x1="2.05697" y1="43.4742" x2="55.9232" y2="48.0699" gradientUnits="userSpaceOnUse">
<stop stop-color="#E22222"/>
<stop offset="0.619792" stop-color="#A2549E"/>
<stop offset="1" stop-color="#153FD3"/>
</linearGradient>
<linearGradient id="paint28_linear" x1="2.05697" y1="43.4742" x2="55.9232" y2="48.0699" gradientUnits="userSpaceOnUse">
<stop stop-color="#E22222"/>
<stop offset="0.619792" stop-color="#A2549E"/>
<stop offset="1" stop-color="#153FD3"/>
</linearGradient>
<linearGradient id="paint29_linear" x1="2.05697" y1="43.4742" x2="55.9232" y2="48.0699" gradientUnits="userSpaceOnUse">
<stop stop-color="#E22222"/>
<stop offset="0.619792" stop-color="#A2549E"/>
<stop offset="1" stop-color="#153FD3"/>
</linearGradient>
<linearGradient id="paint30_linear" x1="2.05697" y1="43.4742" x2="55.9232" y2="48.0699" gradientUnits="userSpaceOnUse">
<stop stop-color="#E22222"/>
<stop offset="0.619792" stop-color="#A2549E"/>
<stop offset="1" stop-color="#153FD3"/>
</linearGradient>
<linearGradient id="paint31_linear" x1="2.05697" y1="43.4742" x2="55.9232" y2="48.0699" gradientUnits="userSpaceOnUse">
<stop stop-color="#E22222"/>
<stop offset="0.619792" stop-color="#A2549E"/>
<stop offset="1" stop-color="#153FD3"/>
</linearGradient>
<linearGradient id="paint32_linear" x1="2.05697" y1="43.4742" x2="55.9232" y2="48.0699" gradientUnits="userSpaceOnUse">
<stop stop-color="#E22222"/>
<stop offset="0.619792" stop-color="#A2549E"/>
<stop offset="1" stop-color="#153FD3"/>
</linearGradient>
</defs>
</svg>
