<svg width="36" height="28" viewBox="0 0 36 28" fill="none" xmlns="http://www.w3.org/2000/svg">
<path d="M25.7214 13.3881L26.64 13.4725C29.0667 13.7971 30.76 14.7575 31.72 16.3536C32.291 17.2773 33.6301 20.8389 33.4247 20.9331C33.2193 21.0273 32.7778 20.2425 30.7778 20.2425C28.7778 20.2425 27.6063 21.8353 27.3826 21.9401C27.2391 21.9401 27.1338 20.2069 26.4 18.6667C25.6267 17.0435 24.7067 16.0966 23.64 15.8261C23.2933 15.7179 22.9067 15.6638 22.48 15.6638H20.64C20.8533 16.6647 20.96 27.2155 20.96 28H15.12C15.12 27.2155 15.2267 16.6647 15.44 15.6638H13.48C12.0133 15.6638 10.92 16.313 10.2 17.6116C9.48 18.8831 8.42667 21.6696 7.04 25.971C6.77333 26.8367 6.56 27.513 6.4 28H0C1.6 22.7246 2.69333 19.4647 3.28 18.2203C4.21333 16.1372 5.42667 14.771 6.92 14.1217C7.58667 13.8242 8.4 13.6077 9.36 13.4725L10.2815 13.3692C9.61486 13.288 8.08 13.0802 7.52 12.8638C6.98667 12.6473 6.52 12.4174 6.12 12.1739C5.72 11.9304 5.33333 11.5382 4.96 10.9971C4.58667 10.456 4.26667 9.98261 4 9.57681C3.76 9.14396 3.46667 8.46763 3.12 7.54783C2.8 6.60097 2.53333 5.81643 2.32 5.1942C2.13333 4.54493 1.84 3.55749 1.44 2.23188C1.14667 1.25797 0.92 0.514011 0.76 0H6.96C8.4 4.59903 9.38667 7.42609 9.92 8.48116C11.0133 10.2126 12.2 11.1324 13.48 11.2406H15.44C15.2267 10.0773 15.12 1.05507 15.12 0H20.96C20.96 1.05507 20.8533 10.0773 20.64 11.2406H22.44C23.8533 11.2406 24.92 10.5778 25.64 9.25217C26.36 7.92657 27.3467 5.30242 28.6 1.37971C28.7867 0.784542 28.9333 0.324638 29.04 0H35.24C33.7733 4.76135 32.8267 7.62899 32.4 8.6029C31.4933 10.686 30.32 12.0522 28.88 12.7014C28.24 12.999 26.5747 13.2799 25.7214 13.3881Z" fill="#2D2D2D"/>
<circle cx="31" cy="25" r="3" fill="#D79B00"/>
</svg>
