<svg width="37" height="30" viewBox="0 0 37 30" fill="none" xmlns="http://www.w3.org/2000/svg">
<path d="M27.006 14.3444L27.9705 14.4348C30.5184 14.7826 32.2963 15.8116 33.3042 17.5217C33.9037 18.5114 35.3097 22.3274 35.094 22.4284C34.8783 22.5293 34.4148 21.6883 32.315 21.6883C30.2151 21.6883 28.9851 23.395 28.7502 23.5072C28.5995 23.5072 28.4889 21.6502 27.7185 20C26.9065 18.2609 25.9406 17.2464 24.8207 16.9565C24.4567 16.8406 24.0507 16.7826 23.6027 16.7826H21.6708C21.8948 17.8551 22.0068 29.1594 22.0068 30H15.8751C15.8751 29.1594 15.9871 17.8551 16.2111 16.7826H14.1532C12.6133 16.7826 11.4654 17.4783 10.7094 18.8696C9.95346 20.2319 8.84752 23.2174 7.3916 27.8261C7.11162 28.7536 6.88763 29.4783 6.71964 30H0C1.67991 24.3478 2.82785 20.8551 3.44381 19.5217C4.42376 17.2899 5.69769 15.8261 7.26561 15.1304C7.96557 14.8116 8.81952 14.5797 9.82747 14.4348L10.795 14.3241C10.0951 14.2371 8.48354 14.0145 7.89557 13.7826C7.3356 13.5507 6.84563 13.3043 6.42565 13.0435C6.00568 12.7826 5.5997 12.3623 5.20772 11.7826C4.81574 11.2029 4.47976 10.6957 4.19977 10.2609C3.94779 9.7971 3.6398 9.07246 3.27582 8.08696C2.93984 7.07246 2.65986 6.23188 2.43587 5.56522C2.23988 4.86957 1.9319 3.81159 1.51192 2.3913C1.20394 1.34783 0.965948 0.550726 0.797957 0H7.30761C8.81952 4.92754 9.85547 7.95652 10.4154 9.08696C11.5634 10.942 12.8093 11.9275 14.1532 12.0435H16.2111C15.9871 10.7971 15.8751 1.13043 15.8751 0H22.0068C22.0068 1.13043 21.8948 10.7971 21.6708 12.0435H23.5607C25.0446 12.0435 26.1646 11.3333 26.9205 9.91304C27.6765 8.49275 28.7125 5.68116 30.0284 1.47826C30.2244 0.840581 30.3784 0.347827 30.4904 0H37C35.4601 5.10145 34.4661 8.17391 34.0182 9.21739C33.0662 11.4493 31.8343 12.913 30.3224 13.6087C29.6504 13.9275 27.9019 14.2285 27.006 14.3444Z" fill="#2D2D2D"/>
<ellipse cx="32.5483" cy="26.7856" rx="3.14983" ry="3.21429" fill="#D79B00"/>
</svg>
